<svg width="280" height="140" viewBox="0 0 280 140" fill="none" xmlns="http://www.w3.org/2000/svg">
<path d="M215.324 95.2227H249.766" stroke="black" stroke-width="0.456789" stroke-miterlimit="10"/>
<path d="M257.993 91.6041H224.324C224.609 90.0048 225.448 88.5562 226.694 87.5136C227.939 86.4702 229.512 85.8986 231.136 85.8986C231.225 85.8986 231.314 85.8986 231.401 85.8986C232.36 84.1948 233.801 82.8104 235.542 81.9184C237.282 81.0265 239.247 80.6668 241.191 80.8838C243.135 81.1009 244.973 81.8853 246.474 83.139C247.975 84.3932 249.074 86.0609 249.634 87.9352C250.346 87.2797 251.234 86.8457 252.188 86.6859C253.143 86.5262 254.124 86.6481 255.01 87.0368C255.897 87.4255 256.651 88.0637 257.181 88.8741C257.71 89.6844 257.993 90.6315 257.993 91.5991V91.6041Z" stroke="black" stroke-width="0.456789" stroke-linecap="round" stroke-linejoin="round"/>
<path d="M230 17H63V132H230V17Z" fill="#6A45E3"/>
<path d="M154.113 7.41211H123.35C122.743 7.41211 122.16 7.64819 121.73 8.06832C121.3 8.48846 121.059 9.05818 121.059 9.65236V23.0592H156.47V9.14498C156.47 8.18731 155.415 7.41211 154.113 7.41211Z" fill="white" stroke="black" stroke-width="0.458798" stroke-linecap="round" stroke-linejoin="round"/>
<path d="M189.523 7.41211H158.761C158.153 7.41211 157.57 7.64819 157.14 8.06832C156.71 8.48846 156.469 9.05818 156.469 9.65236V23.0592H191.881V9.14498C191.881 8.18731 190.826 7.41211 189.523 7.41211Z" fill="white" stroke="black" stroke-width="0.458798" stroke-linecap="round" stroke-linejoin="round"/>
<path d="M224.552 7.41211H194.148C193.547 7.41211 192.971 7.64819 192.547 8.06832C192.122 8.48846 191.883 9.05818 191.883 9.65236V23.0592H226.883V9.14498C226.883 8.18731 225.84 7.41211 224.552 7.41211Z" fill="white" stroke="black" stroke-width="0.458798" stroke-linecap="round" stroke-linejoin="round"/>
<path d="M59.5505 58.2302H20.1797C20.5117 56.36 21.4916 54.6664 22.9473 53.4462C24.4031 52.2261 26.2419 51.5573 28.1413 51.5572H28.457C29.5785 49.5639 31.2621 47.9448 33.2977 46.9021C35.3334 45.8593 37.631 45.4389 39.904 45.6935C42.177 45.9479 44.3247 46.8662 46.0792 48.3334C47.8338 49.8006 49.1175 51.7518 49.7703 53.9439C50.603 53.176 51.6414 52.6673 52.7584 52.48C53.8755 52.2928 55.023 52.4351 56.0605 52.8896C57.098 53.344 57.9806 54.0911 58.6005 55.0391C59.2202 55.9872 59.5503 57.0953 59.5505 58.228V58.2302Z" fill="#C3C4FD"/>
<path d="M48.7028 61.2911H9.33203C9.66383 59.4207 10.6435 57.7268 12.0993 56.5064C13.5551 55.2861 15.394 54.6172 17.2937 54.617H17.6093C18.7315 52.6254 20.4149 51.0081 22.4499 49.9666C24.4847 48.9251 26.7811 48.5054 29.0529 48.7599C31.3246 49.0144 33.4713 49.9317 35.2254 51.3977C36.9794 52.8635 38.2633 54.8132 38.9171 57.0037C39.7498 56.2362 40.7881 55.728 41.9051 55.5411C43.022 55.3541 44.1692 55.4966 45.2065 55.951C46.2439 56.4054 47.1263 57.1521 47.7463 58.0998C48.3662 59.0475 48.6966 60.1552 48.6971 61.2878L48.7028 61.2911Z" stroke="black" stroke-width="0.456789" stroke-linecap="round" stroke-linejoin="round"/>
<path d="M262.254 108.984H264.768" stroke="black" stroke-width="0.456789" stroke-linecap="round" stroke-linejoin="round"/>
<path d="M263.516 110.235V107.72" stroke="black" stroke-width="0.456789" stroke-linecap="round" stroke-linejoin="round"/>
<path d="M39.7496 82.0592C39.9631 82.0594 40.1719 81.9963 40.3495 81.8778C40.527 81.7594 40.6654 81.5911 40.7473 81.394C40.8291 81.1969 40.8506 80.9799 40.8091 80.7705C40.7676 80.5612 40.665 80.3688 40.5142 80.2178C40.3633 80.0668 40.171 79.9639 39.9617 79.9222C39.7523 79.8804 39.5354 79.9018 39.3382 79.9834C39.141 80.0651 38.9724 80.2033 38.8538 80.3807C38.7352 80.5582 38.6719 80.7668 38.6719 80.9803C38.6719 81.2662 38.7854 81.5404 38.9875 81.7428C39.1896 81.945 39.4637 82.0589 39.7496 82.0592Z" stroke="black" stroke-width="0.456789" stroke-linecap="round" stroke-linejoin="round"/>
<path d="M27.7617 72.0977H30.2758" stroke="black" stroke-width="0.456789" stroke-linecap="round" stroke-linejoin="round"/>
<path d="M29.0273 73.3504V70.834" stroke="black" stroke-width="0.456789" stroke-linecap="round" stroke-linejoin="round"/>
<path d="M231.57 91.6045H266.013" stroke="black" stroke-width="0.456789" stroke-miterlimit="10"/>
<path d="M258.92 59.334H234.18C234.389 58.1586 235.005 57.0942 235.92 56.3275C236.835 55.5609 237.991 55.141 239.184 55.1414C239.25 55.1414 239.315 55.1414 239.379 55.1414C240.086 53.8905 241.144 52.8748 242.423 52.2207C243.702 51.5666 245.146 51.3028 246.573 51.4623C248.001 51.6216 249.35 52.1973 250.453 53.1173C251.557 54.0374 252.366 55.2614 252.778 56.6373C253.302 56.1556 253.954 55.8366 254.656 55.7195C255.358 55.6023 256.078 55.692 256.73 55.9777C257.381 56.2634 257.935 56.7325 258.324 57.328C258.713 57.9234 258.92 58.6193 258.92 59.3307V59.334Z" fill="#C3C4FD" stroke="#C3C4FD" stroke-width="0.114197" stroke-miterlimit="10"/>
<path d="M25.3763 116.639H11.082C11.2031 115.959 11.5591 115.345 12.0878 114.902C12.6165 114.459 13.2842 114.217 13.9739 114.217C14.0122 114.217 14.0494 114.217 14.0866 114.217C14.494 113.493 15.1053 112.906 15.8443 112.527C16.5834 112.148 17.4174 111.995 18.2427 112.088C19.0679 112.179 19.8478 112.513 20.4853 113.045C21.1227 113.577 21.5894 114.285 21.8273 115.08C22.1297 114.802 22.5065 114.618 22.9119 114.55C23.3172 114.483 23.7333 114.534 24.1097 114.699C24.4861 114.865 24.8063 115.136 25.0312 115.479C25.2561 115.823 25.376 116.225 25.3763 116.636V116.639Z" fill="#C3C4FD" stroke="#C3C4FD" stroke-width="0.114197" stroke-miterlimit="10"/>
<path d="M46.9662 106.424H23.1523C23.3536 105.292 23.9466 104.268 24.8275 103.53C25.7082 102.792 26.8207 102.389 27.9696 102.389C28.0327 102.389 28.0959 102.389 28.1579 102.389C28.8368 101.183 29.8554 100.205 31.0867 99.5739C32.318 98.9431 33.7075 98.6886 35.0823 98.8426C36.4571 98.9958 37.7565 99.55 38.8183 100.437C39.8803 101.324 40.6578 102.503 41.0542 103.828C41.5579 103.365 42.1858 103.057 42.8612 102.945C43.5367 102.832 44.2303 102.918 44.8575 103.193C45.4846 103.468 46.0181 103.92 46.3926 104.493C46.767 105.067 46.9663 105.736 46.9662 106.422V106.424Z" fill="#C3C4FD"/>
<path d="M54.3984 22.8235V8H85.6926V22.8235" fill="#C3C4FD"/>
<path d="M54.3984 22.8235V8H85.6926V22.8235" stroke="black" stroke-width="0.456789" stroke-linecap="round" stroke-linejoin="round"/>
<path d="M63.425 17.8478C63.7065 17.8475 63.9817 17.764 64.2157 17.6073C64.4498 17.4508 64.6321 17.2282 64.7396 16.968C64.8473 16.7078 64.8754 16.4216 64.8203 16.1455C64.7652 15.8693 64.6294 15.6156 64.4303 15.4166C64.2311 15.2176 63.9774 15.0822 63.7012 15.0273C63.425 14.9724 63.1388 15.0007 62.8787 15.1085C62.6186 15.2163 62.3962 15.3989 62.2398 15.633C62.0833 15.8671 62 16.1423 62 16.4239C62 16.611 62.0368 16.7963 62.1085 16.9691C62.1801 17.1419 62.285 17.2989 62.4174 17.4312C62.5497 17.5634 62.7068 17.6683 62.8797 17.7397C63.0526 17.8113 63.2379 17.848 63.425 17.8478Z" stroke="black" stroke-width="0.456789" stroke-linecap="round" stroke-linejoin="round"/>
<path d="M69.0316 17.8478C69.3131 17.8474 69.5882 17.7635 69.8221 17.6068C70.056 17.4501 70.238 17.2275 70.3455 16.9673C70.4529 16.707 70.4808 16.4208 70.4256 16.1447C70.3705 15.8687 70.2347 15.6152 70.0355 15.4163C69.8362 15.2174 69.5824 15.082 69.3063 15.0272C69.0301 14.9724 68.744 15.0008 68.4839 15.1086C68.2239 15.2164 68.0017 15.399 67.8453 15.6331C67.6889 15.8672 67.6055 16.1424 67.6055 16.4239C67.6056 16.6111 67.6426 16.7963 67.7144 16.9691C67.7862 17.1419 67.8912 17.299 68.0237 17.4312C68.1561 17.5634 68.3132 17.6683 68.4861 17.7398C68.6591 17.8113 68.8445 17.848 69.0316 17.8478Z" stroke="black" stroke-width="0.456789" stroke-linecap="round" stroke-linejoin="round"/>
<path d="M74.6331 17.8478C74.9147 17.8474 75.1898 17.7635 75.4236 17.6068C75.6575 17.4501 75.8396 17.2275 75.9471 16.9673C76.0545 16.707 76.0824 16.4208 76.0272 16.1447C75.972 15.8687 75.8362 15.6152 75.637 15.4163C75.4378 15.2174 75.184 15.082 74.9079 15.0272C74.6317 14.9724 74.3456 15.0008 74.0855 15.1086C73.8255 15.2164 73.6032 15.399 73.4468 15.6331C73.2905 15.8672 73.207 16.1424 73.207 16.4239C73.207 16.6111 73.2439 16.7965 73.3157 16.9693C73.3873 17.1423 73.4924 17.2993 73.6249 17.4315C73.7573 17.5638 73.9146 17.6687 74.0876 17.7402C74.2607 17.8116 74.4459 17.8481 74.6331 17.8478Z" stroke="black" stroke-width="0.456789" stroke-linecap="round" stroke-linejoin="round"/>
<path d="M226.913 22.7587H120.93V9.25482C120.93 8.65678 120.692 8.08333 120.269 7.66047C119.846 7.23762 119.273 7 118.675 7H87.7035C87.1056 7 86.5324 7.23762 86.1091 7.66047C85.6866 8.08333 85.4486 8.65678 85.4486 9.25482V22.7587H54.3555V127.208H225.867L226.913 22.7587Z" fill="white" stroke="black" stroke-width="0.456789" stroke-linecap="round" stroke-linejoin="round"/>
<path d="M216.742 29.7637H89.0206C88.6055 29.7637 88.2695 30.0998 88.2695 30.5146V37.3048C88.2695 37.7195 88.6055 38.0557 89.0206 38.0557H216.742C217.157 38.0557 217.493 37.7195 217.493 37.3048V30.5146C217.493 30.0998 217.157 29.7637 216.742 29.7637Z" fill="white" stroke="black" stroke-width="0.456789" stroke-linecap="round" stroke-linejoin="round"/>
<path d="M68.1948 31.9316H63.7416C63.1314 31.9316 62.6367 32.4263 62.6367 33.0365V37.4896C62.6367 38.0999 63.1314 38.5945 63.7416 38.5945H68.1948C68.805 38.5945 69.2996 38.0999 69.2996 37.4896V33.0365C69.2996 32.4263 68.805 31.9316 68.1948 31.9316Z" fill="#C3C4FD"/>
<path d="M81.2494 31.9316H76.7963C76.186 31.9316 75.6914 32.4263 75.6914 33.0365V37.4896C75.6914 38.0999 76.186 38.5945 76.7963 38.5945H81.2494C81.8596 38.5945 82.3543 38.0999 82.3543 37.4896V33.0365C82.3543 32.4263 81.8596 31.9316 81.2494 31.9316Z" fill="#C3C4FD"/>
<path d="M66.9565 30.5781H62.5033C61.8931 30.5781 61.3984 31.0727 61.3984 31.683V36.1361C61.3984 36.7464 61.8931 37.241 62.5033 37.241H66.9565C67.5667 37.241 68.0614 36.7464 68.0614 36.1361V31.683C68.0614 31.0727 67.5667 30.5781 66.9565 30.5781Z" stroke="black" stroke-width="0.456789" stroke-linecap="round" stroke-linejoin="round"/>
<path d="M80.0072 30.5781H75.5541C74.9438 30.5781 74.4492 31.0727 74.4492 31.683V36.1361C74.4492 36.7464 74.9438 37.241 75.5541 37.241H80.0072C80.6175 37.241 81.1121 36.7464 81.1121 36.1361V31.683C81.1121 31.0727 80.6175 30.5781 80.0072 30.5781Z" stroke="black" stroke-width="0.456789" stroke-linecap="round" stroke-linejoin="round"/>
<path d="M216.555 44.1465H61.9419C61.4238 44.1465 61.0039 44.5664 61.0039 45.0845V119.234C61.0039 119.752 61.4238 120.172 61.9419 120.172H216.555C217.073 120.172 217.493 119.752 217.493 119.234V45.0845C217.493 44.5664 217.073 44.1465 216.555 44.1465Z" fill="white" stroke="black" stroke-width="0.456789" stroke-linecap="round" stroke-linejoin="round"/>
<path d="M92.6305 35.0358C93.4969 35.0358 94.1985 34.3337 94.1985 33.4676C94.1985 32.6015 93.4969 31.8994 92.6305 31.8994C91.765 31.8994 91.0625 32.6015 91.0625 33.4676C91.0625 34.3337 91.765 35.0358 92.6305 35.0358Z" fill="white" stroke="black" stroke-width="0.456789" stroke-miterlimit="10"/>
<path d="M93.6875 34.624L94.9829 35.9194" stroke="black" stroke-width="0.456789" stroke-miterlimit="10" stroke-linecap="round"/>
<path d="M35.5205 23.7056L26.7258 28.7949L23.7148 24.2742L34.215 18.3799L35.5205 23.7056Z" fill="#A77FFA"/>
<path d="M35.4539 26.0215L29.0901 29.671C28.6916 29.8721 28.2294 29.9069 27.8053 29.7676C27.3812 29.6282 27.0297 29.3262 26.8281 28.9279" stroke="black" stroke-width="0.456789" stroke-linecap="round" stroke-linejoin="round"/>
<path d="M20.9883 23.5036L22.5794 22.706L26.7275 28.7948L35.5223 23.7055L34.2167 18.3799L23.7166 24.2742" stroke="black" stroke-width="0.456789" stroke-linecap="round" stroke-linejoin="round"/>
<path d="M36.8177 28.5579C37.5069 28.1601 37.743 27.2789 37.3451 26.5898C36.9472 25.9007 36.066 25.6646 35.3769 26.0624C34.6878 26.4602 34.4517 27.3414 34.8495 28.0306C35.2474 28.7197 36.1286 28.9558 36.8177 28.5579Z" fill="#A77FFA" stroke="black" stroke-width="0.456789" stroke-linecap="round" stroke-linejoin="round"/>
<path d="M30.7864 32.0414C31.4755 31.6435 31.7116 30.7624 31.3138 30.0732C30.916 29.3841 30.0348 29.1479 29.3456 29.5458C28.6565 29.9437 28.4204 30.8249 28.8183 31.514C29.2161 32.2031 30.0973 32.4392 30.7864 32.0414Z" fill="#A77FFA" stroke="black" stroke-width="0.456789" stroke-linecap="round" stroke-linejoin="round"/>
<path d="M31.5435 22.561C31.2982 23.1628 30.8392 23.6525 30.2547 23.9365C30.1588 23.9829 30.0602 24.0238 29.9595 24.0587C29.3509 24.2649 28.6883 24.2429 28.0947 23.997C27.5011 23.7512 27.017 23.298 26.7326 22.7219C26.685 22.6257 26.6432 22.5269 26.6071 22.426C26.4022 21.817 26.4255 21.1543 26.6726 20.5612C26.9197 19.9681 27.3739 19.4849 27.9506 19.2016C28.0455 19.1532 28.1435 19.1113 28.2441 19.0764C28.8528 18.8705 29.5158 18.8925 30.1094 19.1386C30.703 19.3847 31.1871 19.8379 31.4716 20.4141C31.5188 20.5102 31.5598 20.6091 31.5945 20.7103C31.8006 21.3133 31.7825 21.9704 31.5435 22.561Z" fill="white" stroke="black" stroke-width="0.456789" stroke-miterlimit="10"/>
<path d="M29.864 20.5764C29.8838 20.6305 29.884 20.6899 29.8644 20.7441L29.3341 22.2923C29.3218 22.3292 29.3012 22.3628 29.2737 22.3904C29.2462 22.418 29.2127 22.4388 29.1759 22.4514C29.1222 22.4703 29.0637 22.47 29.0102 22.4506L28.2362 22.1854C28.1995 22.1719 28.166 22.1507 28.1384 22.123C28.1107 22.0954 28.0895 22.062 28.076 22.0254C28.0577 21.9716 28.058 21.9133 28.0767 21.8597C28.0874 21.828 28.1043 21.7986 28.1264 21.7735C28.1485 21.7483 28.1754 21.7278 28.2054 21.713C28.2354 21.6982 28.268 21.6895 28.3014 21.6873C28.3348 21.6852 28.3683 21.6896 28.4 21.7004L28.9327 21.8835L29.3806 20.5757C29.3976 20.5252 29.43 20.4812 29.4733 20.4501C29.5166 20.419 29.5686 20.4023 29.6219 20.4023C29.6752 20.4023 29.7272 20.419 29.7705 20.45C29.8138 20.4811 29.8463 20.525 29.8634 20.5755L29.864 20.5764Z" fill="#6A45E3"/>
<path d="M264.789 32.9473L254.998 28.0987C254.477 27.841 253.846 28.054 253.588 28.5745L250.821 34.1657C250.563 34.6861 250.775 35.3169 251.296 35.5747L261.087 40.4233C261.608 40.681 262.239 40.468 262.497 39.9476L265.265 34.3564C265.523 33.8359 265.31 33.205 264.789 32.9473Z" fill="#C3C4FD" stroke="black" stroke-width="0.322439" stroke-linecap="round" stroke-linejoin="round"/>
<path fill-rule="evenodd" clip-rule="evenodd" d="M257.887 29.3278L258.5 28.089C258.592 27.9029 258.755 27.7609 258.952 27.6945C259.148 27.628 259.363 27.6425 259.549 27.7347L262.32 29.1066C262.506 29.1987 262.648 29.361 262.714 29.5579C262.781 29.7547 262.766 29.9698 262.674 30.156L262.06 31.3947" fill="white"/>
<path d="M257.887 29.3278L258.5 28.089C258.592 27.9029 258.755 27.7609 258.952 27.6945C259.148 27.628 259.363 27.6425 259.549 27.7347L262.32 29.1066C262.506 29.1987 262.648 29.361 262.714 29.5579C262.781 29.7547 262.766 29.9698 262.674 30.156L262.06 31.3947" stroke="black" stroke-width="0.322439" stroke-linecap="round" stroke-linejoin="round"/>
<path d="M256.875 29.2783L253.371 36.3553" stroke="black" stroke-width="0.322439" stroke-linecap="round" stroke-linejoin="round"/>
<path d="M262.712 32.1689L259.207 39.2459" stroke="black" stroke-width="0.322439" stroke-linecap="round" stroke-linejoin="round"/>
<path fill-rule="evenodd" clip-rule="evenodd" d="M258.384 122.419C257.998 121.068 257.097 119.924 255.875 119.232C254.653 118.54 253.207 118.356 251.851 118.719C250.495 119.083 249.335 119.965 248.623 121.175C247.91 122.385 247.702 123.827 248.043 125.189L258.384 122.419Z" fill="#6A45E3" stroke="black" stroke-width="0.322439" stroke-linecap="round" stroke-linejoin="round"/>
<path d="M251.456 117.262C253.208 116.792 254.249 114.991 253.779 113.238C253.31 111.486 251.508 110.446 249.755 110.916C248.003 111.385 246.964 113.186 247.433 114.939C247.902 116.691 249.704 117.731 251.456 117.262Z" fill="#6A45E3" stroke="black" stroke-width="0.322439" stroke-linecap="round" stroke-linejoin="round"/>
<path d="M108.705 15.6476C108.705 16.7878 108.367 17.9023 107.733 18.8503C107.1 19.7983 106.2 20.5371 105.147 20.9734C104.093 21.4098 102.934 21.5239 101.816 21.3015C100.698 21.079 99.6703 20.5301 98.864 19.7238C98.0578 18.9177 97.5093 17.8905 97.287 16.7722C97.0638 15.654 97.1783 14.4949 97.6147 13.4415C98.0512 12.3882 98.7899 11.4878 99.7378 10.8543C100.686 10.221 101.801 9.88281 102.941 9.88281C104.47 9.88281 105.936 10.4902 107.017 11.5714C108.098 12.6524 108.705 14.1187 108.705 15.6476Z" fill="black"/>
<path d="M104.405 14.805L104.334 14.585L104.261 14.805H104.027L104.215 14.9446L104.143 15.1647L104.334 15.0287L104.521 15.1647L104.449 14.9446L104.64 14.805H104.405Z" fill="white"/>
<path d="M103.092 14.805L103.02 14.585L102.949 14.805H102.715L102.905 14.9446L102.831 15.1647L103.02 15.0287L103.208 15.1647L103.137 14.9446L103.327 14.805H103.092Z" fill="white"/>
<path d="M101.776 14.805L101.705 14.585L101.632 14.805H101.398L101.586 14.9446L101.514 15.1647L101.705 15.0287L101.893 15.1647L101.821 14.9446L102.011 14.805H101.776Z" fill="white"/>
<path d="M100.461 14.805L100.389 14.585L100.317 14.805H100.082L100.273 14.9446L100.198 15.1647L100.389 15.0287L100.577 15.1647L100.505 14.9446L100.696 14.805H100.461Z" fill="white"/>
<path d="M98.8817 15.1647L99.0712 15.0287L99.2597 15.1647L99.1873 14.9446L99.3775 14.805H99.1436L99.0712 14.585L99.0003 14.805H98.7656L98.955 14.9446L98.8817 15.1647Z" fill="white"/>
<path d="M104.267 13.6839H104.035L104.223 13.8212L104.151 14.0436L104.342 13.9076L104.53 14.0436L104.458 13.8212L104.645 13.6839H104.414L104.342 13.4639L104.267 13.6839Z" fill="white"/>
<path d="M102.951 13.6839H102.719L102.906 13.8212L102.835 14.0436L103.024 13.9076L103.212 14.0436L103.141 13.8212L103.328 13.6839H103.096L103.024 13.4639L102.951 13.6839Z" fill="white"/>
<path d="M101.635 13.6839H101.402L101.591 13.8212L101.518 14.0436L101.706 13.9076L101.897 14.0436L101.825 13.8212L102.013 13.6839H101.781L101.706 13.4639L101.635 13.6839Z" fill="white"/>
<path d="M100.09 13.6839L100.278 13.8212L100.206 14.0436L100.396 13.9076L100.585 14.0436L100.512 13.8212L100.7 13.6839H100.469L100.396 13.4639L100.322 13.6839H100.09Z" fill="white"/>
<path d="M98.7734 13.6839L98.9604 13.8212L98.8896 14.0436L99.079 13.9076L99.2667 14.0436L99.1943 13.8212L99.3828 13.6839H99.1506L99.079 13.4639L99.0057 13.6839H98.7734Z" fill="white"/>
<path d="M105.064 15.3689L104.991 15.1465L104.92 15.3689H104.688L104.876 15.5062L104.804 15.7286L104.991 15.5891L105.182 15.7286L105.11 15.5062L105.298 15.3689H105.064Z" fill="white"/>
<path d="M103.753 15.3689L103.678 15.1465L103.607 15.3689H103.375L103.562 15.5062L103.491 15.7286L103.678 15.5891L103.868 15.7286L103.797 15.5062L103.984 15.3689H103.753Z" fill="white"/>
<path d="M102.432 15.3689L102.361 15.1465L102.289 15.3689H102.055L102.245 15.5062L102.173 15.7286L102.361 15.5891L102.55 15.7286L102.48 15.5062L102.667 15.3689H102.432Z" fill="white"/>
<path d="M101.121 15.3689L101.046 15.1465L100.974 15.3689H100.742L100.931 15.5062L100.858 15.7286L101.046 15.5891L101.237 15.7286L101.165 15.5062L101.352 15.3689H101.121Z" fill="white"/>
<path d="M99.8021 15.3689L99.7297 15.1465L99.6588 15.3689H99.4258L99.6135 15.5062L99.5427 15.7286L99.7297 15.5891L99.9199 15.7286L99.8483 15.5062L100.036 15.3689H99.8021Z" fill="white"/>
<path d="M98.4913 15.3689L98.4172 15.1465L98.3455 15.3689H98.1133L98.3019 15.5062L98.2294 15.7286L98.4172 15.5891L98.6066 15.7286L98.5358 15.5062L98.7227 15.3689H98.4913Z" fill="white"/>
<path d="M105.316 14.2468H105.081L105.009 14.0244L104.937 14.2468H104.703L104.893 14.384L104.821 14.6066L105.009 14.4693L105.2 14.6066L105.127 14.384L105.316 14.2468Z" fill="white"/>
<path d="M103.886 14.6066L103.813 14.384L104.001 14.2468H103.767L103.695 14.0244L103.623 14.2468H103.391L103.578 14.384L103.507 14.6066L103.695 14.4693L103.886 14.6066Z" fill="white"/>
<path d="M102.566 14.6066L102.494 14.384L102.682 14.2468H102.448L102.376 14.0244L102.305 14.2468H102.07L102.26 14.384L102.189 14.6066L102.376 14.4693L102.566 14.6066Z" fill="white"/>
<path d="M101.252 14.6066L101.18 14.384L101.368 14.2468H101.134L101.062 14.0244L100.989 14.2468H100.758L100.946 14.384L100.874 14.6066L101.062 14.4693L101.252 14.6066Z" fill="white"/>
<path d="M99.9388 14.6066L99.8663 14.384L100.055 14.2468H99.8202L99.7486 14.0244L99.6761 14.2468H99.4414L99.6325 14.384L99.56 14.6066L99.7486 14.4693L99.9388 14.6066Z" fill="white"/>
<path d="M98.2434 14.6066L98.4311 14.4693L98.6222 14.6066L98.5497 14.384L98.7383 14.2468H98.5036L98.4311 14.0244L98.3603 14.2468H98.1289L98.3159 14.384L98.2434 14.6066Z" fill="white"/>
<path d="M105.069 13.1375L104.998 12.915L104.925 13.1375H104.691L104.882 13.2735L104.809 13.4948L104.998 13.3575L105.186 13.4948L105.113 13.2735L105.304 13.1375H105.069Z" fill="white"/>
<path d="M103.754 13.1375L103.681 12.915L103.61 13.1375H103.375L103.566 13.2735L103.491 13.4948L103.681 13.3575L103.87 13.4948L103.797 13.2735L103.989 13.1375H103.754Z" fill="white"/>
<path d="M102.177 13.4948L102.365 13.3575L102.552 13.4948L102.481 13.2735L102.67 13.1375H102.437L102.365 12.915L102.293 13.1375H102.059L102.25 13.2735L102.177 13.4948Z" fill="white"/>
<path d="M101.121 13.1375L101.049 12.915L100.977 13.1375H100.742L100.933 13.2735L100.858 13.4948L101.049 13.3575L101.237 13.4948L101.165 13.2735L101.356 13.1375H101.121Z" fill="white"/>
<path d="M99.5444 13.4948L99.7321 13.3575L99.9232 13.4948L99.8483 13.2735L100.038 13.1375H99.8046L99.7321 12.915L99.6605 13.1375H99.4258L99.616 13.2735L99.5444 13.4948Z" fill="white"/>
<path d="M98.2305 13.4954L98.4207 13.3581L98.6101 13.4954L98.5368 13.2741L98.7279 13.1381H98.4907L98.4446 12.9961C98.3911 13.0848 98.3416 13.1759 98.2947 13.2682H98.3029L98.2305 13.4954Z" fill="white"/>
<path d="M104.64 12.5779H104.405L104.334 12.3555L104.261 12.5779H104.027L104.215 12.7152L104.143 12.9376L104.334 12.798L104.521 12.9376L104.449 12.7152L104.64 12.5779Z" fill="white"/>
<path d="M103.327 12.5779H103.092L103.02 12.3555L102.949 12.5779H102.715L102.905 12.7152L102.831 12.9376L103.02 12.798L103.208 12.9376L103.137 12.7152L103.327 12.5779Z" fill="white"/>
<path d="M101.514 12.9376L101.705 12.798L101.893 12.9376L101.821 12.7152L102.011 12.5779H101.776L101.705 12.3555L101.632 12.5779H101.398L101.586 12.7152L101.514 12.9376Z" fill="white"/>
<path d="M100.198 12.9376L100.389 12.798L100.577 12.9376L100.505 12.7152L100.696 12.5779H100.461L100.389 12.3555L100.317 12.5779H100.082L100.273 12.7152L100.198 12.9376Z" fill="white"/>
<path d="M98.8817 12.9376L99.0712 12.798L99.2597 12.9376L99.1873 12.7152L99.3775 12.5779H99.1436L99.0712 12.3555L99.0003 12.5779H98.7656L98.955 12.7152L98.8817 12.9376Z" fill="white"/>
<path d="M104.859 12.15L104.787 12.3725L104.974 12.2352L105.165 12.3725L105.093 12.15L105.281 12.0127H105.049L104.974 11.7891L104.903 12.0127H104.672L104.859 12.15Z" fill="white"/>
<path d="M103.475 12.3725L103.663 12.2352L103.853 12.3725L103.782 12.15L103.969 12.0127H103.736L103.663 11.7891L103.591 12.0127H103.359L103.547 12.15L103.475 12.3725Z" fill="white"/>
<path d="M102.155 12.3725L102.344 12.2352L102.534 12.3725L102.462 12.15L102.65 12.0127H102.418L102.344 11.7891L102.271 12.0127H102.039L102.228 12.15L102.155 12.3725Z" fill="white"/>
<path d="M100.915 12.15L100.844 12.3725L101.031 12.2352L101.222 12.3725L101.149 12.15L101.338 12.0127H101.105L101.031 11.7891L100.959 12.0127H100.727L100.915 12.15Z" fill="white"/>
<path d="M99.5263 12.3725L99.7149 12.2352L99.9034 12.3725L99.8326 12.15L100.02 12.0127H99.7857L99.7149 11.7891L99.6424 12.0127H99.4102L99.5987 12.15L99.5263 12.3725Z" fill="white"/>
<path d="M104.246 11.448H104.012L104.199 11.5852L104.128 11.8077L104.317 11.6716L104.505 11.8077L104.434 11.5852L104.624 11.448H104.389L104.317 11.2256L104.246 11.448Z" fill="white"/>
<path d="M102.929 11.448H102.695L102.886 11.5852L102.811 11.8077L103.002 11.6716L103.19 11.8077L103.118 11.5852L103.308 11.448H103.074L103.002 11.2256L102.929 11.448Z" fill="white"/>
<path d="M101.383 11.448L101.571 11.5852L101.499 11.8077L101.689 11.6716L101.877 11.8077L101.805 11.5852L101.996 11.448H101.762L101.689 11.2256L101.617 11.448H101.383Z" fill="white"/>
<path d="M100.183 11.8077L100.372 11.6716L100.56 11.8077L100.489 11.5852L100.678 11.448H100.444L100.372 11.2256L100.3 11.448H100.066L100.256 11.5852L100.183 11.8077Z" fill="white"/>
<path d="M104.672 10.8847L104.86 11.0218L104.787 11.2444L104.976 11.1071L105.165 11.2444L105.094 11.0218L105.203 10.9414C105.161 10.9213 105.119 10.9036 105.076 10.8847H105.049V10.8704L104.93 10.8184L104.909 10.8847H104.672Z" fill="white"/>
<path d="M103.475 11.2443L103.663 11.1071L103.853 11.2443L103.782 11.0218L103.969 10.8845H103.736L103.663 10.6621L103.591 10.8845H103.359L103.547 11.0218L103.475 11.2443Z" fill="white"/>
<path d="M102.155 11.2443L102.344 11.1071L102.534 11.2443L102.462 11.0218L102.65 10.8845H102.418L102.344 10.6621L102.271 10.8845H102.039L102.228 11.0218L102.155 11.2443Z" fill="white"/>
<path d="M100.844 11.2439L101.032 11.1066L101.222 11.2439L101.149 11.0214L101.337 10.8842H101.101L101.064 10.7754L100.979 10.8084L100.955 10.8842H100.802L100.754 10.9067L100.91 11.0249L100.844 11.2439Z" fill="white"/>
<path d="M105.657 15.2459V11.1874C105.511 11.0986 105.359 11.0158 105.205 10.9413L105.095 11.0217L105.167 11.2442L104.977 11.107L104.789 11.2442L104.861 11.0217L104.673 10.8845H104.91L104.931 10.8182C103.698 10.3127 102.317 10.2975 101.072 10.7757L101.109 10.8845H101.346L101.158 11.0217L101.23 11.2442L101.041 11.107L100.852 11.2442L100.923 11.0217L100.767 10.9034C99.8031 11.3488 98.9968 12.0773 98.4566 12.9919L98.5027 13.1338H98.7391L98.5488 13.2698L98.6221 13.4911L98.4327 13.354L98.2425 13.4911L98.3166 13.2698H98.3084C97.9304 14.0059 97.7336 14.8218 97.7344 15.6494C97.7344 15.7843 97.7344 15.9179 97.7508 16.0504H105.668L105.657 15.2459ZM105.2 14.6057L105.009 14.4685L104.821 14.6057L104.893 14.3821L104.703 14.246H104.939L105.011 14.0236L105.084 14.246H105.321L105.132 14.3821L105.2 14.6057ZM99.0034 14.8046L99.0751 14.5845L99.1459 14.8046H99.3831L99.1937 14.9441L99.2645 15.1642L99.0776 15.0282L98.8873 15.1642L98.9614 14.9441L98.7712 14.8046H99.0034ZM99.631 14.3821L99.4407 14.246H99.6771L99.7496 14.0236L99.822 14.246H100.058L99.8706 14.3821L99.9423 14.6057L99.752 14.4685L99.5643 14.6057L99.631 14.3821ZM100.085 12.5777H100.321L100.392 12.3553L100.464 12.5777H100.701L100.51 12.715L100.583 12.9374L100.394 12.7978L100.205 12.9374L100.278 12.715L100.085 12.5777ZM101.399 12.5777H101.635L101.708 12.3553L101.78 12.5777H102.017L101.826 12.715L101.898 12.9374L101.71 12.7978L101.52 12.9374L101.592 12.715L101.399 12.5777ZM102.041 12.0121H102.279L102.35 11.7885L102.425 12.0121H102.662L102.474 12.1482L102.545 12.3718L102.355 12.2345L102.167 12.3718L102.239 12.1482L102.041 12.0121ZM103.357 12.0121H103.594L103.666 11.7885L103.739 12.0121H103.975L103.786 12.1482L103.859 12.3718L103.669 12.2345L103.48 12.3718L103.553 12.1482L103.357 12.0121ZM103.097 13.6839H103.334L103.146 13.8212L103.217 14.0437L103.03 13.9077L102.839 14.0437L102.911 13.8212L102.723 13.6839H102.96L103.035 13.464L103.097 13.6839ZM103.209 15.1642L103.021 15.0282L102.831 15.1642L102.905 14.9441L102.715 14.8046H102.951L103.024 14.5845L103.096 14.8046H103.333L103.142 14.9441L103.209 15.1642ZM101.782 13.6839H102.019L101.831 13.8212L101.903 14.0437L101.713 13.9077L101.524 14.0437L101.597 13.8212L101.408 13.6839H101.645L101.718 13.464L101.782 13.6839ZM101.894 15.1642L101.705 15.0282L101.515 15.1642L101.588 14.9441L101.399 14.8046H101.635L101.708 14.5845L101.78 14.8046H102.017L101.826 14.9441L101.894 15.1642ZM101.239 13.4947L101.052 13.3574L100.86 13.4947L100.935 13.2734L100.745 13.1374H100.982L101.053 12.9137L101.126 13.1374H101.362L101.172 13.2734L101.239 13.4947ZM102.295 13.1398L102.367 12.9162L102.439 13.1398H102.676L102.485 13.2758L102.558 13.4971L102.369 13.3598L102.181 13.4971L102.253 13.2758L102.063 13.1398H102.295ZM103.87 13.4947L103.683 13.3574L103.492 13.4947L103.566 13.2734L103.376 13.1374H103.613L103.685 12.9137L103.756 13.1374H103.993L103.804 13.2734L103.87 13.4947ZM103.209 12.9374L103.021 12.7978L102.831 12.9374L102.905 12.715L102.715 12.5777H102.951L103.024 12.3553L103.096 12.5777H103.333L103.142 12.715L103.209 12.9374ZM99.6598 13.1374L99.7306 12.9137L99.8031 13.1374H100.039L99.8492 13.2734L99.9233 13.4947L99.7331 13.3574L99.5461 13.4947L99.617 13.2734L99.4276 13.1374H99.6598ZM100.389 13.464L100.462 13.6839H100.698L100.51 13.8212L100.583 14.0437L100.394 13.9077L100.204 14.0437L100.277 13.8212L100.088 13.6839H100.324L100.389 13.464ZM100.573 15.1642L100.385 15.0282L100.196 15.1642L100.269 14.9441L100.08 14.8046H100.316L100.388 14.5845L100.459 14.8046H100.697L100.506 14.9441L100.573 15.1642ZM100.942 14.3821L100.754 14.246H100.991L101.063 14.0236L101.136 14.246H101.372L101.184 14.3821L101.256 14.6057L101.066 14.4685L100.877 14.6057L100.942 14.3821ZM102.258 14.3821L102.068 14.246H102.304L102.377 14.0236L102.447 14.246H102.684L102.497 14.3821L102.568 14.6057L102.379 14.4685L102.19 14.6057L102.258 14.3821ZM103.572 14.3821L103.385 14.246H103.621L103.693 14.0236L103.764 14.246H104.001L103.813 14.3821L103.885 14.6057L103.694 14.4685L103.507 14.6057L103.572 14.3821ZM104.519 15.1642L104.331 15.0282L104.142 15.1642L104.213 14.9441L104.026 14.8046H104.262L104.333 14.5845L104.406 14.8046H104.642L104.452 14.9441L104.519 15.1642ZM104.408 13.6839H104.645L104.457 13.8212L104.528 14.0437L104.341 13.9077L104.151 14.0437L104.222 13.8212L104.035 13.6839H104.272L104.346 13.464L104.408 13.6839ZM105.181 13.4947L104.992 13.3574L104.804 13.4947L104.877 13.2734L104.686 13.1374H104.923L104.995 12.9137L105.067 13.1374H105.303L105.113 13.2734L105.181 13.4947ZM104.519 12.9374L104.331 12.7978L104.142 12.9374L104.213 12.715L104.026 12.5777H104.262L104.333 12.3553L104.406 12.5777H104.642L104.452 12.715L104.519 12.9374ZM104.901 12.0121L104.972 11.7885L105.046 12.0121H105.283L105.095 12.1482L105.167 12.3718L104.977 12.2345L104.789 12.3718L104.861 12.1482L104.673 12.0121H104.901ZM104.388 11.4477H104.625L104.434 11.585L104.506 11.8075L104.318 11.6702L104.127 11.8075L104.2 11.585L104.011 11.4477H104.248L104.32 11.2253L104.388 11.4477ZM103.585 10.8845L103.656 10.6621L103.729 10.8845H103.965L103.777 11.0217L103.85 11.2442L103.659 11.107L103.471 11.2442L103.543 11.0217L103.355 10.8845H103.585ZM103.072 11.4477H103.309L103.119 11.585L103.19 11.8075L103.002 11.6702L102.812 11.8075L102.886 11.585L102.696 11.4477H102.932L103.005 11.2253L103.072 11.4477ZM102.269 10.8845L102.341 10.6621L102.415 10.8845H102.652L102.464 11.0217L102.536 11.2442L102.346 11.107L102.158 11.2442L102.23 11.0217L102.041 10.8845H102.269ZM101.684 11.2253L101.756 11.4477H101.993L101.803 11.585L101.875 11.8075L101.686 11.6702L101.497 11.8075L101.569 11.585L101.381 11.4477H101.618L101.684 11.2253ZM100.954 12.0121L101.026 11.7885L101.1 12.0121H101.336L101.148 12.1482L101.22 12.3718L101.031 12.2345L100.843 12.3718L100.914 12.1482L100.727 12.0121H100.954ZM100.297 11.4477L100.37 11.2253L100.44 11.4477H100.678L100.488 11.585L100.559 11.8075L100.372 11.6702L100.182 11.8075L100.256 11.585L100.066 11.4477H100.297ZM99.4061 12.0121H99.6433L99.715 11.7885L99.7874 12.0121H100.025L99.836 12.1482L99.9085 12.3718L99.7174 12.2345L99.5297 12.3718L99.6021 12.1482L99.4061 12.0121ZM98.7638 12.5777H99.001L99.0726 12.3553L99.1443 12.5777H99.3806L99.1912 12.715L99.262 12.9374L99.0751 12.7978L98.8848 12.9374L98.959 12.715L98.7638 12.5777ZM99.0751 13.464L99.1459 13.6839H99.3831L99.1961 13.8212L99.267 14.0437L99.08 13.9077L98.8898 14.0437L98.9614 13.8212L98.7737 13.6839H99.01L99.0751 13.464ZM98.1288 14.246H98.3652L98.4377 14.0236L98.5085 14.246H98.7448L98.5579 14.3821L98.6296 14.6057L98.4401 14.4685L98.2516 14.6057L98.3224 14.3821L98.1288 14.246ZM98.6015 15.7286L98.4113 15.589L98.2235 15.7286L98.2952 15.5062L98.1074 15.3689H98.3438L98.4163 15.1465L98.4904 15.3689H98.7276L98.539 15.5062L98.6015 15.7286ZM99.9167 15.7286L99.7273 15.589L99.5387 15.7286L99.6104 15.5062L99.4234 15.3689H99.6598L99.7323 15.1465L99.8031 15.3689H100.039L99.8525 15.5062L99.9167 15.7286ZM101.232 15.7286L101.042 15.589L100.854 15.7286L100.926 15.5062L100.738 15.3689H100.974L101.047 15.1465L101.121 15.3689H101.358L101.169 15.5062L101.232 15.7286ZM102.548 15.7286L102.358 15.589L102.169 15.7286L102.242 15.5062L102.051 15.3689H102.288L102.36 15.1465L102.432 15.3689H102.669L102.48 15.5062L102.548 15.7286ZM103.862 15.7286L103.674 15.589L103.485 15.7286L103.558 15.5062L103.369 15.3689H103.606L103.678 15.1465L103.751 15.3689H103.988L103.801 15.5062L103.862 15.7286ZM105.178 15.7286L104.988 15.589L104.801 15.7286L104.872 15.5062L104.684 15.3689H104.92L104.991 15.1465L105.064 15.3689H105.3L105.112 15.5062L105.178 15.7286Z" fill="#3B3C6B"/>
<path d="M100.985 10.8125C100.926 10.8363 100.866 10.8623 100.809 10.8885H100.961L100.985 10.8125Z" fill="#3B3C6B"/>
<path d="M105.074 10.8851L105.043 10.8711V10.8851H105.074Z" fill="#3B3C6B"/>
<path d="M100.16 20.0645C100.992 20.5901 101.956 20.8691 102.94 20.8691C103.925 20.8691 104.889 20.5901 105.721 20.0645H100.16Z" fill="#A33138"/>
<path d="M107.337 18.459H98.543C98.7274 18.7469 98.9391 19.016 99.1763 19.2623H106.704C106.94 19.016 107.153 18.7469 107.337 18.459Z" fill="#A33138"/>
<path d="M108.021 16.8467H97.8633C97.9283 17.1208 98.0148 17.3891 98.1227 17.649H107.761C107.87 17.3891 107.956 17.1208 108.021 16.8467Z" fill="#A33138"/>
<path d="M105.656 16.0484H108.141C108.152 15.9158 108.159 15.7821 108.159 15.6472C108.159 15.5123 108.152 15.3786 108.141 15.2461H105.656V16.0484Z" fill="#A33138"/>
<path d="M105.656 14.4441H108.022C107.958 14.1696 107.872 13.9009 107.764 13.6406H105.659L105.656 14.4441Z" fill="#A33138"/>
<path d="M105.656 12.8366H107.339C107.154 12.5487 106.943 12.2795 106.705 12.0332H105.656V12.8366Z" fill="#A33138"/>
<path d="M105.722 11.23L105.656 11.1875V11.23H105.722Z" fill="#A33138"/>
<path d="M105.656 12.0327H106.705C106.411 11.7266 106.081 11.4573 105.722 11.2305H105.656V12.0327Z" fill="white"/>
<path d="M106.704 19.2617H99.1758C99.4706 19.5682 99.8008 19.8376 100.161 20.064H105.722C106.08 19.8372 106.41 19.5677 106.704 19.2617Z" fill="white"/>
<path d="M105.658 15.2465H108.144C108.123 14.9762 108.082 14.708 108.019 14.4443H105.652L105.658 15.2465Z" fill="white"/>
<path d="M105.656 13.6406H107.761C107.644 13.3605 107.503 13.0912 107.339 12.8359H105.656V13.6406Z" fill="white"/>
<path d="M107.76 17.6543H98.1211C98.238 17.9345 98.3789 18.2038 98.5436 18.4588H107.337C107.502 18.2038 107.644 17.9345 107.76 17.6543Z" fill="white"/>
<path d="M108.15 16.0479H97.7383C97.7564 16.3183 97.7959 16.5869 97.856 16.8512H108.013C108.08 16.5875 108.126 16.3189 108.15 16.0479Z" fill="white"/>
<path d="M145.764 14.8232C145.764 15.9634 145.425 17.078 144.792 18.026C144.159 18.9741 143.259 19.7129 142.205 20.1492C141.152 20.5855 139.993 20.6997 138.874 20.4772C137.756 20.2548 136.729 19.7058 135.923 18.8996C135.116 18.0934 134.568 17.0661 134.346 15.9479C134.122 14.8296 134.237 13.6706 134.673 12.6172C135.11 11.5639 135.849 10.6635 136.796 10.0301C137.744 9.39665 138.859 9.05859 139.999 9.05859C141.528 9.05859 142.994 9.66595 144.076 10.747C145.157 11.8281 145.764 13.2943 145.764 14.8232Z" fill="black"/>
<path d="M141.42 16.0017L142.721 14.9373L142.451 14.8095C142.332 14.7681 142.364 14.7007 142.405 14.5386L142.605 13.8148L141.847 13.9744C141.819 13.9799 141.789 13.9747 141.765 13.9598C141.74 13.945 141.721 13.9216 141.712 13.894L141.615 13.5534L141.017 14.2229C140.93 14.3317 140.757 14.3316 140.812 14.0844L141.068 12.7231L140.724 12.9016C140.626 12.9549 140.532 12.9632 140.477 12.8686L140.003 11.9922L139.539 12.8781C139.487 12.9727 139.389 12.9632 139.291 12.9099L138.948 12.7314L139.206 14.0927C139.259 14.3411 139.088 14.3411 139.002 14.2322L138.4 13.5616L138.303 13.9035C138.295 13.9311 138.276 13.9545 138.251 13.9693C138.227 13.9841 138.197 13.9893 138.169 13.9839L137.411 13.8243L137.611 14.5481C137.652 14.7102 137.686 14.7847 137.565 14.819L137.297 14.9466L138.598 16.0111C138.624 16.0316 138.643 16.0593 138.653 16.0906C138.664 16.1219 138.665 16.1555 138.656 16.1873L138.538 16.5635C138.987 16.5115 139.39 16.4333 139.838 16.3849C139.865 16.3898 139.89 16.403 139.909 16.4225C139.928 16.442 139.94 16.4668 139.945 16.4937L139.866 17.8574H140.103L140.068 16.4866C140.068 16.4405 140.128 16.3683 140.168 16.3754C140.618 16.4238 141.019 16.502 141.469 16.554L141.35 16.1779C141.343 16.1449 141.345 16.1104 141.358 16.0789C141.37 16.0474 141.391 16.0206 141.42 16.0017Z" fill="#EA3323"/>
<path d="M143.481 10.9346C142.524 10.0787 141.285 9.60547 140.002 9.60547C138.718 9.60547 137.48 10.0787 136.523 10.9346V18.7078C137.48 19.5642 138.718 20.0378 140.002 20.0378C141.285 20.0378 142.524 19.5642 143.481 18.7078V10.9346ZM140.168 16.3753C140.13 16.3753 140.07 16.4404 140.07 16.4866L140.103 17.8573H139.867L139.946 16.4936C139.942 16.4667 139.93 16.4419 139.91 16.4225C139.891 16.403 139.866 16.3898 139.84 16.3848C139.392 16.4333 138.988 16.5114 138.539 16.5635L138.657 16.1873C138.665 16.1554 138.665 16.1218 138.655 16.0905C138.644 16.0591 138.625 16.0316 138.599 16.011L137.298 14.9466L137.567 14.8189C137.685 14.7799 137.653 14.7101 137.611 14.548L137.412 13.8242L138.17 13.9838C138.199 13.9892 138.227 13.9841 138.252 13.9693C138.278 13.9544 138.296 13.931 138.305 13.9035L138.402 13.5615L139.002 14.2321C139.086 14.3409 139.26 14.341 139.207 14.0926L138.95 12.7313L139.292 12.9099C139.39 12.9631 139.487 12.9726 139.541 12.878L140.005 11.9921L140.477 12.8685C140.533 12.9632 140.627 12.9548 140.726 12.9016L141.069 12.723L140.813 14.0843C140.758 14.3315 140.932 14.3316 141.018 14.2228L141.616 13.5533L141.713 13.894C141.722 13.9215 141.741 13.945 141.765 13.9598C141.79 13.9746 141.82 13.9797 141.848 13.9744L142.606 13.8147L142.407 14.5386C142.365 14.7006 142.333 14.768 142.451 14.8094L142.722 14.9372L141.421 16.0017C141.395 16.0217 141.375 16.0492 141.364 16.0806C141.353 16.1119 141.352 16.1458 141.361 16.1778L141.479 16.554C141.025 16.502 140.624 16.4238 140.173 16.3753H140.168Z" fill="white"/>
<path d="M145.223 14.8234C145.223 14.089 145.068 13.3628 144.768 12.6926C144.468 12.0223 144.029 11.4232 143.48 10.9346V18.7136C144.029 18.2249 144.468 17.6256 144.768 16.9551C145.068 16.2846 145.223 15.5581 145.223 14.8234Z" fill="#EA3323"/>
<path d="M134.785 14.824C134.784 15.5576 134.939 16.2831 135.238 16.9529C135.537 17.6227 135.975 18.2217 136.522 18.7105V10.9375C135.975 11.4263 135.537 12.0253 135.238 12.6952C134.939 13.3649 134.784 14.0904 134.785 14.824Z" fill="#EA3323"/>
<path d="M179.529 14.8234C179.529 15.9635 179.191 17.078 178.558 18.026C177.924 18.9741 177.024 19.713 175.971 20.1493C174.918 20.5856 173.758 20.6998 172.64 20.4773C171.521 20.2549 170.495 19.7058 169.688 18.8996C168.882 18.0934 168.334 17.0663 168.111 15.948C167.888 14.8297 168.003 13.6706 168.439 12.6172C168.875 11.5639 169.614 10.6635 170.562 10.0301C171.51 9.39665 172.624 9.05859 173.765 9.05859C175.293 9.05859 176.76 9.66595 177.841 10.747C178.923 11.8281 179.529 13.2944 179.529 14.8234Z" fill="black"/>
<path d="M170.798 13.8535H168.508C168.456 14.1511 168.43 14.4526 168.43 14.7548C168.43 15.1836 168.482 15.6108 168.583 16.0274H178.946C179.049 15.6109 179.1 15.1836 179.1 14.7548C179.1 14.4527 179.075 14.1512 179.024 13.8535H170.802H170.798Z" fill="#FED200"/>
<path d="M172.971 13.8537V9.47754C172.193 9.59275 171.45 9.88008 170.797 10.3185V13.8514L172.971 13.8537Z" fill="#FED200"/>
<path d="M170.797 16.0273V19.1877C171.45 19.6262 172.193 19.9133 172.971 20.0286V16.0273H170.797Z" fill="#FED200"/>
<path d="M173.764 9.4209C173.499 9.42073 173.235 9.4405 172.973 9.48003V13.8562H179.021C178.808 12.6156 178.164 11.49 177.202 10.6783C176.24 9.86668 175.022 9.42131 173.764 9.4209Z" fill="#0067A2"/>
<path d="M170.799 10.3203C170.197 10.7228 169.683 11.2436 169.289 11.851C168.896 12.4584 168.63 13.1397 168.508 13.8533H170.799V10.3203Z" fill="#0067A2"/>
<path d="M172.973 20.0286C174.288 20.2259 175.629 19.925 176.734 19.1848C177.838 18.4446 178.626 17.3186 178.943 16.0273H172.973V20.0286Z" fill="#0067A2"/>
<path d="M168.582 16.0273C168.901 17.32 169.691 18.4472 170.797 19.1877V16.0273H168.582Z" fill="#0067A2"/>
<path d="M214.94 14.8245C214.94 15.9646 214.601 17.0791 213.968 18.0269C213.334 18.9748 212.434 19.7135 211.381 20.1496C210.327 20.5858 209.168 20.6998 208.049 20.4772C206.932 20.2546 205.905 19.7054 205.099 18.8992C204.292 18.093 203.743 17.0658 203.521 15.9475C203.298 14.8293 203.413 13.6703 203.849 12.617C204.286 11.5637 205.025 10.6635 205.972 10.0301C206.92 9.39673 208.035 9.05859 209.175 9.05859C209.932 9.05859 210.682 9.20782 211.381 9.49762C212.081 9.78742 212.716 10.212 213.252 10.7475C213.787 11.2829 214.212 11.9186 214.502 12.6181C214.791 13.3177 214.94 14.0674 214.94 14.8245Z" fill="black"/>
<path d="M214.508 14.8568C214.508 13.8265 214.209 12.8184 213.648 11.9541C213.087 11.0898 212.288 10.4063 211.348 9.98633V19.7262C212.288 19.3065 213.087 18.6232 213.648 17.7591C214.209 16.895 214.508 15.887 214.508 14.8568Z" fill="#F43D45"/>
<path d="M203.844 14.8568C203.844 15.8871 204.142 16.8953 204.703 17.7597C205.264 18.624 206.062 19.3074 207.003 19.7274V9.98633C206.062 10.4064 205.264 11.0899 204.703 11.9542C204.143 12.8184 203.844 13.8267 203.844 14.8568Z" fill="#0033A7"/>
<path d="M209.178 9.52345C208.429 9.52262 207.688 9.68025 207.004 9.98594V19.7258C207.688 20.0318 208.429 20.19 209.178 20.19C209.927 20.19 210.668 20.0318 211.352 19.7258V9.98462C210.668 9.67926 209.927 9.52213 209.178 9.52345Z" fill="white"/>
<path d="M209.823 55.252H141.956C140.705 55.252 139.688 56.0616 139.688 56.9423V98.3211C139.688 99.2488 140.699 100 141.956 100H209.818C211.067 100 212.086 99.2488 212.086 98.3211V56.9423C212.094 56.0132 211.076 55.252 209.823 55.252Z" fill="#A77FFA"/>
<path d="M205.138 51H137.271C136.02 51 135 51.8096 135 52.6904V94.0677C135 94.9983 136.012 95.7496 137.271 95.7496H205.129C206.382 95.7496 207.402 94.9983 207.402 94.0677V52.6904C207.408 51.7612 206.389 51 205.138 51Z" fill="white" stroke="black" stroke-width="0.56" stroke-linecap="round" stroke-linejoin="round"/>
<path d="M185.657 74.13C185.657 76.9613 184.816 79.7291 183.243 82.0829C181.669 84.4369 179.433 86.2714 176.818 87.3546C174.202 88.4377 171.322 88.7208 168.545 88.1681C165.769 87.6153 163.219 86.2514 161.217 84.2492C159.215 82.2469 157.85 79.6959 157.298 76.9188C156.746 74.1418 157.03 71.2634 158.114 68.6476C159.198 66.0318 161.033 63.7962 163.387 62.2233C165.741 60.6503 168.51 59.8105 171.34 59.8105C173.22 59.8105 175.083 60.1811 176.819 60.9008C178.556 61.6205 180.135 62.675 181.464 64.0048C182.794 65.3346 183.849 66.9133 184.569 68.6505C185.287 70.3879 185.657 72.2496 185.657 74.13Z" fill="black"/>
<path d="M184.586 74.209C184.586 71.6502 183.843 69.1465 182.451 67.0001C181.058 64.8536 179.074 63.1563 176.738 62.1133V86.3018C179.074 85.2593 181.058 83.5624 182.451 81.4166C183.843 79.2706 184.586 76.7673 184.586 74.209Z" fill="#EE232C"/>
<path d="M158.094 74.209C158.094 76.7675 158.834 79.2714 160.227 81.4181C161.62 83.5645 163.603 85.2618 165.939 86.3046V62.1133C163.603 63.1565 161.62 64.8538 160.227 67.0003C158.836 69.1467 158.094 71.6506 158.094 74.209Z" fill="#00966E"/>
<path d="M171.329 60.9649C169.468 60.9628 167.629 61.3543 165.93 62.1134V86.3019C167.629 87.0619 169.468 87.4548 171.329 87.4548C173.19 87.4548 175.029 87.0619 176.728 86.3019V62.1102C175.029 61.3518 173.188 60.9616 171.329 60.9649Z" fill="white"/>
<path d="M157.323 106.039L154.904 111.692C154.723 112.114 154.23 112.308 153.809 112.122L151.737 111.21C151.323 111.027 151.133 110.548 151.311 110.133L153.74 104.46L149.359 103.875C148.675 103.784 148.398 102.949 148.891 102.469L160.797 90.8978C161.323 90.3866 162.206 90.7622 162.2 91.4942L162.059 108.214C162.053 108.908 161.24 109.284 160.704 108.84L157.323 106.039Z" fill="#6A45E3" stroke="#6A45E3" stroke-width="1.01293"/>
<path d="M156.203 104.955L153.608 110.88C153.427 111.296 152.941 111.486 152.523 111.306L150.277 110.34C149.857 110.159 149.664 109.672 149.847 109.254L152.439 103.338L147.721 102.723C147.031 102.633 146.754 101.788 147.257 101.31L159.975 89.2292C160.503 88.7271 161.377 89.1047 161.371 89.8323L161.22 107.294C161.214 107.985 160.41 108.362 159.872 107.926L156.203 104.955Z" fill="white" stroke="black" stroke-width="1.01293"/>
<path d="M119.282 73.5166H79.116C78.3754 73.5166 77.7734 73.9958 77.7734 74.517V99.0065C77.7734 99.5556 78.3719 100 79.116 100H119.279C120.018 100 120.621 99.5556 120.621 99.0065V74.517C120.626 73.9671 120.023 73.5166 119.282 73.5166Z" fill="#A77FFA"/>
<path d="M116.51 71H76.344C75.6037 71 75 71.4792 75 72.0004V96.4891C75 97.0398 75.5988 97.4844 76.344 97.4844H116.505C117.246 97.4844 117.85 97.0398 117.85 96.4891V72.0004C117.853 71.4505 117.25 71 116.51 71Z" fill="white" stroke="black" stroke-width="0.562411" stroke-linecap="round" stroke-linejoin="round"/>
<path d="M94.2638 93.3883C92.5493 93.0472 90.9737 92.2051 89.7371 90.968C88.5008 89.7318 87.6599 88.1562 87.3179 86.4408C86.9776 84.7255 87.1519 82.9478 87.8215 81.3326C88.4912 79.7166 89.6233 78.3355 91.0764 77.3637C92.5299 76.3919 94.2394 75.874 95.9876 75.874C98.3304 75.874 100.581 76.8054 102.236 78.4635C103.894 80.1216 104.826 82.3709 104.826 84.7162C104.826 86.4644 104.308 88.1739 103.337 89.6282C102.365 91.0826 100.984 92.2161 99.3696 92.8855C97.7544 93.5542 95.9784 93.7293 94.2638 93.3883Z" fill="#E22850" stroke="black" stroke-width="0.562411"/>
<path d="M99.3628 80.1558L95.9909 83.5293L92.6183 80.1558L92.6166 80.1541C92.4591 80.0017 92.2486 79.9175 92.0296 79.92C91.8115 79.9217 91.6027 80.0092 91.4477 80.1642C91.2936 80.3183 91.2052 80.528 91.2035 80.7461C91.2018 80.965 91.2861 81.1756 91.4376 81.333L91.4402 81.3347L94.812 84.7082L91.441 88.0809C91.3618 88.1575 91.2987 88.2485 91.2549 88.3504C91.2111 88.4514 91.1884 88.5609 91.1875 88.6721C91.1867 88.7824 91.2077 88.8927 91.2498 88.9954C91.2911 89.0973 91.3534 89.1908 91.4317 89.2691C91.5101 89.3474 91.6027 89.4089 91.7054 89.451C91.8082 89.4931 91.9176 89.5142 92.028 89.5133C92.1391 89.5125 92.2486 89.4889 92.3505 89.4451C92.4515 89.4022 92.5425 89.339 92.6191 89.2598L95.9909 85.8872L99.3628 89.2607L99.3653 89.2624C99.5219 89.4148 99.7324 89.499 99.9514 89.4965C100.17 89.4948 100.379 89.4072 100.533 89.2523C100.688 89.0982 100.776 88.8893 100.778 88.6704C100.779 88.4514 100.696 88.2409 100.543 88.0834L100.542 88.0817L97.1691 84.7082L100.542 81.3347L100.543 81.333C100.696 81.1756 100.779 80.965 100.778 80.7461C100.776 80.528 100.688 80.3183 100.533 80.1642C100.379 80.0092 100.17 79.9217 99.9514 79.92C99.7324 79.9175 99.5219 80.0017 99.3653 80.1541L99.3628 80.1558Z" fill="white" stroke="black" stroke-width="0.421056"/>
</svg>
