<svg id="error" width="17" height="17" viewBox="0 0 17 17" fill="none" xmlns="http://www.w3.org/2000/svg">
<path 
    style="fill:var(--error-fill)"
    d="M13.2402 11.3421L9.73181 4.32531C9.61417 4.08994 9.4333 3.89199 9.20948 3.75363C8.98566 3.61528 8.72773 3.54199 8.4646 3.54199C8.20147 3.54199 7.94354 3.61528 7.71971 3.75363C7.49589 3.89199 7.31503 4.08994 7.19739 4.32531L3.68901 11.3449C3.58174 11.5608 3.53133 11.8005 3.54255 12.0412C3.55377 12.282 3.62625 12.516 3.75313 12.721C3.88001 12.9259 4.0571 13.0951 4.26762 13.2126C4.47815 13.33 4.71516 13.3917 4.95622 13.392H11.9723C12.2138 13.3921 12.4513 13.3305 12.6623 13.2129C12.8733 13.0954 13.0507 12.9259 13.1778 12.7205C13.3048 12.5151 13.3772 12.2807 13.3881 12.0394C13.3991 11.7981 13.3481 11.5581 13.2402 11.3421ZM7.75626 6.30865C7.75626 6.12078 7.83089 5.94062 7.96373 5.80778C8.09657 5.67494 8.27674 5.60031 8.4646 5.60031C8.65246 5.60031 8.83263 5.67494 8.96547 5.80778C9.0983 5.94062 9.17293 6.12078 9.17293 6.30865V9.14198C9.17293 9.32984 9.0983 9.51001 8.96547 9.64285C8.83263 9.77568 8.65246 9.85031 8.4646 9.85031C8.27674 9.85031 8.09657 9.77568 7.96373 9.64285C7.83089 9.51001 7.75626 9.32984 7.75626 9.14198V6.30865ZM8.4646 12.1524C8.28948 12.1524 8.11829 12.1005 7.97269 12.0032C7.82708 11.9059 7.71359 11.7676 7.64658 11.6058C7.57956 11.444 7.56203 11.266 7.59619 11.0942C7.63036 10.9225 7.71469 10.7647 7.83851 10.6409C7.96234 10.5171 8.12011 10.4327 8.29186 10.3986C8.46362 10.3644 8.64164 10.3819 8.80343 10.449C8.96522 10.516 9.1035 10.6295 9.20079 10.7751C9.29809 10.9207 9.35001 11.0919 9.35001 11.267C9.35001 11.5018 9.25673 11.727 9.09068 11.8931C8.92463 12.0591 8.69942 12.1524 8.4646 12.1524Z"/>
</svg>
