<svg id="globe" width="48" height="48" viewBox="0 0 48 48" fill="none" xmlns="http://www.w3.org/2000/svg">
<rect x="25.7998" y="3" width="19.2" height="19.2" rx="9.6" fill="#FF4F5E"/>
<path fill-rule="evenodd" clip-rule="evenodd" d="M23.0968 15.3302H16.6843C18.1948 10.3199 20.9365 6.89995 24.0002 6.89995C24.0531 6.89995 24.1059 6.90097 24.1586 6.903C25.2451 4.76327 26.9246 2.97537 28.9807 1.7556C27.3585 1.3909 25.6891 1.20185 24.0002 1.19995C19.4908 1.19995 15.0826 2.53715 11.3332 5.04244C7.58376 7.54774 4.66143 11.1086 2.93575 15.2748C1.21007 19.4409 0.758558 24.0252 1.6383 28.448C2.51804 32.8708 4.68953 36.9333 7.87817 40.122C11.0668 43.3106 15.1294 45.4821 19.5521 46.3618C23.9749 47.2416 28.5592 46.7901 32.7254 45.0644C36.8915 43.3387 40.4524 40.4164 42.9577 36.6669C45.463 32.9175 46.8002 28.5094 46.8002 23.9999C46.7983 22.3111 46.6092 20.6416 46.2445 19.0194C45.0251 21.0749 43.238 22.754 41.0991 23.8405C41.0997 23.8937 41.1001 23.9468 41.1002 23.9999C41.0962 25.9003 40.7735 27.7866 40.1454 29.5802H34.9556C35.1885 28.1301 35.3302 26.6671 35.38 25.1999C34.4026 25.1984 33.4513 25.0856 32.5381 24.8735C32.4944 26.4519 32.3328 28.0252 32.0543 29.5802H15.9461C15.2837 25.8895 15.2837 22.1104 15.9461 18.4196H24.2218C23.7192 17.4562 23.3375 16.4197 23.0968 15.3302ZM16.6843 32.6696C18.1948 37.6799 20.9365 41.0999 24.0002 41.0999C27.0639 41.0999 29.8056 37.6799 31.319 32.6696H16.6843ZM7.85495 18.4196C7.22694 20.2133 6.90421 22.0995 6.9002 23.9999C6.90421 25.9003 7.22694 27.7866 7.85495 29.5802H13.0448C12.4518 25.8837 12.4518 22.1162 13.0448 18.4196H7.85495ZM13.7089 15.3302C14.3165 12.9197 15.3294 10.6299 16.7042 8.55865C13.6122 10.0267 11.029 12.3846 9.28565 15.3302H13.7089ZM13.7089 32.6696H9.2942H9.28565C11.029 35.6152 13.6122 37.9732 16.7042 39.4412C15.3294 37.37 14.3165 35.0802 13.7089 32.6696ZM31.3087 39.4353C34.3983 37.9682 36.98 35.6126 38.7233 32.6696H34.3001C33.693 35.0779 32.6815 37.3656 31.3087 39.4353Z" fill="url(#paint0_radial_1073_25374)"/>
<path fill-rule="evenodd" clip-rule="evenodd" d="M39.4318 8.58482C39.1975 8.3506 38.8177 8.3506 38.5834 8.58482L38.2612 8.90702C38.2055 8.88699 38.1483 8.87154 38.0902 8.86082L35.4076 8.40002L32.7238 8.86082C32.193 8.95369 31.8062 9.41521 31.8076 9.95402C31.8076 10.569 31.8076 11.6742 31.8556 12.1776C31.8928 13.0433 32.1135 13.8912 32.503 14.6652L31.3834 15.7848C31.2274 15.9355 31.1649 16.1586 31.2198 16.3683C31.2747 16.5781 31.4385 16.7419 31.6483 16.7968C31.8581 16.8518 32.0811 16.7892 32.2318 16.6332L39.4318 9.43322C39.666 9.19892 39.666 8.81912 39.4318 8.58482ZM36.9154 14.6382C36.5466 15.132 36.0106 15.4743 35.4076 15.6012C35.107 15.5373 34.8205 15.4199 34.5616 15.2544L33.7 16.1166C34.1832 16.4751 34.746 16.7114 35.3404 16.8054L35.4076 16.8126L35.4748 16.8054C36.4359 16.6512 37.2992 16.1289 37.882 15.3492C38.5597 14.4283 38.9369 13.3208 38.962 12.1776C38.9878 11.8668 38.9998 11.325 39.0076 10.809L37.8076 12.009C37.7918 12.9571 37.4798 13.8764 36.9154 14.6382ZM32.9997 11.0097C32.9937 11.47 32.9893 11.8081 33.0075 12.009C33.043 12.6131 33.1742 13.2077 33.3963 13.7706L37.2363 9.93062L35.4075 9.61682L33.0075 10.029C33.0075 10.3995 33.0033 10.7275 32.9997 11.0097Z" fill="white"/>
<defs>
<radialGradient id="paint0_radial_1073_25374" cx="0" cy="0" r="1" gradientUnits="userSpaceOnUse" gradientTransform="translate(46.8002 1.19995) rotate(135) scale(64.4881)">
<stop stop-color="#9D62FC"/>
<stop offset="1" stop-color="#FD3296"/>
</radialGradient>
</defs>
</svg>
