<svg id="globe" width="48" height="48" viewBox="0 0 48 48" fill="none" xmlns="http://www.w3.org/2000/svg">
<!-- 
This Globe svg requires the following variables set on it's root svg element: 
 shield-color: The background color of the round shield

-->
<rect x="25.7998" y="3" width="19.2" height="19.2" rx="9.6" style="fill: var(--shield-color); transition: all 0.5s;"/>
<path fill-rule="evenodd" clip-rule="evenodd" d="M23.0968 15.3302H16.6843C18.1948 10.3199 20.9365 6.89995 24.0002 6.89995C24.0531 6.89995 24.1059 6.90097 24.1586 6.903C25.2451 4.76327 26.9246 2.97537 28.9807 1.7556C27.3585 1.3909 25.6891 1.20185 24.0002 1.19995C19.4908 1.19995 15.0826 2.53715 11.3332 5.04244C7.58376 7.54774 4.66143 11.1086 2.93575 15.2748C1.21007 19.4409 0.758558 24.0252 1.6383 28.448C2.51804 32.8708 4.68953 36.9333 7.87817 40.122C11.0668 43.3106 15.1294 45.4821 19.5521 46.3618C23.9749 47.2416 28.5592 46.7901 32.7254 45.0644C36.8915 43.3387 40.4524 40.4164 42.9577 36.6669C45.463 32.9175 46.8002 28.5094 46.8002 23.9999C46.7983 22.3111 46.6092 20.6416 46.2445 19.0194C45.0251 21.0749 43.238 22.754 41.0991 23.8405C41.0997 23.8937 41.1001 23.9468 41.1002 23.9999C41.0962 25.9003 40.7735 27.7866 40.1454 29.5802H34.9556C35.1885 28.1301 35.3302 26.6671 35.38 25.1999C34.4026 25.1984 33.4513 25.0856 32.5381 24.8735C32.4944 26.4519 32.3328 28.0252 32.0543 29.5802H15.9461C15.2837 25.8895 15.2837 22.1104 15.9461 18.4196H24.2218C23.7192 17.4562 23.3375 16.4197 23.0968 15.3302ZM16.6843 32.6696C18.1948 37.6799 20.9365 41.0999 24.0002 41.0999C27.0639 41.0999 29.8056 37.6799 31.319 32.6696H16.6843ZM7.85495 18.4196C7.22694 20.2133 6.90421 22.0995 6.9002 23.9999C6.90421 25.9003 7.22694 27.7866 7.85495 29.5802H13.0448C12.4518 25.8837 12.4518 22.1162 13.0448 18.4196H7.85495ZM13.7089 15.3302C14.3165 12.9197 15.3294 10.6299 16.7042 8.55865C13.6122 10.0267 11.029 12.3846 9.28565 15.3302H13.7089ZM13.7089 32.6696H9.2942H9.28565C11.029 35.6152 13.6122 37.9732 16.7042 39.4412C15.3294 37.37 14.3165 35.0802 13.7089 32.6696ZM31.3087 39.4353C34.3983 37.9682 36.98 35.6126 38.7233 32.6696H34.3001C33.693 35.0779 32.6815 37.3656 31.3087 39.4353Z" fill="url(#paint0_radial_780_13825)"/>
<path fill-rule="evenodd" clip-rule="evenodd" d="M35.3998 16.8126L35.3326 16.8054C34.3715 16.6512 33.5082 16.1289 32.9254 15.3492C32.2476 14.4283 31.8705 13.3208 31.8454 12.1776C31.7998 11.6742 31.7998 10.569 31.7998 9.95402C31.7985 9.41521 32.1853 8.95369 32.716 8.86082L35.3998 8.40002L38.0824 8.86082C38.6139 8.95321 39.0013 9.4152 38.9998 9.95462C38.9998 10.5684 38.9998 11.6742 38.9518 12.1776C38.9267 13.3208 38.5496 14.4283 37.8718 15.3492C37.2891 16.1289 36.4257 16.6512 35.4646 16.8054L35.3998 16.8126ZM32.9998 10.029C32.9998 10.3995 32.9956 10.7275 32.9919 11.0097V11.0097C32.986 11.47 32.9816 11.8081 32.9998 12.009C33.0156 12.9571 33.3276 13.8764 33.892 14.6382C34.2608 15.1319 34.7969 15.4742 35.3998 15.6012C36.0026 15.4742 36.5385 15.1318 36.907 14.6382C37.4717 13.8765 37.7839 12.9571 37.7998 12.009C37.8181 11.8081 37.8137 11.47 37.8077 11.0097C37.8041 10.7275 37.7998 10.3995 37.7998 10.029L35.3998 9.61802L32.9998 10.029ZM33.8998 10.788L35.3998 10.5312V14.6718H35.395C35.0834 14.5672 34.8112 14.3698 34.615 14.106C34.162 13.4939 33.9237 12.7494 33.937 11.988C33.9178 11.781 33.9052 11.3532 33.8998 10.788Z" fill="white"/>
<defs>
<radialGradient id="paint0_radial_780_13825" cx="0" cy="0" r="1" gradientUnits="userSpaceOnUse" gradientTransform="translate(46.8002 1.19995) rotate(-45) scale(64.4881)">
<stop stop-color="#B833E1"/>
<stop offset="0.371" stop-color="#9059FF"/>
<stop offset="0.614" stop-color="#5B6DF8"/>
<stop offset="1" stop-color="#0090ED"/>
</radialGradient>
</defs>
</svg>
