<svg width="24" height="24" viewBox="0 0 24 24" fill="none" xmlns="http://www.w3.org/2000/svg">
<path d="M17.625 5H6.375C4.4625 5 3 6.51667 3 8.5V15.5C3 17.4833 4.4625 19 6.375 19H17.625C19.5375 19 21 17.4833 21 15.5V8.5C21 6.51667 19.5375 5 17.625 5ZM17.625 7.33333C17.7375 7.33333 17.85 7.33333 17.9625 7.45H17.85L12 11.8833L6.15 7.45H6.0375C6.15 7.33333 6.2625 7.33333 6.375 7.33333H17.625ZM18.75 15.5C18.75 16.2 18.3 16.6667 17.625 16.6667H6.375C5.7 16.6667 5.25 16.2 5.25 15.5V8.26667C5.25 8.38333 5.3625 8.38333 5.475 8.38333L11.6625 13.05C11.775 13.1667 11.8875 13.1667 12 13.1667C12.1125 13.1667 12.225 13.1667 12.3375 13.05L18.525 8.38333C18.6375 8.38333 18.6375 8.26667 18.6375 8.15C18.75 8.26667 18.75 8.38333 18.75 8.5V15.5Z" fill="#3D3D3D"/>
</svg>
