<svg width="135" height="116" viewBox="0 0 135 116" fill="none" xmlns="http://www.w3.org/2000/svg">
<g id="Group 32">
<path id="Vector" d="M109.892 93.4082V94.4249C109.839 94.4963 109.786 94.5622 109.73 94.6325C109.618 94.771 109.501 94.9044 109.38 95.0327C109.319 95.0961 109.258 95.1593 109.195 95.2198C108.254 96.1276 107.072 96.682 105.797 96.7329L102.227 96.8705L101.672 96.8925V96.3422L102.227 96.3202L105.775 96.1826C106.9 96.1387 107.95 95.653 108.808 94.8264C109.102 94.5418 109.365 94.2273 109.594 93.8882C109.623 93.8484 109.649 93.8086 109.674 93.7686C109.75 93.654 109.823 93.534 109.892 93.4082Z" fill="black"/>
<path id="Vector_2" d="M104.975 30.0156H59.2942C56.5051 30.0156 54.2441 32.2554 54.2441 35.0182V103.235C54.2441 105.998 56.5051 108.238 59.2942 108.238H104.975C107.764 108.238 110.025 105.998 110.025 103.235V35.0182C110.025 32.2554 107.764 30.0156 104.975 30.0156Z" fill="#C5C8FB"/>
<path id="Vector_3" d="M97.1717 24.5586H51.4914C48.9558 24.5586 46.9004 26.5947 46.9004 29.1064V97.3235C46.9004 99.8352 48.9558 101.871 51.4914 101.871H97.1717C99.7072 101.871 101.763 99.8352 101.763 97.3235V29.1064C101.763 26.5947 99.7072 24.5586 97.1717 24.5586Z" fill="white" stroke="black" stroke-width="0.75"/>
<path id="Vector_4" d="M115.642 35.5771C116.142 35.5771 116.547 35.1755 116.547 34.6803C116.547 34.1848 116.142 33.7832 115.642 33.7832C115.141 33.7832 114.736 34.1848 114.736 34.6803C114.736 35.1755 115.141 35.5771 115.642 35.5771Z" stroke="black" stroke-width="0.75" stroke-miterlimit="10"/>
<path id="Vector_5" d="M35.511 6.13938C36.011 6.13938 36.4164 5.73785 36.4164 5.24255C36.4164 4.74723 36.011 4.3457 35.511 4.3457C35.0109 4.3457 34.6055 4.74723 34.6055 5.24255C34.6055 5.73785 35.0109 6.13938 35.511 6.13938Z" stroke="black" stroke-width="0.75" stroke-miterlimit="10"/>
<path id="Vector_6" d="M21.2139 87.4343C21.714 87.4343 22.1193 87.0327 22.1193 86.5375C22.1193 86.0422 21.714 85.6406 21.2139 85.6406C20.7139 85.6406 20.3086 86.0422 20.3086 86.5375C20.3086 87.0327 20.7139 87.4343 21.2139 87.4343Z" stroke="black" stroke-width="0.75" stroke-miterlimit="10"/>
<path id="Vector_7" d="M29.2637 47.4277V49.1898" stroke="black" stroke-width="0.75" stroke-miterlimit="10" stroke-linecap="round"/>
<path id="Vector_8" d="M28.3691 48.3105H30.1479" stroke="black" stroke-width="0.75" stroke-miterlimit="10" stroke-linecap="round"/>
<path id="Vector_9" d="M131.463 68.0625V69.8246" stroke="black" stroke-width="0.75" stroke-miterlimit="10" stroke-linecap="round"/>
<path id="Vector_10" d="M130.576 68.9414H132.355" stroke="black" stroke-width="0.75" stroke-miterlimit="10" stroke-linecap="round"/>
<path id="Vector_11" d="M46.7676 13.4766V15.3762" stroke="black" stroke-width="0.75" stroke-miterlimit="10" stroke-linecap="round"/>
<path id="Vector_12" d="M45.8086 14.4258H47.7263" stroke="black" stroke-width="0.75" stroke-miterlimit="10" stroke-linecap="round"/>
<path id="Vector_13" d="M87.0577 46.8813C86.6771 45.9888 86.0396 45.2271 85.2245 44.6913C84.4096 44.1556 83.4535 43.8695 82.4754 43.8689C81.6591 43.8652 80.8545 44.0615 80.1333 44.4403C79.4123 44.8189 78.7966 45.3683 78.3414 46.0395C78.0456 46.4775 77.824 46.9609 77.6861 47.4701H70.6793C70.63 47.2684 70.5632 47.0714 70.4794 46.8813C70.4032 46.6956 70.3102 46.5168 70.2016 46.3477L72.7012 43.8716C73.4585 44.2998 74.3161 44.5233 75.1881 44.5194C75.8561 44.5222 76.5179 44.3894 77.1322 44.1288C78.0352 43.7522 78.8063 43.1201 79.3485 42.3115C79.8907 41.5026 80.1799 40.5535 80.1799 39.5828C80.1792 38.7755 79.9784 37.9808 79.5955 37.2684C79.2124 36.556 78.6589 35.9473 77.9834 35.4961C77.1579 34.9442 76.1839 34.6509 75.1881 34.6543C74.5339 34.6527 73.8859 34.7792 73.2813 35.0263C72.6766 35.2735 72.1271 35.6362 71.6643 36.0942C71.2013 36.5519 70.8343 37.0958 70.5841 37.6945C70.3339 38.293 70.2053 38.9347 70.2058 39.5828C70.2037 40.2445 70.3375 40.8996 70.5988 41.5086C70.6667 41.6652 70.7431 41.818 70.8278 41.9665L68.295 44.4755C67.5563 44.0744 66.7269 43.8657 65.8845 43.8689C65.2305 43.8675 64.5825 43.9939 63.9779 44.2409C63.373 44.4881 62.8235 44.851 62.3607 45.3087C61.8979 45.7667 61.5309 46.3106 61.2804 46.9091C61.0302 47.5078 60.9017 48.1495 60.9024 48.7973C60.9003 49.459 61.0339 50.1141 61.2951 50.7231C61.6732 51.604 62.3001 52.3578 63.1003 52.8938C63.9225 53.4438 64.8924 53.7367 65.8845 53.7342C66.6994 53.7328 67.5017 53.5339 68.2209 53.1541C68.94 52.7746 69.5543 52.2261 70.01 51.5567C70.3123 51.1235 70.5368 50.6419 70.6738 50.133H77.6737C77.7276 50.3343 77.7967 50.531 77.8805 50.7217C77.948 50.8784 78.024 51.0314 78.1082 51.1799L75.5726 53.6915C74.8362 53.2894 74.0085 53.0798 73.1676 53.0823C72.5134 53.0802 71.8649 53.2062 71.2601 53.4531C70.655 53.7001 70.1052 54.0628 69.6422 54.5207C69.179 54.9787 68.8119 55.5229 68.5617 56.1216C68.3115 56.7205 68.1832 57.3624 68.1841 58.0107C68.1825 58.6724 68.3166 59.3276 68.5783 59.9365C68.9577 60.8161 69.5844 61.5689 70.3834 62.1056C71.1336 62.6045 72.0063 62.8921 72.9085 62.9378C73.8108 62.9835 74.7086 62.7857 75.5061 62.3655C76.3037 61.945 76.971 61.3181 77.4368 60.5514C77.9028 59.7846 78.1498 58.9069 78.1514 58.0121C78.15 57.3538 78.0159 56.7023 77.757 56.0959C77.6751 55.9103 77.5849 55.7259 77.4875 55.554L79.9871 53.0782H79.994C80.7494 53.5064 81.6049 53.7306 82.4754 53.7287C83.7955 53.7244 85.0606 53.2028 85.9939 52.2778C86.9275 51.353 87.4536 50.0998 87.4575 48.7919C87.4529 48.1352 87.317 47.4857 87.0577 46.8813ZM73.0774 38.6982C73.2523 38.293 73.5416 37.9463 73.9105 37.6998C74.227 37.4878 74.5918 37.3573 74.9719 37.32C75.352 37.283 75.7356 37.34 76.0877 37.4865C76.5044 37.6595 76.8597 37.9508 77.1092 38.3235C77.359 38.6964 77.4914 39.1341 77.4903 39.5814C77.4926 39.887 77.4317 40.1899 77.3112 40.4714C77.1372 40.8778 76.8478 41.2252 76.478 41.4713C76.0981 41.7284 75.6481 41.8649 75.1881 41.8619C74.8112 41.8617 74.44 41.7696 74.1074 41.5941C73.7748 41.4185 73.4908 41.1647 73.2801 40.855C73.0703 40.5396 72.942 40.1779 72.9066 39.8018C72.8713 39.4257 72.9301 39.0466 73.0774 38.6982ZM68.0048 49.686C67.8439 50.0646 67.5825 50.3929 67.2485 50.6365C66.9143 50.8798 66.5199 51.0289 66.1072 51.0683C65.6942 51.1076 65.2783 51.0358 64.9036 50.8598C64.5288 50.684 64.2088 50.4111 63.9781 50.0698C63.7685 49.7544 63.6404 49.3931 63.6051 49.0172C63.5697 48.6413 63.628 48.2625 63.7752 47.9144C63.951 47.5096 64.2402 47.1631 64.6084 46.9157C64.925 46.7037 65.2897 46.5734 65.6699 46.5362C66.05 46.4989 66.4334 46.5562 66.7857 46.7026C67.2021 46.8754 67.5577 47.1667 67.8072 47.5396C68.0567 47.9123 68.1894 48.35 68.1883 48.7973C68.1892 49.1034 68.1267 49.4063 68.0048 49.6873V49.686ZM75.2825 58.9021C75.1073 59.3078 74.8181 59.6548 74.4492 59.9022C74.07 60.1559 73.6226 60.2915 73.1649 60.2912C72.8589 60.291 72.5559 60.2307 72.2733 60.1139C71.8622 59.9401 71.5096 59.6539 71.2569 59.2887C70.9816 58.8816 70.8462 58.3978 70.8705 57.9086C70.8949 57.4195 71.0778 56.9511 71.3918 56.5729C71.7061 56.1948 72.1351 55.9272 72.6149 55.8094C73.0949 55.6918 73.6003 55.7305 74.0565 55.9199C74.4678 56.0925 74.8204 56.379 75.0713 56.7453C75.2825 57.0598 75.4119 57.4211 75.4482 57.797C75.4845 58.1731 75.4266 58.5521 75.2797 58.9007L75.2825 58.9021ZM84.5861 49.686C84.411 50.0916 84.1217 50.4389 83.7528 50.686C83.3736 50.9398 82.9262 51.0756 82.4685 51.0753C82.0916 51.0756 81.7204 50.9841 81.3876 50.8088C81.0549 50.6333 80.7708 50.3795 80.5605 50.0698C80.3495 49.7551 80.2205 49.3938 80.1845 49.0177C80.1487 48.6416 80.2072 48.2625 80.3551 47.9144C80.53 47.5089 80.8192 47.1622 81.1881 46.9157C81.5046 46.7037 81.8694 46.5734 82.2495 46.5362C82.6297 46.4989 83.0132 46.5562 83.3654 46.7026C83.7818 46.8759 84.1371 47.1672 84.3869 47.5399C84.6366 47.9126 84.7695 48.35 84.7693 48.7973C84.7693 49.1034 84.7064 49.4063 84.5847 49.6873L84.5861 49.686Z" fill="black"/>
<path id="Vector_14" d="M27.2772 55.834H12.127V70.8418H27.2772V55.834Z" fill="#A883F8"/>
<path id="Vector_15" d="M24.5913 54H10V68.454H24.5913V54Z" stroke="black" stroke-width="0.75" stroke-miterlimit="10"/>
<path id="Vector_16" d="M15.0996 61.4682L17.045 63.3953L19.964 59.541" stroke="black" stroke-width="0.75" stroke-linecap="round" stroke-linejoin="round"/>
<path id="Vector_17" d="M15.4316 111.918H48.1496" stroke="black" stroke-width="0.75" stroke-miterlimit="10"/>
<path id="Vector_18" d="M0 115.375H32.7179" stroke="black" stroke-width="0.75" stroke-miterlimit="10"/>
<path id="Vector_19" d="M48.7401 109.315H19.377C19.625 107.934 20.3558 106.683 21.4416 105.782C22.5272 104.881 23.8982 104.387 25.3146 104.387C25.3924 104.387 25.47 104.387 25.545 104.387C26.3822 102.914 27.6385 101.717 29.1575 100.947C30.6764 100.176 32.3909 99.8654 34.0868 100.053C35.7827 100.242 37.3852 100.92 38.6945 102.004C40.0041 103.088 40.9623 104.53 41.4501 106.15C42.0708 105.583 42.8446 105.208 43.6774 105.07C44.5099 104.931 45.3652 105.037 46.1386 105.372C46.9119 105.708 47.5698 106.259 48.0319 106.959C48.4938 107.659 48.7399 108.478 48.7401 109.314V109.315Z" fill="#A883F8"/>
<path id="Vector_20" d="M40.523 111.969H8.54102C8.81223 110.465 9.60899 109.103 10.7918 108.122C11.9746 107.141 13.468 106.604 15.0104 106.604C15.0951 106.604 15.1799 106.604 15.2632 106.604C16.1749 105.001 17.5428 103.698 19.1965 102.859C20.8502 102.02 22.7166 101.682 24.5631 101.886C26.4096 102.09 28.1544 102.828 29.5806 104.008C31.0068 105.188 32.0508 106.757 32.5831 108.52C33.2591 107.903 34.1023 107.494 35.0092 107.344C35.9164 107.193 36.8479 107.308 37.6901 107.674C38.5326 108.039 39.249 108.64 39.7522 109.403C40.2551 110.165 40.523 111.056 40.523 111.968V111.969Z" stroke="black" stroke-width="0.75" stroke-linecap="round" stroke-linejoin="round"/>
<path id="Vector_21" d="M119.204 8.41344H92.1172C92.5683 5.87788 94.8472 3.96469 97.6011 3.96469C97.6723 3.96469 97.7434 3.96469 97.8146 3.96469C99.1917 1.59048 101.803 0 104.794 0C108.426 0 111.489 2.35115 112.462 5.55517C113.174 4.90977 114.124 4.5179 115.168 4.5179C117.4 4.5179 119.204 6.26974 119.204 8.41344Z" fill="#C4C6FC"/>
<path id="Vector_22" d="M134.128 15.2347H117.371C117.655 13.5999 119.075 12.3498 120.756 12.3498C120.803 12.3498 120.85 12.3498 120.898 12.3498C121.75 10.8111 123.359 9.77734 125.229 9.77734C127.477 9.77734 129.371 11.2919 129.986 13.3835C130.436 12.9748 131.028 12.7104 131.667 12.7104C133.016 12.7344 134.128 13.8644 134.128 15.2347Z" fill="#C4C6FC"/>
</g>
</svg>
