<svg width="140" height="140" viewBox="0 0 140 140" fill="none" xmlns="http://www.w3.org/2000/svg">
<path d="M65.5427 106.234C85.8714 106.234 102.351 89.7542 102.351 69.4255C102.351 49.0968 85.8714 32.6172 65.5427 32.6172C45.214 32.6172 28.7344 49.0968 28.7344 69.4255C28.7344 89.7542 45.214 106.234 65.5427 106.234Z" fill="#C2C3FC"/>
<path fill-rule="evenodd" clip-rule="evenodd" d="M85.8199 64.001C85.6284 64.1925 85.5327 64.4434 85.5327 64.6942C85.5327 64.945 85.6284 65.1959 85.8199 65.3874L91.1154 70.6832C91.2935 70.8661 91.5424 70.9796 91.8178 70.9796C92.093 70.9796 92.3419 70.8661 92.52 70.6833L97.8163 65.3874C98.1993 65.0044 98.1993 64.384 97.8163 64.001C97.4333 63.6181 96.8129 63.6181 96.43 64.001L92.6959 67.7348C92.3886 64.3363 91.3936 61.0209 89.7727 58.0338C85.3667 49.9401 76.9134 44.9121 67.7114 44.9121C58.5093 44.9121 50.056 49.9401 45.65 58.0338C45.5715 58.1777 45.5306 58.3389 45.5306 58.5026L45.5306 58.5096C45.5306 59.0512 45.9698 59.4865 46.511 59.4865C46.894 59.4865 47.2259 59.2647 47.3874 58.9433C51.4538 51.4975 59.2389 46.8729 67.7114 46.8729C76.1947 46.8729 83.9887 51.5087 88.05 58.9701C89.4774 61.6006 90.3781 64.5088 90.702 67.497L87.2062 64.001C86.8233 63.6181 86.2029 63.6181 85.8199 64.001Z" fill="#5D42D1"/>
<rect x="73.5938" y="72.2871" width="20.915" height="20.8704" rx="10.4352" fill="#3FE1B0"/>
<path d="M82.7372 86.6623C82.5639 86.6622 82.3977 86.5933 82.2751 86.4708L80.3143 84.51C80.1953 84.3867 80.1294 84.2216 80.1309 84.0502C80.1324 83.8789 80.2011 83.7149 80.3223 83.5937C80.4435 83.4726 80.6074 83.4038 80.7788 83.4023C80.9501 83.4008 81.1152 83.4667 81.2385 83.5858L82.6483 84.9956L86.7764 79.0982C86.8765 78.958 87.0278 78.8629 87.1976 78.8337C87.3674 78.8045 87.5418 78.8435 87.683 78.9422C87.8242 79.0409 87.9207 79.1913 87.9515 79.3608C87.9824 79.5303 87.945 79.7051 87.8477 79.8472L83.2725 86.3832C83.2181 86.4619 83.147 86.5277 83.0643 86.5759C82.9816 86.6241 82.8894 86.6536 82.7941 86.6623C82.7751 86.6632 82.7561 86.6632 82.7372 86.6623Z" fill="white"/>
<path fill-rule="evenodd" clip-rule="evenodd" d="M76.5056 91.2212C73.65 92.4587 70.5286 93.1269 67.3078 93.1269C58.8245 93.1269 51.0305 88.4911 46.9691 81.0297C45.528 78.3739 44.6239 75.4351 44.308 72.4167L47.8895 75.9984C48.2725 76.3814 48.8929 76.3814 49.2759 75.9984C49.6588 75.6155 49.6588 74.9951 49.2759 74.6121L43.9711 69.3068C43.7873 69.1229 43.5378 69.0195 43.278 69.0195C43.2625 69.0195 43.2471 69.0199 43.2317 69.0206C43.2216 69.0203 43.2115 69.0202 43.2014 69.0202C42.8136 69.0202 42.4782 69.2454 42.3192 69.5723L37.2795 74.6118C37.088 74.8033 36.9922 75.0541 36.9922 75.305C36.9922 75.5558 37.088 75.8066 37.2795 75.9981C37.6624 76.3811 38.2828 76.3811 38.6658 75.9981L42.3297 72.3348C42.6442 75.7089 43.6367 78.9993 45.2464 81.966C49.6524 90.0597 58.1058 95.0877 67.3078 95.0877C71.2117 95.0877 74.9808 94.1827 78.3633 92.5227C77.6965 92.156 77.0739 91.7189 76.5056 91.2212Z" fill="#5D42D1"/>
<path d="M90.0446 107.396C80.977 113.138 70.105 115.322 59.523 113.527C48.9411 111.732 39.3979 106.084 32.7318 97.6718C26.0657 89.2596 22.7484 78.6783 23.4189 67.9661C24.0895 57.2539 28.7004 47.1687 36.3634 39.6535C44.0265 32.1383 54.1995 27.7247 64.9227 27.2629C75.6459 26.8012 86.1607 30.3239 94.4414 37.1525C102.722 43.9812 108.183 53.6327 109.772 64.2476C111.361 74.8625 108.965 85.6899 103.047 94.6439" stroke="black" stroke-width="0.675" stroke-linecap="round" stroke-linejoin="round"/>
<path d="M98.0578 100.859C96.8292 102.135 95.5229 103.333 94.1465 104.447" stroke="black" stroke-width="0.675" stroke-linecap="round" stroke-linejoin="round"/>
<path d="M52.1167 38.2577C60.0974 34.6371 69.132 34.0823 77.4959 36.6989C85.8598 39.3156 92.9672 44.9205 97.4615 52.444C101.956 59.9674 103.522 68.8825 101.862 77.4874C100.202 86.0923 95.4307 93.7845 88.4599 99.0957C81.489 104.407 72.8065 106.965 64.0695 106.282C55.3325 105.599 47.153 101.723 41.0922 95.3927C35.0314 89.0628 31.5138 80.7227 31.2108 71.9643C30.9078 63.2059 33.8407 54.6425 39.4496 47.9089" stroke="black" stroke-width="0.675" stroke-miterlimit="10"/>
<path d="M126.282 88.5637C126.181 88.5637 126.084 88.5234 126.012 88.4517C125.941 88.3801 125.9 88.2829 125.9 88.1816V84.6816C125.909 84.5856 125.953 84.4963 126.024 84.4312C126.095 84.3661 126.188 84.3301 126.284 84.3301C126.38 84.3301 126.473 84.3661 126.544 84.4312C126.615 84.4963 126.659 84.5856 126.667 84.6816V88.1816C126.667 88.2832 126.626 88.3804 126.554 88.452C126.482 88.5236 126.384 88.5637 126.282 88.5637Z" fill="black" stroke="black" stroke-width="0.3375" stroke-miterlimit="10"/>
<path d="M128.413 86.4377C128.413 86.5398 128.372 86.6378 128.3 86.71C128.228 86.7822 128.13 86.8228 128.028 86.8228H124.528C124.425 86.8228 124.328 86.7822 124.255 86.71C124.183 86.6378 124.143 86.5398 124.143 86.4377C124.143 86.3356 124.183 86.2377 124.255 86.1655C124.328 86.0933 124.425 86.0527 124.528 86.0527H128.028C128.13 86.0527 128.228 86.0933 128.3 86.1655C128.372 86.2377 128.413 86.3356 128.413 86.4377Z" fill="black" stroke="black" stroke-width="0.3375" stroke-miterlimit="10"/>
<path d="M97.4846 129.683C97.383 129.683 97.2855 129.643 97.2134 129.571C97.1413 129.5 97.1004 129.403 97.0996 129.301V125.801C97.0996 125.699 97.1402 125.601 97.2124 125.529C97.2846 125.457 97.3825 125.416 97.4846 125.416C97.5867 125.416 97.6846 125.457 97.7568 125.529C97.829 125.601 97.8696 125.699 97.8696 125.801V129.301C97.8688 129.403 97.8279 129.5 97.7558 129.571C97.6837 129.643 97.5862 129.683 97.4846 129.683Z" fill="black" stroke="black" stroke-width="0.3375" stroke-miterlimit="10"/>
<path d="M99.604 127.557C99.604 127.659 99.5634 127.757 99.4912 127.829C99.419 127.901 99.3211 127.942 99.219 127.942H95.719C95.6169 127.942 95.5189 127.901 95.4467 127.829C95.3745 127.757 95.334 127.659 95.334 127.557C95.334 127.455 95.3745 127.357 95.4467 127.285C95.5189 127.212 95.6169 127.172 95.719 127.172H99.219C99.3211 127.172 99.419 127.212 99.4912 127.285C99.5634 127.357 99.604 127.455 99.604 127.557Z" fill="black" stroke="black" stroke-width="0.3375" stroke-miterlimit="10"/>
<path d="M15.5784 60.0168C15.4768 60.0168 15.3793 59.9766 15.3071 59.905C15.235 59.8334 15.1941 59.7363 15.1934 59.6347V56.1347C15.2017 56.0387 15.2458 55.9494 15.3168 55.8843C15.3878 55.8192 15.4806 55.7832 15.5769 55.7832C15.6732 55.7832 15.766 55.8192 15.837 55.8843C15.908 55.9494 15.9521 56.0387 15.9604 56.1347V59.6347C15.9604 59.6849 15.9506 59.7346 15.9314 59.7809C15.9122 59.8273 15.884 59.8694 15.8485 59.9048C15.8131 59.9403 15.7709 59.9685 15.7246 59.9877C15.6782 60.0069 15.6286 60.0168 15.5784 60.0168Z" fill="black" stroke="black" stroke-width="0.3375" stroke-miterlimit="10"/>
<path d="M17.7036 57.8967C17.7036 57.9988 17.663 58.0968 17.5908 58.169C17.5186 58.2412 17.4207 58.2816 17.3186 58.2816H13.8186C13.7165 58.2816 13.6186 58.2412 13.5464 58.169C13.4741 58.0968 13.4336 57.9988 13.4336 57.8967C13.4336 57.7946 13.4741 57.6966 13.5464 57.6244C13.6186 57.5522 13.7165 57.5117 13.8186 57.5117H17.3186C17.4207 57.5117 17.5186 57.5522 17.5908 57.6244C17.663 57.6966 17.7036 57.7946 17.7036 57.8967Z" fill="black" stroke="black" stroke-width="0.3375" stroke-miterlimit="10"/>
<path d="M30.881 17.0413C31.8282 17.0413 32.596 16.2735 32.596 15.3263C32.596 14.3792 31.8282 13.6113 30.881 13.6113C29.9338 13.6113 29.166 14.3792 29.166 15.3263C29.166 16.2735 29.9338 17.0413 30.881 17.0413Z" stroke="black" stroke-width="0.675" stroke-miterlimit="10"/>
<path d="M19.4162 118.616C20.3633 118.616 21.1312 117.848 21.1312 116.901C21.1312 115.953 20.3633 115.186 19.4162 115.186C18.469 115.186 17.7012 115.953 17.7012 116.901C17.7012 117.848 18.469 118.616 19.4162 118.616Z" stroke="black" stroke-width="0.675" stroke-miterlimit="10"/>
</svg>
