<svg width="136" height="120" viewBox="0 0 136 120" fill="none" xmlns="http://www.w3.org/2000/svg">
<path d="M117.276 61.5376C117.705 61.5376 118.052 61.1934 118.052 60.7689C118.052 60.3442 117.705 60 117.276 60C116.847 60 116.5 60.3442 116.5 60.7689C116.5 61.1934 116.847 61.5376 117.276 61.5376Z" stroke="black" stroke-width="0.75" stroke-miterlimit="10"/>
<path d="M116.262 97V98.5103" stroke="black" stroke-width="0.75" stroke-miterlimit="10" stroke-linecap="round"/>
<path d="M115.5 97.7539H117.025" stroke="black" stroke-width="0.75" stroke-miterlimit="10" stroke-linecap="round"/>
<path d="M30.2762 5.53744C30.7047 5.53744 31.0522 5.19327 31.0522 4.76873C31.0522 4.34416 30.7047 4 30.2762 4C29.8475 4 29.5 4.34416 29.5 4.76873C29.5 5.19327 29.8475 5.53744 30.2762 5.53744Z" stroke="black" stroke-width="0.75" stroke-miterlimit="10"/>
<path d="M14.276 64.2191C14.7046 64.2191 15.052 63.8749 15.052 63.4503C15.052 63.0258 14.7046 62.6816 14.276 62.6816C13.8474 62.6816 13.5 63.0258 13.5 63.4503C13.5 63.8749 13.8474 64.2191 14.276 64.2191Z" stroke="black" stroke-width="0.75" stroke-miterlimit="10"/>
<path d="M16.5 31H18.0246" stroke="black" stroke-width="0.75" stroke-miterlimit="10" stroke-linecap="round"/>
<path d="M58.5 13H60.1437" stroke="black" stroke-width="0.75" stroke-miterlimit="10" stroke-linecap="round"/>
<path d="M13.7266 103.215H41.7706" stroke="black" stroke-width="0.75" stroke-miterlimit="10"/>
<path d="M0.5 106.178H28.5439" stroke="black" stroke-width="0.75" stroke-miterlimit="10"/>
<path d="M42.2778 100.985H17.1094C17.322 99.8005 17.9484 98.7285 18.8791 97.9561C19.8095 97.1837 20.9848 96.7603 22.1988 96.7602C22.2655 96.7602 22.332 96.7602 22.3963 96.7602C23.1139 95.4974 24.1907 94.4719 25.4927 93.8114C26.7946 93.1509 28.2642 92.8846 29.7178 93.0458C31.1714 93.207 32.545 93.7884 33.6673 94.7177C34.7898 95.647 35.6111 96.8829 36.0292 98.2717C36.5612 97.7858 37.2245 97.4638 37.9383 97.3455C38.6519 97.227 39.3851 97.3172 40.0479 97.6047C40.7108 97.8924 41.2747 98.3652 41.6708 98.9651C42.0666 99.5652 42.2776 100.267 42.2778 100.983V100.985Z" fill="#A883F8"/>
<path d="M35.2334 103.261H7.82031C8.05278 101.971 8.73572 100.804 9.74953 99.9633C10.7634 99.1227 12.0434 98.6621 13.3655 98.6623C13.4381 98.6623 13.5107 98.6623 13.5822 98.6623C14.3636 97.2876 15.5362 96.1714 16.9536 95.4522C18.371 94.733 19.9708 94.443 21.5536 94.618C23.1363 94.7932 24.6318 95.4257 25.8543 96.4369C27.0767 97.4481 27.9716 98.7931 28.4278 100.305C29.0073 99.7754 29.73 99.4248 30.5074 99.2959C31.2849 99.1669 32.0834 99.2654 32.8053 99.5788C33.5274 99.8922 34.1414 100.407 34.5727 101.061C35.0038 101.715 35.2334 102.478 35.2334 103.259V103.261Z" stroke="black" stroke-width="0.75" stroke-linecap="round" stroke-linejoin="round"/>
<path d="M118.534 13.2115H95.3164C95.703 11.0382 97.6564 9.3983 100.017 9.3983C100.078 9.3983 100.139 9.3983 100.2 9.3983C101.38 7.36327 103.619 6 106.182 6C109.296 6 111.92 8.01527 112.755 10.7616C113.365 10.2084 114.179 9.87249 115.075 9.87249C116.987 9.87249 118.534 11.3741 118.534 13.2115Z" fill="#C4C6FC"/>
<path d="M131.324 19.0586H116.961C117.204 17.6573 118.422 16.5858 119.862 16.5858C119.903 16.5858 119.943 16.5858 119.984 16.5858C120.714 15.267 122.094 14.3809 123.696 14.3809C125.624 14.3809 127.246 15.6791 127.774 17.4719C128.159 17.1216 128.667 16.8949 129.214 16.8949C130.371 16.9155 131.324 17.884 131.324 19.0586Z" fill="#C4C6FC"/>
<path d="M108.068 26H58.9321C55.932 26 53.5 27.9184 53.5 30.2849V88.7151C53.5 91.0816 55.932 93 58.9321 93H108.068C111.068 93 113.5 91.0816 113.5 88.7151V30.2849C113.5 27.9184 111.068 26 108.068 26Z" fill="#C5C8FB"/>
<path d="M99.8891 21H34.1109C30.4598 21 27.5 22.7382 27.5 24.8824V83.1176C27.5 85.2618 30.4598 87 34.1109 87H99.8891C103.54 87 106.5 85.2618 106.5 83.1176V24.8824C106.5 22.7382 103.54 21 99.8891 21Z" fill="#A77FFA" stroke="black" stroke-width="0.75"/>
<path d="M38.9238 54.5929L43.9193 59.5921C44.1811 59.8533 44.5356 60 44.9053 60C45.2749 60 45.6295 59.8533 45.8912 59.5921L59.1067 46.3668C59.3616 46.1038 59.5028 45.751 59.5 45.3847C59.4971 45.0183 59.3504 44.6678 59.0916 44.4087C58.8327 44.1497 58.4824 44.0029 58.1163 44C57.7502 43.9972 57.3977 44.1385 57.1349 44.3935L44.9053 56.6313L40.8957 52.6196C40.767 52.4867 40.6131 52.3808 40.4431 52.308C40.273 52.2352 40.0902 52.1969 39.9053 52.1955C39.7204 52.1941 39.537 52.2294 39.3658 52.2996C39.1947 52.3698 39.0392 52.4733 38.9084 52.6042C38.7777 52.735 38.6742 52.8907 38.6041 53.0619C38.534 53.2332 38.4986 53.4167 38.5 53.6018C38.5015 53.7868 38.5397 53.9698 38.6124 54.14C38.6852 54.3101 38.7911 54.4641 38.9238 54.5929Z" fill="#F9F9FA" stroke="black" stroke-width="0.675" stroke-miterlimit="10"/>
<path d="M103.153 21H69.8473C67.9986 21 66.5 22.7382 66.5 24.8824V83.1176C66.5 85.2618 67.9986 87 69.8473 87H103.153C105.001 87 106.5 85.2618 106.5 83.1176V24.8824C106.5 22.7382 105.001 21 103.153 21Z" fill="white" stroke="black" stroke-width="0.75"/>
<path d="M65.215 107.43C66.1622 107.43 66.93 106.662 66.93 105.715C66.93 104.768 66.1622 104 65.215 104C64.2678 104 63.5 104.768 63.5 105.715C63.5 106.662 64.2678 107.43 65.215 107.43Z" stroke="black" stroke-width="0.675" stroke-miterlimit="10"/>
<path fill-rule="evenodd" clip-rule="evenodd" d="M94.5007 62.4716C94.9069 62.8778 95.5671 62.8778 95.9733 62.4716C96.3806 62.0644 96.3806 61.4052 95.9733 60.998L87.8698 52.8955L95.9713 44.794C96.3786 44.3877 96.3786 43.7276 95.9713 43.3213C95.5641 42.9141 94.9049 42.9141 94.4987 43.3213L86.3972 51.4218L78.2957 43.3203C77.8894 42.9141 77.2293 42.9141 76.823 43.3203C76.4158 43.7275 76.4158 44.3867 76.823 44.7939L84.9235 52.8954L76.821 60.9989C76.4138 61.4052 76.4138 62.0644 76.821 62.4716C77.2273 62.8788 77.8874 62.8788 78.2937 62.4716L86.3972 54.3681L94.5007 62.4716Z" fill="#A77FFA" stroke="black" stroke-width="0.675" stroke-miterlimit="10"/>
</svg>
