<svg width="140" height="140" viewBox="0 0 140 140" fill="none" xmlns="http://www.w3.org/2000/svg">
<path d="M48.3421 31H17C17.2649 29.5161 18.0454 28.1725 19.2047 27.2048C20.3639 26.2371 21.828 25.7079 23.3401 25.7079C23.4232 25.7079 23.5064 25.7079 23.588 25.7079C24.4814 24.1268 25.8221 22.8437 27.4427 22.0164C29.0632 21.1892 30.892 20.8554 32.7014 21.0574C34.5108 21.2583 36.2209 21.9851 37.6185 23.1483C39.0161 24.3115 40.0394 25.8581 40.5612 27.5958C41.2241 26.9877 42.0504 26.5849 42.9394 26.4369C43.8284 26.289 44.7413 26.4024 45.5668 26.7631C46.3922 27.1238 47.0943 27.7157 47.5872 28.4674C48.08 29.2201 48.3423 30.0982 48.3421 30.9968V31Z" fill="#A883F8"/>
<path d="M110.892 100.408V101.425C110.839 101.496 110.786 101.562 110.73 101.632C110.618 101.771 110.501 101.904 110.38 102.033C110.319 102.096 110.258 102.159 110.195 102.22C109.254 103.128 108.072 103.682 106.797 103.733L103.227 103.87L102.672 103.893V103.342L103.227 103.32L106.775 103.183C107.9 103.139 108.95 102.653 109.808 101.826C110.102 101.542 110.365 101.227 110.594 100.888C110.623 100.848 110.649 100.809 110.674 100.769C110.75 100.654 110.823 100.534 110.892 100.408Z" fill="black"/>
<path d="M105.975 37.0156H60.2942C57.5051 37.0156 55.2441 39.2554 55.2441 42.0182V110.235C55.2441 112.998 57.5051 115.238 60.2942 115.238H105.975C108.764 115.238 111.025 112.998 111.025 110.235V42.0182C111.025 39.2554 108.764 37.0156 105.975 37.0156Z" fill="#C5C8FB"/>
<path d="M98.1717 31.5586H52.4914C49.9558 31.5586 47.9004 33.5947 47.9004 36.1064V104.323C47.9004 106.835 49.9558 108.871 52.4914 108.871H98.1717C100.707 108.871 102.763 106.835 102.763 104.323V36.1064C102.763 33.5947 100.707 31.5586 98.1717 31.5586Z" fill="white" stroke="black" stroke-width="0.75"/>
<path d="M116.642 42.5771C117.142 42.5771 117.547 42.1755 117.547 41.6803C117.547 41.1848 117.142 40.7832 116.642 40.7832C116.141 40.7832 115.736 41.1848 115.736 41.6803C115.736 42.1755 116.141 42.5771 116.642 42.5771Z" stroke="black" stroke-width="0.75" stroke-miterlimit="10"/>
<path d="M36.511 13.1394C37.011 13.1394 37.4164 12.7379 37.4164 12.2426C37.4164 11.7472 37.011 11.3457 36.511 11.3457C36.0109 11.3457 35.6055 11.7472 35.6055 12.2426C35.6055 12.7379 36.0109 13.1394 36.511 13.1394Z" stroke="black" stroke-width="0.75" stroke-miterlimit="10"/>
<path d="M22.2139 94.4343C22.714 94.4343 23.1193 94.0327 23.1193 93.5375C23.1193 93.0422 22.714 92.6406 22.2139 92.6406C21.7139 92.6406 21.3086 93.0422 21.3086 93.5375C21.3086 94.0327 21.7139 94.4343 22.2139 94.4343Z" stroke="black" stroke-width="0.75" stroke-miterlimit="10"/>
<path d="M30.2637 54.4277V56.1898" stroke="black" stroke-width="0.75" stroke-miterlimit="10" stroke-linecap="round"/>
<path d="M29.3691 55.3105H31.1479" stroke="black" stroke-width="0.75" stroke-miterlimit="10" stroke-linecap="round"/>
<path d="M132.463 75.0625V76.8246" stroke="black" stroke-width="0.75" stroke-miterlimit="10" stroke-linecap="round"/>
<path d="M131.576 75.9414H133.355" stroke="black" stroke-width="0.75" stroke-miterlimit="10" stroke-linecap="round"/>
<path d="M47.7676 20.4766V22.3762" stroke="black" stroke-width="0.75" stroke-miterlimit="10" stroke-linecap="round"/>
<path d="M46.8086 21.4258H48.7263" stroke="black" stroke-width="0.75" stroke-miterlimit="10" stroke-linecap="round"/>
<path d="M88.0577 53.8813C87.6771 52.9888 87.0396 52.2271 86.2245 51.6913C85.4096 51.1556 84.4535 50.8695 83.4754 50.8689C82.6591 50.8652 81.8545 51.0615 81.1333 51.4403C80.4123 51.8189 79.7966 52.3683 79.3414 53.0395C79.0456 53.4775 78.824 53.9609 78.6861 54.4701H71.6793C71.63 54.2684 71.5632 54.0714 71.4794 53.8813C71.4032 53.6956 71.3102 53.5168 71.2016 53.3477L73.7012 50.8716C74.4585 51.2998 75.3161 51.5233 76.1881 51.5194C76.8561 51.5222 77.5179 51.3894 78.1322 51.1288C79.0352 50.7522 79.8063 50.1201 80.3485 49.3115C80.8907 48.5026 81.1799 47.5535 81.1799 46.5828C81.1792 45.7755 80.9784 44.9808 80.5955 44.2684C80.2124 43.556 79.6589 42.9473 78.9834 42.4961C78.1579 41.9442 77.1839 41.6509 76.1881 41.6543C75.5339 41.6527 74.8859 41.7792 74.2813 42.0263C73.6766 42.2735 73.1271 42.6362 72.6643 43.0942C72.2013 43.5519 71.8343 44.0958 71.5841 44.6945C71.3339 45.293 71.2053 45.9347 71.2058 46.5828C71.2037 47.2445 71.3375 47.8996 71.5988 48.5086C71.6667 48.6652 71.7431 48.818 71.8278 48.9665L69.295 51.4755C68.5563 51.0744 67.7269 50.8657 66.8845 50.8689C66.2305 50.8675 65.5825 50.9939 64.9779 51.2409C64.373 51.4881 63.8235 51.851 63.3607 52.3087C62.8979 52.7667 62.5309 53.3106 62.2804 53.9091C62.0302 54.5078 61.9017 55.1495 61.9024 55.7973C61.9003 56.459 62.0339 57.1141 62.2951 57.7231C62.6732 58.604 63.3001 59.3578 64.1003 59.8938C64.9225 60.4438 65.8924 60.7367 66.8845 60.7342C67.6994 60.7328 68.5017 60.5339 69.2209 60.1541C69.94 59.7746 70.5543 59.2261 71.01 58.5567C71.3123 58.1235 71.5368 57.6419 71.6738 57.133H78.6737C78.7276 57.3343 78.7967 57.531 78.8805 57.7217C78.948 57.8784 79.024 58.0314 79.1082 58.1799L76.5726 60.6915C75.8362 60.2894 75.0085 60.0798 74.1676 60.0823C73.5134 60.0802 72.8649 60.2062 72.2601 60.4531C71.655 60.7001 71.1052 61.0628 70.6422 61.5207C70.179 61.9787 69.8119 62.5229 69.5617 63.1216C69.3115 63.7205 69.1832 64.3624 69.1841 65.0107C69.1825 65.6724 69.3166 66.3276 69.5783 66.9365C69.9577 67.8161 70.5844 68.5689 71.3834 69.1056C72.1336 69.6045 73.0063 69.8921 73.9085 69.9378C74.8108 69.9835 75.7086 69.7857 76.5061 69.3655C77.3037 68.945 77.971 68.3181 78.4368 67.5514C78.9028 66.7846 79.1498 65.9069 79.1514 65.0121C79.15 64.3538 79.0159 63.7023 78.757 63.0959C78.6751 62.9103 78.5849 62.7259 78.4875 62.554L80.9871 60.0782H80.994C81.7494 60.5064 82.6049 60.7306 83.4754 60.7287C84.7955 60.7244 86.0606 60.2028 86.9939 59.2778C87.9275 58.353 88.4536 57.0998 88.4575 55.7919C88.4529 55.1352 88.317 54.4857 88.0577 53.8813ZM74.0774 45.6982C74.2523 45.293 74.5416 44.9463 74.9105 44.6998C75.227 44.4878 75.5918 44.3573 75.9719 44.32C76.352 44.283 76.7356 44.34 77.0877 44.4865C77.5044 44.6595 77.8597 44.9508 78.1092 45.3235C78.359 45.6964 78.4914 46.1341 78.4903 46.5814C78.4926 46.887 78.4317 47.1899 78.3112 47.4714C78.1372 47.8778 77.8478 48.2252 77.478 48.4713C77.0981 48.7284 76.6481 48.8649 76.1881 48.8619C75.8112 48.8617 75.44 48.7696 75.1074 48.5941C74.7748 48.4185 74.4908 48.1647 74.2801 47.855C74.0703 47.5396 73.942 47.1779 73.9066 46.8018C73.8713 46.4257 73.9301 46.0466 74.0774 45.6982ZM69.0048 56.686C68.8439 57.0646 68.5825 57.3929 68.2485 57.6365C67.9143 57.8798 67.5199 58.0289 67.1072 58.0683C66.6942 58.1076 66.2783 58.0358 65.9036 57.8598C65.5288 57.684 65.2088 57.4111 64.9781 57.0698C64.7685 56.7544 64.6404 56.3931 64.6051 56.0172C64.5697 55.6413 64.628 55.2625 64.7752 54.9144C64.951 54.5096 65.2402 54.1631 65.6084 53.9157C65.925 53.7037 66.2897 53.5734 66.6699 53.5362C67.05 53.4989 67.4334 53.5562 67.7857 53.7026C68.2021 53.8754 68.5577 54.1667 68.8072 54.5396C69.0567 54.9123 69.1894 55.35 69.1883 55.7973C69.1892 56.1034 69.1267 56.4063 69.0048 56.6873V56.686ZM76.2825 65.9021C76.1073 66.3078 75.8181 66.6548 75.4492 66.9022C75.07 67.1559 74.6226 67.2915 74.1649 67.2912C73.8589 67.291 73.5559 67.2307 73.2733 67.1139C72.8622 66.9401 72.5096 66.6539 72.2569 66.2887C71.9816 65.8816 71.8462 65.3978 71.8705 64.9086C71.8949 64.4195 72.0778 63.9511 72.3918 63.5729C72.7061 63.1948 73.1351 62.9272 73.6149 62.8094C74.0949 62.6918 74.6003 62.7305 75.0565 62.9199C75.4678 63.0925 75.8204 63.379 76.0713 63.7453C76.2825 64.0598 76.4119 64.4211 76.4482 64.797C76.4845 65.1731 76.4266 65.5521 76.2797 65.9007L76.2825 65.9021ZM85.5861 56.686C85.411 57.0916 85.1217 57.4389 84.7528 57.686C84.3736 57.9398 83.9262 58.0756 83.4685 58.0753C83.0916 58.0756 82.7204 57.9841 82.3876 57.8088C82.0549 57.6333 81.7708 57.3795 81.5605 57.0698C81.3495 56.7551 81.2205 56.3938 81.1845 56.0177C81.1487 55.6416 81.2072 55.2625 81.3551 54.9144C81.53 54.5089 81.8192 54.1622 82.1881 53.9157C82.5046 53.7037 82.8694 53.5734 83.2495 53.5362C83.6297 53.4989 84.0132 53.5562 84.3654 53.7026C84.7818 53.8759 85.1371 54.1672 85.3869 54.5399C85.6366 54.9126 85.7695 55.35 85.7693 55.7973C85.7693 56.1034 85.7064 56.4063 85.5847 56.6873L85.5861 56.686Z" fill="black"/>
<path d="M28.2772 62.834H13.127V77.8418H28.2772V62.834Z" fill="#A883F8"/>
<path d="M25.5913 61H11V75.454H25.5913V61Z" stroke="black" stroke-width="0.75" stroke-miterlimit="10"/>
<path d="M16.0996 68.4682L18.045 70.3953L20.964 66.541" stroke="black" stroke-width="0.75" stroke-linecap="round" stroke-linejoin="round"/>
<path d="M16.4316 118.918H49.1496" stroke="black" stroke-width="0.75" stroke-miterlimit="10"/>
<path d="M1 122.375H33.7179" stroke="black" stroke-width="0.75" stroke-miterlimit="10"/>
<path d="M49.7401 116.315H20.377C20.625 114.934 21.3558 113.683 22.4416 112.782C23.5272 111.881 24.8982 111.387 26.3146 111.387C26.3924 111.387 26.47 111.387 26.545 111.387C27.3822 109.914 28.6385 108.717 30.1575 107.947C31.6764 107.176 33.3909 106.865 35.0868 107.053C36.7827 107.242 38.3852 107.92 39.6945 109.004C41.0041 110.088 41.9623 111.53 42.4501 113.15C43.0708 112.583 43.8446 112.208 44.6774 112.07C45.5099 111.931 46.3652 112.037 47.1386 112.372C47.9119 112.708 48.5698 113.259 49.0319 113.959C49.4938 114.659 49.7399 115.478 49.7401 116.314V116.315Z" fill="#A883F8"/>
<path d="M41.523 118.969H9.54102C9.81223 117.465 10.609 116.103 11.7918 115.122C12.9746 114.141 14.468 113.604 16.0104 113.604C16.0951 113.604 16.1799 113.604 16.2632 113.604C17.1749 112.001 18.5428 110.698 20.1965 109.859C21.8502 109.02 23.7166 108.682 25.5631 108.886C27.4096 109.09 29.1544 109.828 30.5806 111.008C32.0068 112.188 33.0508 113.757 33.5831 115.52C34.2591 114.903 35.1023 114.494 36.0092 114.344C36.9164 114.193 37.8479 114.308 38.6901 114.674C39.5326 115.039 40.249 115.64 40.7522 116.403C41.2551 117.165 41.523 118.056 41.523 118.968V118.969Z" stroke="black" stroke-width="0.75" stroke-linecap="round" stroke-linejoin="round"/>
<path d="M120.204 15.4134H93.1172C93.5683 12.8779 95.8472 10.9647 98.6011 10.9647C98.6723 10.9647 98.7434 10.9647 98.8146 10.9647C100.192 8.59048 102.803 7 105.794 7C109.426 7 112.489 9.35115 113.462 12.5552C114.174 11.9098 115.124 11.5179 116.168 11.5179C118.4 11.5179 120.204 13.2697 120.204 15.4134Z" fill="#C4C6FC"/>
<path d="M135.128 22.2347H118.371C118.655 20.5999 120.075 19.3498 121.756 19.3498C121.803 19.3498 121.85 19.3498 121.898 19.3498C122.75 17.8111 124.359 16.7773 126.229 16.7773C128.477 16.7773 130.371 18.2919 130.986 20.3835C131.436 19.9748 132.028 19.7104 132.667 19.7104C134.016 19.7344 135.128 20.8644 135.128 22.2347Z" fill="#C4C6FC"/>
<path d="M127.345 121.577H113C113.121 120.898 113.479 120.283 114.009 119.84C114.54 119.398 115.21 119.155 115.902 119.155C115.941 119.155 115.978 119.155 116.015 119.155C116.424 118.432 117.038 117.844 117.779 117.465C118.521 117.086 119.358 116.934 120.186 117.026C121.014 117.118 121.797 117.451 122.437 117.983C123.076 118.515 123.545 119.223 123.784 120.019C124.087 119.741 124.465 119.556 124.872 119.489C125.279 119.421 125.696 119.473 126.074 119.638C126.452 119.803 126.773 120.074 126.999 120.418C127.225 120.762 127.345 121.164 127.345 121.575V121.577Z" fill="#C4C6FC" stroke="#C3C4FD" stroke-width="0.136898" stroke-miterlimit="10"/>
<path d="M119.143 82H36.4074C35.6301 82 35 82.6301 35 83.4074V93.6426C35 94.4197 35.6301 95.05 36.4074 95.05H119.143C119.92 95.05 120.55 94.4197 120.55 93.6426V83.4074C120.55 82.6301 119.92 82 119.143 82Z" fill="#A883F8"/>
<g clip-path="url(#clip0_2134_6553)">
<path d="M115.994 78.8516H33.2589C32.4816 78.8516 31.8516 79.4816 31.8516 80.2589V90.4942C31.8516 91.2712 32.4816 91.9016 33.2589 91.9016H115.994C116.771 91.9016 117.402 91.2712 117.402 90.4942V80.2589C117.402 79.4816 116.771 78.8516 115.994 78.8516Z" fill="white" stroke="black" stroke-width="0.597059"/>
<path d="M42.2942 89.2218L42.4133 86.977L40.6541 88.1498L39.7012 86.6472L41.7353 85.566L39.7012 84.4848L40.6541 82.9822L42.4133 84.155L42.2942 81.9102H44.2183L44.0901 84.1458L45.8493 82.9822L46.8021 84.4848L44.7589 85.566L46.8021 86.6472L45.8493 88.1498L44.0901 86.977L44.2091 89.2218H42.2942ZM54.7951 89.2218L54.9142 86.977L53.155 88.1498L52.2021 86.6472L54.2362 85.566L52.2021 84.4848L53.155 82.9822L54.9142 84.155L54.7951 81.9102H56.7192L56.5909 84.1458L58.3501 82.9822L59.303 84.4848L57.2598 85.566L59.303 86.6472L58.3501 88.1498L56.5909 86.977L56.7101 89.2218H54.7951ZM67.296 89.2218L67.4151 86.977L65.6559 88.1498L64.703 86.6472L66.7371 85.566L64.703 84.4848L65.6559 82.9822L67.4151 84.155L67.296 81.9102H69.2201L69.0919 84.1458L70.8511 82.9822L71.8039 84.4848L69.7607 85.566L71.8039 86.6472L70.8511 88.1498L69.0919 86.977L69.211 89.2218H67.296ZM79.7969 89.2218L79.9161 86.977L78.1569 88.1498L77.204 86.6472L79.2381 85.566L77.204 84.4848L78.1569 82.9822L79.9161 84.155L79.7969 81.9102H81.7211L81.5928 84.1458L83.352 82.9822L84.3049 84.4848L82.2617 85.566L84.3049 86.6472L83.352 88.1498L81.5928 86.977L81.7119 89.2218H79.7969ZM92.2979 89.2218L92.4169 86.977L90.6578 88.1498L89.7049 86.6472L91.7389 85.566L89.7049 84.4848L90.6578 82.9822L92.4169 84.155L92.2979 81.9102H94.2219L94.0937 84.1458L95.8529 82.9822L96.8058 84.4848L94.7625 85.566L96.8058 86.6472L95.8529 88.1498L94.0937 86.977L94.2128 89.2218H92.2979ZM104.799 89.2218L104.918 86.977L103.159 88.1498L102.206 86.6472L104.24 85.566L102.206 84.4848L103.159 82.9822L104.918 84.155L104.799 81.9102H106.723L106.595 84.1458L108.354 82.9822L109.307 84.4848L107.263 85.566L109.307 86.6472L108.354 88.1498L106.595 86.977L106.714 89.2218H104.799Z" fill="black"/>
</g>
<defs>
<clipPath id="clip0_2134_6553">
<rect width="87" height="14.5" fill="white" transform="translate(31 78)"/>
</clipPath>
</defs>
</svg>
