<svg width="181" height="114" viewBox="0 0 181 114" fill="none" xmlns="http://www.w3.org/2000/svg">
<g id="Group 308">
<g id="Group 306">
<path id="Vector" d="M75.2973 24.0703H47.6133C45.923 24.0703 44.5527 25.4109 44.5527 27.0645V67.895C44.5527 69.5487 45.923 70.8892 47.6133 70.8892H75.2973C76.9876 70.8892 78.3579 69.5487 78.3579 67.895V27.0645C78.3579 25.4109 76.9876 24.0703 75.2973 24.0703Z" fill="#C5C8FB"/>
<path id="Vector_2" d="M70.564 20.8027H42.88C41.3433 20.8027 40.0977 22.0214 40.0977 23.5248V64.3552C40.0977 65.8585 41.3433 67.0772 42.88 67.0772H70.564C72.1007 67.0772 73.3464 65.8585 73.3464 64.3552V23.5248C73.3464 22.0214 72.1007 20.8027 70.564 20.8027Z" fill="white" stroke="black" stroke-width="0.882292"/>
<path id="Vector_3" d="M64.4371 34.164C64.2064 33.6298 63.8201 33.1739 63.3261 32.8532C62.8322 32.5326 62.2528 32.3614 61.6601 32.361C61.1654 32.3588 60.6778 32.4762 60.2407 32.703C59.8037 32.9296 59.4306 33.2584 59.1547 33.6602C58.9754 33.9223 58.8412 34.2117 58.7575 34.5164H54.5112C54.4813 34.3957 54.4408 34.2778 54.39 34.164C54.3438 34.0528 54.2875 33.9459 54.2217 33.8446L55.7365 32.3626C56.1955 32.6189 56.7152 32.7527 57.2437 32.7503C57.6485 32.752 58.0496 32.6725 58.4219 32.5165C58.9691 32.2911 59.4364 31.9128 59.765 31.4288C60.0936 30.9447 60.2689 30.3766 60.2689 29.7956C60.2685 29.3124 60.1468 28.8368 59.9147 28.4103C59.6825 27.9839 59.3471 27.6196 58.9377 27.3496C58.4374 27.0192 57.8472 26.8437 57.2437 26.8457C56.8472 26.8448 56.4545 26.9204 56.088 27.0684C55.7216 27.2163 55.3886 27.4334 55.1081 27.7075C54.8275 27.9815 54.6051 28.307 54.4534 28.6654C54.3018 29.0236 54.2239 29.4077 54.2242 29.7956C54.2229 30.1916 54.304 30.5837 54.4623 30.9482C54.5035 31.042 54.5498 31.1335 54.6012 31.2223L53.0662 32.7241C52.6185 32.484 52.1159 32.3591 51.6053 32.361C51.209 32.3601 50.8163 32.4358 50.4498 32.5836C50.0833 32.7316 49.7502 32.9488 49.4698 33.2228C49.1893 33.4969 48.9669 33.8224 48.8151 34.1806C48.6634 34.539 48.5855 34.9231 48.586 35.3108C48.5847 35.7069 48.6657 36.099 48.824 36.4635C49.0531 36.9907 49.433 37.4419 49.918 37.7627C50.4163 38.0919 51.0041 38.2672 51.6053 38.2657C52.0992 38.2649 52.5854 38.1458 53.0212 37.9185C53.4571 37.6914 53.8294 37.3631 54.1055 36.9624C54.2887 36.7031 54.4248 36.4149 54.5078 36.1103H58.75C58.7827 36.2307 58.8246 36.3485 58.8754 36.4627C58.9163 36.5564 58.9623 36.648 59.0134 36.7369L57.4767 38.2401C57.0304 37.9995 56.5288 37.874 56.0192 37.8755C55.6227 37.8743 55.2297 37.9497 54.8631 38.0975C54.4964 38.2453 54.1632 38.4624 53.8826 38.7365C53.6019 39.0106 53.3795 39.3363 53.2278 39.6947C53.0762 40.0531 52.9984 40.4374 52.999 40.8254C52.998 41.2214 53.0793 41.6136 53.2378 41.978C53.4678 42.5045 53.8476 42.9551 54.3319 43.2763C54.7865 43.5749 55.3154 43.7471 55.8621 43.7744C56.409 43.8018 56.9531 43.6834 57.4364 43.4319C57.9198 43.1802 58.3242 42.805 58.6065 42.346C58.8889 41.8871 59.0386 41.3618 59.0395 40.8262C59.0387 40.4322 58.9575 40.0423 58.8005 39.6793C58.7509 39.5682 58.6962 39.4578 58.6372 39.3549L60.152 37.8731H60.1562C60.614 38.1294 61.1325 38.2635 61.6601 38.2625C62.4601 38.2599 63.2268 37.9477 63.7924 37.394C64.3582 36.8405 64.6771 36.0904 64.6794 35.3076C64.6766 34.9145 64.5943 34.5258 64.4371 34.164ZM55.9645 29.2661C56.0705 29.0236 56.2458 28.8161 56.4694 28.6685C56.6612 28.5417 56.8823 28.4636 57.1126 28.4412C57.343 28.4191 57.5755 28.4532 57.7889 28.5409C58.0414 28.6444 58.2567 28.8188 58.4079 29.0419C58.5593 29.2651 58.6396 29.5271 58.6389 29.7948C58.6403 29.9777 58.6034 30.159 58.5304 30.3275C58.4249 30.5707 58.2495 30.7786 58.0254 30.9259C57.7951 31.0798 57.5225 31.1615 57.2437 31.1597C57.0153 31.1596 56.7903 31.1045 56.5887 30.9994C56.3871 30.8943 56.2151 30.7424 56.0874 30.5571C55.9602 30.3683 55.8824 30.1518 55.861 29.9267C55.8396 29.7015 55.8752 29.4747 55.9645 29.2661ZM52.8903 35.8427C52.7928 36.0693 52.6344 36.2659 52.4319 36.4116C52.2294 36.5572 51.9904 36.6465 51.7403 36.6701C51.49 36.6936 51.2379 36.6506 51.0109 36.5453C50.7837 36.4401 50.5898 36.2767 50.45 36.0725C50.323 35.8837 50.2453 35.6674 50.2239 35.4424C50.2025 35.2175 50.2378 34.9907 50.327 34.7823C50.4336 34.5401 50.6088 34.3327 50.832 34.1846C51.0238 34.0577 51.2449 33.9798 51.4752 33.9574C51.7056 33.9351 51.9379 33.9694 52.1515 34.0571C52.4038 34.1605 52.6193 34.3348 52.7706 34.5581C52.9218 34.7811 53.0022 35.0431 53.0015 35.3108C53.002 35.494 52.9642 35.6753 52.8903 35.8435V35.8427ZM57.3009 41.3589C57.1947 41.6017 57.0194 41.8094 56.7959 41.9575C56.5661 42.1094 56.2949 42.1905 56.0175 42.1904C55.8321 42.1902 55.6484 42.1541 55.4772 42.0842C55.228 41.9802 55.0144 41.8089 54.8612 41.5903C54.6944 41.3467 54.6123 41.057 54.6271 40.7643C54.6418 40.4715 54.7527 40.1912 54.943 39.9648C55.1334 39.7385 55.3934 39.5783 55.6842 39.5078C55.9751 39.4374 56.2814 39.4606 56.5578 39.5739C56.8071 39.6772 57.0208 39.8487 57.1729 40.068C57.3009 40.2562 57.3793 40.4725 57.4013 40.6975C57.4233 40.9226 57.3882 41.1494 57.2992 41.3581L57.3009 41.3589ZM62.9392 35.8427C62.8331 36.0855 62.6578 36.2933 62.4342 36.4413C62.2044 36.5932 61.9333 36.6744 61.6559 36.6743C61.4275 36.6744 61.2025 36.6197 61.0008 36.5148C60.7992 36.4097 60.627 36.2578 60.4995 36.0725C60.3717 35.8841 60.2935 35.6678 60.2717 35.4427C60.25 35.2176 60.2855 34.9907 60.375 34.7823C60.481 34.5397 60.6563 34.3321 60.8799 34.1846C61.0717 34.0577 61.2928 33.9798 61.5232 33.9574C61.7535 33.9351 61.986 33.9694 62.1994 34.0571C62.4518 34.1608 62.6671 34.3351 62.8185 34.5582C62.9698 34.7813 63.0504 35.0431 63.0502 35.3108C63.0502 35.494 63.0121 35.6753 62.9384 35.8435L62.9392 35.8427Z" fill="black"/>
<path id="Vector_4" d="M61.2387 52.0293H52.0659C50.0674 52.0293 48.4473 53.6143 48.4473 55.5696C48.4473 57.5248 50.0674 59.1097 52.0659 59.1097H61.2387C63.2372 59.1097 64.8574 57.5248 64.8574 55.5696C64.8574 53.6143 63.2372 52.0293 61.2387 52.0293Z" fill="#49FFBA" stroke="black" stroke-width="0.882292"/>
<path id="Vector_5" d="M61.3462 59.0275C63.3214 59.0275 64.9228 57.4608 64.9228 55.5283C64.9228 53.596 63.3214 52.0293 61.3462 52.0293C59.3709 52.0293 57.7695 53.596 57.7695 55.5283C57.7695 57.4608 59.3709 59.0275 61.3462 59.0275Z" fill="white" stroke="black" stroke-width="0.882292"/>
</g>
<g id="Group 307">
<path id="Vector_6" d="M162.969 97.6615C163.597 97.6615 164.199 97.4152 164.642 96.9769C165.086 96.5386 165.336 95.944 165.336 95.3241V52.4545C165.336 51.8346 165.086 51.2401 164.642 50.8018C164.199 50.3634 163.597 50.1172 162.969 50.1172H90.7045C90.0768 50.1172 89.4749 50.3634 89.0311 50.8018C88.5872 51.2401 88.3379 51.8346 88.3379 52.4545V95.3241C88.3379 95.944 88.5872 96.5386 89.0311 96.9769C89.4749 97.4152 90.0768 97.6615 90.7045 97.6615" fill="white"/>
<path id="Vector_7" d="M162.973 98.0645C163.709 98.0645 164.415 97.776 164.936 97.2624C165.456 96.7487 165.749 96.0519 165.75 95.3251V52.0533H165.336V52.4555H165.747C165.747 51.7281 165.454 51.0305 164.933 50.5162C164.413 50.0018 163.706 49.7129 162.97 49.7129H90.7086C89.9721 49.7129 89.2658 50.0018 88.745 50.5162C88.2242 51.0305 87.9316 51.7281 87.9316 52.4555V95.3251C87.9316 95.6851 88.0035 96.0416 88.1431 96.3742C88.2827 96.7067 88.4873 97.0089 88.7452 97.2633C89.0031 97.5177 89.3092 97.7194 89.6461 97.8569C89.983 97.9944 90.3441 98.065 90.7086 98.0645V97.2572C90.1895 97.2572 89.6916 97.0537 89.3242 96.6915C88.9568 96.3292 88.75 95.8378 88.7491 95.3251V52.4555C88.7508 51.9427 88.9578 51.4515 89.3249 51.0889C89.692 50.7263 90.1894 50.5219 90.7086 50.5203H162.97C163.489 50.5219 163.986 50.7263 164.354 51.0889C164.721 51.4515 164.928 51.9427 164.929 52.4555V52.8607V95.3251C164.928 95.8378 164.722 96.3292 164.354 96.6915C163.987 97.0537 163.489 97.2572 162.97 97.2572V98.0645H162.973Z" fill="black"/>
<path id="Vector_8" d="M74.7891 109.477V110.95C74.7899 111.386 74.9658 111.805 75.2782 112.113C75.5906 112.422 76.0141 112.595 76.4559 112.596H177.221C177.663 112.595 178.086 112.421 178.398 112.113C178.71 111.804 178.885 111.386 178.885 110.95V109.477" fill="white"/>
<path id="Vector_9" d="M74.3809 109.477V110.95C74.3809 111.493 74.5994 112.014 74.9883 112.398C75.3773 112.782 75.9048 112.998 76.4548 112.998H177.22C177.77 112.998 178.298 112.782 178.687 112.398C179.076 112.014 179.294 111.493 179.294 110.95V109.477H178.477V110.95C178.473 111.278 178.339 111.591 178.104 111.823C177.87 112.055 177.552 112.187 177.22 112.191H76.4548C76.1201 112.191 75.7989 112.061 75.5607 111.828C75.3225 111.596 75.1866 111.28 75.1825 110.95V109.477H74.3809Z" fill="black"/>
<path id="Vector_10" d="M177.611 110.539C177.873 110.539 178.127 110.458 178.341 110.309C178.555 110.16 178.717 109.95 178.805 109.707C178.893 109.464 178.903 109.2 178.834 108.951C178.765 108.702 178.62 108.48 178.419 108.315L165.695 97.948C165.468 97.7632 165.182 97.6621 164.887 97.6621H88.793C88.4983 97.6621 88.2127 97.7632 87.9851 97.948L75.2613 108.315C75.06 108.48 74.915 108.702 74.8459 108.951C74.7769 109.2 74.7872 109.464 74.8755 109.707C74.9638 109.95 75.1258 110.16 75.3394 110.309C75.553 110.458 75.8078 110.539 76.0693 110.539H177.611Z" fill="white"/>
<path id="Vector_11" d="M177.613 110.539V110.944C177.852 110.946 178.089 110.896 178.307 110.8C178.608 110.668 178.862 110.449 179.035 110.172C179.205 109.903 179.295 109.593 179.296 109.276C179.296 109.042 179.245 108.811 179.146 108.598C179.039 108.369 178.88 108.167 178.682 108.007L165.958 97.6399C165.657 97.3951 165.279 97.2608 164.889 97.2598H88.7951C88.4051 97.2608 88.0275 97.3951 87.7263 97.6399L75.0026 108.007C74.8047 108.167 74.6459 108.369 74.5382 108.598C74.4397 108.811 74.3887 109.042 74.3887 109.276C74.389 109.702 74.5514 110.113 74.8435 110.426C75.0007 110.592 75.1909 110.724 75.4022 110.814C75.6135 110.903 75.8414 110.949 76.0714 110.948H177.613V110.14H76.065C75.9414 110.141 75.8189 110.117 75.7056 110.068C75.5542 110.001 75.4259 109.892 75.3366 109.754C75.2478 109.612 75.2005 109.449 75.1998 109.283C75.2005 109.165 75.2254 109.048 75.273 108.94C75.3285 108.819 75.4112 108.711 75.5147 108.626L88.2385 98.2588C88.3922 98.1328 88.5858 98.0638 88.7856 98.064H164.883C165.083 98.0644 165.276 98.1332 165.43 98.2588L178.154 108.626C178.258 108.71 178.341 108.818 178.396 108.94C178.446 109.047 178.472 109.164 178.472 109.283C178.472 109.505 178.386 109.719 178.233 109.883C178.159 109.964 178.068 110.03 177.966 110.074C177.853 110.122 177.73 110.147 177.607 110.146L177.613 110.539Z" fill="black"/>
<path id="Vector_12" d="M126.908 106.018H162.7L156.876 99.5781H126.908H126.768H96.8009L90.9766 106.018H126.768H126.908Z" fill="white"/>
<path id="Vector_13" d="M126.902 106.02V106.426H162.7C162.781 106.429 162.86 106.409 162.929 106.367C162.997 106.326 163.052 106.266 163.086 106.194C163.12 106.122 163.132 106.042 163.12 105.964C163.108 105.885 163.072 105.812 163.018 105.753L157.191 99.313C157.153 99.2704 157.107 99.2362 157.055 99.2129C157.003 99.1896 156.946 99.1777 156.889 99.178H96.8009C96.7411 99.176 96.6816 99.1871 96.6266 99.2104C96.5717 99.2338 96.5226 99.2688 96.4829 99.313L90.6586 105.753C90.6053 105.811 90.5702 105.883 90.5578 105.96C90.5453 106.037 90.556 106.116 90.5886 106.187C90.6212 106.257 90.6736 106.317 90.7395 106.36C90.8054 106.402 90.8822 106.425 90.9608 106.426H126.902V105.618H91.8896L96.9791 99.9853H156.685L161.775 105.618H126.902V106.02Z" fill="black"/>
<path id="Vector_14" d="M161.138 53.1133H92.4902V94.9808H161.138V53.1133Z" fill="white"/>
<path id="Vector_15" d="M161.137 94.9861H161.547V53.1123C161.546 53.0051 161.503 52.9025 161.426 52.8266C161.349 52.7508 161.246 52.7079 161.137 52.707H92.4892C92.3812 52.7087 92.2781 52.752 92.202 52.8277C92.1259 52.9035 92.0828 53.0056 92.082 53.1123V94.9861C92.082 95.0927 92.1249 95.195 92.2013 95.2704C92.2776 95.3458 92.3812 95.3882 92.4892 95.3882H161.137C161.245 95.3873 161.348 95.3458 161.426 95.2719C161.503 95.1958 161.546 95.0933 161.547 94.9861H161.137V94.5808H92.8995V53.5175H160.73V94.9861H161.137Z" fill="black"/>
<path id="Vector_16" d="M134.907 72.7226C134.694 72.2243 134.348 71.7921 133.907 71.4716C133.466 71.1512 132.945 70.9543 132.4 70.9019C131.855 70.8494 131.306 70.9433 130.81 71.1737C130.315 71.404 129.891 71.7622 129.585 72.2105C129.403 72.4761 129.267 72.7704 129.184 73.0807H124.909C124.88 72.9578 124.84 72.8379 124.788 72.7226C124.74 72.6137 124.684 72.5086 124.62 72.4084L126.146 70.9005C126.607 71.1611 127.129 71.2976 127.661 71.2963C128.067 71.2978 128.47 71.2176 128.844 71.0607C129.4 70.8335 129.875 70.4482 130.21 69.9538C130.544 69.4593 130.722 68.878 130.721 68.2836C130.719 67.8834 130.638 67.4874 130.482 67.118C130.216 66.4691 129.729 65.9324 129.104 65.6007C128.48 65.269 127.758 65.1631 127.063 65.3013C126.368 65.4396 125.744 65.8132 125.298 66.3578C124.853 66.9023 124.614 67.5835 124.623 68.2836C124.622 68.6863 124.704 69.085 124.865 69.4554C124.906 69.5496 124.954 69.647 125.001 69.7349L123.455 71.2617C122.993 71.011 122.472 70.8834 121.944 70.8916C121.417 70.8997 120.9 71.0434 120.446 71.3083C119.992 71.5733 119.615 71.9504 119.353 72.4027C119.091 72.855 118.952 73.3669 118.951 73.8881C118.951 74.5309 119.161 75.1567 119.548 75.6734C119.935 76.1901 120.48 76.5705 121.102 76.7586C121.725 76.9467 122.392 76.9327 123.005 76.7185C123.619 76.5043 124.147 76.1014 124.511 75.5688C124.695 75.3048 124.832 75.0115 124.915 74.7017H129.184C129.218 74.8239 129.261 74.9436 129.311 75.0599C129.353 75.1555 129.4 75.2488 129.451 75.3395L127.902 76.8663C127.453 76.6224 126.949 76.4948 126.436 76.4956C126.029 76.4957 125.625 76.5757 125.249 76.7312C124.508 77.0429 123.921 77.632 123.618 78.3698C123.316 79.1076 123.321 79.9338 123.634 80.6676C123.865 81.2024 124.247 81.6603 124.734 81.987C125.237 82.3216 125.83 82.4999 126.436 82.4991C126.843 82.5007 127.246 82.4194 127.619 82.2603C128.168 82.0287 128.636 81.6435 128.967 81.1523C129.297 80.6611 129.474 80.0853 129.477 79.4958C129.476 79.0952 129.394 78.699 129.235 78.3302C129.186 78.2176 129.131 78.1075 129.07 78.0004L130.593 76.4956C131.145 76.8093 131.782 76.944 132.416 76.8806C133.049 76.8173 133.646 76.5591 134.123 76.1425C134.599 75.7259 134.931 75.1719 135.072 74.5589C135.213 73.9458 135.155 73.3046 134.907 72.7257V72.7226ZM126.372 67.7432C126.479 67.4969 126.656 67.2864 126.881 67.1369C127.074 67.0071 127.296 66.9273 127.528 66.9048C127.76 66.8823 127.993 66.9178 128.208 67.0081C128.459 67.1127 128.675 67.2874 128.828 67.5107C128.982 67.7383 129.064 68.0064 129.063 68.2804C129.066 68.467 129.029 68.6521 128.955 68.8239C128.884 68.9913 128.779 69.1431 128.648 69.2706C128.517 69.3981 128.362 69.4989 128.192 69.5672C128.021 69.6355 127.839 69.6699 127.655 69.6685C127.471 69.6671 127.289 69.6299 127.12 69.559C126.869 69.4536 126.653 69.2791 126.5 69.0564C126.344 68.828 126.263 68.5585 126.267 68.2836C126.265 68.0983 126.301 67.9146 126.372 67.7432V67.7432ZM123.277 74.4316C123.17 74.6775 122.993 74.8879 122.768 75.0379C122.536 75.1934 122.263 75.2765 121.983 75.2767C121.796 75.2751 121.611 75.2377 121.439 75.1667C121.182 75.0639 120.96 74.8892 120.802 74.664C120.647 74.4343 120.566 74.1641 120.567 73.8881C120.566 73.7033 120.604 73.5204 120.678 73.3509C120.784 73.1025 120.96 72.8901 121.186 72.7399C121.412 72.5897 121.678 72.5083 121.951 72.5058C122.138 72.5048 122.323 72.5411 122.495 72.6126C122.747 72.7186 122.962 72.8942 123.115 73.1184C123.245 73.3096 123.325 73.5298 123.347 73.7591C123.369 73.9883 123.333 74.2195 123.242 74.4316H123.277ZM127.731 80.0361C127.624 80.2867 127.445 80.5008 127.216 80.6516C126.987 80.8025 126.718 80.8834 126.442 80.8843C126.212 80.8832 125.986 80.8269 125.783 80.7201C125.581 80.6134 125.407 80.4595 125.278 80.2717C125.121 80.0429 125.037 79.7723 125.039 79.4958C125.039 79.311 125.076 79.1281 125.151 78.9586C125.257 78.7073 125.437 78.4928 125.667 78.3424C125.897 78.1919 126.166 78.1123 126.442 78.1135C126.629 78.1127 126.814 78.149 126.986 78.2203C127.24 78.3257 127.457 78.5031 127.61 78.7301C127.762 78.9571 127.843 79.2235 127.842 79.4958C127.839 79.6824 127.797 79.8665 127.718 80.0361H127.731ZM133.409 74.4316C133.301 74.6814 133.122 74.8946 132.893 75.0448C132.664 75.195 132.395 75.2756 132.12 75.2767C131.932 75.2754 131.747 75.2381 131.573 75.1667C131.322 75.062 131.108 74.8873 130.956 74.664C130.799 74.4353 130.715 74.1646 130.717 73.8881C130.717 73.7033 130.754 73.5204 130.829 73.3509C130.935 73.1044 131.111 72.893 131.335 72.7414C131.528 72.6135 131.751 72.5348 131.983 72.5123C132.215 72.4899 132.449 72.5243 132.664 72.6126C132.915 72.7204 133.13 72.8957 133.284 73.1184C133.438 73.3467 133.519 73.6143 133.52 73.8881C133.517 74.0757 133.474 74.2607 133.396 74.4316H133.409Z" fill="black"/>
<path id="Vector_17" d="M163.51 102.881H160.412L163.008 105.752C163.062 105.811 163.097 105.884 163.109 105.963C163.121 106.041 163.109 106.121 163.075 106.193C163.041 106.265 162.987 106.325 162.918 106.366C162.849 106.408 162.77 106.428 162.69 106.425H99.7073L97.8496 108.181H169.166L163.51 102.887" fill="#C3C4FD"/>
<path id="Vector_18" d="M159.311 102.881H133.574H133.434H103.498L100.578 105.617H126.767H126.907H161.786L159.311 102.881Z" fill="#C3C4FD"/>
<path id="Vector_19" d="M160.409 102.881H159.312L161.786 105.617H100.579L99.7168 106.425H162.699C162.78 106.428 162.859 106.408 162.928 106.366C162.996 106.325 163.051 106.265 163.085 106.193C163.119 106.121 163.131 106.041 163.119 105.963C163.107 105.884 163.071 105.811 163.017 105.752L160.422 102.881" fill="black"/>
<path id="Vector_20" d="M163.572 102.721H160.26L160.407 102.881H163.505L169.16 108.174H133.572H133.432H97.8439L99.7143 106.425H99.4758L97.4336 108.338H133.432H133.572H169.571L163.572 102.721Z" fill="#C3C5FD"/>
<path id="Vector_21" d="M159.165 102.721H133.574H133.434H103.435L100.34 105.617H100.578L103.499 102.881H133.434H133.574H159.311L159.165 102.721Z" fill="#C3C5FD"/>
</g>
<path id="Vector_22" d="M146.299 25.864C146.869 25.864 147.33 25.4122 147.33 24.855C147.33 24.2975 146.869 23.8457 146.299 23.8457C145.729 23.8457 145.268 24.2975 145.268 24.855C145.268 25.4122 145.729 25.864 146.299 25.864Z" stroke="black" stroke-width="1.17638" stroke-miterlimit="10"/>
<path id="Vector_23" d="M33.3695 10.2115C33.9391 10.2115 34.4009 9.75969 34.4009 9.20242C34.4009 8.64512 33.9391 8.19336 33.3695 8.19336C32.7997 8.19336 32.3379 8.64512 32.3379 9.20242C32.3379 9.75969 32.7997 10.2115 33.3695 10.2115Z" stroke="black" stroke-width="1.17638" stroke-miterlimit="10"/>
<path id="Vector_24" d="M38.7286 84.2114C39.2983 84.2114 39.7601 83.7596 39.7601 83.2024C39.7601 82.6452 39.2983 82.1934 38.7286 82.1934C38.159 82.1934 37.6973 82.6452 37.6973 83.2024C37.6973 83.7596 38.159 84.2114 38.7286 84.2114Z" stroke="black" stroke-width="1.17638" stroke-miterlimit="10"/>
<path id="Vector_25" d="M18.4727 41.0312V43.0138" stroke="black" stroke-width="1.17638" stroke-miterlimit="10" stroke-linecap="round"/>
<path id="Vector_26" d="M17.4629 42.0234H19.4893" stroke="black" stroke-width="1.17638" stroke-miterlimit="10" stroke-linecap="round"/>
<path id="Vector_27" d="M178.877 57.166V59.1485" stroke="black" stroke-width="1.17638" stroke-miterlimit="10" stroke-linecap="round"/>
<path id="Vector_28" d="M177.861 58.1582H179.888" stroke="black" stroke-width="1.17638" stroke-miterlimit="10" stroke-linecap="round"/>
<path id="Vector_29" d="M67.8359 1V3.13727" stroke="black" stroke-width="1.17638" stroke-miterlimit="10" stroke-linecap="round"/>
<path id="Vector_30" d="M66.7422 2.06836H68.9268" stroke="black" stroke-width="1.17638" stroke-miterlimit="10" stroke-linecap="round"/>
<path id="Vector_31" d="M17.5801 108.9H54.8531" stroke="black" stroke-width="0.882292" stroke-miterlimit="10"/>
<path id="Vector_32" d="M0 112.73H37.2729" stroke="black" stroke-width="0.882292" stroke-miterlimit="10"/>
<path id="Vector_33" d="M55.5273 105.971H22.0762C22.3587 104.417 23.1913 103.01 24.4283 101.996C25.6649 100.982 27.2269 100.426 28.8404 100.426C28.9291 100.426 29.0175 100.426 29.103 100.426C30.0567 98.7684 31.4879 97.4224 33.2183 96.5553C34.9487 95.6883 36.9019 95.3388 38.8339 95.5504C40.766 95.762 42.5915 96.5251 44.0832 97.745C45.5751 98.9648 46.6666 100.587 47.2223 102.41C47.9294 101.772 48.811 101.35 49.7597 101.194C50.7082 101.039 51.6826 101.157 52.5636 101.535C53.4446 101.912 54.1941 102.533 54.7205 103.32C55.2467 104.108 55.527 105.029 55.5273 105.97V105.971Z" fill="#A883F8"/>
<path id="Vector_34" d="M46.1689 108.902H9.73438C10.0433 107.209 10.951 105.677 12.2985 104.574C13.6459 103.47 15.3473 102.866 17.1045 102.866C17.201 102.866 17.2975 102.866 17.3924 102.866C18.4311 101.062 19.9894 99.5964 21.8734 98.6524C23.7572 97.7083 25.8836 97.3276 27.9871 97.5574C30.0907 97.7874 32.0784 98.6176 33.7031 99.9449C35.3279 101.272 36.5172 103.038 37.1237 105.022C37.8938 104.327 38.8543 103.867 39.8875 103.698C40.921 103.528 41.9822 103.658 42.9417 104.069C43.9014 104.48 44.7176 105.156 45.2908 106.014C45.8638 106.873 46.1689 107.875 46.1689 108.9V108.902Z" stroke="black" stroke-width="0.882292" stroke-linecap="round" stroke-linejoin="round"/>
<path id="Vector_35" d="M163.446 13.4017H132.588C133.102 10.5489 135.698 8.39629 138.835 8.39629C138.916 8.39629 138.997 8.39629 139.079 8.39629C140.647 5.72503 143.622 3.93555 147.03 3.93555C151.167 3.93555 154.656 6.58086 155.765 10.1858C156.576 9.45961 157.658 9.01872 158.848 9.01872C161.39 9.01872 163.446 10.9897 163.446 13.4017Z" fill="#C4C6FC"/>
<path id="Vector_36" d="M180.442 21.0757H161.352C161.675 19.2364 163.293 17.8298 165.207 17.8298C165.261 17.8298 165.315 17.8298 165.369 17.8298C166.34 16.0987 168.173 14.9355 170.303 14.9355C172.865 14.9355 175.022 16.6397 175.723 18.9929C176.235 18.5331 176.909 18.2356 177.637 18.2356C179.174 18.2626 180.442 19.5339 180.442 21.0757Z" fill="#C4C6FC"/>
</g>
</svg>
