<svg width="212" height="120" viewBox="0 0 212 120" fill="none" xmlns="http://www.w3.org/2000/svg">
<g id="Group 296">
<g id="Group">
<path id="Vector" d="M116.697 74.3219C99.747 74.3219 85.9336 60.5292 85.9336 43.5584C85.9336 26.5876 99.747 12.7949 116.697 12.7949C133.647 12.7949 147.461 26.5876 147.461 43.5584C147.461 60.5292 133.668 74.3219 116.697 74.3219ZM116.697 13.3973C100.079 13.3973 86.536 26.92 86.536 43.5584C86.536 60.1969 100.059 73.7195 116.697 73.7195C133.336 73.7195 146.858 60.1969 146.858 43.5584C146.858 26.92 133.336 13.3973 116.697 13.3973Z" fill="black"/>
</g>
<g id="Group_2">
<path id="Vector_2" d="M116.575 71.0395C131.719 71.0395 143.995 58.7635 143.995 43.6203C143.995 28.4772 131.719 16.2012 116.575 16.2012C101.432 16.2012 89.1562 28.4772 89.1562 43.6203C89.1562 58.7635 101.432 71.0395 116.575 71.0395Z" fill="#A577FF"/>
<path id="Vector_3" d="M116.573 71.1217C101.409 71.1217 89.0703 58.7831 89.0703 43.6194C89.0703 28.4558 101.409 16.1172 116.573 16.1172C131.736 16.1172 144.075 28.4558 144.075 43.6194C144.054 58.7831 131.715 71.1217 116.573 71.1217Z" fill="#2B2A33"/>
</g>
<path id="Vector_4" d="M136.577 63.3174C147.431 52.4632 147.431 34.865 136.577 24.0107C125.723 13.1565 108.125 13.1565 97.2705 24.0107C86.4163 34.865 86.4163 52.4632 97.2705 63.3174C108.125 74.1716 125.723 74.1716 136.577 63.3174Z" fill="#C5C8FB"/>
<g id="Group_3">
<g id="Group_4">
<path id="Vector_5" d="M108.41 73.1575C100.849 65.8873 96.5078 55.1066 96.5078 43.5573C96.5078 32.0288 100.849 21.2273 108.41 13.957L108.826 14.3725C101.368 21.5388 97.1102 32.1742 97.1102 43.5365C97.1102 54.9196 101.389 65.5549 108.826 72.7005L108.41 73.1575Z" fill="black"/>
</g>
</g>
<g id="Group_5">
<g id="Group_6">
<path id="Vector_6" d="M125.005 73.1589L124.59 72.7435C132.047 65.5771 136.305 54.9418 136.305 43.5795C136.305 32.1964 132.026 21.561 124.59 14.4154L125.005 14C132.566 21.2702 136.908 32.051 136.908 43.6002C136.908 55.0872 132.566 65.8887 125.005 73.1589Z" fill="black"/>
</g>
</g>
<g id="Group_7">
<g id="Group_8">
<path id="Vector_7" d="M116.717 63.7476C105.189 63.7476 94.3874 59.4062 87.1172 51.8451L87.5326 51.4297C94.699 58.8869 105.334 63.1452 116.697 63.1452C128.08 63.1452 138.715 58.8661 145.861 51.4297L146.276 51.8451C139.027 59.427 128.246 63.7476 116.717 63.7476Z" fill="black"/>
</g>
</g>
<g id="Group_9">
<g id="Group_10">
<path id="Vector_8" d="M145.88 35.6635C138.714 28.2064 128.079 23.9481 116.716 23.9481C105.333 23.9481 94.6978 28.2271 87.5522 35.6635L87.1367 35.2481C94.407 27.6871 105.188 23.3457 116.737 23.3457C128.265 23.3457 139.067 27.6871 146.337 35.2481L145.88 35.6635Z" fill="black"/>
</g>
</g>
<g id="Group_11">
<path id="Vector_9" d="M147.171 43.2656H86.2461V43.8472H147.171V43.2656Z" fill="black"/>
</g>
<g id="Group_12">
<path id="Vector_10" d="M116.984 13.1055H116.402V74.03H116.984V13.1055Z" fill="black"/>
</g>
<g id="Group_13">
<path id="Vector_11" d="M83.2125 35.4356H50.1641C50.7249 32.2574 53.5084 29.8271 56.8527 29.8271C56.9358 29.8271 57.0189 29.8271 57.1227 29.8271C58.8053 26.8567 61.9834 24.8418 65.6393 24.8418C70.0637 24.8418 73.8027 27.7914 75.0075 31.8212C75.8799 31.0111 77.0432 30.5333 78.331 30.5333C81.0106 30.5333 83.2125 32.7352 83.2125 35.4356Z" fill="#6A3DE6"/>
</g>
<g id="Group_14">
<path id="Vector_12" d="M74.4033 38.3023H40.7109L40.7733 37.9492C41.3756 34.5634 44.3045 32.1122 47.7527 32.1122C47.7734 32.1122 47.815 32.1122 47.8358 32.1122C49.6429 29.038 52.9457 27.127 56.5185 27.127C60.7976 27.127 64.6404 29.8896 66.0321 33.8986C66.9461 33.1924 68.047 32.8185 69.1895 32.8185C72.056 32.8185 74.3825 35.145 74.3825 38.0115V38.3023H74.4033ZM41.4172 37.6999H73.8009C73.6555 35.3111 71.6406 33.4001 69.2103 33.4001C68.047 33.4001 66.9461 33.8363 66.0944 34.6257L65.7413 34.9373L65.5959 34.4803C64.4119 30.492 60.6729 27.7086 56.4977 27.7086C53.0703 27.7086 49.913 29.5573 48.2304 32.5485L48.1474 32.7146H47.9604C47.8773 32.7146 47.7942 32.7146 47.7111 32.7146C44.6992 32.6939 42.1027 34.7711 41.4172 37.6999Z" fill="black"/>
</g>
<g id="Group_15">
<g id="Group_16">
<path id="Vector_13" d="M160.803 37.9908C160.72 37.9908 160.637 37.9077 160.637 37.8246V36.3498C160.637 36.2667 160.72 36.1836 160.803 36.1836C160.886 36.1836 160.969 36.2667 160.969 36.3498V37.8246C160.969 37.9077 160.886 37.9908 160.803 37.9908Z" fill="black"/>
<path id="Vector_14" d="M160.8 38.137C160.634 38.137 160.488 37.9916 160.488 37.8255V36.3506C160.488 36.1845 160.634 36.0391 160.8 36.0391C160.966 36.0391 161.111 36.1845 161.111 36.3506V37.8255C161.111 37.9916 160.966 38.137 160.8 38.137ZM160.8 36.3091C160.779 36.3091 160.779 36.3299 160.8 36.3091L160.779 37.8047C160.779 37.8255 160.821 37.8255 160.821 37.8047L160.8 36.3091C160.821 36.3299 160.8 36.3091 160.8 36.3091Z" fill="black"/>
</g>
<g id="Group_17">
<path id="Vector_15" d="M161.694 37.0763C161.694 37.1594 161.611 37.2425 161.528 37.2425H160.053C159.97 37.2425 159.887 37.1594 159.887 37.0763C159.887 36.9932 159.97 36.9102 160.053 36.9102H161.528C161.632 36.9102 161.694 36.9932 161.694 37.0763Z" fill="black"/>
<path id="Vector_16" d="M161.525 37.3888H160.05C159.884 37.3888 159.738 37.2434 159.738 37.0772C159.738 36.911 159.884 36.7656 160.05 36.7656H161.525C161.691 36.7656 161.836 36.911 161.836 37.0772C161.836 37.2434 161.712 37.3888 161.525 37.3888ZM160.05 37.0564C160.029 37.0772 160.05 37.0564 160.05 37.0564C160.029 37.0772 160.05 37.098 160.05 37.098H161.525C161.525 37.098 161.545 37.098 161.545 37.0772C161.545 37.0564 161.545 37.0564 161.525 37.0564H160.05Z" fill="black"/>
</g>
</g>
<g id="Group_18">
<g id="Group_19">
<path id="Vector_17" d="M210.119 99.6822C210.036 99.6822 209.953 99.5991 209.953 99.516V98.0412C209.953 97.9581 210.036 97.875 210.119 97.875C210.202 97.875 210.285 97.9581 210.285 98.0412V99.516C210.285 99.5991 210.223 99.6822 210.119 99.6822Z" fill="black"/>
<path id="Vector_18" d="M210.116 99.8285C209.95 99.8285 209.805 99.683 209.805 99.5169V98.0421C209.805 97.8759 209.95 97.7305 210.116 97.7305C210.282 97.7305 210.428 97.8759 210.428 98.0421V99.5169C210.428 99.683 210.282 99.8285 210.116 99.8285ZM210.116 98.0213C210.095 98.0213 210.116 98.0213 210.116 98.0213L210.095 99.5169C210.095 99.5376 210.137 99.5376 210.137 99.5169L210.116 98.0213C210.137 98.0213 210.137 98.0213 210.116 98.0213Z" fill="black"/>
</g>
<g id="Group_20">
<path id="Vector_19" d="M211.03 98.7697C211.03 98.8528 210.947 98.9359 210.864 98.9359H209.389C209.306 98.9359 209.223 98.8528 209.223 98.7697C209.223 98.6866 209.306 98.6035 209.389 98.6035H210.864C210.947 98.6035 211.03 98.6866 211.03 98.7697Z" fill="black"/>
<path id="Vector_20" d="M210.861 99.0822H209.386C209.22 99.0822 209.074 98.9368 209.074 98.7706C209.074 98.6044 209.22 98.459 209.386 98.459H210.861C211.027 98.459 211.172 98.6044 211.172 98.7706C211.172 98.9368 211.027 99.0822 210.861 99.0822ZM209.365 98.7498C209.365 98.7498 209.365 98.7706 209.365 98.7498C209.344 98.7706 209.365 98.7914 209.365 98.7914H210.84C210.84 98.7914 210.861 98.7914 210.861 98.7706C210.861 98.7498 210.861 98.7498 210.84 98.7498H209.365Z" fill="black"/>
</g>
</g>
<g id="Group_21">
<g id="Group_22">
<path id="Vector_21" d="M11.2834 45.5103C11.2003 45.5103 11.1172 45.4272 11.1172 45.3441V43.8693C11.1172 43.7862 11.2003 43.7031 11.2834 43.7031C11.3665 43.7031 11.4495 43.7862 11.4495 43.8693V45.3441C11.4495 45.4272 11.3665 45.5103 11.2834 45.5103Z" fill="black"/>
<path id="Vector_22" d="M11.2803 45.6566C11.1142 45.6566 10.9688 45.5112 10.9688 45.345V43.8702C10.9688 43.704 11.1142 43.5586 11.2803 43.5586C11.4465 43.5586 11.5919 43.704 11.5919 43.8702V45.345C11.5919 45.5112 11.4465 45.6566 11.2803 45.6566ZM11.2803 43.8494C11.2596 43.8494 11.2803 43.8494 11.2803 43.8494L11.2596 45.345C11.2596 45.3658 11.3011 45.3658 11.3011 45.345L11.2803 43.8494C11.3011 43.8494 11.2803 43.8494 11.2803 43.8494Z" fill="black"/>
</g>
<g id="Group_23">
<path id="Vector_23" d="M12.1939 44.5959C12.1939 44.679 12.1108 44.7621 12.0277 44.7621H10.5529C10.4698 44.7621 10.3867 44.679 10.3867 44.5959C10.3867 44.5128 10.4698 44.4297 10.5529 44.4297H12.0277C12.1108 44.4297 12.1939 44.5128 12.1939 44.5959Z" fill="black"/>
<path id="Vector_24" d="M12.0247 44.9083H10.5499C10.3837 44.9083 10.2383 44.7629 10.2383 44.5967C10.2383 44.4306 10.3837 44.2852 10.5499 44.2852H12.0247C12.1909 44.2852 12.3363 44.4306 12.3363 44.5967C12.3363 44.7837 12.1909 44.9083 12.0247 44.9083ZM10.5291 44.5967C10.5083 44.5967 10.5291 44.5967 10.5291 44.5967C10.5083 44.6175 10.5291 44.6383 10.5291 44.6383H12.0039C12.0039 44.6383 12.0247 44.6383 12.0247 44.6175C12.0247 44.5967 12.0247 44.5967 12.0039 44.5967H10.5291Z" fill="black"/>
</g>
</g>
<g id="Group_24">
<g id="Group_25">
<path id="Vector_25" d="M196.135 38.4478C196.052 38.4478 195.969 38.3647 195.969 38.2816V36.8068C195.969 36.7237 196.052 36.6406 196.135 36.6406C196.218 36.6406 196.301 36.7237 196.301 36.8068V38.2816C196.301 38.3855 196.218 38.4478 196.135 38.4478Z" fill="black"/>
<path id="Vector_26" d="M196.132 38.5941C195.966 38.5941 195.82 38.4486 195.82 38.2825V36.8077C195.82 36.6415 195.966 36.4961 196.132 36.4961C196.298 36.4961 196.443 36.6415 196.443 36.8077V38.2825C196.443 38.4694 196.298 38.5941 196.132 38.5941ZM196.132 36.7869C196.111 36.7869 196.132 36.7869 196.132 36.7869L196.111 38.2825C196.111 38.3032 196.153 38.3032 196.153 38.2825L196.132 36.7869C196.153 36.7869 196.132 36.7869 196.132 36.7869Z" fill="black"/>
</g>
<g id="Group_26">
<path id="Vector_27" d="M197.047 37.5548C197.047 37.6379 196.964 37.721 196.881 37.721H195.385C195.302 37.721 195.219 37.6379 195.219 37.5548C195.219 37.4718 195.302 37.3887 195.385 37.3887H196.86C196.964 37.3887 197.047 37.451 197.047 37.5548Z" fill="black"/>
<path id="Vector_28" d="M196.877 37.8673H195.382C195.216 37.8673 195.07 37.7219 195.07 37.5557C195.07 37.3895 195.216 37.2441 195.382 37.2441H196.857C197.023 37.2441 197.168 37.3895 197.168 37.5557C197.189 37.7219 197.044 37.8673 196.877 37.8673ZM195.382 37.535C195.361 37.535 195.382 37.535 195.382 37.535C195.361 37.5557 195.382 37.5765 195.382 37.5765H196.857C196.857 37.5765 196.877 37.5765 196.877 37.5557C196.877 37.5557 196.877 37.535 196.857 37.535H195.382Z" fill="black"/>
</g>
</g>
<g id="Group_27">
<g id="Group_28">
<path id="Vector_29" d="M52.9513 82.1294C52.8682 82.1294 52.7852 82.0463 52.7852 81.9633V80.4884C52.7852 80.4054 52.8682 80.3223 52.9513 80.3223C53.0344 80.3223 53.1175 80.4054 53.1175 80.4884V81.9633C53.1175 82.0671 53.0552 82.1294 52.9513 82.1294Z" fill="black"/>
<path id="Vector_30" d="M52.9483 82.2757C52.7821 82.2757 52.6367 82.1303 52.6367 81.9641V80.4893C52.6367 80.3231 52.7821 80.1777 52.9483 80.1777C53.1145 80.1777 53.2599 80.3231 53.2599 80.4893V81.9641C53.2599 82.1303 53.1352 82.2757 52.9483 82.2757ZM52.9483 80.4685L52.9275 81.9641C52.9275 81.9849 52.9691 81.9849 52.9691 81.9641L52.9483 80.4685C52.9691 80.4685 52.9691 80.4685 52.9483 80.4685Z" fill="black"/>
</g>
<g id="Group_29">
<path id="Vector_31" d="M53.854 81.215C53.854 81.2981 53.771 81.3812 53.6879 81.3812H52.213C52.13 81.3812 52.0469 81.2981 52.0469 81.215C52.0469 81.1319 52.13 81.0488 52.213 81.0488H53.6879C53.771 81.0696 53.854 81.1319 53.854 81.215Z" fill="black"/>
<path id="Vector_32" d="M53.6927 81.5274H52.2178C52.0517 81.5274 51.9062 81.382 51.9062 81.2159C51.9062 81.0497 52.0517 80.9043 52.2178 80.9043H53.6927C53.8588 80.9043 54.0042 81.0497 54.0042 81.2159C54.0042 81.4028 53.8588 81.5274 53.6927 81.5274ZM52.2178 81.2159C52.1971 81.2159 52.1971 81.2159 52.2178 81.2159C52.1971 81.2366 52.2178 81.2574 52.2178 81.2574H53.6927C53.6927 81.2574 53.7134 81.2574 53.7134 81.2366C53.7134 81.2366 53.7134 81.2159 53.6927 81.2159H52.2178Z" fill="black"/>
</g>
</g>
<g id="Group_30">
<path id="Vector_33" d="M159.845 86.1406C159.284 86.1406 158.848 85.6836 158.848 85.1435C158.848 84.5827 159.305 84.1465 159.845 84.1465C160.406 84.1465 160.842 84.6035 160.842 85.1435C160.863 85.6836 160.406 86.1406 159.845 86.1406ZM159.845 84.7281C159.616 84.7281 159.429 84.9151 159.429 85.1435C159.429 85.372 159.616 85.559 159.845 85.559C160.073 85.559 160.26 85.372 160.26 85.1435C160.26 84.9151 160.073 84.7281 159.845 84.7281Z" fill="black"/>
</g>
<g id="Group_31">
<path id="Vector_34" d="M8.43456 101.16C7.87371 101.16 7.4375 100.703 7.4375 100.163C7.4375 99.6022 7.89449 99.166 8.43456 99.166C8.99541 99.166 9.43162 99.623 9.43162 100.163C9.43162 100.703 8.97464 101.16 8.43456 101.16ZM8.43456 99.7476C8.20607 99.7476 8.01912 99.9346 8.01912 100.163C8.01912 100.392 8.20607 100.578 8.43456 100.578C8.66305 100.578 8.85 100.392 8.85 100.163C8.85 99.9346 8.66305 99.7476 8.43456 99.7476Z" fill="black"/>
</g>
<g id="Group_32">
<g id="Group_33">
<path id="Vector_35" d="M33.3008 83.5449H44.8501L44.8085 87.5747H42.8559V88.9249H42.2535L42.0043 90.7528L40.9034 97.3791L33.3008 97.5038V83.5449Z" fill="#6A3DE6"/>
</g>
<g id="Group_34">
<g id="Group_35">
<path id="Vector_36" d="M29.4978 97.7111C29.4563 97.7111 29.4148 97.7111 29.394 97.6903C29.2901 97.6488 29.207 97.5449 29.207 97.4203V83.4822C29.207 83.316 29.3317 83.1914 29.4978 83.1914H44.8277C44.9938 83.1914 45.1185 83.316 45.1185 83.4822V87.5743C45.1185 87.7405 44.9938 87.8651 44.8277 87.8651C44.6615 87.8651 44.5368 87.7405 44.5368 87.5743V83.773H31.5751L31.6581 95.5508C31.6581 95.6339 31.6374 95.6962 31.5751 95.7585L29.7056 97.628C29.6432 97.6903 29.5602 97.7111 29.4978 97.7111ZM29.7887 83.773V96.714L31.0557 95.4469L30.9727 83.7938H29.7887V83.773Z" fill="black"/>
</g>
<g id="Group_36">
<path id="Vector_37" d="M33.2579 97.7533C33.1748 97.7533 33.1125 97.7326 33.0501 97.6703L31.1599 95.78C31.0352 95.6554 31.0352 95.4684 31.1599 95.3646C31.2845 95.2399 31.4715 95.2399 31.5753 95.3646L32.9671 96.7563V83.5037C32.9671 83.3375 33.0917 83.2129 33.2579 83.2129C33.424 83.2129 33.5487 83.3375 33.5487 83.5037V97.4625C33.5487 97.5872 33.4864 97.691 33.3617 97.7326C33.3202 97.7326 33.2994 97.7533 33.2579 97.7533Z" fill="black"/>
</g>
<g id="Group_37">
<path id="Vector_38" d="M41.2371 83.7733C41.0709 83.7733 40.9463 83.6487 40.9463 83.4825V81.6546C40.9463 80.5744 40.0531 79.6812 38.9729 79.6812C37.8928 79.6812 36.9996 80.5744 36.9996 81.6546V83.4825C36.9996 83.6487 36.875 83.7733 36.7088 83.7733C36.5426 83.7733 36.418 83.6487 36.418 83.4825V81.6546C36.418 80.2421 37.5604 79.0996 38.9729 79.0996C40.3854 79.0996 41.5279 80.2421 41.5279 81.6546V83.4825C41.5279 83.6487 41.4033 83.7733 41.2371 83.7733Z" fill="black"/>
</g>
<g id="Group_38">
<path id="Vector_39" d="M38.9715 83.7733C38.8053 83.7733 38.6807 83.6487 38.6807 83.4825V81.6546C38.6807 80.5744 37.7875 79.6812 36.7073 79.6812C35.6272 79.6812 34.734 80.5744 34.734 81.6546V83.4825C34.734 83.6487 34.6093 83.7733 34.4432 83.7733C34.277 83.7733 34.1523 83.6487 34.1523 83.4825V81.6546C34.1523 80.2421 35.2948 79.0996 36.7073 79.0996C38.1198 79.0996 39.2623 80.2421 39.2623 81.6546V83.4825C39.2623 83.6487 39.1377 83.7733 38.9715 83.7733Z" fill="black"/>
</g>
<g id="Group_39">
<path id="Vector_40" d="M40.8833 97.7114C40.8625 97.7114 40.8417 97.7114 40.8417 97.7114C40.6756 97.6907 40.5717 97.5245 40.5925 97.3791L42.0258 88.8625C42.0465 88.7171 42.1712 88.6133 42.3166 88.6133H48.3197C48.4859 88.6133 48.6105 88.7379 48.6105 88.9041C48.6105 89.0703 48.4859 89.1949 48.3197 89.1949H42.5866L41.1949 97.483C41.1533 97.6076 41.0287 97.7114 40.8833 97.7114Z" fill="black"/>
</g>
<g id="Group_40">
<path id="Vector_41" d="M55.9213 97.7107C55.7759 97.7107 55.6513 97.6069 55.6305 97.4615L54.2387 89.1734H48.5057C48.3395 89.1734 48.2148 89.0488 48.2148 88.8826C48.2148 88.7164 48.3395 88.5918 48.5057 88.5918H54.488C54.6334 88.5918 54.7581 88.6957 54.7788 88.8411L56.2121 97.3576C56.2329 97.5238 56.129 97.6692 55.9628 97.69C55.9628 97.7107 55.9421 97.7107 55.9213 97.7107Z" fill="black"/>
</g>
<g id="Group_41">
<path id="Vector_42" d="M50.9547 89.0705C50.7886 89.0705 50.6639 88.9459 50.6639 88.7797V86.8064C50.6639 85.6224 49.6876 84.6461 48.5036 84.6461C47.3196 84.6461 46.3433 85.6224 46.3433 86.8064V88.7797C46.3433 88.9459 46.2187 89.0705 46.0525 89.0705C45.8864 89.0705 45.7617 88.9459 45.7617 88.7797V86.8064C45.7617 85.29 46.9873 84.0645 48.5036 84.0645C50.02 84.0645 51.2456 85.29 51.2456 86.8064V88.7797C51.2456 88.9251 51.1001 89.0705 50.9547 89.0705Z" fill="black"/>
</g>
<g id="Group_42">
<path id="Vector_43" d="M54.0534 89.1527H42.8572C42.691 89.1527 42.5664 89.0281 42.5664 88.8619V87.574C42.5664 87.4078 42.691 87.2832 42.8572 87.2832H54.0534C54.2196 87.2832 54.3442 87.4078 54.3442 87.574V88.8619C54.365 89.0281 54.2196 89.1527 54.0534 89.1527ZM43.148 88.5711H53.7626V87.8648H43.148V88.5711Z" fill="black"/>
</g>
<g id="Group_43">
<path id="Vector_44" d="M62.9234 97.9625H24.8689C24.7028 97.9625 24.5781 97.8378 24.5781 97.6717C24.5781 97.5055 24.7028 97.3809 24.8689 97.3809H62.9234C63.0896 97.3809 63.2142 97.5055 63.2142 97.6717C63.2142 97.8378 63.0896 97.9625 62.9234 97.9625Z" fill="black"/>
</g>
</g>
</g>
<g id="Group_44">
<g id="Group_45">
<path id="Vector_45" d="M49.1893 71.9947H22.061C21.5209 71.9947 21.1055 71.5585 21.1055 71.0392V53.2582C21.1055 52.7182 21.5417 52.3027 22.061 52.3027H49.1893C49.7294 52.3027 50.1449 52.7389 50.1449 53.2582V71.0392C50.1449 71.5585 49.7294 71.9947 49.1893 71.9947ZM22.061 52.8844C21.8533 52.8844 21.6871 53.0505 21.6871 53.2582V71.0392C21.6871 71.2469 21.8533 71.4131 22.061 71.4131H49.1893C49.3971 71.4131 49.5632 71.2469 49.5632 71.0392V53.2582C49.5632 53.0505 49.3971 52.8844 49.1893 52.8844H22.061Z" fill="black"/>
</g>
<g id="Group_46">
<path id="Vector_46" d="M50.0606 55.4805H21.582V56.0621H50.0606V55.4805Z" fill="black"/>
</g>
<g id="Group_47">
<path id="Vector_47" d="M45.5509 59.4488H33.9392C33.7731 59.4488 33.6484 59.3242 33.6484 59.158C33.6484 58.9918 33.7731 58.8672 33.9392 58.8672H45.5509C45.717 58.8672 45.8417 58.9918 45.8417 59.158C45.8417 59.3242 45.717 59.4488 45.5509 59.4488Z" fill="black"/>
</g>
<g id="Group_48">
<path id="Vector_48" d="M45.5509 62.814H33.9392C33.7731 62.814 33.6484 62.6894 33.6484 62.5232C33.6484 62.3571 33.7731 62.2324 33.9392 62.2324H45.5509C45.717 62.2324 45.8417 62.3571 45.8417 62.5232C45.8417 62.6894 45.717 62.814 45.5509 62.814Z" fill="black"/>
</g>
<g id="Group_49">
<path id="Vector_49" d="M45.5509 66.2008H33.9392C33.7731 66.2008 33.6484 66.0761 33.6484 65.91C33.6484 65.7438 33.7731 65.6191 33.9392 65.6191H45.5509C45.717 65.6191 45.8417 65.7438 45.8417 65.91C45.8417 66.0554 45.717 66.2008 45.5509 66.2008Z" fill="black"/>
</g>
<g id="Group_50">
<path id="Vector_50" d="M31.089 63.127C31.3176 61.2826 30.0078 59.6021 28.1634 59.3736C26.319 59.145 24.6386 60.4548 24.41 62.2992C24.1814 64.1435 25.4912 65.824 27.3356 66.0526C29.1799 66.2812 30.8604 64.9713 31.089 63.127Z" fill="#A577FF"/>
<path id="Vector_51" d="M27.7509 66.3865C25.736 66.3865 24.0742 64.7455 24.0742 62.7099C24.0742 60.695 25.7152 59.0332 27.7509 59.0332C29.7658 59.0332 31.4275 60.6742 31.4275 62.7099C31.4275 64.7248 29.7658 66.3865 27.7509 66.3865ZM27.7509 59.6356C26.0476 59.6356 24.6766 61.0066 24.6766 62.7099C24.6766 64.4132 26.0476 65.7841 27.7509 65.7841C29.4542 65.7841 30.8251 64.4132 30.8251 62.7099C30.8251 61.0066 29.4542 59.6356 27.7509 59.6356Z" fill="black"/>
</g>
<g id="Group_51">
<path id="Vector_52" d="M27.1697 64.4745C27.1282 64.4745 27.0866 64.4745 27.0451 64.4537C26.9412 64.4122 26.8789 64.3083 26.8789 64.1837V61.2756C26.8789 61.1717 26.9412 61.0678 27.0451 61.0055C27.1489 60.964 27.2736 60.964 27.3567 61.0263L29.2885 62.4804C29.3716 62.5427 29.4131 62.6258 29.4131 62.7088C29.4131 62.7919 29.3716 62.8958 29.2885 62.9373L27.3567 64.3914C27.2943 64.4537 27.232 64.4745 27.1697 64.4745ZM27.4605 61.8572V63.5813L28.603 62.7088L27.4605 61.8572Z" fill="#2B2A33"/>
</g>
</g>
<g id="Group_52">
<path id="Vector_53" d="M48.0888 76.399C44.4536 76.399 41.0886 74.8203 38.8867 71.933L39.3645 71.5798C42.2518 75.3811 47.2994 76.7729 52.2224 75.1111C54.6943 74.2802 57.1662 71.9745 59.8042 69.5234C63.6055 65.9921 67.5315 62.3363 71.6859 63.2087L71.5612 63.7903C67.6976 62.9802 63.8963 66.5322 60.1989 69.9596C57.5193 72.4523 55.0059 74.7995 52.4094 75.6719C50.9553 76.1705 49.5013 76.399 48.0888 76.399Z" fill="black"/>
</g>
<g id="Group_53">
<path id="Vector_54" d="M18.2587 61.9206C14.1666 61.9206 12.0894 59.4903 9.57594 56.5614C8.80737 55.6682 8.01803 54.7542 7.10406 53.8195C5.00608 51.6799 2.43034 50.9114 0.207721 51.7423L0 51.1814C2.45111 50.2467 5.25534 51.0776 7.5195 53.3833C8.43347 54.318 9.24358 55.2527 10.0122 56.1667C13.0656 59.7188 15.2675 62.2945 21.0837 60.9859L21.2083 61.5675C20.1074 61.8167 19.1311 61.9206 18.2587 61.9206Z" fill="black"/>
</g>
<g id="Group_54">
<path id="Vector_55" d="M31.7266 41.8945H47.6795V47.503H36.0264L33.9492 49.2686V47.503H31.7266V41.8945Z" fill="#C2C2FF"/>
<path id="Vector_56" d="M33.8828 49.4346V47.5859H31.6602V41.832H47.7378V47.5859H36.0223L33.8828 49.4346ZM31.8056 47.4197H34.0282V49.1023L36.0015 47.4197H47.6131V41.9567H31.8263V47.4197H31.8056Z" fill="#C2C3FF"/>
</g>
<g id="Group_55">
<g id="Group_56">
<path id="Vector_57" d="M37.3679 118.898C40.408 118.898 42.8725 116.433 42.8725 113.393C42.8725 110.353 40.408 107.889 37.3679 107.889C34.3278 107.889 31.8633 110.353 31.8633 113.393C31.8633 116.433 34.3278 118.898 37.3679 118.898Z" fill="#A577FF"/>
<path id="Vector_58" d="M37.3665 118.959C34.313 118.959 31.8203 116.467 31.8203 113.413C31.8203 110.36 34.313 107.867 37.3665 107.867C40.42 107.867 42.9126 110.36 42.9126 113.413C42.9126 116.467 40.42 118.959 37.3665 118.959Z" fill="#A577FF"/>
</g>
<g id="Group_57">
<path id="Vector_59" d="M21.5866 118.898C24.6267 118.898 27.0912 116.433 27.0912 113.393C27.0912 110.353 24.6267 107.889 21.5866 107.889C18.5465 107.889 16.082 110.353 16.082 113.393C16.082 116.433 18.5465 118.898 21.5866 118.898Z" fill="#A577FF"/>
<path id="Vector_60" d="M21.5813 118.959C18.5278 118.959 16.0352 116.467 16.0352 113.413C16.0352 110.36 18.5278 107.867 21.5813 107.867C24.6348 107.867 27.1275 110.36 27.1275 113.413C27.1275 116.467 24.6556 118.959 21.5813 118.959Z" fill="#A577FF"/>
</g>
<g id="Group_58">
<path id="Vector_61" d="M34.9988 113.704C34.8742 113.704 34.7703 113.642 34.7288 113.517L30.8029 103.485C30.7613 103.401 30.7821 103.298 30.8444 103.214C30.9067 103.131 30.9898 103.09 31.0937 103.09H35.6012C36.536 103.09 37.2838 103.858 37.2838 104.772C37.2838 105.686 36.5152 106.455 35.6012 106.455H35.2273C35.0611 106.455 34.9365 106.33 34.9365 106.164C34.9365 105.998 35.0611 105.873 35.2273 105.873H35.5804C36.1828 105.873 36.6814 105.375 36.6814 104.772C36.6814 104.17 36.1828 103.671 35.5804 103.671H31.5091L35.2689 113.31C35.3312 113.455 35.2481 113.642 35.1027 113.684C35.0819 113.684 35.0404 113.704 34.9988 113.704Z" fill="black"/>
</g>
<g id="Group_59">
<path id="Vector_62" d="M25.9473 113.705H19.1548C19.0509 113.705 18.9678 113.663 18.9055 113.58C18.8432 113.497 18.8432 113.393 18.864 113.31L22.3952 104.254C22.4576 104.108 22.6237 104.025 22.7691 104.087C22.9145 104.15 22.9976 104.316 22.9353 104.461L19.5702 113.102H25.9265C26.0927 113.102 26.2173 113.227 26.2173 113.393C26.2381 113.559 26.1134 113.705 25.9473 113.705Z" fill="black"/>
</g>
<g id="Group_60">
<path id="Vector_63" d="M31.9056 105.726H22.2674C22.1012 105.726 21.9766 105.602 21.9766 105.435C21.9766 105.269 22.1012 105.145 22.2674 105.145H31.9056C32.0718 105.145 32.1964 105.269 32.1964 105.435C32.1964 105.602 32.0718 105.726 31.9056 105.726Z" fill="black"/>
</g>
<g id="Group_61">
<path id="Vector_64" d="M27.7052 111.898C27.6428 111.898 27.5597 111.877 27.5182 111.835C27.3936 111.731 27.3728 111.545 27.4767 111.42L31.9842 106.102C32.0881 105.978 32.275 105.957 32.3996 106.061C32.5243 106.165 32.5451 106.351 32.4412 106.476L27.9336 111.794C27.8713 111.856 27.7882 111.898 27.7052 111.898Z" fill="black"/>
</g>
<g id="Group_62">
<path id="Vector_65" d="M35.0024 119.188C31.8035 119.188 29.207 116.592 29.207 113.393C29.207 110.194 31.8035 107.598 35.0024 107.598C38.2014 107.598 40.7979 110.194 40.7979 113.393C40.7979 116.592 38.2014 119.188 35.0024 119.188ZM35.0024 108.2C32.1359 108.2 29.8094 110.527 29.8094 113.393C29.8094 116.26 32.1359 118.586 35.0024 118.586C37.869 118.586 40.1955 116.26 40.1955 113.393C40.2162 110.527 37.869 108.2 35.0024 108.2Z" fill="black"/>
</g>
<g id="Group_63">
<path id="Vector_66" d="M19.3579 119.188C16.159 119.188 13.5625 116.592 13.5625 113.393C13.5625 110.194 16.159 107.598 19.3579 107.598C22.5568 107.598 25.1533 110.194 25.1533 113.393C25.1533 116.592 22.5568 119.188 19.3579 119.188ZM19.3579 108.2C16.4914 108.2 14.1649 110.527 14.1649 113.393C14.1649 116.26 16.4914 118.586 19.3579 118.586C22.2245 118.586 24.5509 116.26 24.5509 113.393C24.5717 110.527 22.2245 108.2 19.3579 108.2Z" fill="black"/>
</g>
<g id="Group_64">
<path id="Vector_67" d="M27.1073 114.41C26.2141 114.41 25.5078 113.683 25.5078 112.81C25.5078 111.938 26.2348 111.211 27.1073 111.211C27.9797 111.211 28.7067 111.938 28.7067 112.81C28.7067 113.683 28.0005 114.41 27.1073 114.41ZM27.1073 111.813C26.5464 111.813 26.0894 112.27 26.0894 112.831C26.0894 113.392 26.5464 113.849 27.1073 113.849C27.6681 113.849 28.1251 113.392 28.1251 112.831C28.1251 112.25 27.6681 111.813 27.1073 111.813Z" fill="black"/>
</g>
<g id="Group_65">
<path id="Vector_68" d="M25.2966 104.481H20.7683C19.8128 104.481 19.0234 103.692 19.0234 102.736C19.0234 102.57 19.1481 102.445 19.3142 102.445H23.8426C24.7981 102.445 25.5874 103.235 25.5874 104.19C25.5874 104.336 25.4628 104.481 25.2966 104.481ZM19.6258 103.027C19.7505 103.525 20.2074 103.899 20.7475 103.899H24.9435C24.8188 103.401 24.3619 103.027 23.8218 103.027H19.6258Z" fill="black"/>
</g>
<g id="Group_66">
<path id="Vector_69" d="M35.0024 119.189H29.4978C29.3317 119.189 29.207 119.064 29.207 118.898C29.207 118.732 29.3317 118.607 29.4978 118.607H35.0024C35.1686 118.607 35.2933 118.732 35.2933 118.898C35.2933 119.064 35.1686 119.189 35.0024 119.189Z" fill="black"/>
</g>
<g id="Group_67">
<path id="Vector_70" d="M19.3579 119.189H13.8533C13.6871 119.189 13.5625 119.064 13.5625 118.898C13.5625 118.732 13.6871 118.607 13.8533 118.607H19.3579C19.5241 118.607 19.6487 118.732 19.6487 118.898C19.6487 119.064 19.5241 119.189 19.3579 119.189Z" fill="black"/>
</g>
</g>
<g id="Group_68">
<path id="Vector_71" d="M185.013 46.6541H161.312C161.707 44.3692 163.701 42.6451 166.111 42.6451C166.173 42.6451 166.235 42.6451 166.298 42.6451C167.503 40.5055 169.788 39.0723 172.405 39.0723C175.583 39.0723 178.263 41.191 179.114 44.0783C179.737 43.4967 180.568 43.1436 181.482 43.1436C183.435 43.1436 185.013 44.7223 185.013 46.6541Z" fill="#6A3DE6"/>
<path id="Vector_72" d="M185.102 46.7175H161.234L161.255 46.6344C161.671 44.2664 163.727 42.563 166.116 42.563C166.157 42.563 166.22 42.563 166.261 42.563C167.528 40.3612 169.876 38.9902 172.41 38.9902C175.484 38.9902 178.247 41.0259 179.161 43.934C179.805 43.3732 180.636 43.0616 181.508 43.0616C183.481 43.0616 185.081 44.661 185.081 46.6344V46.7175H185.102ZM161.421 46.5721H184.956C184.915 44.7233 183.398 43.207 181.529 43.207C180.656 43.207 179.846 43.5393 179.202 44.121L179.119 44.204L179.078 44.1002C178.205 41.1921 175.484 39.1564 172.431 39.1564C169.938 39.1564 167.611 40.5066 166.386 42.6877L166.365 42.7292H166.324C166.261 42.7292 166.199 42.7292 166.137 42.7292C163.81 42.7084 161.858 44.3287 161.421 46.5721Z" fill="#6A3DE6"/>
</g>
<g id="Group_69">
<path id="Vector_73" d="M198.109 52.5531H183.402C183.652 51.1406 184.898 50.0605 186.373 50.0605C186.414 50.0605 186.456 50.0605 186.497 50.0605C187.245 48.7311 188.658 47.8379 190.299 47.8379C192.272 47.8379 193.934 49.1465 194.474 50.9537C194.869 50.6006 195.388 50.3721 195.949 50.3721C197.133 50.3929 198.109 51.3691 198.109 52.5531Z" fill="#6A3DE6"/>
<path id="Vector_74" d="M198.189 52.6361H183.316L183.337 52.553C183.607 51.0782 184.874 49.998 186.391 49.998C186.411 49.998 186.432 49.998 186.474 49.998C187.263 48.627 188.738 47.7754 190.317 47.7754C192.228 47.7754 193.931 49.0217 194.533 50.8289C194.928 50.4965 195.447 50.3096 195.967 50.3096C197.213 50.3096 198.21 51.3274 198.21 52.553V52.6361H198.189ZM183.503 52.4907H198.044C198.002 51.369 197.068 50.455 195.946 50.455C195.427 50.455 194.907 50.6627 194.513 51.0158L194.429 51.0989L194.388 50.9951C193.848 49.1879 192.165 47.9416 190.296 47.9416C188.759 47.9416 187.325 48.7725 186.557 50.1226L186.536 50.1642H186.495C186.453 50.1642 186.411 50.1642 186.391 50.1642C184.978 50.1434 183.773 51.1197 183.503 52.4907Z" fill="#6A3DE6"/>
</g>
<g id="Group_70">
<g id="Group_71">
<path id="Vector_75" d="M198.77 84.0634H176.399C174.779 84.0634 173.449 82.7339 173.449 81.1137C173.449 79.4935 174.779 78.1641 176.399 78.1641H198.77C200.391 78.1641 201.72 79.4935 201.72 81.1137C201.72 82.7339 200.391 84.0634 198.77 84.0634ZM176.399 78.7457C175.09 78.7457 174.031 79.8051 174.031 81.1137C174.031 82.4224 175.09 83.4817 176.399 83.4817H198.77C200.079 83.4817 201.138 82.4224 201.138 81.1137C201.138 79.8051 200.079 78.7457 198.77 78.7457H176.399Z" fill="black"/>
</g>
<g id="Group_72">
<g id="Group_73">
<path id="Vector_76" d="M177.957 81.8217C178.496 81.8217 178.933 81.3846 178.933 80.8454C178.933 80.3062 178.496 79.8691 177.957 79.8691C177.418 79.8691 176.98 80.3062 176.98 80.8454C176.98 81.3846 177.418 81.8217 177.957 81.8217Z" fill="white"/>
<path id="Vector_77" d="M177.959 82.1123C177.252 82.1123 176.691 81.5515 176.691 80.8452C176.691 80.139 177.252 79.5781 177.959 79.5781C178.665 79.5781 179.226 80.139 179.226 80.8452C179.226 81.5515 178.644 82.1123 177.959 82.1123ZM177.959 80.1597C177.585 80.1597 177.273 80.4713 177.273 80.8452C177.273 81.2191 177.585 81.5307 177.959 81.5307C178.332 81.5307 178.644 81.2191 178.644 80.8452C178.644 80.4713 178.332 80.1597 177.959 80.1597Z" fill="black"/>
</g>
<g id="Group_74">
<path id="Vector_78" d="M179.412 82.6521C179.329 82.6521 179.267 82.6314 179.204 82.569L178.394 81.7589C178.27 81.6343 178.27 81.4473 178.394 81.3435C178.519 81.2188 178.706 81.2188 178.81 81.3435L179.62 82.1536C179.744 82.2782 179.744 82.4652 179.62 82.569C179.557 82.6314 179.495 82.6521 179.412 82.6521Z" fill="black"/>
</g>
</g>
</g>
<g id="Group_75">
<g id="Group_76">
<path id="Vector_79" d="M142.43 17.5933C142.43 18.7358 142.098 19.7952 141.495 20.6676L141.454 20.7299L137.549 26.4215C137.237 26.8785 136.572 26.8577 136.261 26.4007L132.48 20.6053L132.439 20.543C131.878 19.6913 131.566 18.6527 131.587 17.5518C131.628 14.5398 134.121 12.1303 137.133 12.1926C140.041 12.2964 142.409 14.6852 142.43 17.5933Z" fill="#6A45E3"/>
<path id="Vector_80" d="M136.907 27.0649C136.533 27.0649 136.2 26.8779 136.013 26.5871L132.191 20.7294C131.589 19.7946 131.277 18.6937 131.277 17.572C131.298 16.0349 131.921 14.6016 133.022 13.5215C134.123 12.4621 135.598 11.8805 137.135 11.922C140.189 12.0051 142.681 14.5393 142.702 17.572C142.702 18.7353 142.37 19.8569 141.726 20.8125L137.779 26.5663C137.592 26.8987 137.26 27.0649 136.907 27.0649ZM137.01 12.5244C135.681 12.5244 134.414 13.0229 133.458 13.9577C132.461 14.9132 131.901 16.2011 131.901 17.5928C131.88 18.5898 132.171 19.5869 132.711 20.4178L132.752 20.4801L136.533 26.2755C136.616 26.4002 136.761 26.4832 136.927 26.4832C137.094 26.4832 137.239 26.4002 137.322 26.2755L141.269 20.5217C141.85 19.67 142.162 18.6522 142.141 17.6136C142.12 14.8924 139.877 12.6075 137.156 12.5452C137.094 12.5244 137.052 12.5244 137.01 12.5244Z" fill="#2B2A33"/>
</g>
<g id="Group_77">
<path id="Vector_81" d="M138.762 18.7361C139.362 17.7714 139.065 16.5035 138.101 15.9042C137.136 15.3049 135.868 15.6011 135.269 16.5658C134.669 17.5305 134.966 18.7984 135.93 19.3977C136.895 19.997 138.163 19.7008 138.762 18.7361Z" fill="#2B2A33"/>
<path id="Vector_82" d="M137.015 20.0011H136.994C135.707 19.9804 134.668 18.921 134.668 17.6331C134.689 16.3452 135.727 15.3066 137.015 15.3066H137.036C137.659 15.3066 138.241 15.5559 138.677 16.0129C139.113 16.4699 139.342 17.0515 139.342 17.6747C139.342 18.2978 139.092 18.8794 138.635 19.3156C138.22 19.7519 137.638 20.0011 137.015 20.0011ZM137.015 15.8883C136.06 15.8883 135.27 16.6568 135.27 17.6331C135.25 18.6094 136.039 19.3987 137.015 19.3987C137.472 19.3987 137.929 19.2326 138.262 18.9002C138.594 18.5679 138.781 18.1316 138.781 17.6747C138.781 17.1969 138.615 16.7607 138.282 16.4283C137.95 16.0752 137.514 15.8883 137.015 15.8883C137.036 15.8883 137.015 15.8883 137.015 15.8883Z" fill="#2B2A33"/>
</g>
</g>
<g id="Group_78">
<g id="Group_79">
<path id="Vector_83" d="M111.113 33.9205C111.113 34.876 110.843 35.7485 110.344 36.4755L110.302 36.5378L107.062 41.2531C106.813 41.627 106.252 41.627 106.003 41.2323L102.866 36.434L102.825 36.3716C102.368 35.6654 102.098 34.8137 102.118 33.8998C102.139 31.4071 104.216 29.3922 106.73 29.4545C109.139 29.5376 111.092 31.511 111.113 33.9205Z" fill="#6A45E3"/>
<path id="Vector_84" d="M106.545 41.8331C106.524 41.8331 106.545 41.8331 106.545 41.8331C106.212 41.8331 105.942 41.6669 105.755 41.4177L102.577 36.557C102.079 35.7677 101.809 34.8537 101.809 33.9189C101.829 32.6311 102.349 31.4263 103.283 30.5331C104.218 29.6399 105.444 29.1621 106.732 29.2037C109.287 29.266 111.385 31.4055 111.405 33.9397C111.405 34.916 111.135 35.8507 110.595 36.6609L110.554 36.7232L107.313 41.4177C107.126 41.6669 106.856 41.8331 106.545 41.8331ZM106.628 29.7645C105.527 29.7645 104.509 30.18 103.72 30.9485C102.91 31.7379 102.453 32.7972 102.432 33.9189C102.432 34.7498 102.66 35.5392 103.096 36.2454L106.254 41.1061C106.316 41.2099 106.42 41.2515 106.545 41.2515C106.648 41.2515 106.773 41.1892 106.835 41.1061L110.117 36.3285C110.595 35.6223 110.844 34.7914 110.824 33.9397C110.803 31.6963 108.975 29.8268 106.732 29.7853C106.69 29.7645 106.649 29.7645 106.628 29.7645Z" fill="#2B2A33"/>
</g>
<g id="Group_80">
<path id="Vector_85" d="M106.866 35.6439C107.798 35.5136 108.447 34.6527 108.317 33.721C108.187 32.7893 107.326 32.1397 106.394 32.2699C105.462 32.4002 104.813 33.2611 104.943 34.1928C105.073 35.1245 105.934 35.7742 106.866 35.6439Z" fill="#2B2A33"/>
<path id="Vector_86" d="M106.623 35.955H106.603C105.502 35.9343 104.608 35.0411 104.629 33.9401C104.65 32.8392 105.543 31.9668 106.623 31.9668H106.644C107.745 31.9876 108.638 32.8808 108.617 33.9817C108.597 35.0826 107.704 35.955 106.623 35.955ZM106.623 32.5484C105.855 32.5484 105.232 33.1716 105.211 33.9401C105.211 34.7087 105.834 35.3526 106.603 35.3526H106.623C107.392 35.3526 108.015 34.7295 108.036 33.9609C108.036 33.2131 107.413 32.5692 106.623 32.5484Z" fill="#2B2A33"/>
</g>
</g>
<g id="Group_81">
<g id="Group_82">
<path id="Vector_87" d="M140.775 44.2633C140.775 45.2811 140.484 46.2159 139.944 47.0052L139.903 47.0675L136.434 52.1151C136.164 52.5098 135.561 52.5098 135.291 52.0944L131.947 46.9637L131.905 46.9013C131.407 46.1328 131.137 45.2188 131.137 44.2425C131.157 41.5629 133.38 39.4234 136.06 39.4857C138.656 39.5688 140.754 41.6875 140.775 44.2633Z" fill="#A577FF"/>
<path id="Vector_88" d="M135.873 52.6978C135.541 52.6978 135.229 52.5316 135.063 52.2616L131.677 47.0686C131.137 46.2377 130.867 45.2614 130.867 44.2435C130.888 42.8726 131.428 41.5847 132.425 40.6292C133.422 39.6737 134.71 39.1752 136.102 39.1959C138.823 39.2583 141.046 41.5224 141.087 44.2435C141.087 45.2822 140.796 46.2792 140.215 47.1516L136.704 52.2616C136.496 52.5524 136.206 52.6978 135.873 52.6978ZM135.956 39.7983C134.772 39.7983 133.671 40.2345 132.82 41.0654C131.947 41.9171 131.449 43.0388 131.449 44.2643C131.449 45.1575 131.677 46.0092 132.155 46.757L132.197 46.8193L135.541 51.95C135.603 52.0538 135.728 52.1162 135.852 52.1162C135.977 52.1162 136.102 52.0538 136.185 51.95L139.695 46.8401C140.215 46.0923 140.464 45.1991 140.464 44.2643C140.443 41.8548 138.47 39.8606 136.06 39.7983C136.039 39.7983 135.998 39.7983 135.956 39.7983Z" fill="#2B2A33"/>
</g>
<g id="Group_83">
<path id="Vector_89" d="M136.222 46.1193C137.221 45.9727 137.912 45.0442 137.765 44.0453C137.619 43.0465 136.69 42.3556 135.691 42.5022C134.693 42.6487 134.002 43.5773 134.148 44.5761C134.295 45.575 135.223 46.2659 136.222 46.1193Z" fill="#2B2A33"/>
<path id="Vector_90" d="M135.955 46.425H135.934C134.771 46.4042 133.836 45.4487 133.836 44.2855C133.857 43.1222 134.791 42.1875 135.955 42.1875H135.975C137.139 42.2083 138.073 43.1638 138.073 44.327C138.073 45.4903 137.118 46.425 135.955 46.425ZM135.955 42.7899C135.124 42.7899 134.438 43.4546 134.438 44.3062C134.438 45.1371 135.103 45.8434 135.955 45.8434H135.975C136.806 45.8434 137.492 45.1787 137.492 44.327C137.492 43.4754 136.827 42.7899 135.955 42.7899C135.975 42.7899 135.975 42.7899 135.955 42.7899Z" fill="#2B2A33"/>
</g>
</g>
<g id="Group_84">
<g id="Group_85">
<g id="Group_86">
<g id="Group_87">
<path id="Vector_91" d="M178.952 64.9941C179.471 64.9941 179.907 65.4096 179.907 65.9497C179.907 66.469 179.492 66.9052 178.952 66.9052C178.432 66.9052 177.996 66.4897 177.996 65.9497C178.017 65.4096 178.432 64.9941 178.952 64.9941Z" fill="#C4C6FC"/>
</g>
</g>
</g>
<g id="Group_88">
<g id="Group_89">
<g id="Group_90">
<path id="Vector_92" d="M186.184 57.953C184.294 55.9381 181.739 54.8164 178.997 54.8164C176.255 54.8164 173.7 55.9381 171.81 57.953C171.602 58.1815 171.602 58.5554 171.83 58.7631C172.059 58.9708 172.433 58.9708 172.64 58.7423C174.302 56.9559 176.566 55.9796 178.997 55.9796C181.427 55.9796 183.67 56.9559 185.353 58.7423C185.457 58.867 185.623 58.9293 185.768 58.9293C185.914 58.9293 186.038 58.8877 186.163 58.7839C186.371 58.5554 186.392 58.1815 186.184 57.953Z" fill="#C4C6FC"/>
</g>
</g>
</g>
<g id="Group_91">
<g id="Group_92">
<g id="Group_93">
<path id="Vector_93" d="M184.065 60.3217C182.673 58.9092 180.866 58.1406 178.975 58.1406C177.085 58.1406 175.278 58.9092 173.886 60.3217C173.658 60.5502 173.658 60.9033 173.886 61.1318C174.115 61.3603 174.468 61.3603 174.696 61.1318C175.88 59.9478 177.397 59.3039 178.955 59.3039C180.533 59.3039 182.05 59.9478 183.213 61.1318C183.317 61.2357 183.462 61.298 183.628 61.298C183.774 61.298 183.919 61.2357 184.023 61.1318C184.293 60.9033 184.293 60.5502 184.065 60.3217Z" fill="#C4C6FC"/>
</g>
</g>
</g>
<g id="Group_94">
<g id="Group_95">
<g id="Group_96">
<path id="Vector_94" d="M181.78 62.6892C181.032 61.9414 179.973 61.4844 178.996 61.4844H178.955C177.979 61.4844 176.919 61.9414 176.171 62.6892C175.943 62.9177 175.943 63.2708 176.171 63.4993C176.275 63.6031 176.441 63.6654 176.587 63.6654C176.732 63.6654 176.878 63.6031 176.981 63.4993C177.522 62.98 178.29 62.6268 178.955 62.6268H178.996C179.661 62.6268 180.45 62.9592 180.97 63.4993C181.198 63.7278 181.551 63.7278 181.78 63.4993C182.008 63.2915 182.008 62.9177 181.78 62.6892Z" fill="#C4C6FC"/>
</g>
</g>
</g>
</g>
<g id="Group_97">
<g id="Group_98">
<path id="Vector_95" d="M154.838 79.3683L156.085 78.7244C156.77 78.3713 157.352 77.852 157.788 77.208C158.307 76.4187 158.577 75.5047 158.556 74.57L158.473 70.8518L154.61 69.377H154.547L150.746 71.0179L150.829 74.7362C150.85 75.6709 151.162 76.5849 151.722 77.3534C152.179 77.9766 152.782 78.4751 153.488 78.7867L154.776 79.3683H154.838Z" fill="#A577FF"/>
</g>
<g id="Group_99">
<path id="Vector_96" d="M154.026 75.9202C153.943 75.9202 153.88 75.8994 153.818 75.8371L152.738 74.8192C152.613 74.7154 152.613 74.5284 152.738 74.4038C152.842 74.2792 153.029 74.2792 153.153 74.4038L154.005 75.2347L156.145 72.9498C156.248 72.8251 156.435 72.8251 156.56 72.929C156.685 73.0329 156.685 73.2198 156.581 73.3444L154.234 75.8371C154.192 75.8786 154.13 75.9202 154.026 75.9202C154.047 75.9202 154.047 75.9202 154.026 75.9202Z" fill="black"/>
</g>
</g>
<g id="Group_100">
<g id="Group_101">
<g id="Group_102">
<path id="Vector_97" d="M200.74 115.761L202.319 109.425L191.081 106.621L186.782 109.218L186.055 112.084L186.698 109.529L185.992 112.396L188.568 116.696L199.806 119.5L201.384 113.185" fill="#A577FF"/>
</g>
</g>
<g id="Group_103">
<g id="Group_104">
<path id="Vector_98" d="M199.146 117.716L187.514 114.808L184.793 110.279L185.645 106.852L190.173 104.131L201.805 107.039L200.164 113.644L199.146 117.716ZM187.867 114.288L198.689 116.989L200.206 110.944L201.078 107.475L190.256 104.775L186.164 107.226L185.437 110.176L187.867 114.288Z" fill="black"/>
</g>
<g id="Group_105">
<path id="Vector_99" d="M188.653 110.508C188.57 110.508 188.487 110.508 188.404 110.467C187.823 110.321 187.49 109.74 187.636 109.179C187.698 108.909 187.885 108.659 188.113 108.514C188.363 108.369 188.653 108.327 188.923 108.389C189.505 108.535 189.837 109.116 189.692 109.677C189.567 110.176 189.131 110.508 188.653 110.508ZM188.529 109.885C188.778 109.947 189.048 109.802 189.11 109.532C189.173 109.283 189.027 109.013 188.757 108.95C188.633 108.929 188.508 108.929 188.404 109.013C188.3 109.075 188.217 109.179 188.196 109.303C188.113 109.573 188.28 109.823 188.529 109.885Z" fill="black"/>
</g>
</g>
<g id="Group_106">
<path id="Vector_100" d="M173.24 112.688C172.596 112.688 171.931 112.584 171.225 112.376C168.899 111.649 167.632 109.821 167.445 106.976C167.299 104.628 167.922 102.011 168.359 100.079L168.4 99.934C168.899 97.8152 168.566 95.8834 167.424 94.3463C166.198 92.7053 164.183 91.6874 161.732 91.5213C159.572 91.3759 157.516 92.1236 155.521 92.8507C153.133 93.7231 150.64 94.6371 147.94 93.9931C145.676 93.4738 142.767 91.5836 141.168 89.6102L141.625 89.2363C143.121 91.085 145.946 92.9338 148.064 93.4115C150.599 94.0139 152.883 93.1623 155.314 92.2898C157.349 91.542 159.468 90.7735 161.753 90.9189C164.37 91.1058 166.551 92.186 167.881 93.9724C169.127 95.6549 169.48 97.7529 168.961 100.038L168.919 100.183C168.026 103.964 166.551 110.278 171.371 111.774C174.279 112.688 176.418 111.317 178.682 109.884C179.264 109.51 179.846 109.136 180.469 108.804C181.819 108.056 183.439 107.89 185.143 108.326L184.997 108.908C183.439 108.513 181.985 108.658 180.76 109.323C180.157 109.655 179.576 110.029 178.994 110.382C177.249 111.546 175.442 112.688 173.24 112.688Z" fill="black"/>
</g>
</g>
<g id="Group 293">
<path id="Vector_101" d="M139.292 100.592C139.864 100.592 140.411 100.363 140.815 99.9574C141.219 99.5514 141.446 99.0008 141.446 98.4266V58.7196C141.446 58.1454 141.219 57.5948 140.815 57.1888C140.411 56.7828 139.864 56.5547 139.292 56.5547H73.5287C72.9575 56.5547 72.4097 56.7828 72.0058 57.1888C71.6019 57.5948 71.375 58.1454 71.375 58.7196V98.4266C71.375 99.0008 71.6019 99.5514 72.0058 99.9574C72.4097 100.363 72.9575 100.592 73.5287 100.592" fill="white"/>
<path id="Vector_102" d="M139.199 100.868C139.867 100.868 140.507 100.602 140.98 100.128C141.452 99.6547 141.718 99.0121 141.719 98.3418V58.4358H141.344V58.8066H141.716C141.716 58.1358 141.45 57.4925 140.978 57.0181C140.505 56.5438 139.864 56.2773 139.196 56.2773H73.614C72.9456 56.2773 72.3046 56.5438 71.8319 57.0181C71.3593 57.4925 71.0938 58.1358 71.0938 58.8066V98.3418C71.0937 98.6738 71.159 99.0025 71.2857 99.3092C71.4123 99.6159 71.598 99.8946 71.8321 100.129C72.0662 100.364 72.344 100.55 72.6498 100.677C72.9555 100.803 73.2832 100.869 73.614 100.868V100.124C73.1429 100.124 72.691 99.9359 72.3576 99.6019C72.0241 99.2678 71.8365 98.8146 71.8357 98.3418V58.8066C71.8372 58.3337 72.0251 57.8807 72.3582 57.5463C72.6914 57.212 73.1428 57.0235 73.614 57.0219H139.196C139.667 57.0235 140.118 57.212 140.451 57.5463C140.785 57.8807 140.973 58.3337 140.974 58.8066V59.1803V98.3418C140.973 98.8146 140.786 99.2678 140.452 99.6019C140.119 99.9359 139.667 100.124 139.196 100.124V100.868H139.199Z" fill="#2B2A33"/>
<path id="Vector_103" d="M59.1836 111.115V112.554C59.1844 112.98 59.3444 113.389 59.6287 113.69C59.9129 113.991 60.2983 114.161 60.7003 114.162H152.391C152.792 114.161 153.177 113.991 153.461 113.69C153.745 113.388 153.904 112.98 153.904 112.554V111.115" fill="white"/>
<path id="Vector_104" d="M58.9062 111.115V112.506C58.9062 113.018 59.1047 113.51 59.4579 113.873C59.8111 114.235 60.2902 114.439 60.7897 114.439H152.298C152.797 114.439 153.276 114.235 153.629 113.873C153.983 113.51 154.181 113.018 154.181 112.506V111.115H153.439V112.506C153.435 112.815 153.313 113.111 153.1 113.33C152.887 113.548 152.599 113.673 152.298 113.677H60.7897C60.4857 113.677 60.194 113.554 59.9777 113.335C59.7614 113.116 59.638 112.818 59.6342 112.506V111.115H58.9062Z" fill="#2B2A33"/>
<path id="Vector_105" d="M152.75 112.224C152.988 112.223 153.22 112.151 153.414 112.016C153.609 111.882 153.756 111.692 153.836 111.472C153.917 111.253 153.926 111.014 153.863 110.789C153.8 110.564 153.668 110.364 153.485 110.215L141.906 100.85C141.698 100.683 141.438 100.592 141.17 100.592H71.9178C71.6495 100.592 71.3896 100.683 71.1824 100.85L59.6027 110.215C59.4195 110.364 59.2875 110.564 59.2247 110.789C59.1619 111.014 59.1713 111.253 59.2516 111.472C59.332 111.692 59.4794 111.882 59.6738 112.016C59.8682 112.151 60.1001 112.223 60.338 112.224H152.75Z" fill="white"/>
<path id="Vector_106" d="M152.653 112.128V112.497C152.87 112.499 153.084 112.454 153.283 112.366C153.557 112.246 153.787 112.047 153.944 111.794C154.098 111.549 154.18 111.267 154.181 110.979C154.181 110.765 154.135 110.555 154.045 110.361C153.947 110.152 153.803 109.968 153.623 109.823L142.068 100.383C141.794 100.16 141.451 100.038 141.097 100.037H71.9899C71.6357 100.038 71.2927 100.16 71.0192 100.383L59.4638 109.823C59.2841 109.968 59.1399 110.152 59.042 110.361C58.9526 110.555 58.9063 110.765 58.9062 110.979C58.9066 111.366 59.054 111.74 59.3194 112.025C59.4621 112.177 59.6348 112.297 59.8267 112.378C60.0186 112.46 60.2256 112.502 60.4345 112.5H152.653V111.765H60.4287C60.3164 111.766 60.2052 111.744 60.1022 111.699C59.9647 111.638 59.8482 111.539 59.7671 111.413C59.6865 111.284 59.6435 111.136 59.6429 110.984C59.6435 110.877 59.6661 110.771 59.7094 110.672C59.7598 110.562 59.8349 110.464 59.9289 110.386L71.4844 100.947C71.624 100.832 71.7998 100.769 71.9812 100.769H141.091C141.273 100.77 141.449 100.832 141.588 100.947L153.144 110.386C153.239 110.463 153.314 110.561 153.363 110.672C153.409 110.77 153.432 110.877 153.433 110.984C153.432 111.187 153.355 111.382 153.216 111.531C153.149 111.605 153.066 111.665 152.973 111.705C152.87 111.749 152.759 111.771 152.647 111.771L152.653 112.128Z" fill="#2B2A33"/>
<path id="Vector_107" d="M106.466 108.07H138.945L133.66 101.977H106.466H106.339H79.1446L73.8594 108.07H106.339H106.466Z" fill="white"/>
<path id="Vector_108" d="M106.321 108.252V108.623H138.836C138.909 108.626 138.981 108.608 139.044 108.57C139.106 108.532 139.156 108.477 139.187 108.411C139.218 108.345 139.228 108.272 139.217 108.2C139.206 108.128 139.174 108.061 139.125 108.007L133.832 102.101C133.798 102.062 133.756 102.03 133.709 102.009C133.661 101.987 133.61 101.976 133.558 101.977H78.9799C78.9256 101.975 78.8715 101.985 78.8216 102.007C78.7717 102.028 78.7271 102.06 78.691 102.101L73.4008 108.007C73.3524 108.06 73.3206 108.125 73.3093 108.196C73.298 108.267 73.3077 108.339 73.3372 108.404C73.3669 108.469 73.4144 108.524 73.4743 108.563C73.5342 108.602 73.6039 108.623 73.6753 108.623H106.321V107.883H74.5189L79.1417 102.717H133.373L137.996 107.883H106.321V108.252Z" fill="#2B2A33"/>
<path id="Vector_109" d="M137.57 59.6016H75.2539V97.8222H137.57V59.6016Z" fill="white"/>
<path id="Vector_110" d="M137.468 98.0049H137.839V59.4203C137.838 59.3215 137.799 59.2269 137.729 59.1571C137.66 59.0872 137.566 59.0476 137.468 59.0469H75.3373C75.2395 59.0484 75.1462 59.0883 75.0773 59.1581C75.0085 59.2279 74.9695 59.322 74.9688 59.4203V98.0049C74.9688 98.1031 75.0076 98.1974 75.0767 98.2669C75.1458 98.3364 75.2395 98.3754 75.3373 98.3754H137.468C137.565 98.3746 137.659 98.3363 137.73 98.2683C137.799 98.1982 137.838 98.1036 137.839 98.0049H137.468V97.6314H75.7086V59.7937H137.099V98.0049H137.468Z" fill="#2B2A33"/>
<path id="Vector_111" d="M113.536 77.3655C113.346 76.9017 113.039 76.4994 112.647 76.2011C112.255 75.9028 111.792 75.7195 111.307 75.6707C110.822 75.6219 110.334 75.7093 109.893 75.9237C109.452 76.1381 109.076 76.4716 108.804 76.8889C108.641 77.1361 108.521 77.41 108.447 77.6989H104.646C104.62 77.5845 104.584 77.4729 104.538 77.3655C104.496 77.2642 104.445 77.1664 104.388 77.0731L105.746 75.6694C106.156 75.912 106.62 76.0391 107.092 76.0379C107.454 76.0392 107.812 75.9646 108.144 75.8185C108.639 75.6071 109.062 75.2484 109.359 74.7882C109.656 74.3279 109.814 73.7868 109.813 73.2334C109.812 72.8609 109.74 72.4923 109.601 72.1485C109.365 71.5444 108.931 71.0448 108.376 70.7361C107.821 70.4273 107.179 70.3287 106.561 70.4574C105.943 70.5861 105.388 70.9339 104.992 71.4408C104.595 71.9477 104.383 72.5818 104.391 73.2334C104.39 73.6083 104.463 73.9795 104.606 74.3242C104.643 74.4119 104.685 74.5026 104.728 74.5845L103.353 76.0057C102.942 75.7723 102.479 75.6535 102.009 75.6611C101.54 75.6687 101.081 75.8024 100.677 76.0491C100.273 76.2957 99.9379 76.6468 99.7048 77.0678C99.4718 77.4888 99.3487 77.9653 99.3477 78.4505C99.3479 79.0488 99.5339 79.6313 99.8782 80.1123C100.222 80.5933 100.707 80.9474 101.26 81.1225C101.814 81.2976 102.407 81.2845 102.953 81.0852C103.498 80.8858 103.968 80.5107 104.292 80.015C104.456 79.7692 104.577 79.4962 104.651 79.2079H108.447C108.477 79.3216 108.515 79.433 108.56 79.5412C108.597 79.6302 108.639 79.7171 108.685 79.8015L107.307 81.2227C106.908 80.9957 106.459 80.877 106.003 80.8777C105.641 80.8777 105.282 80.9523 104.948 81.097C104.289 81.3871 103.767 81.9356 103.498 82.6223C103.229 83.309 103.233 84.0781 103.511 84.7612C103.717 85.259 104.057 85.6853 104.49 85.9894C104.937 86.3009 105.464 86.4669 106.003 86.4661C106.365 86.4676 106.723 86.3919 107.055 86.2438C107.544 86.0282 107.96 85.6697 108.254 85.2124C108.547 84.7552 108.705 84.2192 108.707 83.6704C108.706 83.2976 108.633 82.9287 108.492 82.5855C108.448 82.4806 108.399 82.3781 108.345 82.2784L109.7 80.8777C110.191 81.1697 110.757 81.2951 111.321 81.2361C111.884 81.1771 112.415 80.9368 112.839 80.549C113.262 80.1612 113.558 79.6455 113.683 79.0749C113.808 78.5042 113.756 77.9073 113.536 77.3685V77.3655ZM105.947 72.7304C106.042 72.5012 106.199 72.3052 106.399 72.166C106.57 72.0453 106.768 71.971 106.974 71.95C107.18 71.929 107.388 71.9621 107.579 72.0461C107.803 72.1436 107.994 72.3061 108.13 72.514C108.268 72.7259 108.341 72.9754 108.34 73.2305C108.342 73.4042 108.309 73.5765 108.243 73.7364C108.18 73.8922 108.087 74.0335 107.971 74.1522C107.854 74.271 107.716 74.3648 107.565 74.4283C107.413 74.4919 107.251 74.5239 107.087 74.5226C106.924 74.5213 106.762 74.4867 106.611 74.4207C106.388 74.3226 106.197 74.1602 106.06 73.9528C105.922 73.7402 105.85 73.4893 105.853 73.2334C105.852 73.061 105.883 72.89 105.947 72.7304ZM103.195 78.9564C103.099 79.1853 102.942 79.3811 102.742 79.5208C102.536 79.6655 102.292 79.7429 102.043 79.743C101.877 79.7416 101.713 79.7068 101.56 79.6407C101.331 79.5449 101.134 79.3823 100.994 79.1728C100.856 78.9589 100.783 78.7074 100.785 78.4505C100.784 78.2785 100.817 78.1082 100.884 77.9504C100.977 77.7192 101.134 77.5215 101.335 77.3817C101.536 77.2419 101.773 77.1661 102.015 77.1637C102.181 77.1628 102.346 77.1966 102.499 77.2632C102.723 77.3618 102.914 77.5253 103.05 77.734C103.166 77.912 103.237 78.1169 103.257 78.3304C103.276 78.5438 103.244 78.759 103.163 78.9564H103.195ZM107.154 84.1734C107.06 84.4067 106.9 84.606 106.697 84.7464C106.493 84.8868 106.254 84.9621 106.009 84.963C105.805 84.9619 105.603 84.9095 105.423 84.8101C105.243 84.7108 105.088 84.5675 104.974 84.3927C104.834 84.1798 104.76 83.9279 104.762 83.6704C104.761 83.4984 104.794 83.3282 104.861 83.1703C104.955 82.9364 105.115 82.7368 105.319 82.5968C105.524 82.4567 105.764 82.3826 106.009 82.3837C106.175 82.383 106.339 82.4168 106.493 82.4831C106.719 82.5813 106.911 82.7464 107.047 82.9577C107.182 83.169 107.254 83.417 107.253 83.6704C107.251 83.8442 107.213 84.0155 107.143 84.1734H107.154ZM112.203 78.9564C112.108 79.1889 111.948 79.3874 111.745 79.5272C111.541 79.667 111.302 79.742 111.058 79.743C110.891 79.7419 110.726 79.7071 110.571 79.6407C110.348 79.5432 110.158 79.3806 110.023 79.1728C109.883 78.9598 109.809 78.7079 109.811 78.4505C109.81 78.2785 109.843 78.1082 109.91 77.9504C110.004 77.721 110.16 77.5242 110.359 77.3831C110.532 77.264 110.73 77.1907 110.936 77.1698C111.142 77.1489 111.35 77.181 111.542 77.2632C111.765 77.3635 111.956 77.5266 112.093 77.734C112.229 77.9465 112.302 78.1956 112.302 78.4505C112.3 78.6251 112.262 78.7974 112.192 78.9564H112.203Z" fill="black"/>
<path id="Vector_112" d="M139.877 105.023H137.05L139.419 107.874C139.468 107.933 139.5 108.005 139.511 108.083C139.522 108.161 139.511 108.241 139.48 108.312C139.449 108.383 139.399 108.443 139.337 108.484C139.274 108.525 139.202 108.545 139.128 108.542H81.6485L79.9531 110.286H145.039L139.877 105.03" fill="#C3C4FD"/>
<path id="Vector_113" d="M135.864 105.023H112.456H112.328H85.1012L82.4453 107.793H106.264H106.392H138.115L135.864 105.023Z" fill="#C3C4FD"/>
<path id="Vector_114" d="M136.759 105.023H135.762L138.01 107.803H82.4004L81.6172 108.624H138.84C138.913 108.627 138.985 108.606 139.047 108.565C139.11 108.523 139.159 108.461 139.19 108.388C139.221 108.315 139.232 108.234 139.221 108.154C139.21 108.075 139.178 108 139.129 107.941L136.771 105.023" fill="#2B2A33"/>
<path id="Vector_115" d="M139.865 105.023H136.851L136.985 105.174H139.804L144.95 110.133H112.567H112.44H80.057L81.7589 108.493H81.5418L79.6836 110.286H112.44H112.567H145.323L139.865 105.023Z" fill="#C3C5FD"/>
<path id="Vector_116" d="M135.766 105.023H112.57H112.443H85.2508L82.4453 107.793H82.6616L85.3084 105.177H112.443H112.57H135.899L135.766 105.023Z" fill="#C3C5FD"/>
<path id="Vector_117" d="M82.6177 107.839H82.4009L81.6172 108.624H81.8341L82.6177 107.839ZM136.876 105.023H135.879L136.012 105.179H137.009L136.876 105.023Z" fill="black"/>
</g>
</g>
</svg>
