<svg width="198" height="140" viewBox="0 0 198 140" fill="none" xmlns="http://www.w3.org/2000/svg">
<path d="M157.507 95.7119C158.405 95.7119 159.266 95.3596 159.902 94.7324C160.537 94.1051 160.893 93.2545 160.893 92.3675V31.0261C160.893 30.1391 160.537 29.2884 159.902 28.6612C159.266 28.034 158.405 27.6816 157.507 27.6816H54.1051C53.207 27.6816 52.3456 28.034 51.7106 28.6612C51.0755 29.2884 50.7188 30.1391 50.7188 31.0261V92.3675C50.7188 93.2545 51.0755 94.1051 51.7106 94.7324C52.3456 95.3596 53.207 95.7119 54.1051 95.7119" fill="white"/>
<path d="M157.508 96.289C158.561 96.289 159.571 95.8762 160.316 95.1412C161.061 94.4063 161.48 93.4092 161.482 92.3692V30.4524H160.89V31.0278H161.477C161.477 29.987 161.059 28.9889 160.313 28.2529C159.568 27.517 158.557 27.1035 157.504 27.1035H54.1063C53.0525 27.1035 52.0418 27.517 51.2966 28.2529C50.5514 28.9889 50.1328 29.987 50.1328 31.0278V92.3692C50.1328 92.8844 50.2356 93.3945 50.4354 93.8703C50.6351 94.3462 50.9279 94.7785 51.2969 95.1426C51.6659 95.5066 52.104 95.7952 52.5861 95.992C53.0681 96.1887 53.5847 96.2896 54.1063 96.289V95.1338C53.3635 95.1338 52.651 94.8427 52.1254 94.3243C51.5997 93.806 51.3038 93.1029 51.3026 92.3692V31.0278C51.305 30.2942 51.6011 29.5912 52.1264 29.0724C52.6517 28.5537 53.3635 28.2612 54.1063 28.2588H157.504C158.247 28.2612 158.958 28.5537 159.484 29.0724C160.009 29.5912 160.305 30.2942 160.307 31.0278V31.6077V92.3692C160.306 93.1029 160.01 93.806 159.485 94.3243C158.959 94.8427 158.246 95.1338 157.504 95.1338V96.289H157.508Z" fill="black"/>
<path d="M31.3281 112.621V114.729C31.3293 115.354 31.581 115.952 32.028 116.394C32.475 116.835 33.081 117.084 33.7131 117.085H177.897C178.529 117.084 179.134 116.835 179.58 116.393C180.027 115.952 180.277 115.353 180.277 114.729V112.621" fill="white"/>
<path d="M30.7461 112.621V114.729C30.7461 115.507 31.0588 116.252 31.6153 116.802C32.1718 117.351 32.9266 117.66 33.7137 117.66H177.897C178.684 117.66 179.439 117.351 179.996 116.802C180.552 116.252 180.865 115.507 180.865 114.729V112.621H179.695V114.729C179.689 115.198 179.498 115.647 179.162 115.978C178.826 116.31 178.372 116.499 177.897 116.505H33.7137C33.2348 116.505 32.7751 116.319 32.4343 115.986C32.0935 115.654 31.8991 115.202 31.8931 114.729V112.621H30.7461Z" fill="black"/>
<path d="M178.453 114.141C178.827 114.14 179.192 114.025 179.498 113.812C179.803 113.598 180.035 113.298 180.161 112.95C180.288 112.602 180.302 112.224 180.204 111.868C180.105 111.511 179.897 111.194 179.609 110.958L161.403 96.1239C161.077 95.8594 160.669 95.7148 160.247 95.7148H51.365C50.9433 95.7148 50.5347 95.8594 50.2089 96.1239L32.0027 110.958C31.7147 111.194 31.5071 111.511 31.4084 111.868C31.3096 112.224 31.3244 112.602 31.4507 112.95C31.577 113.298 31.8088 113.598 32.1144 113.812C32.42 114.025 32.7847 114.14 33.1588 114.141H178.453Z" fill="white"/>
<path d="M178.46 114.138V114.718C178.802 114.72 179.14 114.649 179.452 114.511C179.884 114.323 180.247 114.009 180.494 113.612C180.737 113.228 180.867 112.784 180.868 112.331C180.868 111.996 180.795 111.665 180.654 111.36C180.5 111.032 180.272 110.743 179.989 110.515L161.783 95.6806C161.352 95.3304 160.812 95.1382 160.254 95.1367H51.3717C50.8137 95.1382 50.2733 95.3304 49.8424 95.6806L31.6363 110.515C31.3531 110.743 31.1259 111.032 30.9717 111.36C30.8308 111.665 30.7578 111.996 30.7578 112.331C30.7583 112.94 30.9906 113.528 31.4087 113.976C31.6335 114.213 31.9057 114.402 32.2081 114.531C32.5104 114.659 32.8364 114.724 33.1656 114.722H178.46V113.567H33.1565C32.9796 113.569 32.8043 113.533 32.6422 113.464C32.4255 113.368 32.2419 113.212 32.1142 113.014C31.9871 112.812 31.9194 112.578 31.9185 112.34C31.9194 112.171 31.955 112.005 32.0231 111.85C32.1026 111.676 32.2209 111.522 32.3691 111.4L50.5752 96.5662C50.7952 96.3859 51.0722 96.2873 51.3581 96.2875H160.245C160.53 96.288 160.807 96.3865 161.027 96.5662L179.234 111.4C179.383 111.521 179.502 111.675 179.58 111.85C179.651 112.004 179.688 112.171 179.689 112.34C179.688 112.658 179.566 112.965 179.347 113.198C179.241 113.316 179.111 113.409 178.965 113.473C178.803 113.541 178.628 113.577 178.451 113.576L178.46 114.138Z" fill="black"/>
<path d="M105.906 107.672H157.12L148.786 98.457H105.906H105.706H62.8261L54.4922 107.672H105.706H105.906Z" fill="white"/>
<path d="M105.898 107.67V108.25H157.121C157.236 108.254 157.35 108.225 157.448 108.166C157.546 108.107 157.625 108.021 157.673 107.918C157.722 107.816 157.739 107.701 157.722 107.589C157.704 107.476 157.654 107.372 157.577 107.288L149.238 98.0725C149.184 98.0114 149.118 97.9626 149.043 97.9292C148.969 97.8959 148.888 97.8788 148.806 97.8792H62.8272C62.7416 97.8764 62.6564 97.8923 62.5778 97.9257C62.4991 97.9591 62.4288 98.0092 62.372 98.0725L54.0381 107.288C53.9619 107.37 53.9117 107.473 53.8939 107.583C53.8761 107.693 53.8915 107.806 53.938 107.908C53.9847 108.009 54.0596 108.095 54.1539 108.155C54.2483 108.216 54.3581 108.249 54.4705 108.25H105.898V107.094H55.7996L63.0821 99.0345H148.515L155.797 107.094H105.898V107.67Z" fill="black"/>
<path d="M155.117 31.6484H56.8906V91.5559H155.117V31.6484Z" fill="white"/>
<path d="M154.88 91.885H155.467V31.9685C155.466 31.8151 155.404 31.6683 155.294 31.5598C155.184 31.4513 155.035 31.3898 154.88 31.3887H56.6529C56.4984 31.391 56.3509 31.453 56.242 31.5614C56.1331 31.6697 56.0715 31.8159 56.0703 31.9685V91.885C56.0703 92.0376 56.1317 92.1839 56.241 92.2918C56.3502 92.3997 56.4984 92.4604 56.6529 92.4604H154.88C155.034 92.4592 155.182 92.3997 155.294 92.2941C155.403 92.1852 155.465 92.0384 155.467 91.885H154.88V91.3051H57.2401V32.5484H154.297V91.885H154.88Z" fill="black"/>
<path d="M105.762 48.8511L121.426 46.6738V62.338H105.762V48.8511ZM103.151 49.2819L90.0977 51.052V62.338H103.151V49.2819ZM103.151 64.9487H90.0977V73.624L103.151 75.394V64.9487ZM105.762 64.9487V75.8248L121.426 78.0021V64.9487H105.762Z" fill="black"/>
<path d="M158.281 103.182H153.848L157.562 107.29C157.639 107.374 157.69 107.479 157.707 107.591C157.724 107.703 157.707 107.818 157.659 107.921C157.61 108.024 157.532 108.11 157.433 108.169C157.335 108.228 157.222 108.257 157.107 108.252H66.9862L64.3281 110.765H166.374L158.281 103.191" fill="#C3C4FD"/>
<path d="M152.274 103.182H115.448H115.247H72.4127L68.2344 107.097H105.707H105.907H155.815L152.274 103.182Z" fill="#C3C4FD"/>
<path d="M153.84 103.182H152.269L155.81 107.097H68.2296L66.9961 108.252H157.117C157.231 108.257 157.345 108.228 157.443 108.169C157.542 108.11 157.62 108.024 157.669 107.921C157.717 107.818 157.734 107.703 157.717 107.591C157.7 107.479 157.649 107.374 157.572 107.29L153.858 103.182" fill="black"/>
<path d="M158.366 102.951H153.628L153.837 103.18H158.271L166.363 110.755H115.441H115.24H64.3176L66.9939 108.251H66.6526L63.7305 110.989H115.24H115.441H166.95L158.366 102.951Z" fill="#C3C5FD"/>
<path d="M152.062 102.951H115.445H115.245H72.3193L67.8906 107.096H68.232L72.4103 103.18H115.245H115.445H152.272L152.062 102.951Z" fill="#C3C5FD"/>
<path d="M164.185 38.8238C164.739 38.8238 165.189 38.3836 165.189 37.8407C165.189 37.2976 164.739 36.8574 164.185 36.8574C163.629 36.8574 163.18 37.2976 163.18 37.8407C163.18 38.3836 163.629 38.8238 164.185 38.8238Z" stroke="black" stroke-width="1.35737" stroke-miterlimit="10"/>
<path d="M54.1613 23.5736C54.7162 23.5736 55.1662 23.1334 55.1662 22.5905C55.1662 22.0476 54.7162 21.6074 54.1613 21.6074C53.6062 21.6074 53.1562 22.0476 53.1562 22.5905C53.1562 23.1334 53.6062 23.5736 54.1613 23.5736Z" stroke="black" stroke-width="1.35737" stroke-miterlimit="10"/>
<path d="M59.3837 95.6673C59.9387 95.6673 60.3886 95.2271 60.3886 94.6842C60.3886 94.1414 59.9387 93.7012 59.3837 93.7012C58.8288 93.7012 58.3789 94.1414 58.3789 94.6842C58.3789 95.2271 58.8288 95.6673 59.3837 95.6673Z" stroke="black" stroke-width="1.35737" stroke-miterlimit="10"/>
<path d="M39.6484 53.5996V55.5311" stroke="black" stroke-width="1.35737" stroke-miterlimit="10" stroke-linecap="round"/>
<path d="M38.6641 54.5645H40.6383" stroke="black" stroke-width="1.35737" stroke-miterlimit="10" stroke-linecap="round"/>
<path d="M195.926 69.3203V71.2518" stroke="black" stroke-width="1.35737" stroke-miterlimit="10" stroke-linecap="round"/>
<path d="M194.934 70.2852H196.908" stroke="black" stroke-width="1.35737" stroke-miterlimit="10" stroke-linecap="round"/>
<path d="M87.7422 14.5996V16.6818" stroke="black" stroke-width="1.35737" stroke-miterlimit="10" stroke-linecap="round"/>
<path d="M86.6797 15.6426H88.8081" stroke="black" stroke-width="1.35737" stroke-miterlimit="10" stroke-linecap="round"/>
<path d="M17.1836 135.643H53.4969" stroke="black" stroke-width="1.01803" stroke-miterlimit="10"/>
<path d="M0.0585938 139.375H36.3718" stroke="black" stroke-width="1.01803" stroke-miterlimit="10"/>
<path d="M54.1562 132.791H21.5664C21.8417 131.277 22.6529 129.906 23.8579 128.918C25.0628 127.93 26.5845 127.389 28.1565 127.389C28.2429 127.389 28.329 127.389 28.4123 127.389C29.3414 125.774 30.7358 124.462 32.4217 123.618C34.1075 122.773 36.0104 122.433 37.8927 122.639C39.775 122.845 41.5535 123.588 43.0068 124.777C44.4603 125.965 45.5237 127.546 46.0651 129.322C46.754 128.7 47.6128 128.289 48.5371 128.137C49.4612 127.986 50.4105 128.101 51.2688 128.469C52.1272 128.837 52.8574 129.441 53.3702 130.209C53.8828 130.976 54.1559 131.873 54.1562 132.79V132.791Z" fill="#A883F8"/>
<path d="M45.0394 135.641H9.54297C9.84398 133.992 10.7283 132.5 12.0411 131.425C13.3538 130.35 15.0113 129.761 16.7233 129.761C16.8173 129.761 16.9113 129.761 17.0038 129.761C18.0157 128.003 19.534 126.575 21.3694 125.656C23.2048 124.736 25.2763 124.365 27.3257 124.589C29.3751 124.813 31.3117 125.622 32.8946 126.915C34.4775 128.208 35.6362 129.928 36.227 131.861C36.9773 131.184 37.9131 130.736 38.9197 130.571C39.9266 130.406 40.9605 130.532 41.8952 130.933C42.8303 131.334 43.6254 131.992 44.1839 132.828C44.7421 133.664 45.0394 134.641 45.0394 135.64V135.641Z" stroke="black" stroke-width="1.01803" stroke-linecap="round" stroke-linejoin="round"/>
<path d="M180.891 22.6853H150.828C151.329 19.9059 153.858 17.8088 156.915 17.8088C156.994 17.8088 157.073 17.8088 157.152 17.8088C158.68 15.2063 161.578 13.4629 164.898 13.4629C168.929 13.4629 172.328 16.0401 173.408 19.5522C174.199 18.8447 175.253 18.4152 176.412 18.4152C178.889 18.4152 180.891 20.3355 180.891 22.6853Z" fill="#C4C6FC"/>
<path d="M197.45 34.1579H178.852C179.167 32.3659 180.743 30.9955 182.608 30.9955C182.661 30.9955 182.713 30.9955 182.766 30.9955C183.711 29.309 185.498 28.1758 187.573 28.1758C190.068 28.1758 192.17 29.836 192.853 32.1287C193.352 31.6807 194.009 31.3908 194.718 31.3908C196.215 31.4172 197.45 32.6558 197.45 34.1579Z" fill="#C4C6FC"/>
</svg>
