<svg width="112" height="109" viewBox="0 0 112 109" fill="none" xmlns="http://www.w3.org/2000/svg">
  <path d="M103.266 73.2846C105.167 73.2846 106.709 71.7575 106.709 69.8738C106.709 67.99 105.167 66.4629 103.266 66.4629C101.364 66.4629 99.8223 67.99 99.8223 69.8738C99.8223 71.7575 101.364 73.2846 103.266 73.2846Z" fill="#A77FFA"/>
  <path d="M109.965 68.8418C109.935 68.8173 109.901 68.7988 109.864 68.7877C109.827 68.7765 109.788 68.7728 109.75 68.7769C109.738 68.7785 109.727 68.7808 109.716 68.784L106.798 69.469L106.716 69.1237C106.514 68.2807 106.009 67.5399 105.294 67.0405C104.58 66.5412 103.706 66.3174 102.837 66.4117C102.693 66.4291 102.55 66.4542 102.408 66.4874C101.95 66.5938 101.517 66.7889 101.135 67.0618C100.753 67.3344 100.429 67.6794 100.182 68.0766C99.9351 68.4739 99.77 68.9155 99.6963 69.3763C99.6223 69.837 99.6412 70.3077 99.7517 70.7613L99.8362 71.1066L97.4058 71.6773L96.6572 69.4455C96.6357 69.3831 96.5938 69.3295 96.5381 69.2934C96.4822 69.258 96.4157 69.2432 96.35 69.2509L96.3191 69.2568L95.0396 69.5564C94.97 69.5731 94.9094 69.6152 94.8694 69.6743C94.8285 69.7308 94.8102 69.8006 94.8183 69.87C94.8171 69.8817 94.8171 69.8936 94.8183 69.9052C94.8352 69.9742 94.8777 70.0345 94.9373 70.0738C94.9946 70.1146 95.065 70.1325 95.1349 70.1245H95.1718L96.1918 69.8889L96.2941 70.1953C96.4323 70.6044 98.6127 77.0725 98.9055 77.9391C98.9197 77.9827 98.9305 78.0133 98.9352 78.0264C98.9399 78.0394 98.9352 78.0264 98.9352 78.0334C99.1304 78.5593 99.5274 78.9873 100.04 79.2243L100.361 79.3728L100.212 79.6936C100.09 79.9532 100.041 80.2409 100.072 80.5259C100.12 80.9404 100.328 81.3205 100.653 81.5871C100.816 81.7243 101.005 81.8267 101.21 81.8875C101.415 81.9483 101.631 81.9664 101.843 81.9407C101.911 81.9333 101.979 81.9218 102.047 81.9066C102.435 81.8165 102.775 81.5846 102.999 81.257C103.217 80.9406 103.313 80.5576 103.271 80.177C103.243 79.9304 103.156 79.6942 103.018 79.4872L102.739 79.0662L107.176 78.0229L107.118 78.524C107.104 78.645 107.104 78.7672 107.118 78.8883C107.155 79.1997 107.285 79.4933 107.491 79.7318C107.697 79.9702 107.969 80.1433 108.274 80.2286C108.578 80.3142 108.902 80.3083 109.203 80.2123C109.505 80.116 109.771 79.9335 109.968 79.6878C110.164 79.4422 110.284 79.1442 110.31 78.8315C110.336 78.5189 110.269 78.2057 110.116 77.9311C109.962 77.6565 109.731 77.4329 109.449 77.2885C109.168 77.144 108.85 77.0854 108.536 77.1197C108.471 77.1269 108.407 77.1378 108.344 77.1528L101.299 78.7986C101.237 78.8117 101.18 78.8222 101.113 78.8294C100.842 78.8594 100.567 78.8185 100.316 78.7105C100.066 78.6025 99.848 78.4312 99.685 78.2139L99.3946 77.8071L109.807 74.7122C109.866 74.6949 109.917 74.6592 109.954 74.6107C109.991 74.5621 110.012 74.5031 110.013 74.4421L110.079 69.0705C110.08 69.0584 110.08 69.0461 110.079 69.034C110.075 68.9958 110.062 68.9592 110.042 68.926C110.023 68.8931 109.996 68.8644 109.965 68.8418ZM107.868 78.1088C107.981 77.9482 108.14 77.8237 108.323 77.7502C108.507 77.6767 108.708 77.6574 108.902 77.6949C109.097 77.7323 109.276 77.8247 109.419 77.9611C109.561 78.0973 109.661 78.2716 109.705 78.4626C109.715 78.5016 109.722 78.5409 109.727 78.5805C109.754 78.8269 109.689 79.0744 109.545 79.2769C109.401 79.4794 109.188 79.6235 108.945 79.6817C108.906 79.6911 108.866 79.6981 108.826 79.703C108.577 79.7295 108.327 79.6654 108.123 79.5229C107.919 79.3804 107.773 79.1691 107.714 78.9284C107.705 78.8894 107.698 78.8501 107.693 78.8105C107.663 78.5634 107.725 78.3137 107.868 78.1088ZM100.83 79.7595C100.974 79.5548 101.189 79.41 101.435 79.3527C101.474 79.3445 101.516 79.3375 101.554 79.3328C101.803 79.3046 102.053 79.3679 102.258 79.5106C102.462 79.6535 102.607 79.8659 102.664 80.1074C102.674 80.1462 102.682 80.1856 102.687 80.2253C102.714 80.4711 102.651 80.7186 102.507 80.9213C102.364 81.124 102.151 81.2681 101.908 81.3265C101.868 81.3347 101.826 81.3417 101.789 81.3466C101.541 81.3737 101.291 81.31 101.086 81.1673C100.882 81.0246 100.737 80.813 100.679 80.5719C100.67 80.5331 100.662 80.4937 100.657 80.4539C100.629 80.2103 100.691 79.9647 100.83 79.7618V79.7595ZM100.779 68.2333C101.198 67.6346 101.827 67.2107 102.543 67.0438C102.66 67.0162 102.78 66.9953 102.9 66.9813C103.628 66.9017 104.36 67.0883 104.959 67.5058C105.557 67.9232 105.982 68.543 106.151 69.2486C106.179 69.3652 106.2 69.4833 106.213 69.6024C106.293 70.3227 106.105 71.0472 105.684 71.6399C105.262 72.2324 104.637 72.6524 103.926 72.821C103.808 72.8483 103.689 72.8688 103.569 72.8822C102.842 72.9616 102.11 72.7752 101.513 72.3581C100.914 71.941 100.491 71.3222 100.321 70.6174C100.292 70.5009 100.271 70.3828 100.258 70.2637C100.176 69.5474 100.362 68.8264 100.779 68.2359V68.2333ZM109.433 73.9647V74.224L99.2864 77.2399L97.5951 72.2256L100.089 71.636L100.225 71.8459C100.587 72.4012 101.097 72.8456 101.698 73.1298C102.3 73.4137 102.97 73.5262 103.633 73.4541C104.527 73.3588 105.352 72.9312 105.941 72.2574C106.42 71.7089 106.719 71.0285 106.798 70.3073L106.825 70.0575L109.496 69.4324L109.433 73.9647Z" fill="black"/>
  <path d="M104.325 69.0447C104.333 69.1084 104.318 69.1731 104.283 69.2273L103.307 70.7955C103.284 70.8325 103.253 70.8639 103.216 70.8873C103.179 70.9105 103.137 70.9251 103.093 70.9298C103.029 70.938 102.964 70.9234 102.909 70.8887L102.117 70.4041C102.079 70.3813 102.047 70.3502 102.024 70.3131C102 70.2761 101.985 70.2342 101.98 70.1907C101.973 70.1272 101.988 70.0631 102.022 70.0091C102.045 69.972 102.077 69.9407 102.114 69.9173C102.152 69.8941 102.194 69.8795 102.238 69.8746C102.301 69.8674 102.366 69.882 102.421 69.9159L102.966 70.2484L103.793 68.9256C103.816 68.8882 103.847 68.8566 103.884 68.8332C103.921 68.81 103.963 68.7956 104.007 68.7911C104.072 68.7833 104.137 68.7979 104.192 68.8324C104.229 68.8552 104.261 68.8862 104.284 68.9231C104.307 68.9599 104.321 69.0014 104.325 69.0447Z" fill="black"/>
  <path d="M107.761 37.8301C107.749 38.3895 107.637 38.9424 107.43 39.463C107.196 40.0653 106.902 40.6424 106.551 41.1856C105.815 42.3482 104.809 43.5438 103.708 44.6945C101.506 46.9959 98.9211 49.13 97.3644 50.4469C96.9205 50.8229 96.5598 51.133 96.3206 51.3572C94.5578 53.0006 92.8083 54.6902 91.1705 56.4516C91.1311 56.4953 91.092 56.5378 91.0514 56.58C90.9324 56.698 90.8253 56.8243 90.7146 56.9469C90.567 57.1079 90.421 57.2706 90.2766 57.4349C90.2492 57.4643 90.2219 57.4951 90.1957 57.5257C90.0767 57.659 89.9577 57.7922 89.8386 57.9255C89.7044 58.0826 89.5708 58.2399 89.4374 58.397L89.3577 58.4913C89.247 58.6234 89.1364 58.7542 89.028 58.8875C88.9577 58.9723 88.8877 59.0561 88.8198 59.1409C88.7519 59.2259 88.6638 59.3319 88.5817 59.4286C88.435 59.6118 88.2905 59.7954 88.1485 59.9792C88.0926 60.05 88.0377 60.1219 87.9842 60.1926C87.7081 60.5518 87.4396 60.9153 87.1785 61.2833C87.0665 61.4404 86.9571 61.5977 86.8499 61.7548L86.6797 62.0037L86.6643 62.0273C86.6059 62.1132 86.5453 62.1982 86.493 62.2842C86.3739 62.46 86.2549 62.6379 86.1477 62.8149C86.0847 62.9139 86.0227 63.0129 85.9609 63.1131C85.9096 63.1944 85.8596 63.2758 85.8108 63.3583C85.762 63.4409 85.7252 63.4986 85.6823 63.5705L85.5466 63.8064C85.4728 63.9313 85.4014 64.0562 85.3301 64.1837C85.2943 64.2449 85.2599 64.3075 85.2253 64.3699C85.1753 64.4595 85.1253 64.5503 85.0765 64.6412C85.0122 64.7591 84.9504 64.877 84.8884 64.9949C84.8266 65.1126 84.7588 65.246 84.6944 65.3721C84.6303 65.4984 84.5754 65.6079 84.5207 65.7258C84.5028 65.7625 84.4851 65.7977 84.4683 65.8332C84.4386 65.8944 84.4101 65.9509 84.3814 66.017C84.3599 66.0607 84.3399 66.1043 84.3196 66.148C84.2993 66.1914 84.2826 66.2281 84.2635 66.2659C84.2446 66.3035 84.2423 66.3154 84.2303 66.3402C84.1732 66.4659 84.1171 66.592 84.0624 66.7185L84.041 66.7682C84.0245 66.8058 84.0077 66.8436 83.9922 66.8859V65.7092L84.0851 65.5171C84.1327 65.4181 84.1803 65.3202 84.2303 65.2224L84.3184 65.0479C84.3672 64.9513 84.4172 64.8546 84.4683 64.7591C84.491 64.7166 84.5136 64.6741 84.535 64.6316C84.5968 64.5137 84.6541 64.396 84.7218 64.2862C84.7896 64.1765 84.8611 64.0338 84.9325 63.9077C85.0039 63.7816 85.0753 63.6579 85.1491 63.5329C85.2038 63.4398 85.2587 63.3466 85.3146 63.2534C85.4265 63.0671 85.5395 62.8831 85.655 62.6993L85.8299 62.4245C85.9072 62.3066 85.9871 62.1805 86.068 62.059L86.2752 61.749L86.3108 61.6971C86.3916 61.5792 86.4739 61.4613 86.5571 61.3434L86.8084 60.9896C86.9774 60.754 87.1495 60.5181 87.3248 60.2823C87.4836 60.0716 87.6422 59.8617 87.801 59.6527L87.8545 59.5843L88.127 59.2388C88.3104 59.0086 88.4959 58.7801 88.684 58.5539C88.7781 58.4359 88.8721 58.3262 88.9674 58.2143L89.1281 58.0245C89.2293 57.9066 89.3316 57.7887 89.4339 57.6707C89.6149 57.4608 89.7981 57.2527 89.9838 57.0459C90.1036 56.9098 90.225 56.7755 90.348 56.6426C90.4753 56.5011 90.6052 56.3608 90.7348 56.2204C90.8348 56.1121 90.9359 56.0035 91.0382 55.8951C91.0788 55.8538 91.1169 55.8125 91.1573 55.7702C92.7046 54.1313 94.34 52.5574 95.9802 51.0258C96.3109 50.7169 96.8347 50.2758 97.4834 49.7289C98.1321 49.1818 98.914 48.5121 99.7471 47.7882C101.393 46.345 103.243 44.6165 104.697 42.8869C105.667 41.7339 106.46 40.5796 106.9 39.5221C107.14 38.9882 107.273 38.4131 107.291 37.8289C107.293 37.5032 107.232 37.1803 107.111 36.8774C106.979 36.5634 106.784 36.2794 106.537 36.0428C106.232 35.7612 105.86 35.5608 105.455 35.4602C104.952 35.3297 104.433 35.2685 103.913 35.2788C102.447 35.2788 100.668 35.6573 99.0521 36.1276C97.7187 36.5182 96.4077 36.9795 95.1243 37.5095C93.833 38.0459 92.4976 38.6107 91.1669 39.2213L91.0479 39.2757L91.0312 39.2839C90.8621 39.3617 90.6931 39.4394 90.5241 39.5197C90.0017 39.7649 89.4803 40.0185 88.965 40.2801C88.7925 40.3674 88.6211 40.4547 88.4509 40.5442C88.2805 40.6338 88.1164 40.7188 87.9509 40.8083L87.933 40.819C87.7664 40.9079 87.6001 40.9981 87.4342 41.0901C86.8475 41.4156 86.2714 41.7539 85.7109 42.1065L85.4883 42.2467C85.1456 42.4661 84.8091 42.6909 84.479 42.9212L84.2411 43.0898C84.1612 43.1475 84.0815 43.2077 84.003 43.2631V42.6796C84.0422 42.6499 84.0815 42.6217 84.122 42.5946L84.2411 42.5108C84.3208 42.4554 84.3993 42.4012 84.479 42.3482L84.6314 42.2467L84.9337 42.0463C85.7358 41.5193 86.5715 41.0254 87.426 40.5572L87.6926 40.4122L87.9307 40.2838C88.0973 40.1957 88.264 40.1087 88.4306 40.0232L88.9066 39.7873C89.0841 39.6977 89.2637 39.608 89.4422 39.5209C89.9779 39.2591 90.5135 39.0044 91.0573 38.758L91.1764 38.7039C92.45 38.125 93.721 37.5872 94.9494 37.0768C96.2489 36.54 97.5768 36.0728 98.927 35.6772C100.568 35.2057 102.379 34.8106 103.926 34.8094C104.488 34.8001 105.049 34.8675 105.592 35.01C106.074 35.132 106.516 35.3733 106.878 35.7115C107.166 35.9851 107.395 36.3149 107.549 36.6802C107.703 37.0452 107.78 37.4379 107.774 37.8336L107.761 37.8301Z" fill="black"/>
  <path d="M97.7974 74.3723L96.3418 74.429C95.3776 74.4678 94.4791 74.8841 93.7434 75.5926C93.0079 76.3012 92.4424 77.3009 92.1617 78.4906C91.9767 79.3045 91.64 80.077 91.169 80.7685C91.1308 80.8238 91.0903 80.8794 91.05 80.9347C91.0047 80.9961 90.9583 81.0527 90.9107 81.1129C90.8154 81.2331 90.7155 81.3473 90.6108 81.4559C90.5583 81.5101 90.5059 81.5643 90.4524 81.6163C89.6455 82.3944 88.6326 82.8696 87.54 82.9132L84.4799 83.0311L84.0039 83.0498V82.5784L84.4799 82.5595L87.5209 82.4415C88.485 82.4037 89.3848 81.9876 90.1203 81.2789C90.3725 81.0349 90.5984 80.7654 90.794 80.4749C90.819 80.4406 90.8416 80.4065 90.8631 80.3724C90.9298 80.2724 90.9927 80.1688 91.0523 80.0612C91.094 79.9881 91.1332 79.915 91.1714 79.8405C91.4069 79.3774 91.5848 78.8878 91.701 78.3822C91.9997 77.1124 92.6055 76.0311 93.4136 75.253C94.1875 74.4763 95.2261 74.0138 96.3262 73.9561L97.7818 73.8984L97.7974 74.3723Z" fill="black"/>
  <path d="M91.05 80.0645V80.9359C91.0047 80.9971 90.9585 81.0536 90.9109 81.1138C90.8148 81.2325 90.7149 81.3469 90.6108 81.4569C90.5585 81.5112 90.5061 81.5654 90.4526 81.6173C89.6455 82.3953 88.6326 82.8705 87.54 82.9142L84.4801 83.0321L84.0039 83.051V82.5793L84.4801 82.5604L87.5209 82.4425C88.485 82.4049 89.385 81.9886 90.1205 81.2801C90.3727 81.0361 90.5984 80.7665 90.7942 80.4759C90.8192 80.4418 90.8418 80.4077 90.8632 80.3734C90.9282 80.2752 90.9905 80.1722 91.05 80.0645Z" fill="black"/>
  <path d="M31.5547 9.87305H4.67351C4.37706 9.87305 4.13672 10.1111 4.13672 10.4048V27.9238C4.13672 28.2175 4.37706 28.4557 4.67351 28.4557H31.5547C31.851 28.4557 32.0914 28.2175 32.0914 27.9238V10.4048C32.0914 10.1111 31.851 9.87305 31.5547 9.87305Z" stroke="black" stroke-width="0.75" stroke-miterlimit="10"/>
  <path d="M4.31641 12.9688H32.2699" stroke="black" stroke-width="0.75" stroke-miterlimit="10"/>
  <path d="M16.457 16.248H27.8593" stroke="black" stroke-width="0.75" stroke-miterlimit="10" stroke-linecap="round"/>
  <path d="M16.457 19.5273H27.8593" stroke="black" stroke-width="0.75" stroke-miterlimit="10" stroke-linecap="round"/>
  <path d="M16.457 22.8066H27.8593" stroke="black" stroke-width="0.75" stroke-miterlimit="10" stroke-linecap="round"/>
  <path d="M13.6104 20.4606C14.0303 18.6981 12.9284 16.9323 11.1492 16.5161C9.37004 16.1002 7.58731 17.1919 7.16739 18.9542C6.74745 20.7167 7.84935 22.4826 9.62854 22.8985C11.4077 23.3147 13.1904 22.223 13.6104 20.4606Z" fill="#A77FFA" stroke="black" stroke-width="0.75" stroke-miterlimit="10"/>
  <path d="M9.8125 21.1433V18.3066L11.7133 19.725L9.8125 21.1433Z" stroke="black" stroke-width="0.75" stroke-linejoin="round"/>
  <path d="M37.125 38.0273V38.5933C37.0465 38.5403 36.9666 38.4884 36.8869 38.4401C36.8073 38.3917 36.7286 38.3422 36.6489 38.2962C36.0387 37.9483 35.388 37.6757 34.7112 37.4839C33.2341 37.057 31.6237 36.9592 29.9503 36.9592C28.5911 36.9592 27.1914 37.0241 25.794 37.0241C24.8118 37.0311 23.8298 36.982 22.8531 36.8765C21.5665 36.7292 20.4965 36.399 19.605 35.9217C18.7607 35.4717 18.0225 34.8495 17.4387 34.0964C16.3069 32.6475 15.7474 30.8117 15.3809 28.9029L15.8486 28.8145C16.1176 30.2211 16.4937 31.5675 17.1126 32.7217C17.7315 33.876 18.5862 34.8441 19.8323 35.5065C20.6653 35.9523 21.6723 36.2671 22.9089 36.4086C23.8675 36.5101 24.8313 36.5569 25.7954 36.5489C27.1784 36.5489 28.5767 36.484 29.9515 36.484C31.6416 36.484 33.2973 36.5818 34.8446 37.0276C35.4701 37.2057 36.0749 37.4488 36.6489 37.7526C36.7286 37.7951 36.8084 37.8386 36.8869 37.8846C36.9654 37.9306 37.0465 37.9778 37.125 38.0273Z" fill="black"/>
  <path d="M86.8347 25.7285H47.6802C45.2896 25.7285 43.3516 27.6483 43.3516 30.0164V88.4883C43.3516 90.8564 45.2896 92.7762 47.6802 92.7762H86.8347C89.2254 92.7762 91.1634 90.8564 91.1634 88.4883V30.0164C91.1634 27.6483 89.2254 25.7285 86.8347 25.7285Z" fill="#C5C8FB"/>
  <path d="M80.1483 21.0508H40.9937C38.8204 21.0508 37.0586 22.796 37.0586 24.9489V83.4207C37.0586 85.5736 38.8204 87.3188 40.9937 87.3188H80.1483C82.3216 87.3188 84.0834 85.5736 84.0834 83.4207V24.9489C84.0834 22.796 82.3216 21.0508 80.1483 21.0508Z" fill="white" stroke="black" stroke-width="0.75"/>
  <path d="M95.9791 30.4947C96.4077 30.4947 96.7551 30.1504 96.7551 29.7259C96.7551 29.3012 96.4077 28.957 95.9791 28.957C95.5504 28.957 95.2031 29.3012 95.2031 29.7259C95.2031 30.1504 95.5504 30.4947 95.9791 30.4947Z" stroke="black" stroke-width="0.75" stroke-miterlimit="10"/>
  <path d="M27.2957 5.26205C27.7243 5.26205 28.0718 4.91788 28.0718 4.49334C28.0718 4.06877 27.7243 3.72461 27.2957 3.72461C26.867 3.72461 26.5195 4.06877 26.5195 4.49334C26.5195 4.91788 26.867 5.26205 27.2957 5.26205Z" stroke="black" stroke-width="0.75" stroke-miterlimit="10"/>
  <path d="M15.0397 74.9437C15.4683 74.9437 15.8157 74.5995 15.8157 74.175C15.8157 73.7505 15.4683 73.4062 15.0397 73.4062C14.6111 73.4062 14.2637 73.7505 14.2637 74.175C14.2637 74.5995 14.6111 74.9437 15.0397 74.9437Z" stroke="black" stroke-width="0.75" stroke-miterlimit="10"/>
  <path d="M21.9414 40.6523V42.1627" stroke="black" stroke-width="0.75" stroke-miterlimit="10" stroke-linecap="round"/>
  <path d="M21.1738 41.4082H22.6985" stroke="black" stroke-width="0.75" stroke-miterlimit="10" stroke-linecap="round"/>
  <path d="M109.541 58.3379V59.8482" stroke="black" stroke-width="0.75" stroke-miterlimit="10" stroke-linecap="round"/>
  <path d="M108.779 59.0938H110.304" stroke="black" stroke-width="0.75" stroke-miterlimit="10" stroke-linecap="round"/>
  <path d="M36.9434 11.5508V13.179" stroke="black" stroke-width="0.75" stroke-miterlimit="10" stroke-linecap="round"/>
  <path d="M36.1211 12.3652H37.7648" stroke="black" stroke-width="0.75" stroke-miterlimit="10" stroke-linecap="round"/>
  <path d="M71.4774 40.1834C71.1512 39.4184 70.6048 38.7655 69.9061 38.3063C69.2077 37.8471 68.3882 37.6019 67.5498 37.6013C66.8501 37.5982 66.1605 37.7664 65.5423 38.0911C64.9243 38.4156 64.3966 38.8865 64.0064 39.4619C63.7528 39.8373 63.5629 40.2517 63.4447 40.6881H57.4389C57.3966 40.5152 57.3393 40.3464 57.2675 40.1834C57.2022 40.0242 57.1225 39.871 57.0294 39.726L59.1719 37.6037C59.821 37.9707 60.5561 38.1623 61.3036 38.159C61.8761 38.1613 62.4434 38.0475 62.9699 37.8241C63.7439 37.5013 64.4048 36.9595 64.8696 36.2664C65.3343 35.5731 65.5822 34.7596 65.5822 33.9275C65.5816 33.2356 65.4095 32.5544 65.0813 31.9438C64.7529 31.3332 64.2785 30.8114 63.6995 30.4247C62.9919 29.9517 62.1571 29.7002 61.3036 29.7032C60.7428 29.7018 60.1874 29.8102 59.6691 30.022C59.1508 30.2339 58.6798 30.5448 58.2831 30.9373C57.8863 31.3296 57.5717 31.7959 57.3572 32.309C57.1427 32.822 57.0326 33.3721 57.033 33.9275C57.0312 34.4947 57.1459 35.0562 57.3698 35.5782C57.428 35.7125 57.4936 35.8435 57.5662 35.9707L55.3952 38.1213C54.762 37.7775 54.0511 37.5986 53.329 37.6013C52.7685 37.6002 52.213 37.7085 51.6948 37.9202C51.1763 38.1321 50.7053 38.4431 50.3086 38.8355C49.9119 39.228 49.5973 39.6942 49.3827 40.2072C49.1682 40.7204 49.058 41.2704 49.0586 41.8257C49.0568 42.3929 49.1714 42.9544 49.3953 43.4764C49.7193 44.2315 50.2567 44.8776 50.9426 45.337C51.6473 45.8084 52.4786 46.0595 53.329 46.0573C54.0275 46.0562 54.7152 45.8856 55.3316 45.5601C55.948 45.2348 56.4746 44.7647 56.8651 44.1909C57.1242 43.8196 57.3167 43.4068 57.4341 42.9706H63.434C63.4803 43.1431 63.5395 43.3117 63.6113 43.4752C63.6692 43.6095 63.7343 43.7407 63.8065 43.868L61.6331 46.0207C61.0019 45.6761 60.2924 45.4964 59.5717 45.4985C59.0109 45.4968 58.4551 45.6048 57.9367 45.8164C57.418 46.0281 56.9468 46.339 56.5499 46.7315C56.1529 47.124 55.8383 47.5905 55.6238 48.1036C55.4093 48.617 55.2993 49.1672 55.3001 49.7229C55.2987 50.2901 55.4136 50.8516 55.638 51.3736C55.9632 52.1275 56.5003 52.7728 57.1852 53.2328C57.8282 53.6604 58.5763 53.907 59.3496 53.9462C60.123 53.9853 60.8925 53.8158 61.5761 53.4556C62.2598 53.0952 62.8318 52.5578 63.231 51.9006C63.6304 51.2434 63.8421 50.4911 63.8435 49.7241C63.8423 49.1598 63.7274 48.6014 63.5055 48.0816C63.4352 47.9226 63.3579 47.7645 63.2745 47.6172L65.4169 45.495H65.4228C66.0704 45.862 66.8037 46.0542 67.5498 46.0527C68.6813 46.0489 69.7657 45.6018 70.5657 44.809C71.3659 44.0163 71.8168 42.9421 71.8202 41.821C71.8163 41.2582 71.6998 40.7015 71.4774 40.1834ZM59.4944 33.1694C59.6443 32.822 59.8922 32.5248 60.2084 32.3135C60.4797 32.1319 60.7924 32.02 61.1182 31.988C61.444 31.9563 61.7728 32.0052 62.0746 32.1307C62.4318 32.279 62.7363 32.5287 62.9502 32.8482C63.1643 33.1678 63.2778 33.543 63.2768 33.9264C63.2788 34.1883 63.2267 34.4479 63.1234 34.6892C62.9742 35.0375 62.7261 35.3353 62.4091 35.5462C62.0835 35.7667 61.6979 35.8836 61.3036 35.8811C60.9805 35.8809 60.6623 35.802 60.3772 35.6515C60.0921 35.501 59.8487 35.2835 59.6681 35.018C59.4883 34.7477 59.3783 34.4376 59.348 34.1152C59.3177 33.7929 59.3681 33.468 59.4944 33.1694ZM55.1465 42.5874C55.0085 42.9119 54.7844 43.1934 54.4981 43.4021C54.2117 43.6107 53.8736 43.7385 53.5199 43.7722C53.1659 43.806 52.8094 43.7444 52.4883 43.5935C52.167 43.4429 51.8927 43.209 51.695 42.9164C51.5153 42.6461 51.4055 42.3364 51.3752 42.0142C51.3449 41.692 51.3949 41.3673 51.521 41.0689C51.6717 40.722 51.9197 40.4249 52.2353 40.2129C52.5066 40.0312 52.8192 39.9195 53.1451 39.8876C53.4709 39.8556 53.7995 39.9047 54.1015 40.0302C54.4584 40.1784 54.7632 40.4281 54.9771 40.7477C55.1909 41.0672 55.3047 41.4423 55.3037 41.8257C55.3045 42.0881 55.2509 42.3477 55.1465 42.5886V42.5874ZM61.3844 50.487C61.2343 50.8347 60.9864 51.1321 60.6702 51.3442C60.3452 51.5617 59.9617 51.6778 59.5693 51.6776C59.3071 51.6774 59.0473 51.6258 58.8051 51.5256C58.4528 51.3767 58.1505 51.1313 57.9339 50.8183C57.698 50.4694 57.5819 50.0547 57.6028 49.6354C57.6236 49.2162 57.7804 48.8147 58.0496 48.4905C58.319 48.1664 58.6867 47.937 59.0979 47.836C59.5093 47.7353 59.9426 47.7684 60.3335 47.9308C60.6861 48.0787 60.9884 48.3243 61.2034 48.6383C61.3844 48.9078 61.4954 49.2175 61.5265 49.5397C61.5576 49.8621 61.508 50.187 61.3821 50.4858L61.3844 50.487ZM69.359 42.5874C69.2088 42.9351 68.9609 43.2327 68.6447 43.4446C68.3197 43.6621 67.9362 43.7785 67.5439 43.7783C67.2208 43.7785 66.9027 43.7001 66.6174 43.5499C66.3323 43.3994 66.0887 43.1819 65.9084 42.9164C65.7276 42.6467 65.617 42.337 65.5862 42.0146C65.5555 41.6922 65.6056 41.3673 65.7323 41.0689C65.8823 40.7214 66.1302 40.4242 66.4464 40.2129C66.7177 40.0312 67.0303 39.9195 67.3562 39.8876C67.682 39.8556 68.0108 39.9047 68.3126 40.0302C68.6695 40.1788 68.9741 40.4284 69.1882 40.7479C69.4022 41.0673 69.5162 41.4423 69.516 41.8257C69.516 42.0881 69.4621 42.3477 69.3578 42.5886L69.359 42.5874Z" fill="black"/>
  <path d="M32.7281 51.2617H19.7422V64.1255H32.7281V51.2617Z" fill="#A77FFA"/>
  <path d="M30.4248 49.6895H17.918V62.0786H30.4248V49.6895Z" stroke="black" stroke-width="0.75" stroke-miterlimit="10"/>
  <path d="M22.291 56.0913L23.9585 57.7431L26.4605 54.4395" stroke="black" stroke-width="0.75" stroke-linecap="round" stroke-linejoin="round"/>
  <path d="M66.9566 65.7695H53.9833C51.1567 65.7695 48.8652 68.0394 48.8652 70.8394C48.8652 73.6394 51.1567 75.9091 53.9833 75.9091H66.9566C69.7832 75.9091 72.0746 73.6394 72.0746 70.8394C72.0746 68.0394 69.7832 65.7695 66.9566 65.7695Z" fill="#49FFBA" stroke="black" stroke-width="0.75"/>
  <path d="M67.1035 75.7914C69.8971 75.7914 72.162 73.5479 72.162 70.7804C72.162 68.0131 69.8971 65.7695 67.1035 65.7695C64.3098 65.7695 62.0449 68.0131 62.0449 70.7804C62.0449 73.5479 64.3098 75.7914 67.1035 75.7914Z" fill="white" stroke="black" stroke-width="0.75"/>
  <path d="M13.7266 105.035H41.7706" stroke="black" stroke-width="0.75" stroke-miterlimit="10"/>
  <path d="M0.5 108H28.5439" stroke="black" stroke-width="0.75" stroke-miterlimit="10"/>
  <path d="M42.2778 102.807H17.1094C17.322 101.623 17.9484 100.551 18.8791 99.7784C19.8095 99.0059 20.9848 98.5826 22.1988 98.5824C22.2655 98.5824 22.332 98.5824 22.3963 98.5824C23.1139 97.3196 24.1907 96.2942 25.4927 95.6337C26.7946 94.9731 28.2642 94.7069 29.7178 94.8681C31.1714 95.0293 32.545 95.6107 33.6673 96.54C34.7898 97.4693 35.6111 98.7052 36.0292 100.094C36.5612 99.608 37.2245 99.286 37.9383 99.1677C38.6519 99.0492 39.3851 99.1395 40.0479 99.427C40.7108 99.7146 41.2747 100.187 41.6708 100.787C42.0666 101.388 42.2776 102.089 42.2778 102.806V102.807Z" fill="#A883F8"/>
  <path d="M35.2334 105.081H7.82031C8.05278 103.792 8.73572 102.624 9.74953 101.784C10.7634 100.943 12.0434 100.482 13.3655 100.483C13.4381 100.483 13.5107 100.483 13.5822 100.483C14.3636 99.1079 15.5362 97.9917 16.9536 97.2725C18.371 96.5533 19.9708 96.2633 21.5536 96.4383C23.1363 96.6135 24.6318 97.246 25.8543 98.2572C27.0767 99.2684 27.9716 100.613 28.4278 102.125C29.0073 101.596 29.73 101.245 30.5074 101.116C31.2849 100.987 32.0834 101.086 32.8053 101.399C33.5274 101.712 34.1414 102.227 34.5727 102.881C35.0038 103.535 35.2334 104.299 35.2334 105.08V105.081Z" stroke="black" stroke-width="0.75" stroke-linecap="round" stroke-linejoin="round"/>
  <path d="M99.0317 7.21152H75.8145C76.2011 5.03818 78.1545 3.3983 80.515 3.3983C80.576 3.3983 80.637 3.3983 80.698 3.3983C81.8783 1.36327 84.1166 0 86.6803 0C89.7936 0 92.4185 2.01527 93.2528 4.76157C93.8633 4.20837 94.6773 3.87249 95.5726 3.87249C97.4852 3.87249 99.0317 5.37406 99.0317 7.21152Z" fill="#C4C6FC"/>
  <path d="M111.824 13.0586H97.4609C97.7043 11.6573 98.9217 10.5858 100.362 10.5858C100.403 10.5858 100.443 10.5858 100.484 10.5858C101.214 9.26696 102.594 8.38086 104.196 8.38086C106.124 8.38086 107.746 9.67909 108.274 11.4719C108.659 11.1216 109.167 10.8949 109.714 10.8949C110.871 10.9155 111.824 11.884 111.824 13.0586Z" fill="#C4C6FC"/>
</svg>