<svg width="168" height="135" viewBox="0 10 168 135" fill="none" xmlns="http://www.w3.org/2000/svg">
<path d="M83.1151 129.335C108.552 129.335 129.173 108.466 129.173 82.7232C129.173 56.9802 108.552 36.1113 83.1151 36.1113C57.6783 36.1113 37.0576 56.9802 37.0576 82.7232C37.0576 108.466 57.6783 129.335 83.1151 129.335Z" fill="#C6CAFA" stroke="#C6CBFA" stroke-width="0.894855" stroke-linecap="round" stroke-linejoin="round"/>
<path d="M83.1125 135.17C111.733 135.17 134.935 111.689 134.935 82.7236C134.935 53.7583 111.733 30.2773 83.1125 30.2773C54.4918 30.2773 31.29 53.7583 31.29 82.7236C31.29 111.689 54.4918 135.17 83.1125 135.17Z" stroke="black" stroke-width="0.894855" stroke-linecap="round" stroke-linejoin="round"/>
<path d="M69.346 133.315C57.085 121.39 49.2549 103.159 49.2549 82.7282C49.2549 62.2973 57.085 44.0633 69.346 32.1338" stroke="black" stroke-width="0.894855" stroke-linecap="round" stroke-linejoin="round"/>
<path d="M96.8774 32.1289C109.134 44.0584 116.969 62.2878 116.969 82.7203C116.969 103.153 109.134 121.385 96.8774 133.315" stroke="black" stroke-width="0.894855" stroke-linecap="round" stroke-linejoin="round"/>
<path d="M133.104 96.6553C121.318 109.055 103.306 116.988 83.1162 116.988C62.9267 116.988 44.9111 109.055 33.125 96.6553" stroke="black" stroke-width="0.894855" stroke-linecap="round" stroke-linejoin="round"/>
<path d="M33.1143 68.7929C44.9004 56.3888 62.9145 48.46 83.1024 48.46C103.29 48.46 121.307 56.3888 133.095 68.7929" stroke="black" stroke-width="0.894855" stroke-linecap="round" stroke-linejoin="round"/>
<path d="M31.2891 82.7236H134.936" stroke="black" stroke-width="0.894855" stroke-linecap="round" stroke-linejoin="round"/>
<path d="M83.1123 30.2773V135.171" stroke="black" stroke-width="0.894855" stroke-linecap="round" stroke-linejoin="round"/>
<path d="M121.841 20.2806C122.259 19.8581 122.259 19.1731 121.841 18.7506C121.424 18.3281 120.747 18.3281 120.33 18.7506C119.912 19.1731 119.912 19.8581 120.33 20.2806C120.747 20.7031 121.424 20.7031 121.841 20.2806Z" stroke="black" stroke-width="0.894855" stroke-linecap="round" stroke-linejoin="round"/>
<path d="M141.237 103.796C141.332 103.204 140.935 102.647 140.35 102.551C139.766 102.456 139.215 102.858 139.121 103.449C139.026 104.041 139.424 104.598 140.008 104.694C140.593 104.789 141.143 104.387 141.237 103.796Z" stroke="black" stroke-width="0.894855" stroke-linecap="round" stroke-linejoin="round"/>
<path d="M22.444 80.6039C22.8615 80.1814 22.8615 79.4964 22.444 79.0739C22.0265 78.6513 21.3497 78.6514 20.9322 79.0739C20.5147 79.4964 20.5147 80.1814 20.9322 80.6039C21.3497 81.0264 22.0265 81.0264 22.444 80.6039Z" stroke="black" stroke-width="0.894855" stroke-linecap="round" stroke-linejoin="round"/>
<path d="M128.878 36.1602V38.4505" stroke="black" stroke-width="0.894855" stroke-linecap="round" stroke-linejoin="round"/>
<path d="M127.746 37.3057H130.009" stroke="black" stroke-width="0.894855" stroke-linecap="round" stroke-linejoin="round"/>
<path d="M24.3647 111.124V113.413" stroke="black" stroke-width="0.894855" stroke-linecap="round" stroke-linejoin="round"/>
<path d="M23.2329 112.268H25.4946" stroke="black" stroke-width="0.894855" stroke-linecap="round" stroke-linejoin="round"/>
<path d="M116.552 46.2674C119.755 46.2674 122.351 43.6397 122.351 40.3984C122.351 37.157 119.755 34.5293 116.552 34.5293C113.349 34.5293 110.753 37.157 110.753 40.3984C110.753 43.6397 113.349 46.2674 116.552 46.2674Z" fill="#A883F8" stroke="black" stroke-width="0.894855" stroke-linecap="round" stroke-linejoin="round"/>
<path d="M116.552 88.5955C119.755 88.5955 122.351 85.9679 122.351 82.7265C122.351 79.4851 119.755 76.8574 116.552 76.8574C113.349 76.8574 110.753 79.4851 110.753 82.7265C110.753 85.9679 113.349 88.5955 116.552 88.5955Z" fill="#6A57DC" stroke="black" stroke-width="0.894855" stroke-linecap="round" stroke-linejoin="round"/>
<path d="M46.4877 125.152C49.6905 125.152 52.287 122.524 52.287 119.283C52.287 116.042 49.6905 113.414 46.4877 113.414C43.2849 113.414 40.6885 116.042 40.6885 119.283C40.6885 122.524 43.2849 125.152 46.4877 125.152Z" fill="#6A57DC" stroke="black" stroke-width="0.894855" stroke-linecap="round" stroke-linejoin="round"/>
<path d="M155.87 135.08H124.386C124.652 133.567 125.435 132.197 126.599 131.21C127.763 130.223 129.234 129.682 130.752 129.681C130.836 129.681 130.919 129.681 130.999 129.681C131.897 128.068 133.244 126.757 134.873 125.913C136.501 125.069 138.34 124.729 140.158 124.935C141.977 125.141 143.695 125.884 145.099 127.071C146.503 128.259 147.53 129.839 148.053 131.613C148.719 130.992 149.549 130.581 150.442 130.429C151.334 130.278 152.251 130.393 153.081 130.761C153.91 131.129 154.615 131.733 155.111 132.5C155.606 133.266 155.87 134.163 155.87 135.079V135.08Z" fill="#A883F8"/>
<path d="M147.355 137.543H108.33C108.659 135.667 109.631 133.969 111.073 132.745C112.516 131.522 114.338 130.851 116.221 130.851C116.323 130.851 116.428 130.851 116.529 130.851C117.641 128.851 119.31 127.227 121.328 126.181C123.345 125.134 125.623 124.712 127.876 124.967C130.129 125.221 132.259 126.141 133.999 127.612C135.739 129.083 137.013 131.039 137.662 133.238C138.488 132.468 139.517 131.959 140.624 131.772C141.73 131.585 142.867 131.728 143.895 132.184C144.922 132.64 145.796 133.389 146.41 134.34C147.024 135.29 147.352 136.401 147.352 137.537L147.355 137.543Z" stroke="black" stroke-width="0.894855" stroke-linecap="round" stroke-linejoin="round"/>
<path d="M116.729 137.542H156.653" stroke="black" stroke-width="0.894855" stroke-linecap="round" stroke-linejoin="round"/>
<path d="M97.9004 141.787H137.824" stroke="black" stroke-width="0.894855" stroke-linecap="round" stroke-linejoin="round"/>
<path d="M66.3719 25.5364H34.8877C35.1537 24.0233 35.9374 22.6531 37.1014 21.666C38.2655 20.6789 39.7356 20.1378 41.2542 20.1375C41.3376 20.1375 41.421 20.1375 41.5014 20.1375C42.399 18.5238 43.7461 17.2131 45.3748 16.369C47.0035 15.5249 48.8416 15.1846 50.6601 15.3906C52.4786 15.5966 54.1969 16.3397 55.6008 17.5273C57.0048 18.715 58.0323 20.2946 58.5552 22.0692C59.2207 21.4482 60.0507 21.0369 60.9435 20.8855C61.8363 20.7342 62.7534 20.8493 63.5826 21.217C64.4118 21.5846 65.1172 22.1888 65.6125 22.9556C66.1079 23.7225 66.3718 24.6187 66.3719 25.5349V25.5364Z" fill="#A883F8"/>
<path d="M8.40039 32.2432H48.3237" stroke="black" stroke-width="0.894855" stroke-linecap="round" stroke-linejoin="round"/>
<path d="M57.8555 27.9987H18.8301C19.1598 26.1231 20.1311 24.4248 21.5739 23.2013C23.0167 21.9778 24.8389 21.3072 26.7212 21.3069C26.824 21.3069 26.9282 21.3069 27.0294 21.3069C28.1414 19.3073 29.8103 17.6831 31.8281 16.6368C33.8459 15.5905 36.1233 15.1682 38.3766 15.4227C40.6298 15.6772 42.7592 16.5971 44.4994 18.0679C46.2397 19.5387 47.5137 21.4952 48.1628 23.6937C48.9883 22.9245 50.0173 22.4153 51.124 22.2283C52.2308 22.0412 53.3674 22.1844 54.395 22.6403C55.4227 23.0963 56.2969 23.8452 56.9109 24.7957C57.5249 25.7462 57.8521 26.857 57.8525 27.9926L57.8555 27.9987Z" stroke="black" stroke-width="0.894855" stroke-linecap="round" stroke-linejoin="round"/>
<path d="M50.4326 78.5244C54.3541 78.5244 57.5331 75.3071 57.5331 71.3384C57.5331 67.3696 54.3541 64.1523 50.4326 64.1523C46.511 64.1523 43.332 67.3696 43.332 71.3384C43.332 75.3071 46.511 78.5244 50.4326 78.5244Z" fill="black" stroke="black" stroke-width="0.894855" stroke-linecap="round" stroke-linejoin="round"/>
<path d="M50.4326 78.2813C54.2217 78.2813 57.2934 75.1727 57.2934 71.3379C57.2934 67.5032 54.2217 64.3945 50.4326 64.3945C46.6435 64.3945 43.5718 67.5032 43.5718 71.3379C43.5718 75.1727 46.6435 78.2813 50.4326 78.2813Z" fill="#EFEFEF"/>
<path d="M57.2955 71.3378C57.296 70.0315 56.9323 68.7516 56.2462 67.6452C55.5601 66.5387 54.5795 65.6507 53.417 65.083V77.5896C54.579 77.0221 55.5594 76.1345 56.2454 75.0287C56.9315 73.9228 57.2955 72.6436 57.2955 71.3378Z" fill="#D50A2E"/>
<path d="M43.5718 71.3387C43.5706 72.6442 43.9332 73.9235 44.618 75.0299C45.3027 76.1362 46.2818 77.0248 47.4429 77.5935V65.0869C46.2823 65.6554 45.3034 66.5435 44.6187 67.6493C43.934 68.755 43.5712 70.0337 43.5718 71.3387Z" fill="#D50A2E"/>
<path d="M51.6262 72.2437L52.8188 71.6395L52.2233 71.3381V70.7339L51.0292 71.3381L51.6262 70.1312H51.0292L50.4336 69.2256L49.8366 70.1312H49.2395L49.8366 71.3381L48.6425 70.7339V71.3381L48.0454 71.6395L49.2395 72.2437L48.9417 72.848H50.1343V73.7536H50.7314V72.848H51.924L51.6262 72.2437Z" fill="#D50A2E"/>
<path d="M20.5839 103.224C24.5055 103.224 27.6845 100.006 27.6845 96.0376C27.6845 92.0688 24.5055 88.8516 20.5839 88.8516C16.6624 88.8516 13.4834 92.0688 13.4834 96.0376C13.4834 100.006 16.6624 103.224 20.5839 103.224Z" fill="black" stroke="black" stroke-width="0.894855" stroke-linecap="round" stroke-linejoin="round"/>
<path d="M27.4448 96.0377C27.4183 97.8617 26.6837 99.6019 25.3998 100.882C24.1159 102.163 22.3857 102.88 20.5833 102.88C18.7808 102.88 17.0506 102.163 15.7667 100.882C14.4828 99.6019 13.7482 97.8617 13.7217 96.0377L20.584 89.0928C21.4851 89.0928 22.3774 89.2724 23.2099 89.6214C24.0424 89.9705 24.7988 90.4821 25.4359 91.127C26.073 91.7719 26.5783 92.5375 26.923 93.3801C27.2677 94.2227 27.445 95.1257 27.4448 96.0377V96.0377Z" fill="#0B55B0"/>
<path d="M20.5664 96.0379H20.5852V96.0176L20.5664 96.0379Z" fill="#EFEFEF"/>
<path d="M20.5835 92.715V89.0986C18.7637 89.099 17.0187 89.8309 15.7321 91.1333C14.4454 92.4357 13.7227 94.2019 13.7227 96.0436H17.296V93.9973L19.312 96.0375H20.5597L20.5775 96.0179V94.7552L18.5675 92.715H20.5835Z" fill="#EFEFEF"/>
<path d="M17.1945 89.999C16.1201 90.6192 15.23 91.52 14.6172 92.6073V96.0383H16.4039V91.8102H20.5847V90.002L17.1945 89.999Z" fill="#D50A2E"/>
<path d="M20.5833 95.1839L18.146 92.7158H17.3018L20.5773 96.0308L20.5833 95.1839Z" fill="#D50A2E"/>
<path d="M25.6044 94.2451L25.7532 94.7062H26.2327L25.8441 94.991L25.993 95.4521L25.6044 95.1673L25.2172 95.4521L25.3646 94.991L24.9775 94.7062H25.457L25.6044 94.2451Z" fill="#D50A2E"/>
<path d="M23.8927 97.5674L24.1145 98.259H24.8337L24.2515 98.6869L24.4733 99.3786L23.8927 98.9506L23.3105 99.3786L23.5324 98.6869L22.9502 98.259H23.6693L23.8927 97.5674Z" fill="#D50A2E"/>
<path d="M23.9575 92.1318L24.1421 92.7089H24.7422L24.2568 93.0645L24.4429 93.6416L23.9575 93.2845L23.4721 93.6416L23.6582 93.0645L23.1729 92.7089H23.7729L23.9575 92.1318Z" fill="#D50A2E"/>
<path d="M22.3096 94.2256L22.5315 94.9172H23.2506L22.6684 95.3451L22.8903 96.0383L22.3096 95.6103L21.7275 96.0383L21.9493 95.3451L21.3687 94.9172H22.0878L22.3096 94.2256Z" fill="#D50A2E"/>
<path d="M66.1728 89.9462C70.0943 89.9462 73.2733 86.7289 73.2733 82.7602C73.2733 78.7915 70.0943 75.5742 66.1728 75.5742C62.2513 75.5742 59.0723 78.7915 59.0723 82.7602C59.0723 86.7289 62.2513 89.9462 66.1728 89.9462Z" fill="black" stroke="black" stroke-width="0.894855" stroke-linecap="round" stroke-linejoin="round"/>
<path d="M66.1724 89.7032C69.9615 89.7032 73.0332 86.5946 73.0332 82.7598C73.0332 78.9251 69.9615 75.8164 66.1724 75.8164C62.3832 75.8164 59.3115 78.9251 59.3115 82.7598C59.3115 86.5946 62.3832 89.7032 66.1724 89.7032Z" fill="#EFEFEF"/>
<path d="M65.873 82.7603H73.0346C73.0346 82.1498 72.9555 81.5419 72.7994 80.9521H65.873V82.7603Z" fill="#D50A2E"/>
<path d="M65.873 79.1373H72.0252C71.6052 78.4463 71.0696 77.8344 70.4425 77.3291H65.873V79.1373Z" fill="#D50A2E"/>
<path d="M66.1691 89.7041C67.7207 89.7069 69.227 89.1755 70.4407 88.1973H61.9004C63.1131 89.1753 64.6184 89.7067 66.1691 89.7041V89.7041Z" fill="#D50A2E"/>
<path d="M60.3186 86.3824H72.0273C72.3681 85.8199 72.6278 85.211 72.7985 84.5742H59.5474C59.7175 85.2112 59.9772 85.8202 60.3186 86.3824V86.3824Z" fill="#D50A2E"/>
<path d="M62.4898 76.9003H63.1152L62.533 77.3283L62.7563 78.0199L62.1742 77.592L61.592 78.0154L61.7841 77.4127C61.2709 77.8473 60.8226 78.3549 60.453 78.9195H60.6615L60.2907 79.1922C60.2342 79.2902 60.1776 79.3881 60.1255 79.4936L60.3026 80.0436L59.9721 79.801C59.8902 79.9773 59.8158 80.1566 59.7473 80.3404L59.9423 80.9431H60.6615L60.0659 81.3741L60.2892 82.0657L59.713 81.6318L59.3646 81.8879C59.3294 82.1754 59.3115 82.4647 59.311 82.7543H66.1704V75.8154C64.8663 75.8138 63.5891 76.1903 62.4898 76.9003V76.9003ZM62.7563 82.0657L62.1742 81.6318L61.592 82.0597L61.8154 81.3681L61.2332 80.9401H61.9523L62.1742 80.2485L62.396 80.9401H63.1152L62.533 81.3681L62.7563 82.0657ZM62.533 79.3535L62.7563 80.0451L62.1742 79.6187L61.592 80.0451L61.8154 79.3535L61.2332 78.9195H61.9523L62.1742 78.2279L62.396 78.9195H63.1152L62.533 79.3535ZM65.213 82.0657L64.6353 81.6318L64.0532 82.0597L64.2765 81.3681L63.6943 80.9401H64.4135L64.6353 80.2485L64.8572 80.9401H65.5748L64.9927 81.3681L65.213 82.0657ZM64.9897 79.3535L65.213 80.0451L64.6309 79.6187L64.0487 80.0451L64.272 79.3535L63.6943 78.9195H64.4135L64.6353 78.2279L64.8572 78.9195H65.5748L64.9897 79.3535ZM64.9897 77.3313L65.213 78.0229L64.6309 77.595L64.0532 78.0154L64.2765 77.3238L63.6943 76.8958H64.4135L64.6353 76.2042L64.8572 76.8958H65.5748L64.9897 77.3313Z" fill="#0B55B0"/>
<path d="M98.4819 108.506C102.403 108.506 105.582 105.289 105.582 101.32C105.582 97.3511 102.403 94.1338 98.4819 94.1338C94.5604 94.1338 91.3813 97.3511 91.3813 101.32C91.3813 105.289 94.5604 108.506 98.4819 108.506Z" fill="black" stroke="black" stroke-width="0.894855" stroke-linecap="round" stroke-linejoin="round"/>
<path d="M98.4815 108.263C102.271 108.263 105.342 105.154 105.342 101.319C105.342 97.4846 102.271 94.376 98.4815 94.376C94.6923 94.376 91.6206 97.4846 91.6206 101.319C91.6206 105.154 94.6923 108.263 98.4815 108.263Z" fill="#EFEFEF"/>
<path d="M91.6213 101.32C91.608 100.399 91.7755 99.4851 92.1143 98.6307C92.4532 97.7763 92.9564 96.9986 93.5949 96.3429C94.2334 95.6871 94.9943 95.1664 95.8335 94.8109C96.6726 94.4555 97.5732 94.2725 98.4829 94.2725C99.3926 94.2725 100.293 94.4555 101.132 94.8109C101.971 95.1664 102.732 95.6871 103.371 96.3429C104.009 96.9986 104.513 97.7763 104.851 98.6307C105.19 99.4851 105.358 100.399 105.344 101.32" fill="#D50A2E"/>
<path d="M95.7988 97.9988C95.7979 97.5172 95.9599 97.0498 96.2579 96.6743C96.5558 96.2988 96.9718 96.0377 97.4366 95.9345C97.29 95.9011 97.1402 95.8845 96.9899 95.8848C96.7008 95.8906 96.4161 95.9572 96.1538 96.0804C95.8915 96.2036 95.6574 96.3807 95.4663 96.6004C95.2753 96.8201 95.1315 97.0776 95.0442 97.3566C94.9568 97.6355 94.9278 97.9298 94.9589 98.2208C94.99 98.5117 95.0805 98.793 95.2248 99.0466C95.3691 99.3002 95.564 99.5206 95.797 99.6939C96.0301 99.8672 96.2962 99.9895 96.5784 100.053C96.8607 100.117 97.153 100.12 97.4366 100.063C96.9718 99.96 96.5558 99.6989 96.2579 99.3234C95.9599 98.9478 95.7979 98.4804 95.7988 97.9988V97.9988Z" fill="#EFEFEF"/>
<path d="M98.4798 96.0361L98.6287 96.4972H99.1082L98.7196 96.782L98.8684 97.2446L98.4798 96.9583L98.0927 97.2446L98.2401 96.782L97.853 96.4972H98.3325L98.4798 96.0361Z" fill="#EFEFEF"/>
<path d="M97.3197 96.9404L97.4672 97.4015H97.9466L97.558 97.6878L97.7069 98.1489L97.3197 97.8641L96.9311 98.1489L97.08 97.6878L96.6914 97.4015H97.1708L97.3197 96.9404Z" fill="#EFEFEF"/>
<path d="M99.6454 96.9404L99.7942 97.4015H100.272L99.8851 97.6878L100.034 98.1489L99.6454 97.8641L99.2583 98.1489L99.4057 97.6878L99.0186 97.4015H99.498L99.6454 96.9404Z" fill="#EFEFEF"/>
<path d="M99.1977 98.2998L99.3451 98.7609H99.8245L99.4359 99.0457L99.5848 99.5067L99.1977 99.222L98.809 99.5067L98.9579 99.0457L98.5693 98.7609H99.0488L99.1977 98.2998Z" fill="#EFEFEF"/>
<path d="M97.7675 98.2998L97.9163 98.7609H98.3943L98.0072 99.0457L98.1546 99.5067L97.7675 99.222L97.3803 99.5067L97.5277 99.0457L97.1406 98.7609H97.6201L97.7675 98.2998Z" fill="#EFEFEF"/>
<path d="M146.033 72.4151C149.822 72.4151 152.894 69.3065 152.894 65.4717C152.894 61.637 149.822 58.5283 146.033 58.5283C142.244 58.5283 139.172 61.637 139.172 65.4717C139.172 69.3065 142.244 72.4151 146.033 72.4151Z" fill="#EFEFEF"/>
<path d="M146.033 72.6572C149.954 72.6572 153.133 69.4399 153.133 65.4712C153.133 61.5024 149.954 58.2852 146.033 58.2852C142.111 58.2852 138.932 61.5024 138.932 65.4712C138.932 69.4399 142.111 72.6572 146.033 72.6572Z" fill="black" stroke="black" stroke-width="0.894855" stroke-linecap="round" stroke-linejoin="round"/>
<path d="M145.734 65.4713H152.894C152.894 64.8606 152.814 64.2527 152.657 63.6631H145.734V65.4713Z" fill="#D50A2E"/>
<path d="M145.734 61.8492H151.886C151.467 61.1576 150.931 60.5457 150.303 60.041H145.734V61.8492Z" fill="#D50A2E"/>
<path d="M146.033 72.416C147.585 72.4193 149.091 71.8879 150.304 70.9092H141.763C142.976 71.8876 144.482 72.4191 146.033 72.416V72.416Z" fill="#D50A2E"/>
<path d="M140.179 69.0933H151.888C152.23 68.5315 152.489 67.9224 152.659 67.2852H139.408C139.578 67.9222 139.837 68.5312 140.179 69.0933V69.0933Z" fill="#D50A2E"/>
<path d="M146.033 65.4717V58.5283C144.213 58.5283 142.468 59.2599 141.181 60.562C139.895 61.8641 139.172 63.6302 139.172 65.4717H146.033Z" fill="#0B55B0"/>
<path d="M143.742 64.4711C143.483 64.4715 143.228 64.4121 142.996 64.2974C142.763 64.1828 142.56 64.0159 142.401 63.8095C142.242 63.6032 142.131 63.3628 142.078 63.1067C142.025 62.8506 142.03 62.5856 142.094 62.332C142.157 62.0783 142.277 61.8426 142.444 61.643C142.611 61.4433 142.821 61.2849 143.058 61.1799C143.295 61.0749 143.552 61.0261 143.811 61.0371C144.069 61.0481 144.321 61.1187 144.549 61.2435C144.255 60.9539 143.884 60.7583 143.481 60.6812C143.078 60.6042 142.662 60.6491 142.284 60.8103C141.906 60.9715 141.584 61.2419 141.357 61.5877C141.13 61.9334 141.009 62.3391 141.009 62.7541C141.009 63.169 141.13 63.5747 141.357 63.9205C141.584 64.2662 141.906 64.5366 142.284 64.6979C142.662 64.8591 143.078 64.904 143.481 64.8269C143.884 64.7499 144.255 64.5543 144.549 64.2647C144.301 64.4012 144.024 64.4722 143.742 64.4711V64.4711Z" fill="#FDD853"/>
<path d="M144.212 61.5459L144.514 62.1833L145.195 62.0251L144.89 62.6609L145.438 63.0994L144.756 63.2546L144.757 63.9613L144.212 63.5198L143.669 63.9613L143.67 63.2546L142.988 63.0994L143.536 62.6609L143.231 62.0251L143.911 62.1833L144.212 61.5459Z" fill="#FDD853"/>
<path d="M91.7408 54.2699C91.7408 55.8661 91.267 57.4264 90.3804 58.7536C89.4938 60.0809 88.2336 61.1154 86.759 61.7262C85.2844 62.3371 83.661 62.4968 82.0953 62.1854C80.5296 61.874 79.0919 61.1052 77.9632 59.9766C76.8345 58.8479 76.0666 57.41 75.7553 55.8444C75.4428 54.2788 75.6031 52.656 76.2142 51.1813C76.8252 49.7066 77.8594 48.4461 79.1864 47.5593C80.5135 46.6725 82.0734 46.1992 83.6702 46.1992C85.8101 46.1992 87.8635 47.0495 89.3773 48.563C90.8911 50.0766 91.7408 52.1294 91.7408 54.2699Z" fill="black"/>
<path d="M79.517 52.9111H76.3107C76.2381 53.3278 76.2012 53.7499 76.2012 54.1729C76.2012 54.7732 76.2738 55.3714 76.4156 55.9546H90.9242C91.0684 55.3715 91.1398 54.7732 91.1398 54.1729C91.1398 53.75 91.1041 53.3279 91.0326 52.9111H79.5228H79.517Z" fill="#FED200"/>
<path d="M82.5618 52.9118V46.7852C81.4723 46.9465 80.4323 47.3487 79.5181 47.9625V52.9085L82.5618 52.9118Z" fill="#FED200"/>
<path d="M79.5181 55.9551V60.3796C80.4323 60.9934 81.4723 61.3955 82.5618 61.5569V55.9551H79.5181Z" fill="#FED200"/>
<path d="M83.669 46.7061C83.2978 46.7058 82.9277 46.7335 82.561 46.7888V52.9154H91.0282C90.7308 51.1787 89.8292 49.6028 88.4825 48.4665C87.1359 47.3301 85.4307 46.7066 83.669 46.7061Z" fill="#0067A2"/>
<path d="M79.518 47.9658C78.6752 48.5293 77.9558 49.2584 77.4047 50.1088C76.8536 50.9591 76.4812 51.9129 76.3105 52.9119H79.518V47.9658Z" fill="#0067A2"/>
<path d="M82.561 61.5569C84.4023 61.8331 86.2804 61.4118 87.8265 60.3756C89.3726 59.3393 90.476 57.7628 90.9199 55.9551H82.561V61.5569Z" fill="#0067A2"/>
<path d="M76.417 55.9551C76.8632 57.7648 77.9689 59.3429 79.5184 60.3796V55.9551H76.417Z" fill="#0067A2"/>
<path d="M104.341 76.6729C104.341 78.269 103.867 79.8293 102.981 81.1562C102.093 82.4833 100.833 83.5175 99.3583 84.128C97.8837 84.7386 96.2603 84.8982 94.6946 84.5867C93.1301 84.2751 91.6924 83.5062 90.5636 82.3774C89.4349 81.2487 88.6659 79.8106 88.3546 78.2451C88.0433 76.6796 88.2036 75.0569 88.8146 73.5823C89.4257 72.1077 90.4598 70.8474 91.7869 69.9607C93.1139 69.074 94.675 68.6006 96.2707 68.6006C97.3302 68.6006 98.3805 68.8095 99.3594 69.2152C100.338 69.6209 101.228 70.2154 101.978 70.965C102.727 71.7147 103.322 72.6046 103.728 73.5839C104.133 74.5634 104.341 75.6129 104.341 76.6729Z" fill="black"/>
<path d="M103.739 76.7172C103.739 75.2747 103.32 73.8633 102.535 72.6533C101.75 71.4433 100.632 70.4864 99.3149 69.8984V83.5343C100.632 82.9466 101.75 81.99 102.535 80.7804C103.32 79.5706 103.739 78.1594 103.739 76.7172Z" fill="#F43D45"/>
<path d="M88.8052 76.7172C88.8052 78.1595 89.2225 79.571 90.0077 80.7812C90.7928 81.9912 91.9112 82.948 93.2279 83.5359V69.8984C91.9112 70.4866 90.7928 71.4434 90.0077 72.6534C89.2237 73.8634 88.8052 75.2749 88.8052 76.7172Z" fill="#0033A7"/>
<path d="M96.2708 69.251C95.2216 69.2498 94.1851 69.4705 93.2271 69.8985V83.5343C94.1851 83.9627 95.2216 84.1842 96.2708 84.1842C97.32 84.1842 98.3565 83.9627 99.3146 83.5343V69.8966C98.3565 69.4691 97.3188 69.2491 96.2708 69.251Z" fill="white"/>
</svg>
