<svg width="282" height="140" viewBox="0 0 282 140" fill="none" xmlns="http://www.w3.org/2000/svg">
<path d="M60.2648 58.2302H20.7534C21.0867 56.36 22.07 54.6664 23.5309 53.4462C24.9919 52.2261 26.8372 51.5573 28.7435 51.5572H29.0603C30.1858 49.5639 31.8754 47.9448 33.9183 46.9021C35.9612 45.8593 38.2671 45.4389 40.5481 45.6935C42.8293 45.9479 44.9846 46.8662 46.7454 48.3334C48.5063 49.8006 49.7946 51.7518 50.4497 53.9439C51.2854 53.176 52.3275 52.6673 53.4485 52.48C54.5696 52.2928 55.7211 52.4351 56.7624 52.8896C57.8036 53.344 58.6893 54.0911 59.3114 55.0391C59.9334 55.9872 60.2647 57.0953 60.2648 58.228V58.2302Z" fill="#C3C4FD"/>
<path d="M49.3781 61.2911H9.8667C10.1997 59.4207 11.1829 57.7268 12.6439 56.5064C14.1048 55.2861 15.9504 54.6172 17.8568 54.617H18.1736C19.2998 52.6254 20.9892 51.0081 23.0314 49.9666C25.0735 48.9251 27.3781 48.5054 29.658 48.7599C31.9378 49.0144 34.0922 49.9317 35.8525 51.3977C37.6128 52.8635 38.9013 54.8132 39.5574 57.0037C40.3931 56.2362 41.4351 55.728 42.5561 55.5411C43.677 55.3541 44.8283 55.4966 45.8693 55.951C46.9104 56.4054 47.796 57.1521 48.4182 58.0998C49.0402 59.0475 49.3718 60.1552 49.3724 61.2878L49.3781 61.2911Z" stroke="black" stroke-width="0.547591" stroke-linecap="round" stroke-linejoin="round"/>
<path d="M263.69 108.984H266.214" stroke="black" stroke-width="0.547591" stroke-linecap="round" stroke-linejoin="round"/>
<path d="M264.958 110.235V107.72" stroke="black" stroke-width="0.547591" stroke-linecap="round" stroke-linejoin="round"/>
<path d="M40.3941 82.0592C40.6083 82.0594 40.8178 81.9963 40.9961 81.8778C41.1743 81.7594 41.3131 81.5911 41.3953 81.394C41.4774 81.1969 41.499 80.9799 41.4574 80.7705C41.4157 80.5612 41.3127 80.3688 41.1614 80.2178C41.01 80.0668 40.817 79.9639 40.6069 79.9222C40.3968 79.8804 40.1791 79.9018 39.9812 79.9834C39.7833 80.0651 39.6141 80.2033 39.4951 80.3807C39.3761 80.5582 39.3125 80.7668 39.3125 80.9803C39.3125 81.2662 39.4265 81.5404 39.6293 81.7428C39.8321 81.945 40.1072 82.0589 40.3941 82.0592Z" stroke="black" stroke-width="0.547591" stroke-linecap="round" stroke-linejoin="round"/>
<path d="M28.3608 72.0977H30.8839" stroke="black" stroke-width="0.547591" stroke-linecap="round" stroke-linejoin="round"/>
<path d="M29.6289 73.3504V70.834" stroke="black" stroke-width="0.547591" stroke-linecap="round" stroke-linejoin="round"/>
<path d="M232.898 91.6045H267.463" stroke="black" stroke-width="0.547591" stroke-miterlimit="10"/>
<path d="M216.596 95.2227H251.16" stroke="black" stroke-width="0.547591" stroke-miterlimit="10"/>
<path d="M259.413 91.6041H225.624C225.91 90.0048 226.751 88.5562 228.002 87.5136C229.251 86.4702 230.83 85.8986 232.46 85.8986C232.549 85.8986 232.638 85.8986 232.726 85.8986C233.689 84.1948 235.134 82.8104 236.881 81.9184C238.629 81.0265 240.6 80.6668 242.551 80.8838C244.502 81.1009 246.346 81.8853 247.853 83.139C249.359 84.3932 250.462 86.0609 251.024 87.9352C251.739 87.2797 252.63 86.8457 253.588 86.6859C254.546 86.5262 255.53 86.6481 256.419 87.0368C257.309 87.4255 258.066 88.0637 258.598 88.8741C259.129 89.6844 259.413 90.6315 259.413 91.5991V91.6041Z" stroke="black" stroke-width="0.547591" stroke-linecap="round" stroke-linejoin="round"/>
<path d="M260.345 59.334H235.516C235.726 58.1586 236.344 57.0942 237.262 56.3275C238.181 55.5609 239.341 55.141 240.539 55.1414C240.605 55.1414 240.67 55.1414 240.734 55.1414C241.444 53.8905 242.506 52.8748 243.789 52.2207C245.073 51.5666 246.521 51.3028 247.954 51.4623C249.387 51.6216 250.741 52.1973 251.848 53.1173C252.955 54.0374 253.767 55.2615 254.181 56.6373C254.707 56.1556 255.361 55.8366 256.065 55.7195C256.77 55.6023 257.493 55.692 258.147 55.9777C258.8 56.2634 259.356 56.7325 259.747 57.328C260.137 57.9234 260.345 58.6193 260.345 59.3307V59.334Z" fill="#C3C4FD" stroke="#C3C4FD" stroke-width="0.136898" stroke-miterlimit="10"/>
<path d="M25.9669 116.639H11.6216C11.7431 115.959 12.1004 115.345 12.631 114.902C13.1615 114.459 13.8316 114.217 14.5237 114.217C14.5622 114.217 14.5995 114.217 14.6369 114.217C15.0457 113.493 15.6592 112.906 16.4009 112.527C17.1426 112.148 17.9796 111.995 18.8078 112.088C19.636 112.179 20.4187 112.513 21.0584 113.045C21.6981 113.577 22.1665 114.285 22.4052 115.08C22.7087 114.802 23.0869 114.618 23.4937 114.55C23.9005 114.483 24.3181 114.534 24.6958 114.699C25.0735 114.865 25.3949 115.136 25.6206 115.479C25.8463 115.823 25.9666 116.225 25.9669 116.636V116.639Z" fill="#C3C4FD" stroke="#C3C4FD" stroke-width="0.136898" stroke-miterlimit="10"/>
<path d="M47.6347 106.424H23.7358C23.9378 105.292 24.533 104.268 25.417 103.53C26.3009 102.792 27.4173 102.389 28.5703 102.389C28.6337 102.389 28.6971 102.389 28.7593 102.389C29.4406 101.183 30.4628 100.205 31.6986 99.5739C32.9342 98.9431 34.3287 98.6886 35.7084 98.8426C37.0881 98.9958 38.3921 99.55 39.4578 100.437C40.5235 101.324 41.3038 102.503 41.7017 103.828C42.2071 103.365 42.8372 103.057 43.5151 102.945C44.193 102.832 44.8891 102.918 45.5185 103.193C46.1479 103.468 46.6833 103.92 47.0591 104.493C47.4349 105.067 47.6349 105.736 47.6347 106.422V106.424Z" fill="#C3C4FD"/>
<path d="M231 17H64V132H231V17Z" fill="#6A45E3"/>
<path d="M54.2207 23.0589V8.23535H85.6266V23.0589" fill="#C3C4FD"/>
<path d="M54.2207 23.0589V8.23535H85.6266V23.0589" stroke="black" stroke-width="0.547591" stroke-linecap="round" stroke-linejoin="round"/>
<path d="M117.859 23.0589V8.23535H226.953V23.0589" fill="#C3C4FD"/>
<path d="M117.859 23.0589V8.23535H226.953V23.0589" stroke="black" stroke-width="0.547591" stroke-linecap="round" stroke-linejoin="round"/>
<path d="M63.43 17.8478C63.7126 17.8475 63.9887 17.764 64.2236 17.6073C64.4585 17.4508 64.6415 17.2282 64.7494 16.968C64.8574 16.7078 64.8856 16.4216 64.8303 16.1455C64.775 15.8693 64.6388 15.6156 64.439 15.4166C64.2391 15.2176 63.9844 15.0822 63.7073 15.0273C63.4301 14.9724 63.1428 15.0007 62.8818 15.1085C62.6208 15.2163 62.3976 15.3989 62.2407 15.633C62.0836 15.8671 62 16.1423 62 16.4239C62 16.611 62.0369 16.7963 62.1088 16.9691C62.1807 17.1419 62.286 17.2989 62.4189 17.4312C62.5517 17.5634 62.7093 17.6683 62.8828 17.7397C63.0563 17.8113 63.2424 17.848 63.43 17.8478Z" stroke="black" stroke-width="0.547591" stroke-linecap="round" stroke-linejoin="round"/>
<path d="M69.0552 17.8478C69.3378 17.8474 69.6138 17.7635 69.8485 17.6068C70.0833 17.4501 70.266 17.2275 70.3739 16.9673C70.4816 16.707 70.5096 16.4208 70.4543 16.1447C70.3989 15.8687 70.2626 15.6152 70.0627 15.4163C69.8628 15.2174 69.608 15.082 69.3309 15.0272C69.0537 14.9724 68.7666 15.0008 68.5056 15.1086C68.2447 15.2164 68.0216 15.399 67.8647 15.6331C67.7077 15.8672 67.624 16.1424 67.624 16.4239C67.6242 16.6111 67.6613 16.7963 67.7334 16.9691C67.8054 17.1419 67.9108 17.299 68.0437 17.4312C68.1766 17.5634 68.3343 17.6683 68.5078 17.7398C68.6814 17.8113 68.8674 17.848 69.0552 17.8478Z" stroke="black" stroke-width="0.547591" stroke-linecap="round" stroke-linejoin="round"/>
<path d="M74.6792 17.8478C74.9618 17.8474 75.2379 17.7635 75.4726 17.6068C75.7073 17.4501 75.89 17.2275 75.9979 16.9673C76.1056 16.707 76.1337 16.4208 76.0783 16.1447C76.0229 15.8687 75.8866 15.6152 75.6867 15.4163C75.4868 15.2174 75.2321 15.082 74.955 15.0272C74.6778 14.9724 74.3906 15.0008 74.1296 15.1086C73.8687 15.2164 73.6457 15.399 73.4887 15.6331C73.3318 15.8672 73.248 16.1424 73.248 16.4239C73.248 16.6111 73.2851 16.7965 73.3571 16.9693C73.429 17.1423 73.5344 17.2993 73.6674 17.4315C73.8003 17.5638 73.9581 17.6687 74.1318 17.7402C74.3054 17.8116 74.4914 17.8481 74.6792 17.8478Z" stroke="black" stroke-width="0.547591" stroke-linecap="round" stroke-linejoin="round"/>
<path d="M227.329 22.7587H120.966V9.25482C120.966 8.65678 120.728 8.08333 120.304 7.66047C119.88 7.23762 119.304 7 118.704 7H87.6225C87.0225 7 86.4473 7.23762 86.0225 7.66047C85.5985 8.08333 85.3597 8.65678 85.3597 9.25482V22.7587H54.1553V127.208H226.28L227.329 22.7587Z" fill="white" stroke="black" stroke-width="0.547591" stroke-linecap="round" stroke-linejoin="round"/>
<path d="M218.016 29.7646H89.8382C89.4217 29.7646 89.0845 30.1008 89.0845 30.5155V37.3058C89.0845 37.7205 89.4217 38.0567 89.8382 38.0567H218.016C218.432 38.0567 218.769 37.7205 218.769 37.3058V30.5155C218.769 30.1008 218.432 29.7646 218.016 29.7646Z" fill="white" stroke="black" stroke-width="0.547591" stroke-linecap="round" stroke-linejoin="round"/>
<path d="M68.9397 31.9316H64.4706C63.8583 31.9316 63.3618 32.4263 63.3618 33.0365V37.4896C63.3618 38.0999 63.8583 38.5945 64.4706 38.5945H68.9397C69.5521 38.5945 70.0485 38.0999 70.0485 37.4896V33.0365C70.0485 32.4263 69.5521 31.9316 68.9397 31.9316Z" fill="#C3C4FD"/>
<path d="M82.0383 31.9316H77.5692C76.9568 31.9316 76.4604 32.4263 76.4604 33.0365V37.4896C76.4604 38.0999 76.9568 38.5945 77.5692 38.5945H82.0383C82.6507 38.5945 83.1471 38.0999 83.1471 37.4896V33.0365C83.1471 32.4263 82.6507 31.9316 82.0383 31.9316Z" fill="#C3C4FD"/>
<path d="M67.6961 30.5781H63.227C62.6146 30.5781 62.1182 31.0727 62.1182 31.683V36.1361C62.1182 36.7464 62.6146 37.241 63.227 37.241H67.6961C68.3084 37.241 68.8049 36.7464 68.8049 36.1361V31.683C68.8049 31.0727 68.3084 30.5781 67.6961 30.5781Z" stroke="black" stroke-width="0.547591" stroke-linecap="round" stroke-linejoin="round"/>
<path d="M80.7932 30.5781H76.3241C75.7117 30.5781 75.2153 31.0727 75.2153 31.683V36.1361C75.2153 36.7464 75.7117 37.241 76.3241 37.241H80.7932C81.4056 37.241 81.902 36.7464 81.902 36.1361V31.683C81.902 31.0727 81.4056 30.5781 80.7932 30.5781Z" stroke="black" stroke-width="0.547591" stroke-linecap="round" stroke-linejoin="round"/>
<path d="M217.828 44.1465H62.6635C62.1436 44.1465 61.7222 44.5664 61.7222 45.0845V119.235C61.7222 119.753 62.1436 120.172 62.6635 120.172H217.828C218.348 120.172 218.77 119.753 218.77 119.235V45.0845C218.77 44.5664 218.348 44.1465 217.828 44.1465Z" fill="white" stroke="black" stroke-width="0.547591" stroke-linecap="round" stroke-linejoin="round"/>
<path d="M93.4598 35.0358C94.3293 35.0358 95.0334 34.3337 95.0334 33.4676C95.0334 32.6015 94.3293 31.8994 93.4598 31.8994C92.5912 31.8994 91.8862 32.6015 91.8862 33.4676C91.8862 34.3337 92.5912 35.0358 93.4598 35.0358Z" fill="white" stroke="black" stroke-width="0.547591" stroke-miterlimit="10"/>
<path d="M94.5244 34.625L95.8245 35.9203" stroke="black" stroke-width="0.547591" stroke-miterlimit="10" stroke-linecap="round"/>
<path d="M108.9 16.7512L98.7028 16.7613L98.354 11.3408L110.438 11.4863L108.9 16.7512Z" fill="#A77FFA"/>
<path d="M107.679 18.7227L100.317 18.7013C99.8698 18.6763 99.4507 18.4753 99.1516 18.1426C98.8532 17.8098 98.6995 17.3725 98.7243 16.9268" stroke="black" stroke-width="0.547591" stroke-linecap="round" stroke-linejoin="round"/>
<path d="M96.3706 9.30957L98.1541 9.41449L98.7037 16.7617L108.901 16.7516L110.439 11.4866L98.355 11.3411" stroke="black" stroke-width="0.547591" stroke-linecap="round" stroke-linejoin="round"/>
<path d="M107.593 21.6023C108.392 21.6023 109.039 20.9572 109.039 20.1615C109.039 19.3658 108.392 18.7207 107.593 18.7207C106.794 18.7207 106.147 19.3658 106.147 20.1615C106.147 20.9572 106.794 21.6023 107.593 21.6023Z" fill="#A77FFA" stroke="black" stroke-width="0.547591" stroke-linecap="round" stroke-linejoin="round"/>
<path d="M100.601 21.6023C101.399 21.6023 102.047 20.9572 102.047 20.1615C102.047 19.3658 101.399 18.7207 100.601 18.7207C99.8019 18.7207 99.1548 19.3658 99.1548 20.1615C99.1548 20.9572 99.8019 21.6023 100.601 21.6023Z" fill="#A77FFA" stroke="black" stroke-width="0.547591" stroke-linecap="round" stroke-linejoin="round"/>
<path d="M106.016 13.7703C105.501 14.1688 104.857 14.3635 104.206 14.3171C104.1 14.3093 103.993 14.2954 103.888 14.2753C103.256 14.1496 102.69 13.7993 102.298 13.2895C101.905 12.7798 101.713 12.1454 101.754 11.5042C101.761 11.3972 101.775 11.2906 101.794 11.1851C101.921 10.5553 102.274 9.99298 102.786 9.60296C103.299 9.21285 103.936 9.02155 104.579 9.06454C104.686 9.07005 104.792 9.08282 104.897 9.10283C105.529 9.22883 106.095 9.57941 106.487 10.0893C106.88 10.5993 107.073 11.2338 107.031 11.8751C107.024 11.9819 107.01 12.0881 106.989 12.193C106.866 12.8183 106.52 13.3783 106.016 13.7703Z" fill="white" stroke="black" stroke-width="0.547591" stroke-miterlimit="10"/>
<path d="M105.555 11.2142C105.545 11.2711 105.515 11.3225 105.471 11.3597L104.233 12.4352C104.204 12.4611 104.169 12.4798 104.131 12.49C104.094 12.5002 104.054 12.5015 104.016 12.4939C103.959 12.4835 103.909 12.454 103.873 12.4104L103.333 11.7938C103.307 11.7638 103.289 11.7286 103.279 11.6908C103.268 11.6531 103.267 11.6136 103.273 11.575C103.285 11.5194 103.315 11.4689 103.358 11.4319C103.383 11.4098 103.412 11.3929 103.444 11.3821C103.476 11.3714 103.509 11.3671 103.543 11.3692C103.577 11.3714 103.609 11.3802 103.64 11.395C103.669 11.4098 103.697 11.4304 103.718 11.4555L104.089 11.8806L105.135 10.9719C105.175 10.9366 105.226 10.9148 105.278 10.9094C105.332 10.9042 105.385 10.9158 105.431 10.9424C105.478 10.9691 105.515 11.0094 105.537 11.058C105.559 11.1066 105.565 11.1609 105.555 11.2132V11.2142Z" fill="#6A45E3"/>
<mask id="mask0_2184_20293" style="mask-type:luminance" maskUnits="userSpaceOnUse" x="185" y="2" width="34" height="34">
<path d="M218.688 18.9413C218.688 9.84484 211.288 2.4707 202.159 2.4707C193.03 2.4707 185.629 9.84484 185.629 18.9413C185.629 28.0377 193.03 35.4119 202.159 35.4119C211.288 35.4119 218.688 28.0377 218.688 18.9413Z" fill="white"/>
</mask>
<g mask="url(#mask0_2184_20293)">
<path d="M217.862 18.941C217.862 27.5826 210.831 34.5881 202.159 34.5881C193.487 34.5881 186.456 27.5826 186.456 18.941C186.456 10.2994 193.487 3.29395 202.159 3.29395C210.831 3.29395 217.862 10.2994 217.862 18.941Z" fill="white" stroke="url(#paint0_radial_2184_20293)" stroke-width="2"/>
<path fill-rule="evenodd" clip-rule="evenodd" d="M202.159 11.9202C201.406 11.9202 200.795 12.5285 200.795 13.279C200.795 14.0295 201.406 14.6378 202.159 14.6378C202.912 14.6378 203.522 14.0295 203.522 13.279C203.522 12.5285 202.912 11.9202 202.159 11.9202ZM198.977 13.279C198.977 11.5279 200.402 10.1084 202.159 10.1084C203.916 10.1084 205.341 11.5279 205.341 13.279C205.341 15.0301 203.916 16.4496 202.159 16.4496C201.611 16.4496 201.095 16.3116 200.645 16.0684L199.276 17.4324C199.379 17.6224 199.464 17.824 199.527 18.0349H204.79C205.182 16.7252 206.399 15.7702 207.841 15.7702C209.598 15.7702 211.023 17.1897 211.023 18.9408C211.023 20.6918 209.598 22.1113 207.841 22.1113C207.293 22.1113 206.777 21.9733 206.327 21.7302L204.958 23.0941C205.202 23.5427 205.341 24.0565 205.341 24.6025C205.341 26.3536 203.916 27.7731 202.159 27.7731C200.402 27.7731 198.977 26.3536 198.977 24.6025C198.977 22.8514 200.402 21.4319 202.159 21.4319C202.707 21.4319 203.222 21.57 203.673 21.8131L205.042 20.4491C204.938 20.2591 204.854 20.0575 204.79 19.8466H199.527C199.136 21.1563 197.918 22.1113 196.477 22.1113C194.72 22.1113 193.295 20.6918 193.295 18.9408C193.295 17.1897 194.72 15.7702 196.477 15.7702C197.025 15.7702 197.541 15.9082 197.991 16.1513L199.36 14.7874C199.116 14.3388 198.977 13.825 198.977 13.279ZM200.795 24.6025C200.795 23.852 201.406 23.2437 202.159 23.2437C202.912 23.2437 203.522 23.852 203.522 24.6025C203.522 25.353 202.912 25.9613 202.159 25.9613C201.406 25.9613 200.795 25.353 200.795 24.6025ZM196.477 17.5819C195.724 17.5819 195.113 18.1903 195.113 18.9408C195.113 19.6912 195.724 20.2996 196.477 20.2996C197.23 20.2996 197.841 19.6912 197.841 18.9408C197.841 18.1903 197.23 17.5819 196.477 17.5819ZM206.477 18.9408C206.477 18.1903 207.088 17.5819 207.841 17.5819C208.594 17.5819 209.204 18.1903 209.204 18.9408C209.204 19.6912 208.594 20.2996 207.841 20.2996C207.088 20.2996 206.477 19.6912 206.477 18.9408Z" fill="black"/>
</g>
<path d="M219.514 18.9416C219.514 9.3903 211.744 1.64746 202.159 1.64746C192.573 1.64746 184.803 9.3903 184.803 18.9416C184.803 28.4929 192.573 36.2357 202.159 36.2357C211.744 36.2357 219.514 28.4929 219.514 18.9416Z" stroke="url(#paint1_radial_2184_20293)" stroke-width="2"/>
<path fill-rule="evenodd" clip-rule="evenodd" d="M153.387 71.3774C155.031 72.5206 156.301 74.1207 157.039 75.9782C158.189 78.8701 158.596 82.0028 158.22 85.0911C158.209 85.185 158.198 85.2781 158.188 85.372C158.172 85.512 158.157 85.6528 158.138 85.7928C156.53 95.0715 148.067 101.581 138.652 100.783C129.237 99.9838 122 92.1406 121.991 82.7251V82.6313C122.029 81.7914 122.129 80.9553 122.29 80.1298V80.09C122.31 79.9144 122.435 79.1164 122.471 78.9573L122.494 78.8356C122.938 76.8605 123.771 74.9929 124.946 73.3408C125.456 72.6182 126.024 71.9388 126.646 71.3095C127.193 70.7514 127.789 70.2431 128.426 69.7907C128.617 69.6631 128.82 69.5548 129.032 69.4678C128.883 71.0108 129.099 72.5672 129.662 74.0124C130.872 72.5973 132.364 71.4482 134.044 70.6379C133.663 72.0932 133.68 73.6241 134.096 75.0703C134.274 75.1919 134.416 75.2995 134.565 75.426C136.004 74.2973 137.75 73.627 139.578 73.5023C139.953 69.345 142.275 65.6082 145.843 63.4206H145.857C145.869 63.4171 145.881 63.4171 145.893 63.4206C145.918 63.4252 145.935 63.447 145.935 63.4722C145.995 63.7208 146.086 63.9613 146.205 64.1882C146.261 64.303 146.325 64.427 146.407 64.558C146.511 64.7335 146.618 64.9091 146.727 65.0846C146.763 65.1431 146.799 65.2016 146.834 65.2601C147.98 67.0611 149.231 68.4728 150.449 69.8488C152.26 71.8951 154.002 73.8626 155.23 76.9143V76.8839C154.905 74.9644 154.284 73.1067 153.387 71.3774ZM136.057 90.1789C136.081 90.1904 136.105 90.202 136.129 90.2143L136.057 90.1789ZM136.129 90.2143C136.14 90.2201 136.152 90.2258 136.164 90.2316C136.211 90.2555 136.259 90.2802 136.311 90.3024L136.129 90.2143Z" fill="url(#paint2_linear_2184_20293)"/>
<path d="M157.039 75.9778C156.301 74.1203 155.031 72.5202 153.387 71.377C154.284 73.1064 154.905 74.9639 155.23 76.8835V76.921C156.635 80.9208 156.434 85.3073 154.669 89.1622C151.917 94.8668 145.979 98.3479 139.638 97.9732C131.044 97.7335 123.773 91.5702 122.158 83.1554C122.003 82.1479 122.047 81.1199 122.287 80.1293C122.109 80.952 122.01 81.7897 121.991 82.6308V82.7247C122 92.1401 129.237 99.9834 138.652 100.782C148.067 101.582 156.53 95.071 158.138 85.7923C158.168 85.5585 158.192 85.3246 158.22 85.0907C158.596 82.0024 158.189 78.8697 157.039 75.9778Z" fill="url(#paint3_radial_2184_20293)"/>
<path d="M157.039 75.9778C156.301 74.1203 155.031 72.5202 153.387 71.377C154.284 73.1064 154.905 74.9639 155.23 76.8835V76.921C156.635 80.9208 156.434 85.3073 154.669 89.1622C151.917 94.8668 145.979 98.3479 139.638 97.9732C131.044 97.7335 123.773 91.5702 122.158 83.1554C122.003 82.1479 122.047 81.1199 122.287 80.1293C122.109 80.952 122.01 81.7897 121.991 82.6308V82.7247C122 92.1401 129.237 99.9834 138.652 100.782C148.067 101.582 156.53 95.071 158.138 85.7923C158.168 85.5585 158.192 85.3246 158.22 85.0907C158.596 82.0024 158.189 78.8697 157.039 75.9778Z" fill="url(#paint4_radial_2184_20293)"/>
<path d="M148.192 78.11L148.307 78.1943C147.85 77.3861 147.28 76.6464 146.616 75.9969C143.055 72.6774 142.713 67.1658 145.836 63.4346C142.275 65.6209 139.956 69.3513 139.578 73.5021C139.789 73.4881 140 73.4694 140.216 73.4694C143.519 73.475 146.564 75.2469 148.192 78.11Z" fill="url(#paint5_radial_2184_20293)"/>
<path d="M140.228 79.2384C139.754 80.1397 138.98 80.8487 138.039 81.2439C132.872 81.2439 132.022 84.3658 132.022 84.3658C132.349 86.9409 133.963 89.176 136.311 90.3026C136.411 90.3545 136.515 90.4014 136.616 90.4484C136.794 90.5274 136.973 90.5999 137.151 90.6658C137.913 90.9392 138.711 91.0973 139.521 91.1335C143.092 91.4753 146.408 89.26 147.449 85.8391C148.489 82.4181 146.963 78.7408 143.802 77.0503C145.346 76.8495 146.911 77.2272 148.192 78.1104C146.562 75.2444 143.512 73.4721 140.207 73.4697C139.991 73.4697 139.779 73.4885 139.568 73.5025C137.741 73.6272 135.995 74.2975 134.556 75.4262C134.835 75.6602 135.148 75.9738 135.808 76.622C137.2 77.6242 138.679 78.4998 140.228 79.2384Z" fill="url(#paint6_radial_2184_20293)"/>
<path d="M140.228 79.2384C139.754 80.1397 138.98 80.8487 138.039 81.2439C132.872 81.2439 132.022 84.3658 132.022 84.3658C132.349 86.9409 133.963 89.176 136.311 90.3026C136.411 90.3545 136.515 90.4014 136.616 90.4484C136.794 90.5274 136.973 90.5999 137.151 90.6658C137.913 90.9392 138.711 91.0973 139.521 91.1335C143.092 91.4753 146.408 89.26 147.449 85.8391C148.489 82.4181 146.963 78.7408 143.802 77.0503C145.346 76.8495 146.911 77.2272 148.192 78.1104C146.562 75.2444 143.512 73.4721 140.207 73.4697C139.991 73.4697 139.779 73.4885 139.568 73.5025C137.741 73.6272 135.995 74.2975 134.556 75.4262C134.835 75.6602 135.148 75.9738 135.808 76.622C137.2 77.6242 138.679 78.4998 140.228 79.2384Z" fill="url(#paint7_radial_2184_20293)"/>
<path d="M133.718 74.822L134.096 75.07C133.68 73.6239 133.663 72.093 134.044 70.6377C132.364 71.448 130.872 72.5971 129.662 74.0123C131.058 73.9639 132.448 74.2411 133.718 74.822Z" fill="url(#paint8_radial_2184_20293)"/>
<path d="M122.158 83.1558C123.768 91.5706 131.035 97.7381 139.629 97.9835C145.974 98.3598 151.918 94.8738 154.669 89.1626C156.436 85.3085 156.64 80.9222 155.238 76.9213V76.8932V76.9237C155.676 81.1929 153.834 85.3785 150.385 87.9488L150.374 87.9718C143.842 93.2721 137.59 91.1712 136.325 90.3123L136.059 90.1813C132.769 88.8061 130.734 85.4848 131.01 81.941C129.163 81.9669 127.475 80.9079 126.7 79.2381C128.733 77.9967 131.267 77.8947 133.393 78.969C135.549 79.9452 138.002 80.0418 140.228 79.2381C138.682 78.499 137.206 77.6234 135.817 76.6218C135.157 75.9735 134.845 75.66 134.565 75.4259C134.415 75.2995 134.274 75.1919 134.096 75.0702L133.718 74.8221C132.447 74.2414 131.058 73.9641 129.662 74.0124C129.099 72.5671 128.883 71.0108 129.032 69.4678C128.819 69.5548 128.617 69.663 128.426 69.7907C127.789 70.243 127.193 70.7513 126.646 71.3095C126.024 71.9388 125.456 72.6182 124.946 73.3408C123.771 74.9928 122.938 76.8605 122.494 78.8356C122.151 80.2484 122.037 81.707 122.158 83.1558Z" fill="url(#paint9_radial_2184_20293)"/>
<path d="M146.616 75.997C147.281 76.6465 147.85 77.3863 148.307 78.1944C148.405 78.2693 148.5 78.3442 148.58 78.4285C151.067 80.9464 151.779 84.7123 150.383 87.9603C153.836 85.3876 155.679 81.1968 155.235 76.9237C153.176 71.8103 149.686 69.7392 146.834 65.2601C146.691 65.026 146.546 64.792 146.407 64.558C146.325 64.427 146.262 64.303 146.205 64.1882C146.086 63.9613 145.995 63.7208 145.935 63.4722C145.935 63.447 145.918 63.4252 145.893 63.4206C145.881 63.4171 145.869 63.4171 145.857 63.4206H145.843C142.709 67.1524 143.048 72.674 146.616 75.997Z" fill="url(#paint10_radial_2184_20293)"/>
<path d="M148.58 78.4164C148.499 78.3438 148.406 78.269 148.307 78.1824L148.192 78.0982C146.911 77.215 145.347 76.8372 143.803 77.038C146.947 78.736 148.46 82.403 147.422 85.8141C146.384 89.2243 143.083 91.4379 139.521 91.1093C138.712 91.0731 137.913 90.915 137.151 90.6416C136.973 90.5765 136.794 90.5032 136.616 90.4242C136.515 90.3772 136.411 90.3303 136.311 90.2792C137.577 91.1398 143.826 93.2415 150.36 87.9388L150.371 87.9157C151.756 84.6792 151.048 80.9309 148.58 78.4164Z" fill="url(#paint11_radial_2184_20293)"/>
<path d="M132.022 84.3657C132.022 84.3657 132.862 81.2436 138.039 81.2436C138.98 80.8484 139.753 80.1393 140.228 79.2381C138.001 80.0418 135.548 79.9452 133.393 78.9689C131.266 77.8946 128.732 77.9965 126.7 79.2381C127.475 80.9078 129.163 81.9668 131.009 81.941C130.734 85.4832 132.767 88.8029 136.054 90.1782C136.138 90.2185 136.219 90.263 136.308 90.3025C133.962 89.1751 132.348 86.94 132.022 84.3657Z" fill="url(#paint12_radial_2184_20293)"/>
<path d="M155.944 75.9765C155.229 74.1184 153.999 72.5178 152.406 71.3742C153.275 73.1041 153.877 74.9623 154.192 76.8825V76.9129C152.201 71.8072 148.82 69.7354 146.058 65.2548C145.919 65.0207 145.779 64.7866 145.644 64.5525C145.565 64.4214 145.503 64.2973 145.448 64.1827C145.333 63.9556 145.246 63.7151 145.187 63.4663C145.187 63.4412 145.17 63.4194 145.146 63.4148C145.135 63.4112 145.122 63.4112 145.112 63.4148H145.098C141.642 65.6031 139.392 69.3411 139.028 73.4998C139.232 73.4857 139.437 73.467 139.647 73.467C142.85 73.4693 145.803 75.2422 147.382 78.1091C146.142 77.2257 144.627 76.8478 143.13 77.0487C146.176 78.7472 147.642 82.4159 146.637 85.8278C145.631 89.2388 142.432 91.4533 138.983 91.1247C138.198 91.0885 137.425 90.9303 136.687 90.6569C136.514 90.591 136.341 90.5186 136.168 90.4387C136.07 90.3926 135.97 90.3456 135.872 90.2938L135.615 90.1628C135.697 90.2023 135.774 90.2468 135.861 90.2872C133.593 89.163 132.03 86.9354 131.709 84.3668C131.709 84.3668 132.523 81.2437 137.538 81.2437C138.45 80.8484 139.199 80.1391 139.658 79.2375C138.16 78.4982 136.73 77.6223 135.385 76.6203C134.746 75.9718 134.444 75.6582 134.173 75.424C134.027 75.2976 133.891 75.19 133.717 75.0682C133.315 73.6216 133.297 72.0902 133.668 70.6344C132.04 71.445 130.595 72.5945 129.422 74.0101C128.877 72.5643 128.668 71.0075 128.812 69.4639C128.606 69.551 128.41 69.6592 128.225 69.787C127.608 70.2395 127.03 70.7479 126.5 71.3062C125.898 71.9358 125.348 72.6154 124.853 73.3382C123.716 74.9908 122.909 76.859 122.478 78.8348L122.456 78.9566C122.421 79.1157 122.271 79.9258 122.251 80.1013C122.115 80.9388 122.029 81.7838 121.991 82.6316V82.7255C122 92.1442 129.011 99.99 138.131 100.789C147.252 101.588 155.452 95.076 157.009 85.7948C157.039 85.5601 157.061 85.3262 157.088 85.0923C157.452 82.003 157.058 78.8693 155.944 75.9765Z" fill="url(#paint13_linear_2184_20293)"/>
<path d="M196.034 46.8308L193.614 52.484C193.433 52.9062 192.94 53.0997 192.52 52.9141L190.447 52.0016C190.034 51.8194 189.844 51.3397 190.021 50.9253L192.45 45.2516L188.069 44.6671C187.386 44.576 187.108 43.7408 187.601 43.2613L199.508 31.6898C200.033 31.1786 200.917 31.5542 200.911 32.2862L200.77 49.0058C200.764 49.7003 199.951 50.0761 199.414 49.6321L196.034 46.8308Z" fill="#6A45E3" stroke="#6A45E3"/>
<path d="M194.916 45.7461L192.321 51.6708C192.139 52.0866 191.654 52.2773 191.236 52.0974L188.99 51.1306C188.57 50.9498 188.377 50.4631 188.56 50.0452L191.152 44.1287L186.433 43.5135C185.744 43.4237 185.467 42.5786 185.97 42.1009L198.688 30.0202C199.216 29.5181 200.09 29.8957 200.084 30.6233L199.933 48.0855C199.927 48.7756 199.123 49.1527 198.585 48.7174L194.916 45.7461Z" fill="white" stroke="black"/>
<defs>
<radialGradient id="paint0_radial_2184_20293" cx="0" cy="0" r="1" gradientUnits="userSpaceOnUse" gradientTransform="translate(202.159 18.941) rotate(90) scale(16.4706 16.5294)">
<stop stop-color="#472C87"/>
<stop offset="0.361992" stop-color="#301962"/>
<stop offset="1" stop-color="#1D0942"/>
</radialGradient>
<radialGradient id="paint1_radial_2184_20293" cx="0" cy="0" r="1" gradientUnits="userSpaceOnUse" gradientTransform="translate(218.688 2.47099) rotate(-44.8979) scale(46.6691 46.6688)">
<stop stop-color="#B833E1"/>
<stop offset="0.371" stop-color="#9059FF"/>
<stop offset="0.614" stop-color="#5B6DF8"/>
<stop offset="1" stop-color="#0090ED"/>
</radialGradient>
<linearGradient id="paint2_linear_2184_20293" x1="140.517" y1="53.6682" x2="109.482" y2="81.827" gradientUnits="userSpaceOnUse">
<stop offset="0.048" stop-color="#FFF44F"/>
<stop offset="0.111" stop-color="#FFE847"/>
<stop offset="0.225" stop-color="#FFC830"/>
<stop offset="0.368" stop-color="#FF980E"/>
<stop offset="0.401" stop-color="#FF8B16"/>
<stop offset="0.462" stop-color="#FF672A"/>
<stop offset="0.534" stop-color="#FF3647"/>
<stop offset="0.705" stop-color="#E31587"/>
</linearGradient>
<radialGradient id="paint3_radial_2184_20293" cx="0" cy="0" r="1" gradientUnits="userSpaceOnUse" gradientTransform="translate(153.234 67.5764) scale(37.9505 30.7569)">
<stop offset="0.129" stop-color="#FFBD4F"/>
<stop offset="0.186" stop-color="#FFAC31"/>
<stop offset="0.247" stop-color="#FF9D17"/>
<stop offset="0.283" stop-color="#FF980E"/>
<stop offset="0.403" stop-color="#FF563B"/>
<stop offset="0.467" stop-color="#FF3750"/>
<stop offset="0.71" stop-color="#F5156C"/>
<stop offset="0.782" stop-color="#EB0878"/>
<stop offset="0.86" stop-color="#E50080"/>
</radialGradient>
<radialGradient id="paint4_radial_2184_20293" cx="0" cy="0" r="1" gradientUnits="userSpaceOnUse" gradientTransform="translate(139.366 83.036) scale(37.9505 30.7569)">
<stop offset="0.3" stop-color="#960E18"/>
<stop offset="0.351" stop-color="#B11927" stop-opacity="0.74"/>
<stop offset="0.435" stop-color="#DB293D" stop-opacity="0.343"/>
<stop offset="0.497" stop-color="#F5334B" stop-opacity="0.094"/>
<stop offset="0.53" stop-color="#FF3750" stop-opacity="0.01"/>
</radialGradient>
<radialGradient id="paint5_radial_2184_20293" cx="0" cy="0" r="1" gradientUnits="userSpaceOnUse" gradientTransform="translate(143.941 58.9952) scale(27.4947 46.4869)">
<stop offset="0.132" stop-color="#FFF44F"/>
<stop offset="0.252" stop-color="#FFDC3E"/>
<stop offset="0.506" stop-color="#FF9D12"/>
<stop offset="0.526" stop-color="#FF980E"/>
</radialGradient>
<radialGradient id="paint6_radial_2184_20293" cx="0" cy="0" r="1" gradientUnits="userSpaceOnUse" gradientTransform="translate(135.167 92.9148) scale(18.0699 19.7781)">
<stop offset="0.353" stop-color="#3A8EE6"/>
<stop offset="0.472" stop-color="#5C79F0"/>
<stop offset="0.669" stop-color="#9059FF"/>
<stop offset="1" stop-color="#C139E6"/>
</radialGradient>
<radialGradient id="paint7_radial_2184_20293" cx="0" cy="0" r="1" gradientUnits="userSpaceOnUse" gradientTransform="translate(139.872 78.6062) rotate(-13.545) scale(9.57799 10.3884)">
<stop offset="0.206" stop-color="#9059FF" stop-opacity="0.01"/>
<stop offset="0.278" stop-color="#8C4FF3" stop-opacity="0.064"/>
<stop offset="0.747" stop-color="#7716A8" stop-opacity="0.45"/>
<stop offset="0.975" stop-color="#6E008B" stop-opacity="0.6"/>
</radialGradient>
<radialGradient id="paint8_radial_2184_20293" cx="0" cy="0" r="1" gradientUnits="userSpaceOnUse" gradientTransform="translate(138.887 66.0298) scale(12.9993 12.9942)">
<stop stop-color="#FFE226"/>
<stop offset="0.121" stop-color="#FFDB27"/>
<stop offset="0.295" stop-color="#FFC82A"/>
<stop offset="0.502" stop-color="#FFA930"/>
<stop offset="0.732" stop-color="#FF7E37"/>
<stop offset="0.792" stop-color="#FF7139"/>
</radialGradient>
<radialGradient id="paint9_radial_2184_20293" cx="0" cy="0" r="1" gradientUnits="userSpaceOnUse" gradientTransform="translate(149.105 57.8135) scale(55.4639 46.4961)">
<stop offset="0.113" stop-color="#FFF44F"/>
<stop offset="0.456" stop-color="#FF980E"/>
<stop offset="0.622" stop-color="#FF5634"/>
<stop offset="0.716" stop-color="#FF3647"/>
<stop offset="0.904" stop-color="#E31587"/>
</radialGradient>
<radialGradient id="paint10_radial_2184_20293" cx="0" cy="0" r="1" gradientUnits="userSpaceOnUse" gradientTransform="translate(143.856 63.9657) rotate(83.9546) scale(40.5085 19.8865)">
<stop stop-color="#FFF44F"/>
<stop offset="0.06" stop-color="#FFE847"/>
<stop offset="0.168" stop-color="#FFC830"/>
<stop offset="0.304" stop-color="#FF980E"/>
<stop offset="0.356" stop-color="#FF8B16"/>
<stop offset="0.455" stop-color="#FF672A"/>
<stop offset="0.57" stop-color="#FF3647"/>
<stop offset="0.737" stop-color="#E31587"/>
</radialGradient>
<radialGradient id="paint11_radial_2184_20293" cx="0" cy="0" r="1" gradientUnits="userSpaceOnUse" gradientTransform="translate(138.579 70.8271) scale(34.6273 33.866)">
<stop offset="0.137" stop-color="#FFF44F"/>
<stop offset="0.48" stop-color="#FF980E"/>
<stop offset="0.592" stop-color="#FF5634"/>
<stop offset="0.655" stop-color="#FF3647"/>
<stop offset="0.904" stop-color="#E31587"/>
</radialGradient>
<radialGradient id="paint12_radial_2184_20293" cx="0" cy="0" r="1" gradientUnits="userSpaceOnUse" gradientTransform="translate(147.72 72.8469) scale(37.8989 33.8234)">
<stop offset="0.094" stop-color="#FFF44F"/>
<stop offset="0.231" stop-color="#FFE141"/>
<stop offset="0.509" stop-color="#FFAF1E"/>
<stop offset="0.626" stop-color="#FF980E"/>
</radialGradient>
<linearGradient id="paint13_linear_2184_20293" x1="141.202" y1="55.8214" x2="114.823" y2="79.8443" gradientUnits="userSpaceOnUse">
<stop offset="0.167" stop-color="#FFF44F" stop-opacity="0.8"/>
<stop offset="0.266" stop-color="#FFF44F" stop-opacity="0.634"/>
<stop offset="0.489" stop-color="#FFF44F" stop-opacity="0.217"/>
<stop offset="0.6" stop-color="#FFF44F" stop-opacity="0.01"/>
</linearGradient>
</defs>
</svg>
