<svg width="280" height="140" viewBox="0 0 280 140" fill="none" xmlns="http://www.w3.org/2000/svg">
<path d="M59.5522 58.2302H20.1814C20.5134 56.36 21.4933 54.6664 22.949 53.4462C24.4048 52.2261 26.2436 51.5573 28.143 51.5572H28.4587C29.5802 49.5639 31.2638 47.9448 33.2994 46.9021C35.3351 45.8593 37.6327 45.4389 39.9057 45.6935C42.1787 45.9479 44.3264 46.8662 46.0809 48.3334C47.8355 49.8006 49.1192 51.7518 49.772 53.9439C50.6047 53.176 51.6431 52.6673 52.7601 52.48C53.8773 52.2928 55.0247 52.4351 56.0622 52.8896C57.0997 53.344 57.9823 54.0911 58.6022 55.0391C59.222 55.9872 59.552 57.0953 59.5522 58.228V58.2302Z" fill="#C3C4FD"/>
<path d="M48.7043 61.2911H9.3335C9.6653 59.4207 10.645 57.7268 12.1008 56.5064C13.5566 55.2861 15.3955 54.6172 17.2951 54.617H17.6108C18.733 52.6254 20.4164 51.0081 22.4513 49.9666C24.4862 48.9251 26.7826 48.5054 29.0544 48.7599C31.3261 49.0144 33.4728 49.9317 35.2268 51.3977C36.9809 52.8635 38.2647 54.8132 38.9185 57.0037C39.7513 56.2362 40.7896 55.728 41.9066 55.5411C43.0235 55.3541 44.1707 55.4966 45.208 55.951C46.2453 56.4054 47.1278 57.1521 47.7478 58.0998C48.3676 59.0475 48.698 60.1552 48.6986 61.2878L48.7043 61.2911Z" stroke="black" stroke-width="0.547591" stroke-linecap="round" stroke-linejoin="round"/>
<path d="M262.254 108.984H264.768" stroke="black" stroke-width="0.547591" stroke-linecap="round" stroke-linejoin="round"/>
<path d="M263.516 110.235V107.72" stroke="black" stroke-width="0.547591" stroke-linecap="round" stroke-linejoin="round"/>
<path d="M39.7518 82.0592C39.9653 82.0594 40.1741 81.9963 40.3517 81.8778C40.5292 81.7594 40.6676 81.5911 40.7495 81.394C40.8313 81.1969 40.8528 80.9799 40.8113 80.7705C40.7698 80.5612 40.6672 80.3688 40.5164 80.2178C40.3655 80.0668 40.1732 79.9639 39.9639 79.9222C39.7545 79.8804 39.5376 79.9018 39.3404 79.9834C39.1432 80.0651 38.9746 80.2033 38.856 80.3807C38.7374 80.5582 38.6741 80.7668 38.6741 80.9803C38.6741 81.2662 38.7876 81.5404 38.9897 81.7428C39.1918 81.945 39.4659 82.0589 39.7518 82.0592Z" stroke="black" stroke-width="0.547591" stroke-linecap="round" stroke-linejoin="round"/>
<path d="M27.7617 72.0977H30.2758" stroke="black" stroke-width="0.547591" stroke-linecap="round" stroke-linejoin="round"/>
<path d="M29.0254 73.3504V70.834" stroke="black" stroke-width="0.547591" stroke-linecap="round" stroke-linejoin="round"/>
<path d="M231.571 91.6045H266.013" stroke="black" stroke-width="0.547591" stroke-miterlimit="10"/>
<path d="M215.327 95.2227H249.768" stroke="black" stroke-width="0.547591" stroke-miterlimit="10"/>
<path d="M257.991 91.6041H224.323C224.608 90.0048 225.446 88.5562 226.692 87.5136C227.937 86.4702 229.51 85.8986 231.134 85.8986C231.223 85.8986 231.312 85.8986 231.399 85.8986C232.359 84.1948 233.799 82.8104 235.54 81.9184C237.281 81.0265 239.246 80.6668 241.189 80.8838C243.134 81.1009 244.971 81.8853 246.472 83.139C247.974 84.3932 249.072 86.0609 249.632 87.9352C250.345 87.2797 251.232 86.8457 252.187 86.6859C253.141 86.5262 254.122 86.6481 255.008 87.0368C255.895 87.4255 256.65 88.0637 257.179 88.8741C257.709 89.6844 257.991 90.6315 257.991 91.5991V91.6041Z" stroke="black" stroke-width="0.547591" stroke-linecap="round" stroke-linejoin="round"/>
<path d="M258.92 59.334H234.18C234.389 58.1586 235.005 57.0942 235.92 56.3275C236.835 55.5609 237.991 55.141 239.184 55.1414C239.25 55.1414 239.315 55.1414 239.379 55.1414C240.086 53.8905 241.144 52.8748 242.423 52.2207C243.702 51.5666 245.146 51.3028 246.573 51.4623C248.001 51.6216 249.35 52.1973 250.453 53.1173C251.557 54.0374 252.366 55.2615 252.778 56.6373C253.302 56.1556 253.954 55.8366 254.656 55.7195C255.358 55.6023 256.078 55.692 256.73 55.9777C257.381 56.2634 257.935 56.7325 258.324 57.328C258.713 57.9234 258.92 58.6193 258.92 59.3307V59.334Z" fill="#C3C4FD" stroke="#C3C4FD" stroke-width="0.136898" stroke-miterlimit="10"/>
<path d="M25.376 116.639H11.0818C11.2028 115.959 11.5589 115.345 12.0876 114.902C12.6163 114.459 13.284 114.217 13.9736 114.217C14.012 114.217 14.0491 114.217 14.0864 114.217C14.4938 113.493 15.1051 112.906 15.8441 112.527C16.5831 112.148 17.4172 111.995 18.2425 112.088C19.0676 112.179 19.8476 112.513 20.485 113.045C21.1224 113.577 21.5892 114.285 21.827 115.08C22.1294 114.802 22.5063 114.618 22.9116 114.55C23.317 114.483 23.7331 114.534 24.1094 114.699C24.4859 114.865 24.8061 115.136 25.031 115.479C25.2559 115.823 25.3758 116.225 25.376 116.636V116.639Z" fill="#C3C4FD" stroke="#C3C4FD" stroke-width="0.136898" stroke-miterlimit="10"/>
<path d="M46.9669 106.424H23.1531C23.3543 105.292 23.9474 104.268 24.8282 103.53C25.709 102.792 26.8214 102.389 27.9703 102.389C28.0335 102.389 28.0966 102.389 28.1587 102.389C28.8375 101.183 29.8561 100.205 31.0875 99.5739C32.3187 98.9431 33.7083 98.6886 35.0831 98.8426C36.4579 98.9958 37.7572 99.55 38.8191 100.437C39.881 101.324 40.6585 102.503 41.055 103.828C41.5586 103.365 42.1865 103.057 42.8619 102.945C43.5374 102.832 44.2311 102.918 44.8583 103.193C45.4854 103.468 46.0189 103.92 46.3933 104.493C46.7678 105.067 46.9671 105.736 46.9669 106.422V106.424Z" fill="#C3C4FD"/>
<path d="M230 17H63V132H230V17Z" fill="#6A45E3"/>
<path d="M53.5293 23.0589V8.23535H84.8234V23.0589" fill="#C3C4FD"/>
<path d="M53.5293 23.0589V8.23535H84.8234V23.0589" stroke="black" stroke-width="0.547591" stroke-linecap="round" stroke-linejoin="round"/>
<path d="M116.941 23.0589V8.23535H225.647V23.0589" fill="#C3C4FD"/>
<path d="M116.941 23.0589V8.23535H225.647V23.0589" stroke="black" stroke-width="0.547591" stroke-linecap="round" stroke-linejoin="round"/>
<path d="M62.425 17.8478C62.7065 17.8475 62.9817 17.764 63.2157 17.6073C63.4498 17.4508 63.6321 17.2282 63.7396 16.968C63.8473 16.7078 63.8754 16.4216 63.8203 16.1455C63.7652 15.8693 63.6294 15.6156 63.4303 15.4166C63.2311 15.2176 62.9774 15.0822 62.7012 15.0273C62.425 14.9724 62.1388 15.0007 61.8787 15.1085C61.6186 15.2163 61.3962 15.3989 61.2398 15.633C61.0833 15.8671 61 16.1423 61 16.4239C61 16.611 61.0368 16.7963 61.1085 16.9691C61.1801 17.1419 61.285 17.2989 61.4174 17.4312C61.5497 17.5634 61.7068 17.6683 61.8797 17.7397C62.0526 17.8113 62.2379 17.848 62.425 17.8478Z" stroke="black" stroke-width="0.547591" stroke-linecap="round" stroke-linejoin="round"/>
<path d="M68.0301 17.8478C68.3117 17.8474 68.5867 17.7635 68.8206 17.6068C69.0545 17.4501 69.2366 17.2275 69.3441 16.9673C69.4514 16.707 69.4794 16.4208 69.4242 16.1447C69.369 15.8687 69.2332 15.6152 69.034 15.4163C68.8348 15.2174 68.581 15.082 68.3048 15.0272C68.0286 14.9724 67.7425 15.0008 67.4825 15.1086C67.2225 15.2164 67.0002 15.399 66.8438 15.6331C66.6874 15.8672 66.604 16.1424 66.604 16.4239C66.6042 16.6111 66.6411 16.7963 66.713 16.9691C66.7847 17.1419 66.8898 17.299 67.0222 17.4312C67.1546 17.5634 67.3117 17.6683 67.4847 17.7398C67.6576 17.8113 67.843 17.848 68.0301 17.8478Z" stroke="black" stroke-width="0.547591" stroke-linecap="round" stroke-linejoin="round"/>
<path d="M73.6341 17.8478C73.9157 17.8474 74.1907 17.7635 74.4246 17.6068C74.6585 17.4501 74.8406 17.2275 74.9481 16.9673C75.0554 16.707 75.0834 16.4208 75.0282 16.1447C74.973 15.8687 74.8372 15.6152 74.638 15.4163C74.4388 15.2174 74.185 15.082 73.9088 15.0272C73.6326 14.9724 73.3465 15.0008 73.0865 15.1086C72.8265 15.2164 72.6042 15.399 72.4478 15.6331C72.2915 15.8672 72.208 16.1424 72.208 16.4239C72.208 16.6111 72.2449 16.7965 72.3166 16.9693C72.3883 17.1423 72.4934 17.2993 72.6259 17.4315C72.7583 17.5638 72.9156 17.6687 73.0886 17.7402C73.2616 17.8116 73.4469 17.8481 73.6341 17.8478Z" stroke="black" stroke-width="0.547591" stroke-linecap="round" stroke-linejoin="round"/>
<path d="M226.022 22.7587H120.038V9.25482C120.038 8.65678 119.8 8.08333 119.377 7.66047C118.955 7.23762 118.381 7 117.783 7H86.8123C86.2144 7 85.6412 7.23762 85.2179 7.66047C84.7955 8.08333 84.5575 8.65678 84.5575 9.25482V22.7587H53.4641V127.208H224.976L226.022 22.7587Z" fill="white" stroke="black" stroke-width="0.547591" stroke-linecap="round" stroke-linejoin="round"/>
<path d="M216.742 29.7646H89.0203C88.6053 29.7646 88.2693 30.1008 88.2693 30.5155V37.3058C88.2693 37.7205 88.6053 38.0567 89.0203 38.0567H216.742C217.157 38.0567 217.493 37.7205 217.493 37.3058V30.5155C217.493 30.1008 217.157 29.7646 216.742 29.7646Z" fill="white" stroke="black" stroke-width="0.547591" stroke-linecap="round" stroke-linejoin="round"/>
<path d="M68.196 31.9316H63.7428C63.1326 31.9316 62.6379 32.4263 62.6379 33.0365V37.4896C62.6379 38.0999 63.1326 38.5945 63.7428 38.5945H68.196C68.8062 38.5945 69.3009 38.0999 69.3009 37.4896V33.0365C69.3009 32.4263 68.8062 31.9316 68.196 31.9316Z" fill="#C3C4FD"/>
<path d="M81.2479 31.9316H76.7948C76.1846 31.9316 75.6899 32.4263 75.6899 33.0365V37.4896C75.6899 38.0999 76.1846 38.5945 76.7948 38.5945H81.2479C81.8582 38.5945 82.3528 38.0999 82.3528 37.4896V33.0365C82.3528 32.4263 81.8582 31.9316 81.2479 31.9316Z" fill="#C3C4FD"/>
<path d="M66.9568 30.5781H62.5035C61.8934 30.5781 61.3987 31.0727 61.3987 31.683V36.1361C61.3987 36.7464 61.8934 37.241 62.5035 37.241H66.9568C67.5669 37.241 68.0616 36.7464 68.0616 36.1361V31.683C68.0616 31.0727 67.5669 30.5781 66.9568 30.5781Z" stroke="black" stroke-width="0.547591" stroke-linecap="round" stroke-linejoin="round"/>
<path d="M80.0077 30.5781H75.5546C74.9443 30.5781 74.4497 31.0727 74.4497 31.683V36.1361C74.4497 36.7464 74.9443 37.241 75.5546 37.241H80.0077C80.6179 37.241 81.1126 36.7464 81.1126 36.1361V31.683C81.1126 31.0727 80.6179 30.5781 80.0077 30.5781Z" stroke="black" stroke-width="0.547591" stroke-linecap="round" stroke-linejoin="round"/>
<path d="M216.555 44.1465H61.9424C61.4243 44.1465 61.0044 44.5664 61.0044 45.0845V119.235C61.0044 119.753 61.4243 120.172 61.9424 120.172H216.555C217.073 120.172 217.493 119.753 217.493 119.235V45.0845C217.493 44.5664 217.073 44.1465 216.555 44.1465Z" fill="white" stroke="black" stroke-width="0.547591" stroke-linecap="round" stroke-linejoin="round"/>
<path d="M92.629 35.0358C93.4954 35.0358 94.197 34.3337 94.197 33.4676C94.197 32.6015 93.4954 31.8994 92.629 31.8994C91.7635 31.8994 91.061 32.6015 91.061 33.4676C91.061 34.3337 91.7635 35.0358 92.629 35.0358Z" fill="white" stroke="black" stroke-width="0.547591" stroke-miterlimit="10"/>
<path d="M93.6897 34.625L94.9851 35.9203" stroke="black" stroke-width="0.547591" stroke-miterlimit="10" stroke-linecap="round"/>
<path d="M110.839 66.4609H71.5586C70.8343 66.4609 70.2456 66.9296 70.2456 67.4394V91.3876C70.2456 91.9255 70.831 92.3603 71.5586 92.3603H110.835C111.559 92.3603 112.148 91.9255 112.148 91.3876V67.4394C112.153 66.9015 111.563 66.4609 110.839 66.4609Z" fill="#A77FFA"/>
<path d="M209.662 66.4609H170.382C169.658 66.4609 169.069 66.9296 169.069 67.4394V91.3876C169.069 91.9255 169.654 92.3603 170.382 92.3603H209.659C210.382 92.3603 210.972 91.9255 210.972 91.3876V67.4394C210.977 66.9015 210.387 66.4609 209.662 66.4609Z" fill="#A77FFA"/>
<path d="M108.124 64H68.8437C68.1197 64 67.5293 64.4688 67.5293 64.9774V88.9257C67.5293 89.4634 68.1149 89.8994 68.8437 89.8994H108.119C108.843 89.8994 109.434 89.4634 109.434 88.9257V64.9774C109.437 64.4394 108.847 64 108.124 64Z" fill="white" stroke="black" stroke-width="0.55" stroke-linecap="round" stroke-linejoin="round"/>
<path d="M206.947 64H167.667C166.943 64 166.353 64.4688 166.353 64.9774V88.9257C166.353 89.4634 166.939 89.8994 167.667 89.8994H206.942C207.667 89.8994 208.257 89.4634 208.257 88.9257V64.9774C208.261 64.4394 207.671 64 206.947 64Z" fill="white" stroke="black" stroke-width="0.55" stroke-linecap="round" stroke-linejoin="round"/>
<path d="M86.1642 85.4346C84.4875 85.1011 82.9484 84.2774 81.7393 83.068C80.5291 81.8589 79.7053 80.318 79.3731 78.6407C79.0398 76.9633 79.2104 75.2245 79.8647 73.6448L79.8658 73.6444C80.5189 72.0647 81.6273 70.714 83.0488 69.764C84.4702 68.8137 86.1404 68.3066 87.8525 68.3066C88.9865 68.3066 90.1106 68.5303 91.1598 68.9648C92.2081 69.3993 93.1618 70.0365 93.9631 70.8392L93.9639 70.8395C94.7677 71.6423 95.4034 72.5955 95.8374 73.6444C96.2722 74.6934 96.4954 75.8179 96.4954 76.9537C96.4954 78.6641 95.989 80.3358 95.0402 81.7577C94.0882 83.1798 92.7385 84.2881 91.1598 84.9429C89.5802 85.5974 87.841 85.768 86.1642 85.4346Z" fill="#3AD4B3"/>
<path d="M79.373 78.6407C79.7052 80.318 80.529 81.8589 81.7391 83.068C82.9482 84.2774 84.4874 85.1011 86.1641 85.4346C87.8408 85.768 89.5801 85.5974 91.1597 84.9429C92.7384 84.2881 94.0881 83.1798 95.0401 81.7577C95.9888 80.3358 96.4953 78.6641 96.4953 76.9537C96.4953 75.8179 96.2721 74.6934 95.8373 73.6444C95.4033 72.5955 94.7675 71.6423 93.9638 70.8395L93.963 70.8392C93.1617 70.0365 92.208 69.3993 91.1597 68.9648C90.1105 68.5303 88.9864 68.3066 87.8524 68.3066C86.1403 68.3066 84.4701 68.8137 83.0487 69.764C81.6272 70.714 80.5188 72.0647 79.8657 73.6444L79.8645 73.6448C79.2103 75.2245 79.0397 76.9633 79.373 78.6407ZM79.373 78.6407L79.0137 78.712" stroke="black" stroke-width="0.55"/>
<path d="M184.988 85.4346C183.311 85.1011 181.772 84.2774 180.563 83.068C179.352 81.8589 178.529 80.318 178.197 78.6407C177.864 76.9633 178.034 75.2245 178.688 73.6448L178.69 73.6444C179.343 72.0647 180.451 70.714 181.872 69.764C183.294 68.8137 184.964 68.3066 186.676 68.3066C187.81 68.3066 188.934 68.5303 189.983 68.9648C191.032 69.3993 191.985 70.0365 192.787 70.8392L192.788 70.8395C193.591 71.6423 194.227 72.5955 194.661 73.6444C195.096 74.6934 195.319 75.8179 195.319 76.9537C195.319 78.6641 194.813 80.3358 193.864 81.7577C192.912 83.1798 191.562 84.2881 189.983 84.9429C188.404 85.5974 186.665 85.768 184.988 85.4346Z" fill="#3AD4B3"/>
<path d="M178.197 78.6407C178.529 80.318 179.352 81.8589 180.563 83.068C181.772 84.2774 183.311 85.1011 184.988 85.4346C186.664 85.768 188.404 85.5974 189.983 84.9429C191.562 84.2881 192.912 83.1798 193.864 81.7577C194.812 80.3358 195.319 78.6641 195.319 76.9537C195.319 75.8179 195.096 74.6934 194.661 73.6444C194.227 72.5955 193.591 71.6423 192.787 70.8395L192.786 70.8392C191.985 70.0365 191.031 69.3993 189.983 68.9648C188.934 68.5303 187.81 68.3066 186.676 68.3066C184.964 68.3066 183.294 68.8137 181.872 69.764C180.451 70.714 179.342 72.0647 178.689 73.6444L178.688 73.6448C178.034 75.2245 177.863 76.9633 178.197 78.6407ZM178.197 78.6407L177.837 78.712" stroke="black" stroke-width="0.55"/>
<path d="M85.6858 81.3731C85.8587 81.5454 86.0918 81.6425 86.3355 81.6437C86.3619 81.6448 86.3883 81.6447 86.4138 81.6435L86.4204 81.643C86.5554 81.6307 86.6864 81.5891 86.8025 81.5209C86.9203 81.4529 87.0191 81.3601 87.0965 81.2491L87.0973 81.2487L92.3778 73.7097L92.3786 73.7083C92.517 73.5074 92.5688 73.2604 92.526 73.021C92.4815 72.7815 92.3448 72.5688 92.1464 72.4293C91.9463 72.2898 91.7 72.2348 91.4604 72.2761C91.2199 72.3174 91.0058 72.4516 90.865 72.6497L90.8633 72.651L86.2137 79.2889L84.7305 77.8052L84.728 77.8032C84.5526 77.6349 84.3204 77.5418 84.0783 77.544C83.8353 77.5462 83.6039 77.6433 83.4334 77.8144C83.2613 77.9856 83.1641 78.2172 83.1617 78.4595C83.1592 78.7017 83.2531 78.935 83.4219 79.1091L83.4227 79.1112L85.6858 81.3731Z" fill="white" stroke="black" stroke-width="0.411764"/>
<path d="M184.509 81.3731C184.682 81.5454 184.915 81.6425 185.159 81.6437C185.185 81.6448 185.212 81.6447 185.237 81.6435L185.244 81.643C185.379 81.6307 185.51 81.5891 185.626 81.5209C185.744 81.4529 185.843 81.3601 185.92 81.2491L191.201 73.7097L191.202 73.7083C191.34 73.5074 191.392 73.2604 191.35 73.021C191.305 72.7815 191.168 72.5688 190.97 72.4293C190.77 72.2898 190.524 72.2348 190.284 72.2761C190.043 72.3174 189.829 72.4516 189.688 72.6497L189.687 72.651L185.037 79.2889L183.554 77.8052L183.552 77.8032C183.376 77.6349 183.144 77.5418 182.902 77.544C182.659 77.5462 182.427 77.6433 182.257 77.8144C182.085 77.9856 181.988 78.2172 181.985 78.4595C181.983 78.7017 182.077 78.935 182.245 79.1091L182.246 79.1112L184.509 81.3731Z" fill="white" stroke="black" stroke-width="0.411764"/>
<path d="M160.251 66.4619H120.971C120.246 66.4619 119.657 66.9307 119.657 67.4404V91.3887C119.657 91.9257 120.243 92.3608 120.971 92.3608H160.247C160.97 92.3608 161.56 91.9257 161.56 91.3887V67.4404C161.565 66.9026 160.975 66.4619 160.251 66.4619Z" fill="#A77FFA"/>
<path d="M157.535 64H118.256C117.532 64 116.941 64.4688 116.941 64.9785V88.9269C116.941 89.4649 117.527 89.9001 118.256 89.9001H157.53C158.255 89.9001 158.846 89.4649 158.846 88.9269V64.9785C158.849 64.4406 158.259 64 157.535 64Z" fill="white" stroke="black" stroke-width="0.55" stroke-linecap="round" stroke-linejoin="round"/>
<path d="M135.779 85.8945C134.103 85.5611 132.562 84.7373 131.353 83.528C130.143 82.3188 129.321 80.7781 128.987 79.1003C128.654 77.4231 128.825 75.6843 129.479 74.1047C130.134 72.5245 131.241 71.1739 132.662 70.2239C134.084 69.2736 135.756 68.7666 137.465 68.7666C139.756 68.7666 141.957 69.6777 143.576 71.2991C145.197 72.9208 146.109 75.1205 146.109 77.4137C146.109 79.1239 145.602 80.7957 144.652 82.2178C143.702 83.6398 142.351 84.748 140.773 85.4029C139.193 86.0573 137.456 86.228 135.779 85.8945Z" fill="#E22850" stroke="black" stroke-width="0.55"/>
<path d="M140.771 72.9536L137.473 76.2525L134.175 72.9536L134.173 72.9515C134.019 72.8031 133.814 72.7209 133.599 72.7227C133.386 72.7246 133.182 72.8103 133.03 72.9615C132.88 73.1128 132.793 73.3173 132.792 73.5311C132.79 73.7448 132.872 73.9509 133.02 74.1047L133.023 74.1068L136.32 77.4057L133.024 80.7035C132.946 80.7785 132.885 80.8681 132.842 80.9671C132.799 81.0666 132.777 81.1736 132.776 81.2819C132.775 81.3902 132.796 81.4976 132.837 81.5979C132.877 81.698 132.938 81.7891 133.015 81.8656C133.091 81.9421 133.182 82.0027 133.282 82.0437C133.383 82.0848 133.49 82.1053 133.598 82.1044C133.706 82.1034 133.814 82.0809 133.913 82.0382C134.012 81.9957 134.101 81.934 134.176 81.8565L137.473 78.5587L140.771 81.8576L140.773 81.8596C140.926 82.0082 141.132 82.0904 141.346 82.0885C141.56 82.0867 141.765 82.0009 141.915 81.8498C142.067 81.6986 142.153 81.4941 142.154 81.2802C142.156 81.0664 142.074 80.8604 141.925 80.7066L141.924 80.7045L138.625 77.4057L141.924 74.1068L141.925 74.1047C142.074 73.9509 142.156 73.7448 142.154 73.5311C142.153 73.3173 142.067 73.1128 141.915 72.9615C141.765 72.8103 141.56 72.7246 141.346 72.7227C141.132 72.7209 140.926 72.8031 140.773 72.9515L140.771 72.9536Z" fill="white" stroke="black" stroke-width="0.411764"/>
<path fill-rule="evenodd" clip-rule="evenodd" d="M100.539 12.0483V10.6661C100.539 10.4583 100.621 10.2591 100.768 10.1122C100.915 9.96525 101.115 9.88281 101.322 9.88281H104.414C104.621 9.88281 104.821 9.96525 104.968 10.1122C105.115 10.2591 105.197 10.4583 105.197 10.6661V12.0483" fill="white"/>
<path d="M102 21.1418C104.846 21.1418 107.153 18.8372 107.153 15.9943C107.153 13.1513 104.846 10.8467 102 10.8467C99.1543 10.8467 96.8474 13.1513 96.8474 15.9943C96.8474 18.8372 99.1543 21.1418 102 21.1418Z" fill="#C3C4FD"/>
<path fill-rule="evenodd" clip-rule="evenodd" d="M101.95 21.9381V10.0498H102.05V21.9381H101.95Z" fill="black" stroke="black" stroke-width="0.2" stroke-miterlimit="10"/>
<path fill-rule="evenodd" clip-rule="evenodd" d="M107.95 16.0443H96.0498V15.9443H107.95V16.0443Z" fill="black" stroke="black" stroke-width="0.2" stroke-miterlimit="10"/>
<path fill-rule="evenodd" clip-rule="evenodd" d="M105.837 15.9934C105.837 13.6903 104.943 11.6374 103.546 10.2957L103.615 10.2236C105.033 11.5855 105.937 13.665 105.937 15.9934C105.937 18.3219 105.032 20.4014 103.615 21.7635L103.546 21.6914C104.942 20.3494 105.837 18.2966 105.837 15.9934Z" fill="black" stroke="black" stroke-width="0.2" stroke-miterlimit="10"/>
<path fill-rule="evenodd" clip-rule="evenodd" d="M100.454 10.2976C99.0581 11.6394 98.1625 13.6927 98.1625 15.9956C98.1625 18.2985 99.0573 20.3514 100.454 21.6934L100.385 21.7654C98.967 20.4033 98.0625 18.3238 98.0625 15.9956C98.0625 13.6674 98.9678 11.5874 100.385 10.2256L100.454 10.2976Z" fill="black" stroke="black" stroke-width="0.2" stroke-miterlimit="10"/>
<path fill-rule="evenodd" clip-rule="evenodd" d="M102 10.0999C98.7415 10.0999 96.1 12.7389 96.1 15.9941C96.1 19.2494 98.7415 21.8883 102 21.8883C105.258 21.8883 107.9 19.2494 107.9 15.9941C107.9 12.7389 105.258 10.0999 102 10.0999ZM96 15.9941C96 12.6837 98.6863 10 102 10C105.314 10 108 12.6837 108 15.9941C108 19.3046 105.314 21.9883 102 21.9883C98.6863 21.9883 96 19.3046 96 15.9941Z" fill="black" stroke="black" stroke-width="0.2" stroke-miterlimit="10"/>
<path d="M73.2838 104.039L70.8725 109.692C70.6925 110.114 70.2019 110.308 69.7821 110.123L67.7175 109.209C67.3053 109.027 67.116 108.548 67.2929 108.133L69.7129 102.46L65.3475 101.875C64.6669 101.784 64.3902 100.949 64.8818 100.469L76.7452 88.8978C77.2692 88.3864 78.1499 88.7627 78.1437 89.494L78.0028 106.214C77.9969 106.908 77.1867 107.284 76.6527 106.84L73.2838 104.039Z" fill="#6A45E3" stroke="#6A45E3"/>
<path d="M72.1705 102.955L69.5849 108.879C69.4035 109.295 68.92 109.486 68.5035 109.306L66.2655 108.339C65.8469 108.159 65.6549 107.672 65.8373 107.254L68.4193 101.338L63.7176 100.722C63.0313 100.633 62.7552 99.7877 63.2562 99.3101L75.9283 87.2289C76.4549 86.7273 77.3263 87.1045 77.3201 87.8325L77.1695 105.295C77.1635 105.985 76.3622 106.362 75.8266 105.926L72.1705 102.955Z" fill="white" stroke="black"/>
</svg>
