<svg width="24" height="24" viewBox="0 0 24 24" fill="none" xmlns="http://www.w3.org/2000/svg">
<path d="M9 5H8C6.34315 5 5 6.34315 5 8V16C5 17.6569 6.34315 19 8 19H16C17.6569 19 19 17.6569 19 16V15C19 14.4477 18.5523 14 18 14C17.4477 14 17 14.4477 17 15V16C17 16.5523 16.5523 17 16 17H8C7.44772 17 7 16.5523 7 16V8C7 7.44772 7.44772 7 8 7H9C9.55228 7 10 6.55228 10 6C10 5.44772 9.55228 5 9 5Z" fill="#0060DF"/>
<path d="M18.9347 5.618C18.7803 5.24435 18.416 5.00047 18.0117 5H13.0117C12.4594 5 12.0117 5.44772 12.0117 6C12.0117 6.55228 12.4594 7 13.0117 7H15.5977L12.3047 10.293C11.9143 10.6837 11.9145 11.317 12.3052 11.7075C12.696 12.098 13.3293 12.0977 13.7197 11.707L17.0127 8.414V11C17.0127 11.5523 17.4604 12 18.0127 12C18.565 12 19.0127 11.5523 19.0127 11V6C19.0124 5.86885 18.9862 5.73905 18.9357 5.618H18.9347Z" fill="#0060DF"/>
</svg>
