<svg width="24" height="24" viewBox="0 0 24 24" fill="none" xmlns="http://www.w3.org/2000/svg">
<path d="M19.7449 18.3309L14.9229 13.5089C15.7982 12.2791 16.1794 10.7653 15.9909 9.26759C15.8025 7.76991 15.0582 6.3977 13.9055 5.423C12.7529 4.44831 11.2761 3.94228 9.76795 4.00524C8.25977 4.0682 6.8303 4.69555 5.76293 5.76293C4.69555 6.8303 4.0682 8.25977 4.00524 9.76795C3.94228 11.2761 4.44831 12.7529 5.423 13.9055C6.3977 15.0582 7.76991 15.8025 9.26759 15.9909C10.7653 16.1794 12.2791 15.7982 13.5089 14.9229L18.3309 19.7449C18.5196 19.9271 18.7722 20.0279 19.0343 20.0256C19.2965 20.0233 19.5474 19.9182 19.7328 19.7328C19.9182 19.5474 20.0233 19.2965 20.0256 19.0343C20.0279 18.7722 19.9271 18.5196 19.7449 18.3309ZM10.0379 14.0379C9.24682 14.0379 8.47346 13.8034 7.81567 13.3638C7.15787 12.9243 6.64518 12.2996 6.34243 11.5687C6.03968 10.8378 5.96047 10.0335 6.11481 9.25759C6.26915 8.48166 6.65011 7.76893 7.20952 7.20952C7.76893 6.65011 8.48166 6.26915 9.25759 6.11481C10.0335 5.96047 10.8378 6.03968 11.5687 6.34243C12.2996 6.64518 12.9243 7.15787 13.3638 7.81567C13.8034 8.47346 14.0379 9.24682 14.0379 10.0379C14.0379 11.0988 13.6165 12.1162 12.8664 12.8664C12.1162 13.6165 11.0988 14.0379 10.0379 14.0379Z" fill="#6D6D6E"/>
</svg>
