<svg width="25" height="24" viewBox="0 0 25 24" fill="none" xmlns="http://www.w3.org/2000/svg">
<path fill-rule="evenodd" clip-rule="evenodd" d="M19.2193 5.308C18.8288 4.91762 18.1958 4.91762 17.8053 5.308L17.2683 5.845C17.1756 5.81161 17.0803 5.78585 16.9833 5.768L12.5123 5L8.03931 5.768C7.15473 5.92278 6.51007 6.69198 6.51231 7.59C6.51231 8.615 6.51231 10.457 6.59231 11.296C6.65442 12.7388 7.0222 14.152 7.67131 15.442L5.80531 17.308C5.54536 17.5591 5.4411 17.9309 5.53262 18.2805C5.62413 18.6301 5.89718 18.9032 6.24681 18.9947C6.59644 19.0862 6.96824 18.982 7.21931 18.722L19.2193 6.722C19.6097 6.3315 19.6097 5.6985 19.2193 5.308ZM15.0253 15.397C14.4108 16.2199 13.5173 16.7905 12.5123 17.002C12.0114 16.8955 11.5338 16.6997 11.1023 16.424L9.66626 17.861C10.4717 18.4584 11.4097 18.8523 12.4003 19.009L12.5123 19.021L12.6243 19.009C14.2261 18.7519 15.665 17.8815 16.6363 16.582C17.7659 15.0472 18.3945 13.2012 18.4363 11.296C18.4793 10.778 18.4993 9.875 18.5123 9.015L16.5123 11.015C16.486 12.595 15.966 14.1273 15.0253 15.397ZM8.4991 9.3494C8.48917 10.1166 8.48188 10.6802 8.51226 11.015C8.57132 12.0218 8.79005 13.0129 9.16026 13.951L15.5603 7.551L12.5123 7.028L8.51226 7.715C8.51226 8.33247 8.50518 8.87919 8.4991 9.3494Z" fill="#6D6D6E"/>
</svg>
