<svg width="25" height="24" viewBox="0 0 25 24" fill="none" xmlns="http://www.w3.org/2000/svg">
<path fill-rule="evenodd" clip-rule="evenodd" d="M12.5 19.021L12.388 19.009C10.7862 18.7519 9.34726 17.8815 8.37601 16.582C7.24637 15.0472 6.61778 13.2012 6.57601 11.296C6.50001 10.457 6.50001 8.615 6.50001 7.59C6.49776 6.69198 7.14242 5.92278 8.02701 5.768L12.5 5L16.971 5.768C17.8568 5.92198 18.5026 6.69197 18.5 7.591C18.5 8.614 18.5 10.457 18.42 11.296C18.3782 13.2012 17.7496 15.0472 16.62 16.582C15.6488 17.8815 14.2099 18.7519 12.608 19.009L12.5 19.021ZM8.48689 9.34936L8.48689 9.3494C8.47696 10.1166 8.46967 10.6802 8.50005 11.015C8.52631 12.595 9.04627 14.1273 9.98705 15.397C10.6017 16.2198 11.4951 16.7904 12.5 17.002C13.5047 16.7903 14.3978 16.2197 15.012 15.397C15.9532 14.1274 16.4735 12.5952 16.5 11.015C16.5304 10.6802 16.5231 10.1166 16.5132 9.34941V9.3494C16.5071 8.87919 16.5 8.33247 16.5 7.715L12.5 7.03L8.50005 7.715C8.50005 8.33245 8.49297 8.87916 8.48689 9.34936ZM10 8.98L12.5 8.552V15.453H12.492C11.9726 15.2787 11.519 14.9496 11.192 14.51C10.437 13.4898 10.0398 12.249 10.062 10.98C10.03 10.635 10.009 9.922 10 8.98Z" fill="#00A49A"/>
</svg>
