<svg width="300" height="280" viewBox="0 0 300 280" fill="none" xmlns="http://www.w3.org/2000/svg">
<g clip-path="url(#clip0_8292_717)">
<rect x="10" width="280" height="280" rx="140" fill="url(#paint0_linear_8292_717)"/>
<mask id="mask0_8292_717" style="mask-type:luminance" maskUnits="userSpaceOnUse" x="10" y="0" width="280" height="280">
<rect x="10" width="280" height="280" rx="140" fill="white"/>
</mask>
<g mask="url(#mask0_8292_717)">
<g filter="url(#filter0_d_8292_717)">
<path fill-rule="evenodd" clip-rule="evenodd" d="M117.308 39H34.2482V58.6216H-74V83H-23V242H281V83H344V58.6216H117.308V39Z" fill="#F7F7F8"/>
</g>
<path fill-rule="evenodd" clip-rule="evenodd" d="M34.2482 39L117.308 39V58.6216H344V83H-74L-74 58.6216H34.2482V39Z" fill="#ECECEF"/>
<rect x="41" y="44" width="10" height="10" fill="#D8D8D8"/>
<path fill-rule="evenodd" clip-rule="evenodd" d="M57 47H105V53H57V47Z" fill="#A6A6A6" fill-opacity="0.4"/>
<path opacity="0.586705" d="M31.5 64C31.5 63.1716 32.1716 62.5 33 62.5H232C232.828 62.5 233.5 63.1716 233.5 64V77C233.5 77.8284 232.828 78.5 232 78.5H33C32.1716 78.5 31.5 77.8284 31.5 77V64Z" fill="white" stroke="#CDCDCD"/>
<path fill-rule="evenodd" clip-rule="evenodd" d="M68 67H218V74H68V67Z" fill="#A6A6A6" fill-opacity="0.2"/>
<path fill-rule="evenodd" clip-rule="evenodd" d="M37.25 68.0811C37.25 68.9952 37.2224 69.6336 37.25 69.9374C37.2648 70.8262 37.5573 71.6881 38.0864 72.4023C38.4322 72.8651 38.9347 73.186 39.5 73.3051C40.0651 73.186 40.5675 72.865 40.913 72.4023C41.4424 71.6881 41.7351 70.8262 41.75 69.9374C41.7776 69.6336 41.75 68.9952 41.75 68.0811L39.5 67.6958L37.25 68.0811ZM39.5 74.4408L39.437 74.434C38.536 74.2894 37.7266 73.7998 37.1803 73.0688C36.5448 72.2055 36.1913 71.1672 36.1678 70.0955C36.125 69.6235 36.125 68.5874 36.125 68.0108C36.1237 67.5057 36.4864 67.073 36.9839 66.986L39.5 66.554L42.0149 66.986C42.5132 67.0726 42.8764 67.5057 42.875 68.0114C42.875 68.5868 42.875 69.6235 42.83 70.0955C42.8065 71.1672 42.4529 72.2055 41.8175 73.0688C41.2712 73.7998 40.4618 74.2894 39.5608 74.434L39.5 74.4408ZM39.5 68.552L38.0938 68.7927C38.0988 69.3226 38.1106 69.7236 38.1286 69.9177C38.1162 70.6315 38.3396 71.3295 38.7643 71.9033C38.9482 72.1506 39.2033 72.3357 39.4955 72.4338H39.5V68.552Z" fill="#0C0C0D" fill-opacity="0.8"/>
<path opacity="0.4" d="M48.25 66.2647V74.7353" stroke="#979797" stroke-linecap="square"/>
<g opacity="0.2">
<path fill-rule="evenodd" clip-rule="evenodd" d="M58.0312 69.9285H57.75V68.8125C57.75 67.5699 56.7426 66.5625 55.5 66.5625C54.2574 66.5625 53.25 67.5699 53.25 68.8125V69.9285H52.9688C52.5028 69.9285 52.125 70.3063 52.125 70.7723V73.5938C52.125 74.0597 52.5028 74.4375 52.9688 74.4375H58.0312C58.4972 74.4375 58.875 74.0597 58.875 73.5938V70.7723C58.875 70.3063 58.4972 69.9285 58.0312 69.9285ZM54.375 68.8125C54.375 68.1912 54.8787 67.6875 55.5 67.6875C56.1213 67.6875 56.625 68.1912 56.625 68.8125V69.9285H54.375V68.8125Z" fill="#0C0C0D" fill-opacity="0.8"/>
<mask id="mask1_8292_717" style="mask-type:luminance" maskUnits="userSpaceOnUse" x="52" y="66" width="7" height="9">
<path fill-rule="evenodd" clip-rule="evenodd" d="M58.0312 69.9285H57.75V68.8125C57.75 67.5699 56.7426 66.5625 55.5 66.5625C54.2574 66.5625 53.25 67.5699 53.25 68.8125V69.9285H52.9688C52.5028 69.9285 52.125 70.3063 52.125 70.7723V73.5938C52.125 74.0597 52.5028 74.4375 52.9688 74.4375H58.0312C58.4972 74.4375 58.875 74.0597 58.875 73.5938V70.7723C58.875 70.3063 58.4972 69.9285 58.0312 69.9285ZM54.375 68.8125C54.375 68.1912 54.8787 67.6875 55.5 67.6875C56.1213 67.6875 56.625 68.1912 56.625 68.8125V69.9285H54.375V68.8125Z" fill="white"/>
</mask>
<g mask="url(#mask1_8292_717)">
</g>
</g>
<path opacity="0.246884" d="M-22 82.5H282" stroke="#979797" stroke-linecap="square"/>
<g style="mix-blend-mode:multiply">
<rect x="19" y="120" width="231" height="20" rx="4" fill="#EDEDF0"/>
</g>
<g style="mix-blend-mode:multiply">
<rect x="89" y="160" width="163" height="7" rx="3.5" fill="#EDEDF0"/>
</g>
<g style="mix-blend-mode:multiply">
<rect x="89" y="171" width="163" height="7" rx="3.5" fill="#EDEDF0"/>
</g>
<g style="mix-blend-mode:multiply">
<rect x="89" y="182" width="163" height="7" rx="3.5" fill="#EDEDF0"/>
</g>
<g style="mix-blend-mode:multiply">
<rect x="89" y="193" width="131" height="7" rx="3.5" fill="#EDEDF0"/>
</g>
<g style="mix-blend-mode:multiply">
<rect x="29" y="160" width="44" height="44" rx="4" fill="#EDEDF0"/>
</g>
<path fill-rule="evenodd" clip-rule="evenodd" d="M236.806 102.759C236.67 102.765 236.514 102.767 236.295 102.711C236.173 102.678 236.027 102.622 235.874 102.518C235.76 102.439 235.644 102.331 235.552 102.201C235.41 102.005 235.336 101.768 235.321 101.577C235.303 101.383 235.33 101.23 235.361 101.11C235.419 100.905 235.492 100.778 235.559 100.666C235.693 100.457 235.829 100.305 235.987 100.14C236.281 99.8376 236.653 99.5155 237.105 99.1515C237.891 98.5184 238.912 97.775 240.028 97.0093C241.701 95.8615 243.581 94.6704 245.17 93.7753C245.965 93.3272 246.684 92.9539 247.298 92.689C247.606 92.5567 247.886 92.4503 248.168 92.3739C248.31 92.3362 248.453 92.3049 248.618 92.2885C248.783 92.2743 248.973 92.265 249.235 92.3319C249.377 92.3703 249.545 92.4374 249.711 92.5602C250.013 92.7919 250.147 93.0246 250.257 93.2352C250.357 93.4352 250.427 93.6307 250.487 93.8373C250.599 94.2231 250.677 94.6504 250.743 95.1319C250.856 95.9725 250.921 96.9741 250.951 98.0542C250.996 99.6735 250.959 101.463 250.855 103.072C250.803 103.877 250.734 104.636 250.648 105.31C250.562 105.986 250.462 106.571 250.331 107.064C250.287 107.224 250.241 107.375 250.185 107.523C250.143 107.633 250.097 107.743 250.037 107.856C249.944 108.023 249.837 108.209 249.587 108.413C249.462 108.512 249.29 108.614 249.07 108.671C248.853 108.729 248.594 108.727 248.378 108.667C248.159 108.607 247.988 108.505 247.861 108.405C247.734 108.304 247.645 108.203 247.572 108.108C246.397 106.569 245.43 105.444 244.542 104.655C234.111 123.44 219.502 132.271 200.946 132.788C186.218 133.199 170.289 128.729 148.778 119.444L146.921 118.637C146.122 118.287 143.597 117.139 140.242 115.614L140.24 115.613C132.255 111.982 119.572 106.215 114.278 103.989L113.329 103.596C107.596 101.266 102.868 99.6725 98.7788 98.7482C81.7924 94.9089 68.6066 100.449 62.212 112.454L62.0039 112.852C61.1831 114.45 60.5029 116.122 59.9632 117.852L59.8651 118.173L60.3461 118.22C80.1263 120.237 97.2827 128.023 104.822 140.272C114.084 155.32 110.762 167.421 98.565 170.597C87.0332 173.6 72.2423 167.232 63.3382 154.048L63.0316 153.588C56.349 143.454 53.9242 131.736 55.8188 121.285L55.8557 121.09L55.6835 121.079C52.8621 120.917 49.9954 120.874 47.1047 120.956C23.6858 121.612 6.84224 130.206 7.14504 142.437C7.16703 143.325 6.46555 144.063 5.57822 144.085C4.69091 144.108 3.95376 143.405 3.93177 142.517C3.56902 127.864 22.0417 118.439 47.0147 117.739L47.7677 117.72C50.5268 117.662 53.2647 117.713 55.9646 117.87L56.5951 117.909L56.6983 117.545C57.367 115.249 58.2593 113.036 59.3758 110.94C66.4724 97.6171 81.1276 91.4595 99.4866 95.609C103.773 96.578 108.656 98.2241 114.538 100.615L114.756 100.704C119.589 102.688 133.296 108.92 141.668 112.727L141.669 112.728C144.188 113.873 146.224 114.799 147.389 115.323L149.124 116.088C170.708 125.473 186.508 129.972 200.856 129.572C218.285 129.085 231.873 120.874 241.751 103.058C241.715 103.047 241.679 103.037 241.642 103.027C241.049 102.868 240.378 102.77 239.583 102.728C238.79 102.686 237.874 102.7 236.806 102.759ZM102.103 142.053C110.223 155.461 107.619 165.103 97.8232 167.696C87.7856 170.352 74.5099 164.543 66.4319 152.386C60.0657 142.806 57.7476 131.712 59.4847 121.902L59.5918 121.329L59.6943 121.338C78.4739 123.124 94.7575 130.4 101.848 141.64L102.103 142.053Z" fill="url(#paint1_linear_8292_717)"/>
</g>
</g>
<path fill-rule="evenodd" clip-rule="evenodd" d="M252.05 65.5595C251.476 65.5595 251.01 66.025 251.01 66.5992C251.01 67.1734 251.476 67.6389 252.05 67.6389C252.624 67.6389 253.09 67.1734 253.09 66.5992C253.09 66.025 252.624 65.5595 252.05 65.5595ZM249.624 66.5992C249.624 65.2594 250.71 64.1733 252.05 64.1733C253.39 64.1733 254.476 65.2594 254.476 66.5992C254.476 67.939 253.39 69.0251 252.05 69.0251C251.632 69.0251 251.239 68.9195 250.896 68.7335L249.853 69.777C249.931 69.9224 249.996 70.0767 250.044 70.2381H254.056C254.355 69.2359 255.283 68.5051 256.382 68.5051C257.722 68.5051 258.808 69.5912 258.808 70.931C258.808 72.2708 257.722 73.3569 256.382 73.3569C255.964 73.3569 255.571 73.2513 255.228 73.0654L254.184 74.109C254.37 74.4522 254.476 74.8453 254.476 75.263C254.476 76.6028 253.39 77.6889 252.05 77.6889C250.71 77.6889 249.624 76.6028 249.624 75.263C249.624 73.9233 250.71 72.8372 252.05 72.8372C252.468 72.8372 252.861 72.9428 253.204 73.1288L254.248 72.0853C254.169 71.9399 254.105 71.7856 254.057 71.6243H250.044C249.745 72.6262 248.817 73.3569 247.718 73.3569C246.379 73.3569 245.292 72.2708 245.292 70.931C245.292 69.5912 246.379 68.5051 247.718 68.5051C248.136 68.5051 248.529 68.6108 248.872 68.7968L249.916 67.7534C249.73 67.4101 249.624 67.017 249.624 66.5992ZM251.01 75.263C251.01 74.6888 251.476 74.2234 252.05 74.2234C252.624 74.2234 253.09 74.6888 253.09 75.263C253.09 75.8372 252.624 76.3027 252.05 76.3027C251.476 76.3027 251.01 75.8372 251.01 75.263ZM247.718 69.8913C247.144 69.8913 246.679 70.3568 246.679 70.931C246.679 71.5052 247.144 71.9707 247.718 71.9707C248.293 71.9707 248.758 71.5052 248.758 70.931C248.758 70.3568 248.293 69.8913 247.718 69.8913ZM255.342 70.931C255.342 70.3568 255.808 69.8913 256.382 69.8913C256.956 69.8913 257.422 70.3568 257.422 70.931C257.422 71.5052 256.956 71.9707 256.382 71.9707C255.808 71.9707 255.342 71.5052 255.342 70.931Z" fill="black"/>
<rect x="252.05" y="71.624" width="3.81207" height="3.81207" rx="1.90603" fill="#3FE1B0"/>
<defs>
<filter id="filter0_d_8292_717" x="-82" y="31" width="434" height="219" filterUnits="userSpaceOnUse" color-interpolation-filters="sRGB">
<feFlood flood-opacity="0" result="BackgroundImageFix"/>
<feColorMatrix in="SourceAlpha" type="matrix" values="0 0 0 0 0 0 0 0 0 0 0 0 0 0 0 0 0 0 127 0" result="hardAlpha"/>
<feOffset/>
<feGaussianBlur stdDeviation="4"/>
<feColorMatrix type="matrix" values="0 0 0 0 0.528986 0 0 0 0 0.00258042 0 0 0 0 0.00258042 0 0 0 0.450066 0"/>
<feBlend mode="normal" in2="BackgroundImageFix" result="effect1_dropShadow_8292_717"/>
<feBlend mode="normal" in="SourceGraphic" in2="effect1_dropShadow_8292_717" result="shape"/>
</filter>
<linearGradient id="paint0_linear_8292_717" x1="130.859" y1="-66.4646" x2="-75.1842" y2="154.936" gradientUnits="userSpaceOnUse">
<stop stop-color="#FFA436"/>
<stop offset="1" stop-color="#FF7139"/>
</linearGradient>
<linearGradient id="paint1_linear_8292_717" x1="224.218" y1="217.274" x2="0.322473" y2="160.383" gradientUnits="userSpaceOnUse">
<stop stop-color="#FF9100"/>
<stop offset="0.518515" stop-color="#F10366"/>
<stop offset="1" stop-color="#6173FF"/>
</linearGradient>
<clipPath id="clip0_8292_717">
<rect width="280" height="280" fill="white" transform="translate(10)"/>
</clipPath>
</defs>
</svg>
