<svg width="193" height="40" viewBox="0 0 193 40" fill="none" xmlns="http://www.w3.org/2000/svg">
<g id="Logo / FPN Horizontal">
<path id="Vector" fill-rule="evenodd" clip-rule="evenodd" d="M19.9661 6.75181C18.5525 6.75181 17.4065 7.89979 17.4065 9.31591C17.4065 10.732 18.5525 11.88 19.9661 11.88C21.3798 11.88 22.5258 10.732 22.5258 9.31591C22.5258 7.89979 21.3798 6.75181 19.9661 6.75181ZM13.9935 9.31591C13.9935 6.01164 16.6676 3.33301 19.9661 3.33301C23.2647 3.33301 25.9387 6.01164 25.9387 9.31591C25.9387 12.6202 23.2647 15.2988 19.9661 15.2988C18.9375 15.2988 17.9697 15.0383 17.1246 14.5797L14.5554 17.1533C14.7493 17.5118 14.9077 17.8923 15.026 18.2902H24.9062C25.6404 15.8189 27.9258 14.0168 30.6313 14.0168C33.9299 14.0168 36.604 16.6955 36.604 19.9997C36.604 23.304 33.9299 25.9827 30.6313 25.9827C29.6027 25.9827 28.6349 25.7222 27.7899 25.2635L25.2208 27.837C25.6787 28.6835 25.9387 29.653 25.9387 30.6833C25.9387 33.9877 23.2647 36.6663 19.9661 36.6663C16.6676 36.6663 13.9935 33.9877 13.9935 30.6833C13.9935 27.3792 16.6676 24.7005 19.9661 24.7005C20.9946 24.7005 21.9624 24.961 22.8075 25.4197L25.3767 22.846C25.1827 22.4875 25.0243 22.107 24.906 21.709H15.026C14.2918 24.1805 12.0064 25.9827 9.30071 25.9827C6.00214 25.9827 3.32812 23.304 3.32812 19.9997C3.32812 16.6955 6.00214 14.0168 9.30071 14.0168C10.3293 14.0168 11.2971 14.2773 12.1421 14.7359L14.7113 12.1622C14.2535 11.3157 13.9935 10.3462 13.9935 9.31591ZM17.4065 30.6833C17.4065 29.2673 18.5525 28.1193 19.9661 28.1193C21.3798 28.1193 22.5258 29.2673 22.5258 30.6833C22.5258 32.0995 21.3798 33.2475 19.9661 33.2475C18.5525 33.2475 17.4065 32.0995 17.4065 30.6833ZM9.30071 17.4357C7.88703 17.4357 6.74103 18.5837 6.74103 19.9997C6.74103 21.4158 7.88703 22.5638 9.30071 22.5638C10.7144 22.5638 11.8604 21.4158 11.8604 19.9997C11.8604 18.5837 10.7144 17.4357 9.30071 17.4357ZM28.0717 19.9997C28.0717 18.5837 29.2177 17.4357 30.6313 17.4357C32.045 17.4357 33.191 18.5837 33.191 19.9997C33.191 21.4158 32.045 22.5638 30.6313 22.5638C29.2177 22.5638 28.0717 21.4158 28.0717 19.9997Z" fill="black"/>
<path id="Vector_2" d="M48.582 26.6664H51.7016V15.1914L57.3419 25.6664L63.0071 15.1914V26.6664H66.1018V9.49141H63.0071L57.3419 19.9664L51.7016 9.49141H48.582V26.6664ZM76.0416 26.9664C79.7851 26.9664 82.9547 23.8664 82.9547 20.1914C82.9547 16.5164 79.7851 13.4414 76.0416 13.4414C72.2981 13.4414 69.1285 16.5164 69.1285 20.1914C69.1285 23.8664 72.2981 26.9664 76.0416 26.9664ZM76.0416 24.3664C73.8953 24.3664 72.0984 22.4664 72.0984 20.1914C72.0984 17.9414 73.8953 16.0414 76.0416 16.0414C78.1629 16.0414 79.9598 17.9414 79.9598 20.1914C79.9598 22.4664 78.1629 24.3664 76.0416 24.3664ZM85.0713 26.6664H95.9775V23.9914H89.0395L95.9026 15.9664L95.9276 13.7414H85.2211V16.4164H91.9095L85.0713 24.4414V26.6664ZM100.279 11.7914C101.228 11.7914 102.001 10.9664 102.001 10.0414C102.001 9.11641 101.228 8.31641 100.279 8.31641C99.3059 8.31641 98.5323 9.11641 98.5323 10.0414C98.5323 10.9664 99.3059 11.7914 100.279 11.7914ZM98.7319 26.6664H101.777V13.7414H98.7319V26.6664ZM105.142 26.6664H108.187V9.19141H105.142V26.6664ZM111.552 26.6664H114.596V9.19141H111.552V26.6664ZM123.577 13.4414C121.954 13.4414 120.257 13.8914 118.436 14.7914L119.484 16.9164C120.582 16.3664 121.755 15.9414 122.978 15.9414C125.324 15.9414 126.147 17.3914 126.147 18.8914V19.2414C124.974 18.7914 123.701 18.5414 122.528 18.5414C119.633 18.5414 117.263 20.2914 117.263 22.8414C117.263 25.3414 119.334 26.9664 122.079 26.9664C123.577 26.9664 125.199 26.3164 126.147 25.1164V26.6664H129.117V18.8914C129.117 15.6164 126.996 13.4414 123.577 13.4414ZM122.753 24.7414C121.306 24.7414 120.232 23.9664 120.232 22.7414C120.232 21.5164 121.455 20.6664 122.978 20.6664C124.126 20.6664 125.199 20.8414 126.147 21.1664V22.6164C125.798 23.9914 124.226 24.7414 122.753 24.7414ZM152.634 9.49141L147.194 22.5164L141.753 9.49141H138.309L145.472 26.6664H148.941L156.103 9.49141H152.634ZM158.372 26.6664H161.492V20.8914H165.835C169.503 20.8914 172.248 18.5414 172.248 15.1914C172.248 11.8414 169.503 9.49141 165.835 9.49141H158.372V26.6664ZM161.492 18.0164V12.3664H165.485C167.606 12.3664 169.079 13.4414 169.079 15.1914C169.079 16.9414 167.606 18.0164 165.485 18.0164H161.492ZM174.927 26.6664H178.047V14.5914L187.106 26.6664H190.201V9.49141H187.106V21.5664L178.047 9.49141H174.927V26.6664Z" fill="black"/>
</g>
</svg>
