<svg width="16" height="16" viewBox="0 0 16 16" fill="none" xmlns="http://www.w3.org/2000/svg">
<path fill-rule="evenodd" clip-rule="evenodd" d="M6.79922 3.0002C6.79922 2.33745 7.33648 1.8002 7.99922 1.8002C8.66196 1.8002 9.19922 2.33745 9.19922 3.0002C9.19922 3.66294 8.66196 4.2002 7.99922 4.2002C7.33648 4.2002 6.79922 3.66294 6.79922 3.0002ZM7.99922 0.200195C6.45282 0.200195 5.19922 1.4538 5.19922 3.0002C5.19922 3.4824 5.32111 3.93614 5.53577 4.33227L4.33129 5.53674C3.93516 5.32209 3.48142 5.2002 2.99922 5.2002C1.45282 5.2002 0.199219 6.4538 0.199219 8.0002C0.199219 9.54659 1.45282 10.8002 2.99922 10.8002C4.26763 10.8002 5.33905 9.95679 5.68327 8.80019H6.64364L8.24366 7.20019H5.68327C5.62785 7.01398 5.55357 6.83588 5.46267 6.66811L6.66714 5.46364C7.06327 5.6783 7.51701 5.8002 7.99922 5.8002C9.54562 5.8002 10.7992 4.54659 10.7992 3.0002C10.7992 1.4538 9.54562 0.200195 7.99922 0.200195ZM12.6688 5.21949L9.08805 8.80019H10.3152C10.3706 8.98641 10.4449 9.1645 10.5358 9.33227L9.33129 10.5367C8.93516 10.3221 8.48142 10.2002 7.99922 10.2002C7.8874 10.2002 7.77712 10.2067 7.66873 10.2195L5.21852 12.6697C5.20577 12.7781 5.19922 12.8884 5.19922 13.0002C5.19922 14.5466 6.45282 15.8002 7.99922 15.8002C9.54562 15.8002 10.7992 14.5466 10.7992 13.0002C10.7992 12.518 10.6773 12.0642 10.4627 11.6681L11.6671 10.4636C12.0633 10.6783 12.517 10.8002 12.9992 10.8002C14.5456 10.8002 15.7992 9.54659 15.7992 8.0002C15.7992 6.4538 14.5456 5.2002 12.9992 5.2002C12.8874 5.2002 12.7772 5.20675 12.6688 5.21949ZM7.99922 11.8002C7.33648 11.8002 6.79922 12.3375 6.79922 13.0002C6.79922 13.6629 7.33648 14.2002 7.99922 14.2002C8.66196 14.2002 9.19922 13.6629 9.19922 13.0002C9.19922 12.3375 8.66196 11.8002 7.99922 11.8002ZM1.79922 8.0002C1.79922 7.33745 2.33648 6.8002 2.99922 6.8002C3.66196 6.8002 4.19922 7.33745 4.19922 8.0002C4.19922 8.66294 3.66196 9.2002 2.99922 9.2002C2.33648 9.2002 1.79922 8.66294 1.79922 8.0002ZM12.9992 6.8002C12.3365 6.8002 11.7992 7.33745 11.7992 8.0002C11.7992 8.66294 12.3365 9.2002 12.9992 9.2002C13.662 9.2002 14.1992 8.66294 14.1992 8.0002C14.1992 7.33745 13.662 6.8002 12.9992 6.8002Z" fill="black"/>
<path d="M1.57627 14.6663C1.39627 14.6664 1.22027 14.6131 1.07057 14.5132C0.920883 14.4132 0.8042 14.271 0.735301 14.1048C0.666401 13.9384 0.648376 13.7554 0.683526 13.5789C0.718659 13.4023 0.805384 13.2403 0.932717 13.1129L12.4573 1.58842C12.6289 1.42268 12.8588 1.33098 13.0973 1.33304C13.3359 1.33513 13.5641 1.43081 13.7327 1.5995C13.9015 1.76819 13.9971 1.99638 13.9993 2.23494C14.0013 2.47349 13.9096 2.70332 13.7439 2.87492L2.21923 14.3994C2.04876 14.5701 1.8175 14.6661 1.57627 14.6663Z" fill="#E22850"/>
</svg>
