<svg width="16" height="16" viewBox="0 0 16 16" fill="none" xmlns="http://www.w3.org/2000/svg">
<path fill-rule="evenodd" clip-rule="evenodd" d="M8.00413 4.19994C8.00249 4.19995 8.00086 4.19995 7.99922 4.19995C7.33648 4.19995 6.79922 3.66269 6.79922 2.99995C6.79922 2.33721 7.33648 1.79995 7.99922 1.79995C8.20499 1.79995 8.39866 1.85175 8.56792 1.94301C8.8494 1.47445 9.22414 1.0683 9.66647 0.750228C9.2007 0.404483 8.62385 0.199951 7.99922 0.199951C6.45282 0.199951 5.19922 1.45355 5.19922 2.99995C5.19922 3.48216 5.32111 3.93589 5.53577 4.33203L4.33129 5.5365C3.93516 5.32184 3.48142 5.19995 2.99922 5.19995C1.45282 5.19995 0.199219 6.45355 0.199219 7.99995C0.199219 9.54635 1.45282 10.8 2.99922 10.8C4.26763 10.8 5.33905 9.95654 5.68327 8.79995H10.3152C10.3706 8.98616 10.4449 9.16426 10.5358 9.33202L9.33129 10.5365C8.93516 10.3218 8.48142 10.2 7.99922 10.2C6.45282 10.2 5.19922 11.4536 5.19922 13C5.19922 14.5463 6.45282 15.8 7.99922 15.8C9.54562 15.8 10.7992 14.5463 10.7992 13C10.7992 12.5177 10.6773 12.064 10.4627 11.6679L11.6671 10.4634C12.0633 10.6781 12.517 10.8 12.9992 10.8C14.5456 10.8 15.7992 9.54635 15.7992 7.99995C15.7992 7.37532 15.5947 6.79847 15.2489 6.3327C14.9309 6.77502 14.5247 7.14976 14.0562 7.43125C14.1474 7.6005 14.1992 7.79418 14.1992 7.99995C14.1992 8.66269 13.662 9.19995 12.9992 9.19995C12.3365 9.19995 11.7992 8.66269 11.7992 7.99995C11.7992 7.99831 11.7992 7.99668 11.7992 7.99504C10.9757 7.95449 10.2176 7.66488 9.59882 7.19995H5.68327C5.62785 7.01373 5.55357 6.83563 5.46267 6.66787L6.66714 5.4634C7.06327 5.67806 7.51701 5.79995 7.99922 5.79995C8.13915 5.79995 8.27668 5.78968 8.41111 5.76987C8.17523 5.29259 8.03178 4.76149 8.00413 4.19994ZM7.99922 11.8C7.33648 11.8 6.79922 12.3372 6.79922 13C6.79922 13.6627 7.33648 14.2 7.99922 14.2C8.66196 14.2 9.19922 13.6627 9.19922 13C9.19922 12.3372 8.66196 11.8 7.99922 11.8ZM1.79922 7.99995C1.79922 7.33721 2.33648 6.79995 2.99922 6.79995C3.66196 6.79995 4.19922 7.33721 4.19922 7.99995C4.19922 8.66269 3.66196 9.19995 2.99922 9.19995C2.33648 9.19995 1.79922 8.66269 1.79922 7.99995Z" fill="#ffffff"/>
<rect x="8.80078" y="0.799805" width="6.4" height="6.4" rx="3.2" fill="#0060DF"/>
</svg>
