<?xml version="1.0" encoding="UTF-8"?><svg id="Layer_2" xmlns="http://www.w3.org/2000/svg" viewBox="0 0 78 78"><defs><style>.cls-1{fill:#fff;fill-rule:evenodd;}</style></defs><g id="Layer_1-2"><path class="cls-1" d="m39,8c-3.31,0-6,2.69-6,6s2.69,6,6,6,6-2.69,6-6-2.69-6-6-6Zm-14,6c0-7.73,6.27-14,14-14s14,6.27,14,14-6.27,14-14,14c-2.41,0-4.68-.61-6.66-1.68l-6.02,6.02c.45.84.83,1.73,1.1,2.66h23.16c1.72-5.78,7.08-10,13.42-10,7.73,0,14,6.27,14,14s-6.27,14-14,14c-2.41,0-4.68-.61-6.66-1.68l-6.02,6.02c1.11,2.04,1.69,4.33,1.68,6.66,0,7.73-6.27,14-14,14s-14-6.27-14-14,6.27-14,14-14c2.41,0,4.68.61,6.66,1.68l6.02-6.02c-.46-.85-.83-1.74-1.1-2.66h-23.16c-1.72,5.78-7.08,10-13.42,10-7.73,0-14-6.27-14-14s6.27-14,14-14c2.41,0,4.68.61,6.66,1.68l6.02-6.02c-1.11-2.04-1.69-4.33-1.68-6.66Zm8,50c0-3.31,2.69-6,6-6s6,2.69,6,6-2.69,6-6,6-6-2.69-6-6Zm-19-31c-3.31,0-6,2.69-6,6s2.69,6,6,6,6-2.69,6-6-2.69-6-6-6Zm44,6c0-3.31,2.69-6,6-6s6,2.69,6,6-2.69,6-6,6-6-2.69-6-6Z"/></g></svg>
