<svg width="16" height="16" viewBox="0 0 16 16" fill="none" xmlns="http://www.w3.org/2000/svg">
<path fill-rule="evenodd" clip-rule="evenodd" d="M6.79922 2.99995C6.79922 2.33721 7.33648 1.79995 7.99922 1.79995C8.66196 1.79995 9.19922 2.33721 9.19922 2.99995C9.19922 3.66269 8.66196 4.19995 7.99922 4.19995C7.33648 4.19995 6.79922 3.66269 6.79922 2.99995ZM7.99922 0.199951C6.45282 0.199951 5.19922 1.45355 5.19922 2.99995C5.19922 3.48216 5.32111 3.93589 5.53577 4.33203L4.33129 5.5365C3.93516 5.32184 3.48142 5.19995 2.99922 5.19995C1.45282 5.19995 0.199219 6.45355 0.199219 7.99995C0.199219 9.54635 1.45282 10.8 2.99922 10.8C4.26763 10.8 5.33905 9.95654 5.68327 8.79995H9.59883C10.2176 8.33502 10.9757 8.04541 11.7992 8.00486C11.7992 8.00323 11.7992 8.00159 11.7992 7.99995C11.7992 7.33721 12.3365 6.79995 12.9992 6.79995C13.662 6.79995 14.1992 7.33721 14.1992 7.99995C14.1992 8.20573 14.1474 8.3994 14.0562 8.56866C14.5247 8.85014 14.9309 9.22488 15.2489 9.66721C15.5947 9.20144 15.7992 8.62458 15.7992 7.99995C15.7992 6.45355 14.5456 5.19995 12.9992 5.19995C11.7308 5.19995 10.6594 6.04335 10.3152 7.19995H5.68327C5.62785 7.01373 5.55357 6.83563 5.46267 6.66787L6.66714 5.4634C7.06327 5.67806 7.51701 5.79995 7.99922 5.79995C9.54562 5.79995 10.7992 4.54635 10.7992 2.99995C10.7992 1.45355 9.54562 0.199951 7.99922 0.199951ZM9.66648 15.2497C9.22415 14.9316 8.84941 14.5255 8.56792 14.0569C8.39867 14.1482 8.20499 14.2 7.99922 14.2C7.33648 14.2 6.79922 13.6627 6.79922 13C6.79922 12.3372 7.33648 11.8 7.99922 11.8C8.00086 11.8 8.00249 11.8 8.00413 11.8C8.03178 11.2384 8.17524 10.7073 8.41111 10.23C8.27669 10.2102 8.13915 10.2 7.99922 10.2C6.45282 10.2 5.19922 11.4536 5.19922 13C5.19922 14.5463 6.45282 15.8 7.99922 15.8C8.62385 15.8 9.20071 15.5954 9.66648 15.2497ZM1.79922 7.99995C1.79922 7.33721 2.33648 6.79995 2.99922 6.79995C3.66196 6.79995 4.19922 7.33721 4.19922 7.99995C4.19922 8.66269 3.66196 9.19995 2.99922 9.19995C2.33648 9.19995 1.79922 8.66269 1.79922 7.99995Z" fill="black"/>
<rect x="8.80078" y="8.80005" width="6.4" height="6.4" rx="3.2" fill="#FFA436"/>
</svg>
